%TF.GenerationSoftware,KiCad,Pcbnew,9.0.0*%
%TF.CreationDate,2025-03-26T17:32:06+09:00*%
%TF.ProjectId,ergo42_upper_pcb,6572676f-3432-45f7-9570-7065725f7063,1.0.0-alpha*%
%TF.SameCoordinates,Original*%
%TF.FileFunction,Drillmap*%
%TF.FilePolarity,Positive*%
%FSLAX45Y45*%
G04 Gerber Fmt 4.5, Leading zero omitted, Abs format (unit mm)*
G04 Created by KiCad (PCBNEW 9.0.0) date 2025-03-26 17:32:06*
%MOMM*%
%LPD*%
G01*
G04 APERTURE LIST*
%ADD10C,0.150000*%
%ADD11C,0.200000*%
G04 APERTURE END LIST*
D10*
X21018500Y-6667500D02*
X20700000Y-6350000D01*
X21018500Y-6667500D02*
X21018500Y-13970000D01*
X20700000Y-6350000D02*
X7556500Y-6350000D01*
X7429500Y-13970000D02*
X7429500Y-6477000D01*
X20891500Y-14097000D02*
X7556500Y-14097000D01*
X7556500Y-14097000D02*
X7429500Y-13970000D01*
X7556500Y-6350000D02*
X7429500Y-6477000D01*
X21018500Y-13970000D02*
X20891500Y-14097000D01*
D11*
X7745500Y-9921000D02*
X7745500Y-8621000D01*
X7795500Y-8571000D02*
X9095500Y-8571000D01*
X9095500Y-9971000D02*
X7795500Y-9971000D01*
X9145500Y-8621000D02*
X9145500Y-9921000D01*
X7745500Y-8621000D02*
G75*
G02*
X7795500Y-8571000I50000J0D01*
G01*
X7795500Y-9971000D02*
G75*
G02*
X7745500Y-9921000I0J50000D01*
G01*
X9095500Y-8571000D02*
G75*
G02*
X9145500Y-8621000I0J-50000D01*
G01*
X9145500Y-9921000D02*
G75*
G02*
X9095500Y-9971000I-50000J0D01*
G01*
X7745500Y-13731000D02*
X7745500Y-12431000D01*
X7795500Y-12381000D02*
X9095500Y-12381000D01*
X9095500Y-13781000D02*
X7795500Y-13781000D01*
X9145500Y-12431000D02*
X9145500Y-13731000D01*
X7745500Y-12431000D02*
G75*
G02*
X7795500Y-12381000I50000J0D01*
G01*
X7795500Y-13781000D02*
G75*
G02*
X7745500Y-13731000I0J50000D01*
G01*
X9095500Y-12381000D02*
G75*
G02*
X9145500Y-12431000I0J-50000D01*
G01*
X9145500Y-13731000D02*
G75*
G02*
X9095500Y-13781000I-50000J0D01*
G01*
X17270500Y-9921000D02*
X17270500Y-8621000D01*
X17320500Y-8571000D02*
X18620500Y-8571000D01*
X18620500Y-9971000D02*
X17320500Y-9971000D01*
X18670500Y-8621000D02*
X18670500Y-9921000D01*
X17270500Y-8621000D02*
G75*
G02*
X17320500Y-8571000I50000J0D01*
G01*
X17320500Y-9971000D02*
G75*
G02*
X17270500Y-9921000I0J50000D01*
G01*
X18620500Y-8571000D02*
G75*
G02*
X18670500Y-8621000I0J-50000D01*
G01*
X18670500Y-9921000D02*
G75*
G02*
X18620500Y-9971000I-50000J0D01*
G01*
X9650500Y-11826000D02*
X9650500Y-10526000D01*
X9700500Y-10476000D02*
X11000500Y-10476000D01*
X11000500Y-11876000D02*
X9700500Y-11876000D01*
X11050500Y-10526000D02*
X11050500Y-11826000D01*
X9650500Y-10526000D02*
G75*
G02*
X9700500Y-10476000I50000J0D01*
G01*
X9700500Y-11876000D02*
G75*
G02*
X9650500Y-11826000I0J50000D01*
G01*
X11000500Y-10476000D02*
G75*
G02*
X11050500Y-10526000I0J-50000D01*
G01*
X11050500Y-11826000D02*
G75*
G02*
X11000500Y-11876000I-50000J0D01*
G01*
X13460500Y-8016000D02*
X13460500Y-6716000D01*
X13510500Y-6666000D02*
X14810500Y-6666000D01*
X14810500Y-8066000D02*
X13510500Y-8066000D01*
X14860500Y-6716000D02*
X14860500Y-8016000D01*
X13460500Y-6716000D02*
G75*
G02*
X13510500Y-6666000I50000J0D01*
G01*
X13510500Y-8066000D02*
G75*
G02*
X13460500Y-8016000I0J50000D01*
G01*
X14810500Y-6666000D02*
G75*
G02*
X14860500Y-6716000I0J-50000D01*
G01*
X14860500Y-8016000D02*
G75*
G02*
X14810500Y-8066000I-50000J0D01*
G01*
X17270500Y-11826000D02*
X17270500Y-10526000D01*
X17320500Y-10476000D02*
X18620500Y-10476000D01*
X18620500Y-11876000D02*
X17320500Y-11876000D01*
X18670500Y-10526000D02*
X18670500Y-11826000D01*
X17270500Y-10526000D02*
G75*
G02*
X17320500Y-10476000I50000J0D01*
G01*
X17320500Y-11876000D02*
G75*
G02*
X17270500Y-11826000I0J50000D01*
G01*
X18620500Y-10476000D02*
G75*
G02*
X18670500Y-10526000I0J-50000D01*
G01*
X18670500Y-11826000D02*
G75*
G02*
X18620500Y-11876000I-50000J0D01*
G01*
X17270500Y-13731000D02*
X17270500Y-12431000D01*
X17320500Y-12381000D02*
X18620500Y-12381000D01*
X18620500Y-13781000D02*
X17320500Y-13781000D01*
X18670500Y-12431000D02*
X18670500Y-13731000D01*
X17270500Y-12431000D02*
G75*
G02*
X17320500Y-12381000I50000J0D01*
G01*
X17320500Y-13781000D02*
G75*
G02*
X17270500Y-13731000I0J50000D01*
G01*
X18620500Y-12381000D02*
G75*
G02*
X18670500Y-12431000I0J-50000D01*
G01*
X18670500Y-13731000D02*
G75*
G02*
X18620500Y-13781000I-50000J0D01*
G01*
X17270500Y-8016000D02*
X17270500Y-6716000D01*
X17320500Y-6666000D02*
X18620500Y-6666000D01*
X18620500Y-8066000D02*
X17320500Y-8066000D01*
X18670500Y-6716000D02*
X18670500Y-8016000D01*
X17270500Y-6716000D02*
G75*
G02*
X17320500Y-6666000I50000J0D01*
G01*
X17320500Y-8066000D02*
G75*
G02*
X17270500Y-8016000I0J50000D01*
G01*
X18620500Y-6666000D02*
G75*
G02*
X18670500Y-6716000I0J-50000D01*
G01*
X18670500Y-8016000D02*
G75*
G02*
X18620500Y-8066000I-50000J0D01*
G01*
X7745500Y-8016000D02*
X7745500Y-6716000D01*
X7795500Y-6666000D02*
X9095500Y-6666000D01*
X9095500Y-8066000D02*
X7795500Y-8066000D01*
X9145500Y-6716000D02*
X9145500Y-8016000D01*
X7745500Y-6716000D02*
G75*
G02*
X7795500Y-6666000I50000J0D01*
G01*
X7795500Y-8066000D02*
G75*
G02*
X7745500Y-8016000I0J50000D01*
G01*
X9095500Y-6666000D02*
G75*
G02*
X9145500Y-6716000I0J-50000D01*
G01*
X9145500Y-8016000D02*
G75*
G02*
X9095500Y-8066000I-50000J0D01*
G01*
X11555500Y-8016000D02*
X11555500Y-6716000D01*
X11605500Y-6666000D02*
X12905500Y-6666000D01*
X12905500Y-8066000D02*
X11605500Y-8066000D01*
X12955500Y-6716000D02*
X12955500Y-8016000D01*
X11555500Y-6716000D02*
G75*
G02*
X11605500Y-6666000I50000J0D01*
G01*
X11605500Y-8066000D02*
G75*
G02*
X11555500Y-8016000I0J50000D01*
G01*
X12905500Y-6666000D02*
G75*
G02*
X12955500Y-6716000I0J-50000D01*
G01*
X12955500Y-8016000D02*
G75*
G02*
X12905500Y-8066000I-50000J0D01*
G01*
X7745500Y-11826000D02*
X7745500Y-10526000D01*
X7795500Y-10476000D02*
X9095500Y-10476000D01*
X9095500Y-11876000D02*
X7795500Y-11876000D01*
X9145500Y-10526000D02*
X9145500Y-11826000D01*
X7745500Y-10526000D02*
G75*
G02*
X7795500Y-10476000I50000J0D01*
G01*
X7795500Y-11876000D02*
G75*
G02*
X7745500Y-11826000I0J50000D01*
G01*
X9095500Y-10476000D02*
G75*
G02*
X9145500Y-10526000I0J-50000D01*
G01*
X9145500Y-11826000D02*
G75*
G02*
X9095500Y-11876000I-50000J0D01*
G01*
X13460500Y-9921000D02*
X13460500Y-8621000D01*
X13510500Y-8571000D02*
X14810500Y-8571000D01*
X14810500Y-9971000D02*
X13510500Y-9971000D01*
X14860500Y-8621000D02*
X14860500Y-9921000D01*
X13460500Y-8621000D02*
G75*
G02*
X13510500Y-8571000I50000J0D01*
G01*
X13510500Y-9971000D02*
G75*
G02*
X13460500Y-9921000I0J50000D01*
G01*
X14810500Y-8571000D02*
G75*
G02*
X14860500Y-8621000I0J-50000D01*
G01*
X14860500Y-9921000D02*
G75*
G02*
X14810500Y-9971000I-50000J0D01*
G01*
X11555500Y-13731000D02*
X11555500Y-12431000D01*
X11605500Y-12381000D02*
X12905500Y-12381000D01*
X12905500Y-13781000D02*
X11605500Y-13781000D01*
X12955500Y-12431000D02*
X12955500Y-13731000D01*
X11555500Y-12431000D02*
G75*
G02*
X11605500Y-12381000I50000J0D01*
G01*
X11605500Y-13781000D02*
G75*
G02*
X11555500Y-13731000I0J50000D01*
G01*
X12905500Y-12381000D02*
G75*
G02*
X12955500Y-12431000I0J-50000D01*
G01*
X12955500Y-13731000D02*
G75*
G02*
X12905500Y-13781000I-50000J0D01*
G01*
X11555500Y-9921000D02*
X11555500Y-8621000D01*
X11605500Y-8571000D02*
X12905500Y-8571000D01*
X12905500Y-9971000D02*
X11605500Y-9971000D01*
X12955500Y-8621000D02*
X12955500Y-9921000D01*
X11555500Y-8621000D02*
G75*
G02*
X11605500Y-8571000I50000J0D01*
G01*
X11605500Y-9971000D02*
G75*
G02*
X11555500Y-9921000I0J50000D01*
G01*
X12905500Y-8571000D02*
G75*
G02*
X12955500Y-8621000I0J-50000D01*
G01*
X12955500Y-9921000D02*
G75*
G02*
X12905500Y-9971000I-50000J0D01*
G01*
X15365500Y-9921000D02*
X15365500Y-8621000D01*
X15415500Y-8571000D02*
X16715500Y-8571000D01*
X16715500Y-9971000D02*
X15415500Y-9971000D01*
X16765500Y-8621000D02*
X16765500Y-9921000D01*
X15365500Y-8621000D02*
G75*
G02*
X15415500Y-8571000I50000J0D01*
G01*
X15415500Y-9971000D02*
G75*
G02*
X15365500Y-9921000I0J50000D01*
G01*
X16715500Y-8571000D02*
G75*
G02*
X16765500Y-8621000I0J-50000D01*
G01*
X16765500Y-9921000D02*
G75*
G02*
X16715500Y-9971000I-50000J0D01*
G01*
X13460500Y-13731000D02*
X13460500Y-12431000D01*
X13510500Y-12381000D02*
X14810500Y-12381000D01*
X14810500Y-13781000D02*
X13510500Y-13781000D01*
X14860500Y-12431000D02*
X14860500Y-13731000D01*
X13460500Y-12431000D02*
G75*
G02*
X13510500Y-12381000I50000J0D01*
G01*
X13510500Y-13781000D02*
G75*
G02*
X13460500Y-13731000I0J50000D01*
G01*
X14810500Y-12381000D02*
G75*
G02*
X14860500Y-12431000I0J-50000D01*
G01*
X14860500Y-13731000D02*
G75*
G02*
X14810500Y-13781000I-50000J0D01*
G01*
X19175500Y-8016000D02*
X19175500Y-6716000D01*
X19225500Y-6666000D02*
X20525500Y-6666000D01*
X20525500Y-8066000D02*
X19225500Y-8066000D01*
X20575500Y-6716000D02*
X20575500Y-8016000D01*
X19175500Y-6716000D02*
G75*
G02*
X19225500Y-6666000I50000J0D01*
G01*
X19225500Y-8066000D02*
G75*
G02*
X19175500Y-8016000I0J50000D01*
G01*
X20525500Y-6666000D02*
G75*
G02*
X20575500Y-6716000I0J-50000D01*
G01*
X20575500Y-8016000D02*
G75*
G02*
X20525500Y-8066000I-50000J0D01*
G01*
X13460500Y-11826000D02*
X13460500Y-10526000D01*
X13510500Y-10476000D02*
X14810500Y-10476000D01*
X14810500Y-11876000D02*
X13510500Y-11876000D01*
X14860500Y-10526000D02*
X14860500Y-11826000D01*
X13460500Y-10526000D02*
G75*
G02*
X13510500Y-10476000I50000J0D01*
G01*
X13510500Y-11876000D02*
G75*
G02*
X13460500Y-11826000I0J50000D01*
G01*
X14810500Y-10476000D02*
G75*
G02*
X14860500Y-10526000I0J-50000D01*
G01*
X14860500Y-11826000D02*
G75*
G02*
X14810500Y-11876000I-50000J0D01*
G01*
X19175500Y-11826000D02*
X19175500Y-10526000D01*
X19225500Y-10476000D02*
X20525500Y-10476000D01*
X20525500Y-11876000D02*
X19225500Y-11876000D01*
X20575500Y-10526000D02*
X20575500Y-11826000D01*
X19175500Y-10526000D02*
G75*
G02*
X19225500Y-10476000I50000J0D01*
G01*
X19225500Y-11876000D02*
G75*
G02*
X19175500Y-11826000I0J50000D01*
G01*
X20525500Y-10476000D02*
G75*
G02*
X20575500Y-10526000I0J-50000D01*
G01*
X20575500Y-11826000D02*
G75*
G02*
X20525500Y-11876000I-50000J0D01*
G01*
X9650500Y-8016000D02*
X9650500Y-6716000D01*
X9700500Y-6666000D02*
X11000500Y-6666000D01*
X11000500Y-8066000D02*
X9700500Y-8066000D01*
X11050500Y-6716000D02*
X11050500Y-8016000D01*
X9650500Y-6716000D02*
G75*
G02*
X9700500Y-6666000I50000J0D01*
G01*
X9700500Y-8066000D02*
G75*
G02*
X9650500Y-8016000I0J50000D01*
G01*
X11000500Y-6666000D02*
G75*
G02*
X11050500Y-6716000I0J-50000D01*
G01*
X11050500Y-8016000D02*
G75*
G02*
X11000500Y-8066000I-50000J0D01*
G01*
X15365500Y-13731000D02*
X15365500Y-12431000D01*
X15415500Y-12381000D02*
X16715500Y-12381000D01*
X16715500Y-13781000D02*
X15415500Y-13781000D01*
X16765500Y-12431000D02*
X16765500Y-13731000D01*
X15365500Y-12431000D02*
G75*
G02*
X15415500Y-12381000I50000J0D01*
G01*
X15415500Y-13781000D02*
G75*
G02*
X15365500Y-13731000I0J50000D01*
G01*
X16715500Y-12381000D02*
G75*
G02*
X16765500Y-12431000I0J-50000D01*
G01*
X16765500Y-13731000D02*
G75*
G02*
X16715500Y-13781000I-50000J0D01*
G01*
X11555500Y-11826000D02*
X11555500Y-10526000D01*
X11605500Y-10476000D02*
X12905500Y-10476000D01*
X12905500Y-11876000D02*
X11605500Y-11876000D01*
X12955500Y-10526000D02*
X12955500Y-11826000D01*
X11555500Y-10526000D02*
G75*
G02*
X11605500Y-10476000I50000J0D01*
G01*
X11605500Y-11876000D02*
G75*
G02*
X11555500Y-11826000I0J50000D01*
G01*
X12905500Y-10476000D02*
G75*
G02*
X12955500Y-10526000I0J-50000D01*
G01*
X12955500Y-11826000D02*
G75*
G02*
X12905500Y-11876000I-50000J0D01*
G01*
X19175500Y-9921000D02*
X19175500Y-8621000D01*
X19225500Y-8571000D02*
X20525500Y-8571000D01*
X20525500Y-9971000D02*
X19225500Y-9971000D01*
X20575500Y-8621000D02*
X20575500Y-9921000D01*
X19175500Y-8621000D02*
G75*
G02*
X19225500Y-8571000I50000J0D01*
G01*
X19225500Y-9971000D02*
G75*
G02*
X19175500Y-9921000I0J50000D01*
G01*
X20525500Y-8571000D02*
G75*
G02*
X20575500Y-8621000I0J-50000D01*
G01*
X20575500Y-9921000D02*
G75*
G02*
X20525500Y-9971000I-50000J0D01*
G01*
X19175500Y-13731000D02*
X19175500Y-12431000D01*
X19225500Y-12381000D02*
X20525500Y-12381000D01*
X20525500Y-13781000D02*
X19225500Y-13781000D01*
X20575500Y-12431000D02*
X20575500Y-13731000D01*
X19175500Y-12431000D02*
G75*
G02*
X19225500Y-12381000I50000J0D01*
G01*
X19225500Y-13781000D02*
G75*
G02*
X19175500Y-13731000I0J50000D01*
G01*
X20525500Y-12381000D02*
G75*
G02*
X20575500Y-12431000I0J-50000D01*
G01*
X20575500Y-13731000D02*
G75*
G02*
X20525500Y-13781000I-50000J0D01*
G01*
X15365500Y-8016000D02*
X15365500Y-6716000D01*
X15415500Y-6666000D02*
X16715500Y-6666000D01*
X16715500Y-8066000D02*
X15415500Y-8066000D01*
X16765500Y-6716000D02*
X16765500Y-8016000D01*
X15365500Y-6716000D02*
G75*
G02*
X15415500Y-6666000I50000J0D01*
G01*
X15415500Y-8066000D02*
G75*
G02*
X15365500Y-8016000I0J50000D01*
G01*
X16715500Y-6666000D02*
G75*
G02*
X16765500Y-6716000I0J-50000D01*
G01*
X16765500Y-8016000D02*
G75*
G02*
X16715500Y-8066000I-50000J0D01*
G01*
X9650500Y-9921000D02*
X9650500Y-8621000D01*
X9700500Y-8571000D02*
X11000500Y-8571000D01*
X11000500Y-9971000D02*
X9700500Y-9971000D01*
X11050500Y-8621000D02*
X11050500Y-9921000D01*
X9650500Y-8621000D02*
G75*
G02*
X9700500Y-8571000I50000J0D01*
G01*
X9700500Y-9971000D02*
G75*
G02*
X9650500Y-9921000I0J50000D01*
G01*
X11000500Y-8571000D02*
G75*
G02*
X11050500Y-8621000I0J-50000D01*
G01*
X11050500Y-9921000D02*
G75*
G02*
X11000500Y-9971000I-50000J0D01*
G01*
X15365500Y-11826000D02*
X15365500Y-10526000D01*
X15415500Y-10476000D02*
X16715500Y-10476000D01*
X16715500Y-11876000D02*
X15415500Y-11876000D01*
X16765500Y-10526000D02*
X16765500Y-11826000D01*
X15365500Y-10526000D02*
G75*
G02*
X15415500Y-10476000I50000J0D01*
G01*
X15415500Y-11876000D02*
G75*
G02*
X15365500Y-11826000I0J50000D01*
G01*
X16715500Y-10476000D02*
G75*
G02*
X16765500Y-10526000I0J-50000D01*
G01*
X16765500Y-11826000D02*
G75*
G02*
X16715500Y-11876000I-50000J0D01*
G01*
X9650500Y-13731000D02*
X9650500Y-12431000D01*
X9700500Y-12381000D02*
X11000500Y-12381000D01*
X11000500Y-13781000D02*
X9700500Y-13781000D01*
X11050500Y-12431000D02*
X11050500Y-13731000D01*
X9650500Y-12431000D02*
G75*
G02*
X9700500Y-12381000I50000J0D01*
G01*
X9700500Y-13781000D02*
G75*
G02*
X9650500Y-13731000I0J50000D01*
G01*
X11000500Y-12381000D02*
G75*
G02*
X11050500Y-12431000I0J-50000D01*
G01*
X11050500Y-13731000D02*
G75*
G02*
X11000500Y-13781000I-50000J0D01*
G01*
X7682777Y-14415984D02*
X7682777Y-14215984D01*
X7682777Y-14215984D02*
X7730396Y-14215984D01*
X7730396Y-14215984D02*
X7758967Y-14225508D01*
X7758967Y-14225508D02*
X7778015Y-14244555D01*
X7778015Y-14244555D02*
X7787539Y-14263603D01*
X7787539Y-14263603D02*
X7797062Y-14301698D01*
X7797062Y-14301698D02*
X7797062Y-14330269D01*
X7797062Y-14330269D02*
X7787539Y-14368365D01*
X7787539Y-14368365D02*
X7778015Y-14387412D01*
X7778015Y-14387412D02*
X7758967Y-14406460D01*
X7758967Y-14406460D02*
X7730396Y-14415984D01*
X7730396Y-14415984D02*
X7682777Y-14415984D01*
X7882777Y-14415984D02*
X7882777Y-14282650D01*
X7882777Y-14320746D02*
X7892301Y-14301698D01*
X7892301Y-14301698D02*
X7901824Y-14292174D01*
X7901824Y-14292174D02*
X7920872Y-14282650D01*
X7920872Y-14282650D02*
X7939920Y-14282650D01*
X8006586Y-14415984D02*
X8006586Y-14282650D01*
X8006586Y-14215984D02*
X7997062Y-14225508D01*
X7997062Y-14225508D02*
X8006586Y-14235031D01*
X8006586Y-14235031D02*
X8016110Y-14225508D01*
X8016110Y-14225508D02*
X8006586Y-14215984D01*
X8006586Y-14215984D02*
X8006586Y-14235031D01*
X8130396Y-14415984D02*
X8111348Y-14406460D01*
X8111348Y-14406460D02*
X8101824Y-14387412D01*
X8101824Y-14387412D02*
X8101824Y-14215984D01*
X8235158Y-14415984D02*
X8216110Y-14406460D01*
X8216110Y-14406460D02*
X8206586Y-14387412D01*
X8206586Y-14387412D02*
X8206586Y-14215984D01*
X8463729Y-14415984D02*
X8463729Y-14215984D01*
X8463729Y-14215984D02*
X8530396Y-14358841D01*
X8530396Y-14358841D02*
X8597063Y-14215984D01*
X8597063Y-14215984D02*
X8597063Y-14415984D01*
X8778015Y-14415984D02*
X8778015Y-14311222D01*
X8778015Y-14311222D02*
X8768491Y-14292174D01*
X8768491Y-14292174D02*
X8749444Y-14282650D01*
X8749444Y-14282650D02*
X8711348Y-14282650D01*
X8711348Y-14282650D02*
X8692301Y-14292174D01*
X8778015Y-14406460D02*
X8758967Y-14415984D01*
X8758967Y-14415984D02*
X8711348Y-14415984D01*
X8711348Y-14415984D02*
X8692301Y-14406460D01*
X8692301Y-14406460D02*
X8682777Y-14387412D01*
X8682777Y-14387412D02*
X8682777Y-14368365D01*
X8682777Y-14368365D02*
X8692301Y-14349317D01*
X8692301Y-14349317D02*
X8711348Y-14339793D01*
X8711348Y-14339793D02*
X8758967Y-14339793D01*
X8758967Y-14339793D02*
X8778015Y-14330269D01*
X8873253Y-14282650D02*
X8873253Y-14482650D01*
X8873253Y-14292174D02*
X8892301Y-14282650D01*
X8892301Y-14282650D02*
X8930396Y-14282650D01*
X8930396Y-14282650D02*
X8949444Y-14292174D01*
X8949444Y-14292174D02*
X8958967Y-14301698D01*
X8958967Y-14301698D02*
X8968491Y-14320746D01*
X8968491Y-14320746D02*
X8968491Y-14377888D01*
X8968491Y-14377888D02*
X8958967Y-14396936D01*
X8958967Y-14396936D02*
X8949444Y-14406460D01*
X8949444Y-14406460D02*
X8930396Y-14415984D01*
X8930396Y-14415984D02*
X8892301Y-14415984D01*
X8892301Y-14415984D02*
X8873253Y-14406460D01*
X9054205Y-14396936D02*
X9063729Y-14406460D01*
X9063729Y-14406460D02*
X9054205Y-14415984D01*
X9054205Y-14415984D02*
X9044682Y-14406460D01*
X9044682Y-14406460D02*
X9054205Y-14396936D01*
X9054205Y-14396936D02*
X9054205Y-14415984D01*
X9054205Y-14292174D02*
X9063729Y-14301698D01*
X9063729Y-14301698D02*
X9054205Y-14311222D01*
X9054205Y-14311222D02*
X9044682Y-14301698D01*
X9044682Y-14301698D02*
X9054205Y-14292174D01*
X9054205Y-14292174D02*
X9054205Y-14311222D01*
M02*
