G04 #@! TF.GenerationSoftware,KiCad,Pcbnew,9.0.0*
G04 #@! TF.CreationDate,2025-03-26T17:32:02+09:00*
G04 #@! TF.ProjectId,ergo42_upper_pcb,6572676f-3432-45f7-9570-7065725f7063,1.0.0-alpha*
G04 #@! TF.SameCoordinates,Original*
G04 #@! TF.FileFunction,Soldermask,Top*
G04 #@! TF.FilePolarity,Negative*
%FSLAX46Y46*%
G04 Gerber Fmt 4.6, Leading zero omitted, Abs format (unit mm)*
G04 Created by KiCad (PCBNEW 9.0.0) date 2025-03-26 17:32:02*
%MOMM*%
%LPD*%
G01*
G04 APERTURE LIST*
G04 APERTURE END LIST*
G36*
X94382015Y-118918910D02*
G01*
X94644405Y-118978798D01*
X94898440Y-119067689D01*
X95140925Y-119184464D01*
X95368811Y-119327654D01*
X95579232Y-119495459D01*
X95769541Y-119685768D01*
X95937346Y-119896189D01*
X96080536Y-120124075D01*
X96197311Y-120366560D01*
X96286202Y-120620595D01*
X96346090Y-120882985D01*
X96376224Y-121150431D01*
X96376224Y-121419569D01*
X96346090Y-121687015D01*
X96286202Y-121949405D01*
X96197311Y-122203440D01*
X96080536Y-122445925D01*
X95937346Y-122673811D01*
X95769541Y-122884232D01*
X95579232Y-123074541D01*
X95368811Y-123242346D01*
X95140925Y-123385536D01*
X94898440Y-123502311D01*
X94644405Y-123591202D01*
X94382015Y-123651090D01*
X94114569Y-123681224D01*
X93845431Y-123681224D01*
X93577985Y-123651090D01*
X93315595Y-123591202D01*
X93061560Y-123502311D01*
X92819075Y-123385536D01*
X92591189Y-123242346D01*
X92380768Y-123074541D01*
X92190459Y-122884232D01*
X92022654Y-122673811D01*
X91879464Y-122445925D01*
X91762689Y-122203440D01*
X91673798Y-121949405D01*
X91613910Y-121687015D01*
X91583776Y-121419569D01*
X91583776Y-121150431D01*
X91613910Y-120882985D01*
X91673798Y-120620595D01*
X91762689Y-120366560D01*
X91879464Y-120124075D01*
X92022654Y-119896189D01*
X92190459Y-119685768D01*
X92380768Y-119495459D01*
X92591189Y-119327654D01*
X92819075Y-119184464D01*
X93061560Y-119067689D01*
X93315595Y-118978798D01*
X93577985Y-118918910D01*
X93845431Y-118888776D01*
X94114569Y-118888776D01*
X94382015Y-118918910D01*
G37*
G36*
X189632015Y-118918910D02*
G01*
X189894405Y-118978798D01*
X190148440Y-119067689D01*
X190390925Y-119184464D01*
X190618811Y-119327654D01*
X190829232Y-119495459D01*
X191019541Y-119685768D01*
X191187346Y-119896189D01*
X191330536Y-120124075D01*
X191447311Y-120366560D01*
X191536202Y-120620595D01*
X191596090Y-120882985D01*
X191626224Y-121150431D01*
X191626224Y-121419569D01*
X191596090Y-121687015D01*
X191536202Y-121949405D01*
X191447311Y-122203440D01*
X191330536Y-122445925D01*
X191187346Y-122673811D01*
X191019541Y-122884232D01*
X190829232Y-123074541D01*
X190618811Y-123242346D01*
X190390925Y-123385536D01*
X190148440Y-123502311D01*
X189894405Y-123591202D01*
X189632015Y-123651090D01*
X189364569Y-123681224D01*
X189095431Y-123681224D01*
X188827985Y-123651090D01*
X188565595Y-123591202D01*
X188311560Y-123502311D01*
X188069075Y-123385536D01*
X187841189Y-123242346D01*
X187630768Y-123074541D01*
X187440459Y-122884232D01*
X187272654Y-122673811D01*
X187129464Y-122445925D01*
X187012689Y-122203440D01*
X186923798Y-121949405D01*
X186863910Y-121687015D01*
X186833776Y-121419569D01*
X186833776Y-121150431D01*
X186863910Y-120882985D01*
X186923798Y-120620595D01*
X187012689Y-120366560D01*
X187129464Y-120124075D01*
X187272654Y-119896189D01*
X187440459Y-119685768D01*
X187630768Y-119495459D01*
X187841189Y-119327654D01*
X188069075Y-119184464D01*
X188311560Y-119067689D01*
X188565595Y-118978798D01*
X188827985Y-118918910D01*
X189095431Y-118888776D01*
X189364569Y-118888776D01*
X189632015Y-118918910D01*
G37*
G36*
X132482015Y-99868910D02*
G01*
X132744405Y-99928798D01*
X132998440Y-100017689D01*
X133240925Y-100134464D01*
X133468811Y-100277654D01*
X133679232Y-100445459D01*
X133869541Y-100635768D01*
X134037346Y-100846189D01*
X134180536Y-101074075D01*
X134297311Y-101316560D01*
X134386202Y-101570595D01*
X134446090Y-101832985D01*
X134476224Y-102100431D01*
X134476224Y-102369569D01*
X134446090Y-102637015D01*
X134386202Y-102899405D01*
X134297311Y-103153440D01*
X134180536Y-103395925D01*
X134037346Y-103623811D01*
X133869541Y-103834232D01*
X133679232Y-104024541D01*
X133468811Y-104192346D01*
X133240925Y-104335536D01*
X132998440Y-104452311D01*
X132744405Y-104541202D01*
X132482015Y-104601090D01*
X132214569Y-104631224D01*
X131945431Y-104631224D01*
X131677985Y-104601090D01*
X131415595Y-104541202D01*
X131161560Y-104452311D01*
X130919075Y-104335536D01*
X130691189Y-104192346D01*
X130480768Y-104024541D01*
X130290459Y-103834232D01*
X130122654Y-103623811D01*
X129979464Y-103395925D01*
X129862689Y-103153440D01*
X129773798Y-102899405D01*
X129713910Y-102637015D01*
X129683776Y-102369569D01*
X129683776Y-102100431D01*
X129713910Y-101832985D01*
X129773798Y-101570595D01*
X129862689Y-101316560D01*
X129979464Y-101074075D01*
X130122654Y-100846189D01*
X130290459Y-100635768D01*
X130480768Y-100445459D01*
X130691189Y-100277654D01*
X130919075Y-100134464D01*
X131161560Y-100017689D01*
X131415595Y-99928798D01*
X131677985Y-99868910D01*
X131945431Y-99838776D01*
X132214569Y-99838776D01*
X132482015Y-99868910D01*
G37*
G36*
X94382015Y-80818910D02*
G01*
X94644405Y-80878798D01*
X94898440Y-80967689D01*
X95140925Y-81084464D01*
X95368811Y-81227654D01*
X95579232Y-81395459D01*
X95769541Y-81585768D01*
X95937346Y-81796189D01*
X96080536Y-82024075D01*
X96197311Y-82266560D01*
X96286202Y-82520595D01*
X96346090Y-82782985D01*
X96376224Y-83050431D01*
X96376224Y-83319569D01*
X96346090Y-83587015D01*
X96286202Y-83849405D01*
X96197311Y-84103440D01*
X96080536Y-84345925D01*
X95937346Y-84573811D01*
X95769541Y-84784232D01*
X95579232Y-84974541D01*
X95368811Y-85142346D01*
X95140925Y-85285536D01*
X94898440Y-85402311D01*
X94644405Y-85491202D01*
X94382015Y-85551090D01*
X94114569Y-85581224D01*
X93845431Y-85581224D01*
X93577985Y-85551090D01*
X93315595Y-85491202D01*
X93061560Y-85402311D01*
X92819075Y-85285536D01*
X92591189Y-85142346D01*
X92380768Y-84974541D01*
X92190459Y-84784232D01*
X92022654Y-84573811D01*
X91879464Y-84345925D01*
X91762689Y-84103440D01*
X91673798Y-83849405D01*
X91613910Y-83587015D01*
X91583776Y-83319569D01*
X91583776Y-83050431D01*
X91613910Y-82782985D01*
X91673798Y-82520595D01*
X91762689Y-82266560D01*
X91879464Y-82024075D01*
X92022654Y-81796189D01*
X92190459Y-81585768D01*
X92380768Y-81395459D01*
X92591189Y-81227654D01*
X92819075Y-81084464D01*
X93061560Y-80967689D01*
X93315595Y-80878798D01*
X93577985Y-80818910D01*
X93845431Y-80788776D01*
X94114569Y-80788776D01*
X94382015Y-80818910D01*
G37*
G36*
X189632015Y-80818910D02*
G01*
X189894405Y-80878798D01*
X190148440Y-80967689D01*
X190390925Y-81084464D01*
X190618811Y-81227654D01*
X190829232Y-81395459D01*
X191019541Y-81585768D01*
X191187346Y-81796189D01*
X191330536Y-82024075D01*
X191447311Y-82266560D01*
X191536202Y-82520595D01*
X191596090Y-82782985D01*
X191626224Y-83050431D01*
X191626224Y-83319569D01*
X191596090Y-83587015D01*
X191536202Y-83849405D01*
X191447311Y-84103440D01*
X191330536Y-84345925D01*
X191187346Y-84573811D01*
X191019541Y-84784232D01*
X190829232Y-84974541D01*
X190618811Y-85142346D01*
X190390925Y-85285536D01*
X190148440Y-85402311D01*
X189894405Y-85491202D01*
X189632015Y-85551090D01*
X189364569Y-85581224D01*
X189095431Y-85581224D01*
X188827985Y-85551090D01*
X188565595Y-85491202D01*
X188311560Y-85402311D01*
X188069075Y-85285536D01*
X187841189Y-85142346D01*
X187630768Y-84974541D01*
X187440459Y-84784232D01*
X187272654Y-84573811D01*
X187129464Y-84345925D01*
X187012689Y-84103440D01*
X186923798Y-83849405D01*
X186863910Y-83587015D01*
X186833776Y-83319569D01*
X186833776Y-83050431D01*
X186863910Y-82782985D01*
X186923798Y-82520595D01*
X187012689Y-82266560D01*
X187129464Y-82024075D01*
X187272654Y-81796189D01*
X187440459Y-81585768D01*
X187630768Y-81395459D01*
X187841189Y-81227654D01*
X188069075Y-81084464D01*
X188311560Y-80967689D01*
X188565595Y-80878798D01*
X188827985Y-80818910D01*
X189095431Y-80788776D01*
X189364569Y-80788776D01*
X189632015Y-80818910D01*
G37*
M02*
