M48
; DRILL file {KiCad 8.0.8} date 2025-02-05T15:42:48+0900
; FORMAT={-:-/ absolute / metric / decimal}
; #@! TF.CreationDate,2025-02-05T15:42:48+09:00
; #@! TF.GenerationSoftware,Kicad,Pcbnew,8.0.8
; #@! TF.FileFunction,Plated,1,2,PTH
FMAT,2
METRIC
; #@! TA.AperFunction,Plated,PTH,ViaDrill
T1C0.400
; #@! TA.AperFunction,Plated,PTH,ComponentDrill
T2C0.400
; #@! TA.AperFunction,Plated,PTH,ComponentDrill
T3C0.500
; #@! TA.AperFunction,Plated,PTH,ComponentDrill
T4C0.762
; #@! TA.AperFunction,Plated,PTH,ComponentDrill
T5C0.800
; #@! TA.AperFunction,Plated,PTH,ComponentDrill
T6C0.820
; #@! TA.AperFunction,Plated,PTH,ComponentDrill
T7C1.092
%
G90
G05
T1
X2.655Y67.47
X2.655Y47.97
X2.655Y29.47
X2.655Y10.42
X17.705Y67.47
X17.705Y29.47
X18.205Y48.47
X18.205Y9.97
X21.705Y67.47
X21.705Y48.47
X21.705Y29.47
X21.705Y9.97
X36.705Y67.47
X37.205Y48.47
X37.205Y29.47
X37.205Y9.97
X40.755Y67.47
X40.755Y48.47
X40.755Y29.47
X40.755Y9.97
X56.205Y67.47
X56.205Y48.47
X56.205Y29.47
X56.205Y9.97
X59.805Y67.47
X59.805Y48.47
X59.805Y29.47
X59.805Y9.97
X75.205Y67.47
X75.205Y48.47
X75.205Y29.47
X75.205Y9.97
X78.855Y67.47
X78.855Y48.47
X78.855Y29.47
X78.855Y9.97
X83.705Y81.47
X85.205Y90.97
X87.705Y90.97
X90.205Y90.97
X92.705Y90.97
X94.205Y67.47
X94.205Y48.47
X94.205Y29.47
X94.205Y9.97
X95.205Y90.97
X95.205Y80.47
X96.012Y79.163
X97.078Y54.47
X97.705Y90.97
X97.905Y67.47
X97.905Y48.47
X97.905Y29.47
X97.905Y9.97
X99.455Y55.72
X100.205Y90.97
X102.705Y90.97
X105.205Y90.97
X108.205Y90.97
X110.705Y90.97
X113.205Y90.97
X113.205Y67.47
X113.205Y47.97
X113.205Y28.97
X113.205Y9.97
X116.205Y81.47
X116.955Y67.47
X116.955Y48.47
X116.955Y29.47
X116.955Y9.97
X123.205Y80.97
X125.955Y99.22
X132.205Y67.47
X132.705Y47.97
X132.705Y29.47
X132.705Y9.97
T2
X19.705Y70.245
X19.705Y66.695
X19.705Y51.195
X19.705Y47.645
X19.705Y32.145
X19.705Y28.595
X19.705Y13.095
X19.705Y9.545
X38.755Y70.245
X38.755Y66.695
X38.755Y51.195
X38.755Y47.645
X38.755Y32.145
X38.755Y28.595
X38.755Y13.095
X38.755Y9.545
X57.805Y70.245
X57.805Y66.695
X57.805Y51.195
X57.805Y47.645
X57.805Y32.145
X57.805Y28.595
X57.805Y13.095
X57.805Y9.545
X76.855Y70.245
X76.855Y66.695
X76.855Y51.195
X76.855Y47.645
X76.855Y32.145
X76.855Y28.595
X76.855Y13.095
X76.855Y9.545
X95.905Y70.245
X95.905Y66.695
X95.905Y51.195
X95.905Y47.645
X95.905Y32.145
X95.905Y28.595
X95.905Y13.095
X95.905Y9.545
X114.955Y70.245
X114.955Y66.695
X114.955Y51.195
X114.955Y47.645
X114.955Y32.145
X114.955Y28.595
X114.955Y13.095
X114.955Y9.545
X134.005Y70.245
X134.005Y66.695
X134.005Y51.195
X134.005Y47.645
X134.005Y32.145
X134.005Y28.595
X134.005Y13.095
X134.005Y9.545
T3
X113.935Y76.835
X115.935Y76.835
T4
X119.38Y83.185
X124.46Y83.185
T5
X100.33Y76.835
X110.49Y76.835
X119.38Y76.835
X129.54Y76.835
T6
X85.09Y97.79
X85.09Y82.55
X86.36Y99.06
X86.36Y83.82
X87.63Y97.79
X87.63Y82.55
X88.9Y99.06
X88.9Y83.82
X90.17Y97.79
X90.17Y82.55
X91.44Y99.06
X91.44Y83.82
X92.71Y97.79
X92.71Y82.55
X93.98Y99.06
X93.98Y83.82
X95.25Y97.79
X95.25Y82.55
X96.52Y99.06
X96.52Y83.82
X97.79Y97.79
X97.79Y82.55
X99.06Y99.06
X99.06Y83.82
X100.33Y97.79
X100.33Y82.55
X101.6Y99.06
X101.6Y83.82
X102.87Y97.79
X102.87Y82.55
X104.14Y99.06
X104.14Y83.82
X105.41Y97.79
X105.41Y82.55
X106.68Y99.06
X106.68Y83.82
X107.95Y97.79
X107.95Y82.55
X109.22Y99.06
X109.22Y83.82
X110.49Y97.79
X110.49Y82.55
X111.76Y99.06
X111.76Y83.82
X113.03Y97.79
X113.03Y82.55
X114.3Y99.06
X114.3Y83.82
T7
X117.92Y89.165
X121.92Y97.665
X121.92Y94.665
X121.92Y90.665
X125.92Y89.165
M30
