G04 #@! TF.GenerationSoftware,KiCad,Pcbnew,9.0.0*
G04 #@! TF.CreationDate,2025-03-26T17:32:02+09:00*
G04 #@! TF.ProjectId,ergo42_upper_pcb,6572676f-3432-45f7-9570-7065725f7063,1.0.0-alpha*
G04 #@! TF.SameCoordinates,Original*
G04 #@! TF.FileFunction,Profile,NP*
%FSLAX46Y46*%
G04 Gerber Fmt 4.6, Leading zero omitted, Abs format (unit mm)*
G04 Created by KiCad (PCBNEW 9.0.0) date 2025-03-26 17:32:02*
%MOMM*%
%LPD*%
G01*
G04 APERTURE LIST*
G04 #@! TA.AperFunction,Profile*
%ADD10C,0.150000*%
G04 #@! TD*
G04 #@! TA.AperFunction,Profile*
%ADD11C,0.200000*%
G04 #@! TD*
G04 APERTURE END LIST*
D10*
X210185000Y-66675000D02*
X207000000Y-63500000D01*
X210185000Y-66675000D02*
X210185000Y-139700000D01*
X207000000Y-63500000D02*
X75565000Y-63500000D01*
X74295000Y-139700000D02*
X74295000Y-64770000D01*
X208915000Y-140970000D02*
X75565000Y-140970000D01*
X75565000Y-140970000D02*
X74295000Y-139700000D01*
X75565000Y-63500000D02*
X74295000Y-64770000D01*
X210185000Y-139700000D02*
X208915000Y-140970000D01*
D11*
X77455000Y-99210000D02*
X77455000Y-86210000D01*
X77955000Y-85710000D02*
X90955000Y-85710000D01*
X90955000Y-99710000D02*
X77955000Y-99710000D01*
X91455000Y-86210000D02*
X91455000Y-99210000D01*
X77455000Y-86210000D02*
G75*
G02*
X77955000Y-85710000I500001J-1D01*
G01*
X77955000Y-99710000D02*
G75*
G02*
X77455000Y-99210000I1J500001D01*
G01*
X90955000Y-85710000D02*
G75*
G02*
X91455000Y-86210000I0J-500000D01*
G01*
X91455000Y-99210000D02*
G75*
G02*
X90955000Y-99710000I-500000J0D01*
G01*
X77455000Y-137310000D02*
X77455000Y-124310000D01*
X77955000Y-123810000D02*
X90955000Y-123810000D01*
X90955000Y-137810000D02*
X77955000Y-137810000D01*
X91455000Y-124310000D02*
X91455000Y-137310000D01*
X77455000Y-124310000D02*
G75*
G02*
X77955000Y-123810000I500001J-1D01*
G01*
X77955000Y-137810000D02*
G75*
G02*
X77455000Y-137310000I1J500001D01*
G01*
X90955000Y-123810000D02*
G75*
G02*
X91455000Y-124310000I0J-500000D01*
G01*
X91455000Y-137310000D02*
G75*
G02*
X90955000Y-137810000I-500000J0D01*
G01*
X172705000Y-99210000D02*
X172705000Y-86210000D01*
X173205000Y-85710000D02*
X186205000Y-85710000D01*
X186205000Y-99710000D02*
X173205000Y-99710000D01*
X186705000Y-86210000D02*
X186705000Y-99210000D01*
X172705000Y-86210000D02*
G75*
G02*
X173205000Y-85710000I500001J-1D01*
G01*
X173205000Y-99710000D02*
G75*
G02*
X172705000Y-99210000I1J500001D01*
G01*
X186205000Y-85710000D02*
G75*
G02*
X186705000Y-86210000I0J-500000D01*
G01*
X186705000Y-99210000D02*
G75*
G02*
X186205000Y-99710000I-500000J0D01*
G01*
X96505000Y-118260000D02*
X96505000Y-105260000D01*
X97005000Y-104760000D02*
X110005000Y-104760000D01*
X110005000Y-118760000D02*
X97005000Y-118760000D01*
X110505000Y-105260000D02*
X110505000Y-118260000D01*
X96505000Y-105260000D02*
G75*
G02*
X97005000Y-104760000I500001J-1D01*
G01*
X97005000Y-118760000D02*
G75*
G02*
X96505000Y-118260000I1J500001D01*
G01*
X110005000Y-104760000D02*
G75*
G02*
X110505000Y-105260000I0J-500000D01*
G01*
X110505000Y-118260000D02*
G75*
G02*
X110005000Y-118760000I-500000J0D01*
G01*
X134605000Y-80160000D02*
X134605000Y-67160000D01*
X135105000Y-66660000D02*
X148105000Y-66660000D01*
X148105000Y-80660000D02*
X135105000Y-80660000D01*
X148605000Y-67160000D02*
X148605000Y-80160000D01*
X134605000Y-67160000D02*
G75*
G02*
X135105000Y-66660000I500001J-1D01*
G01*
X135105000Y-80660000D02*
G75*
G02*
X134605000Y-80160000I1J500001D01*
G01*
X148105000Y-66660000D02*
G75*
G02*
X148605000Y-67160000I0J-500000D01*
G01*
X148605000Y-80160000D02*
G75*
G02*
X148105000Y-80660000I-500000J0D01*
G01*
X172705000Y-118260000D02*
X172705000Y-105260000D01*
X173205000Y-104760000D02*
X186205000Y-104760000D01*
X186205000Y-118760000D02*
X173205000Y-118760000D01*
X186705000Y-105260000D02*
X186705000Y-118260000D01*
X172705000Y-105260000D02*
G75*
G02*
X173205000Y-104760000I500001J-1D01*
G01*
X173205000Y-118760000D02*
G75*
G02*
X172705000Y-118260000I1J500001D01*
G01*
X186205000Y-104760000D02*
G75*
G02*
X186705000Y-105260000I0J-500000D01*
G01*
X186705000Y-118260000D02*
G75*
G02*
X186205000Y-118760000I-500000J0D01*
G01*
X172705000Y-137310000D02*
X172705000Y-124310000D01*
X173205000Y-123810000D02*
X186205000Y-123810000D01*
X186205000Y-137810000D02*
X173205000Y-137810000D01*
X186705000Y-124310000D02*
X186705000Y-137310000D01*
X172705000Y-124310000D02*
G75*
G02*
X173205000Y-123810000I500001J-1D01*
G01*
X173205000Y-137810000D02*
G75*
G02*
X172705000Y-137310000I1J500001D01*
G01*
X186205000Y-123810000D02*
G75*
G02*
X186705000Y-124310000I0J-500000D01*
G01*
X186705000Y-137310000D02*
G75*
G02*
X186205000Y-137810000I-500000J0D01*
G01*
X172705000Y-80160000D02*
X172705000Y-67160000D01*
X173205000Y-66660000D02*
X186205000Y-66660000D01*
X186205000Y-80660000D02*
X173205000Y-80660000D01*
X186705000Y-67160000D02*
X186705000Y-80160000D01*
X172705000Y-67160000D02*
G75*
G02*
X173205000Y-66660000I500001J-1D01*
G01*
X173205000Y-80660000D02*
G75*
G02*
X172705000Y-80160000I1J500001D01*
G01*
X186205000Y-66660000D02*
G75*
G02*
X186705000Y-67160000I0J-500000D01*
G01*
X186705000Y-80160000D02*
G75*
G02*
X186205000Y-80660000I-500000J0D01*
G01*
X77455000Y-80160000D02*
X77455000Y-67160000D01*
X77955000Y-66660000D02*
X90955000Y-66660000D01*
X90955000Y-80660000D02*
X77955000Y-80660000D01*
X91455000Y-67160000D02*
X91455000Y-80160000D01*
X77455000Y-67160000D02*
G75*
G02*
X77955000Y-66660000I500001J-1D01*
G01*
X77955000Y-80660000D02*
G75*
G02*
X77455000Y-80160000I1J500001D01*
G01*
X90955000Y-66660000D02*
G75*
G02*
X91455000Y-67160000I0J-500000D01*
G01*
X91455000Y-80160000D02*
G75*
G02*
X90955000Y-80660000I-500000J0D01*
G01*
X115555000Y-80160000D02*
X115555000Y-67160000D01*
X116055000Y-66660000D02*
X129055000Y-66660000D01*
X129055000Y-80660000D02*
X116055000Y-80660000D01*
X129555000Y-67160000D02*
X129555000Y-80160000D01*
X115555000Y-67160000D02*
G75*
G02*
X116055000Y-66660000I500001J-1D01*
G01*
X116055000Y-80660000D02*
G75*
G02*
X115555000Y-80160000I1J500001D01*
G01*
X129055000Y-66660000D02*
G75*
G02*
X129555000Y-67160000I0J-500000D01*
G01*
X129555000Y-80160000D02*
G75*
G02*
X129055000Y-80660000I-500000J0D01*
G01*
X77455000Y-118260000D02*
X77455000Y-105260000D01*
X77955000Y-104760000D02*
X90955000Y-104760000D01*
X90955000Y-118760000D02*
X77955000Y-118760000D01*
X91455000Y-105260000D02*
X91455000Y-118260000D01*
X77455000Y-105260000D02*
G75*
G02*
X77955000Y-104760000I500001J-1D01*
G01*
X77955000Y-118760000D02*
G75*
G02*
X77455000Y-118260000I1J500001D01*
G01*
X90955000Y-104760000D02*
G75*
G02*
X91455000Y-105260000I0J-500000D01*
G01*
X91455000Y-118260000D02*
G75*
G02*
X90955000Y-118760000I-500000J0D01*
G01*
X134605000Y-99210000D02*
X134605000Y-86210000D01*
X135105000Y-85710000D02*
X148105000Y-85710000D01*
X148105000Y-99710000D02*
X135105000Y-99710000D01*
X148605000Y-86210000D02*
X148605000Y-99210000D01*
X134605000Y-86210000D02*
G75*
G02*
X135105000Y-85710000I500001J-1D01*
G01*
X135105000Y-99710000D02*
G75*
G02*
X134605000Y-99210000I1J500001D01*
G01*
X148105000Y-85710000D02*
G75*
G02*
X148605000Y-86210000I0J-500000D01*
G01*
X148605000Y-99210000D02*
G75*
G02*
X148105000Y-99710000I-500000J0D01*
G01*
X115555000Y-137310000D02*
X115555000Y-124310000D01*
X116055000Y-123810000D02*
X129055000Y-123810000D01*
X129055000Y-137810000D02*
X116055000Y-137810000D01*
X129555000Y-124310000D02*
X129555000Y-137310000D01*
X115555000Y-124310000D02*
G75*
G02*
X116055000Y-123810000I500001J-1D01*
G01*
X116055000Y-137810000D02*
G75*
G02*
X115555000Y-137310000I1J500001D01*
G01*
X129055000Y-123810000D02*
G75*
G02*
X129555000Y-124310000I0J-500000D01*
G01*
X129555000Y-137310000D02*
G75*
G02*
X129055000Y-137810000I-500000J0D01*
G01*
X115555000Y-99210000D02*
X115555000Y-86210000D01*
X116055000Y-85710000D02*
X129055000Y-85710000D01*
X129055000Y-99710000D02*
X116055000Y-99710000D01*
X129555000Y-86210000D02*
X129555000Y-99210000D01*
X115555000Y-86210000D02*
G75*
G02*
X116055000Y-85710000I500001J-1D01*
G01*
X116055000Y-99710000D02*
G75*
G02*
X115555000Y-99210000I1J500001D01*
G01*
X129055000Y-85710000D02*
G75*
G02*
X129555000Y-86210000I0J-500000D01*
G01*
X129555000Y-99210000D02*
G75*
G02*
X129055000Y-99710000I-500000J0D01*
G01*
X153655000Y-99210000D02*
X153655000Y-86210000D01*
X154155000Y-85710000D02*
X167155000Y-85710000D01*
X167155000Y-99710000D02*
X154155000Y-99710000D01*
X167655000Y-86210000D02*
X167655000Y-99210000D01*
X153655000Y-86210000D02*
G75*
G02*
X154155000Y-85710000I500001J-1D01*
G01*
X154155000Y-99710000D02*
G75*
G02*
X153655000Y-99210000I1J500001D01*
G01*
X167155000Y-85710000D02*
G75*
G02*
X167655000Y-86210000I0J-500000D01*
G01*
X167655000Y-99210000D02*
G75*
G02*
X167155000Y-99710000I-500000J0D01*
G01*
X134605000Y-137310000D02*
X134605000Y-124310000D01*
X135105000Y-123810000D02*
X148105000Y-123810000D01*
X148105000Y-137810000D02*
X135105000Y-137810000D01*
X148605000Y-124310000D02*
X148605000Y-137310000D01*
X134605000Y-124310000D02*
G75*
G02*
X135105000Y-123810000I500001J-1D01*
G01*
X135105000Y-137810000D02*
G75*
G02*
X134605000Y-137310000I1J500001D01*
G01*
X148105000Y-123810000D02*
G75*
G02*
X148605000Y-124310000I0J-500000D01*
G01*
X148605000Y-137310000D02*
G75*
G02*
X148105000Y-137810000I-500000J0D01*
G01*
X191755000Y-80160000D02*
X191755000Y-67160000D01*
X192255000Y-66660000D02*
X205255000Y-66660000D01*
X205255000Y-80660000D02*
X192255000Y-80660000D01*
X205755000Y-67160000D02*
X205755000Y-80160000D01*
X191755000Y-67160000D02*
G75*
G02*
X192255000Y-66660000I500001J-1D01*
G01*
X192255000Y-80660000D02*
G75*
G02*
X191755000Y-80160000I1J500001D01*
G01*
X205255000Y-66660000D02*
G75*
G02*
X205755000Y-67160000I0J-500000D01*
G01*
X205755000Y-80160000D02*
G75*
G02*
X205255000Y-80660000I-500000J0D01*
G01*
X134605000Y-118260000D02*
X134605000Y-105260000D01*
X135105000Y-104760000D02*
X148105000Y-104760000D01*
X148105000Y-118760000D02*
X135105000Y-118760000D01*
X148605000Y-105260000D02*
X148605000Y-118260000D01*
X134605000Y-105260000D02*
G75*
G02*
X135105000Y-104760000I500001J-1D01*
G01*
X135105000Y-118760000D02*
G75*
G02*
X134605000Y-118260000I1J500001D01*
G01*
X148105000Y-104760000D02*
G75*
G02*
X148605000Y-105260000I0J-500000D01*
G01*
X148605000Y-118260000D02*
G75*
G02*
X148105000Y-118760000I-500000J0D01*
G01*
X191755000Y-118260000D02*
X191755000Y-105260000D01*
X192255000Y-104760000D02*
X205255000Y-104760000D01*
X205255000Y-118760000D02*
X192255000Y-118760000D01*
X205755000Y-105260000D02*
X205755000Y-118260000D01*
X191755000Y-105260000D02*
G75*
G02*
X192255000Y-104760000I500001J-1D01*
G01*
X192255000Y-118760000D02*
G75*
G02*
X191755000Y-118260000I1J500001D01*
G01*
X205255000Y-104760000D02*
G75*
G02*
X205755000Y-105260000I0J-500000D01*
G01*
X205755000Y-118260000D02*
G75*
G02*
X205255000Y-118760000I-500000J0D01*
G01*
X96505000Y-80160000D02*
X96505000Y-67160000D01*
X97005000Y-66660000D02*
X110005000Y-66660000D01*
X110005000Y-80660000D02*
X97005000Y-80660000D01*
X110505000Y-67160000D02*
X110505000Y-80160000D01*
X96505000Y-67160000D02*
G75*
G02*
X97005000Y-66660000I500001J-1D01*
G01*
X97005000Y-80660000D02*
G75*
G02*
X96505000Y-80160000I1J500001D01*
G01*
X110005000Y-66660000D02*
G75*
G02*
X110505000Y-67160000I0J-500000D01*
G01*
X110505000Y-80160000D02*
G75*
G02*
X110005000Y-80660000I-500000J0D01*
G01*
X153655000Y-137310000D02*
X153655000Y-124310000D01*
X154155000Y-123810000D02*
X167155000Y-123810000D01*
X167155000Y-137810000D02*
X154155000Y-137810000D01*
X167655000Y-124310000D02*
X167655000Y-137310000D01*
X153655000Y-124310000D02*
G75*
G02*
X154155000Y-123810000I500001J-1D01*
G01*
X154155000Y-137810000D02*
G75*
G02*
X153655000Y-137310000I1J500001D01*
G01*
X167155000Y-123810000D02*
G75*
G02*
X167655000Y-124310000I0J-500000D01*
G01*
X167655000Y-137310000D02*
G75*
G02*
X167155000Y-137810000I-500000J0D01*
G01*
X115555000Y-118260000D02*
X115555000Y-105260000D01*
X116055000Y-104760000D02*
X129055000Y-104760000D01*
X129055000Y-118760000D02*
X116055000Y-118760000D01*
X129555000Y-105260000D02*
X129555000Y-118260000D01*
X115555000Y-105260000D02*
G75*
G02*
X116055000Y-104760000I500001J-1D01*
G01*
X116055000Y-118760000D02*
G75*
G02*
X115555000Y-118260000I1J500001D01*
G01*
X129055000Y-104760000D02*
G75*
G02*
X129555000Y-105260000I0J-500000D01*
G01*
X129555000Y-118260000D02*
G75*
G02*
X129055000Y-118760000I-500000J0D01*
G01*
X191755000Y-99210000D02*
X191755000Y-86210000D01*
X192255000Y-85710000D02*
X205255000Y-85710000D01*
X205255000Y-99710000D02*
X192255000Y-99710000D01*
X205755000Y-86210000D02*
X205755000Y-99210000D01*
X191755000Y-86210000D02*
G75*
G02*
X192255000Y-85710000I500001J-1D01*
G01*
X192255000Y-99710000D02*
G75*
G02*
X191755000Y-99210000I1J500001D01*
G01*
X205255000Y-85710000D02*
G75*
G02*
X205755000Y-86210000I0J-500000D01*
G01*
X205755000Y-99210000D02*
G75*
G02*
X205255000Y-99710000I-500000J0D01*
G01*
X191755000Y-137310000D02*
X191755000Y-124310000D01*
X192255000Y-123810000D02*
X205255000Y-123810000D01*
X205255000Y-137810000D02*
X192255000Y-137810000D01*
X205755000Y-124310000D02*
X205755000Y-137310000D01*
X191755000Y-124310000D02*
G75*
G02*
X192255000Y-123810000I500001J-1D01*
G01*
X192255000Y-137810000D02*
G75*
G02*
X191755000Y-137310000I1J500001D01*
G01*
X205255000Y-123810000D02*
G75*
G02*
X205755000Y-124310000I0J-500000D01*
G01*
X205755000Y-137310000D02*
G75*
G02*
X205255000Y-137810000I-500000J0D01*
G01*
X153655000Y-80160000D02*
X153655000Y-67160000D01*
X154155000Y-66660000D02*
X167155000Y-66660000D01*
X167155000Y-80660000D02*
X154155000Y-80660000D01*
X167655000Y-67160000D02*
X167655000Y-80160000D01*
X153655000Y-67160000D02*
G75*
G02*
X154155000Y-66660000I500001J-1D01*
G01*
X154155000Y-80660000D02*
G75*
G02*
X153655000Y-80160000I1J500001D01*
G01*
X167155000Y-66660000D02*
G75*
G02*
X167655000Y-67160000I0J-500000D01*
G01*
X167655000Y-80160000D02*
G75*
G02*
X167155000Y-80660000I-500000J0D01*
G01*
X96505000Y-99210000D02*
X96505000Y-86210000D01*
X97005000Y-85710000D02*
X110005000Y-85710000D01*
X110005000Y-99710000D02*
X97005000Y-99710000D01*
X110505000Y-86210000D02*
X110505000Y-99210000D01*
X96505000Y-86210000D02*
G75*
G02*
X97005000Y-85710000I500001J-1D01*
G01*
X97005000Y-99710000D02*
G75*
G02*
X96505000Y-99210000I1J500001D01*
G01*
X110005000Y-85710000D02*
G75*
G02*
X110505000Y-86210000I0J-500000D01*
G01*
X110505000Y-99210000D02*
G75*
G02*
X110005000Y-99710000I-500000J0D01*
G01*
X153655000Y-118260000D02*
X153655000Y-105260000D01*
X154155000Y-104760000D02*
X167155000Y-104760000D01*
X167155000Y-118760000D02*
X154155000Y-118760000D01*
X167655000Y-105260000D02*
X167655000Y-118260000D01*
X153655000Y-105260000D02*
G75*
G02*
X154155000Y-104760000I500001J-1D01*
G01*
X154155000Y-118760000D02*
G75*
G02*
X153655000Y-118260000I1J500001D01*
G01*
X167155000Y-104760000D02*
G75*
G02*
X167655000Y-105260000I0J-500000D01*
G01*
X167655000Y-118260000D02*
G75*
G02*
X167155000Y-118760000I-500000J0D01*
G01*
X96505000Y-137310000D02*
X96505000Y-124310000D01*
X97005000Y-123810000D02*
X110005000Y-123810000D01*
X110005000Y-137810000D02*
X97005000Y-137810000D01*
X110505000Y-124310000D02*
X110505000Y-137310000D01*
X96505000Y-124310000D02*
G75*
G02*
X97005000Y-123810000I500001J-1D01*
G01*
X97005000Y-137810000D02*
G75*
G02*
X96505000Y-137310000I1J500001D01*
G01*
X110005000Y-123810000D02*
G75*
G02*
X110505000Y-124310000I0J-500000D01*
G01*
X110505000Y-137310000D02*
G75*
G02*
X110005000Y-137810000I-500000J0D01*
G01*
M02*
