G04 #@! TF.GenerationSoftware,KiCad,Pcbnew,8.0.8*
G04 #@! TF.CreationDate,2025-02-05T15:42:48+09:00*
G04 #@! TF.ProjectId,ergo42,6572676f-3432-42e6-9b69-6361645f7063,1.0.0-alpha*
G04 #@! TF.SameCoordinates,Original*
G04 #@! TF.FileFunction,Paste,Bot*
G04 #@! TF.FilePolarity,Positive*
%FSLAX46Y46*%
G04 Gerber Fmt 4.6, Leading zero omitted, Abs format (unit mm)*
G04 Created by KiCad (PCBNEW 8.0.8) date 2025-02-05 15:42:48*
%MOMM*%
%LPD*%
G01*
G04 APERTURE LIST*
%ADD10R,2.000000X2.000000*%
%ADD11R,1.900000X2.000000*%
G04 APERTURE END LIST*
D10*
G04 #@! TO.C,SW2*
X2060000Y44560000D03*
X3260000Y50800000D03*
D11*
X12960000Y42360000D03*
D10*
X15760000Y53340000D03*
G04 #@! TD*
G04 #@! TO.C,SW4*
X2060000Y6460000D03*
X3260000Y12700000D03*
D11*
X12960000Y4260000D03*
D10*
X15760000Y15240000D03*
G04 #@! TD*
G04 #@! TO.C,SW22*
X97310000Y44560000D03*
X98510000Y50800000D03*
D11*
X108210000Y42360000D03*
D10*
X111010000Y53340000D03*
G04 #@! TD*
G04 #@! TO.C,SW7*
X21110000Y25510000D03*
X22310000Y31750000D03*
D11*
X32010000Y23310000D03*
D10*
X34810000Y34290000D03*
G04 #@! TD*
G04 #@! TO.C,SW13*
X59210000Y63610000D03*
X60410000Y69850000D03*
D11*
X70110000Y61410000D03*
D10*
X72910000Y72390000D03*
G04 #@! TD*
G04 #@! TO.C,SW23*
X97310000Y25510000D03*
X98510000Y31750000D03*
D11*
X108210000Y23310000D03*
D10*
X111010000Y34290000D03*
G04 #@! TD*
G04 #@! TO.C,SW24*
X97310000Y6460000D03*
X98510000Y12700000D03*
D11*
X108210000Y4260000D03*
D10*
X111010000Y15240000D03*
G04 #@! TD*
G04 #@! TO.C,SW21*
X97310000Y63610000D03*
X98510000Y69850000D03*
D11*
X108210000Y61410000D03*
D10*
X111010000Y72390000D03*
G04 #@! TD*
G04 #@! TO.C,SW1*
X2060000Y63610000D03*
X3260000Y69850000D03*
D11*
X12960000Y61410000D03*
D10*
X15760000Y72390000D03*
G04 #@! TD*
G04 #@! TO.C,SW9*
X40160000Y63610000D03*
X41360000Y69850000D03*
D11*
X51060000Y61410000D03*
D10*
X53860000Y72390000D03*
G04 #@! TD*
G04 #@! TO.C,SW3*
X2060000Y25510000D03*
X3260000Y31750000D03*
D11*
X12960000Y23310000D03*
D10*
X15760000Y34290000D03*
G04 #@! TD*
G04 #@! TO.C,SW14*
X59210000Y44560000D03*
X60410000Y50800000D03*
D11*
X70110000Y42360000D03*
D10*
X72910000Y53340000D03*
G04 #@! TD*
G04 #@! TO.C,SW12*
X40160000Y6460000D03*
X41360000Y12700000D03*
D11*
X51060000Y4260000D03*
D10*
X53860000Y15240000D03*
G04 #@! TD*
G04 #@! TO.C,SW10*
X40160000Y44560000D03*
X41360000Y50800000D03*
D11*
X51060000Y42360000D03*
D10*
X53860000Y53340000D03*
G04 #@! TD*
G04 #@! TO.C,SW18*
X78260000Y44560000D03*
X79460000Y50800000D03*
D11*
X89160000Y42360000D03*
D10*
X91960000Y53340000D03*
G04 #@! TD*
G04 #@! TO.C,SW16*
X59210000Y6460000D03*
X60410000Y12700000D03*
D11*
X70110000Y4260000D03*
D10*
X72910000Y15240000D03*
G04 #@! TD*
G04 #@! TO.C,SW25*
X116360000Y63610000D03*
X117560000Y69850000D03*
D11*
X127260000Y61410000D03*
D10*
X130060000Y72390000D03*
G04 #@! TD*
G04 #@! TO.C,SW15*
X59210000Y25510000D03*
X60410000Y31750000D03*
D11*
X70110000Y23310000D03*
D10*
X72910000Y34290000D03*
G04 #@! TD*
G04 #@! TO.C,SW27*
X116360000Y25510000D03*
X117560000Y31750000D03*
D11*
X127260000Y23310000D03*
D10*
X130060000Y34290000D03*
G04 #@! TD*
G04 #@! TO.C,SW5*
X21110000Y63610000D03*
X22310000Y69850000D03*
D11*
X32010000Y61410000D03*
D10*
X34810000Y72390000D03*
G04 #@! TD*
G04 #@! TO.C,SW20*
X78260000Y6460000D03*
X79460000Y12700000D03*
D11*
X89160000Y4260000D03*
D10*
X91960000Y15240000D03*
G04 #@! TD*
G04 #@! TO.C,SW11*
X40160000Y25510000D03*
X41360000Y31750000D03*
D11*
X51060000Y23310000D03*
D10*
X53860000Y34290000D03*
G04 #@! TD*
G04 #@! TO.C,SW26*
X116360000Y44560000D03*
X117560000Y50800000D03*
D11*
X127260000Y42360000D03*
D10*
X130060000Y53340000D03*
G04 #@! TD*
G04 #@! TO.C,SW28*
X116360000Y6460000D03*
X117560000Y12700000D03*
D11*
X127260000Y4260000D03*
D10*
X130060000Y15240000D03*
G04 #@! TD*
G04 #@! TO.C,SW17*
X78260000Y63610000D03*
X79460000Y69850000D03*
D11*
X89160000Y61410000D03*
D10*
X91960000Y72390000D03*
G04 #@! TD*
G04 #@! TO.C,SW6*
X21110000Y44560000D03*
X22310000Y50800000D03*
D11*
X32010000Y42360000D03*
D10*
X34810000Y53340000D03*
G04 #@! TD*
G04 #@! TO.C,SW19*
X78260000Y25510000D03*
X79460000Y31750000D03*
D11*
X89160000Y23310000D03*
D10*
X91960000Y34290000D03*
G04 #@! TD*
G04 #@! TO.C,SW8*
X21110000Y6460000D03*
X22310000Y12700000D03*
D11*
X32010000Y4260000D03*
D10*
X34810000Y15240000D03*
G04 #@! TD*
M02*
