G04 #@! TF.GenerationSoftware,KiCad,Pcbnew,8.0.8*
G04 #@! TF.CreationDate,2025-02-05T15:42:48+09:00*
G04 #@! TF.ProjectId,ergo42,6572676f-3432-42e6-9b69-6361645f7063,1.0.0-alpha*
G04 #@! TF.SameCoordinates,Original*
G04 #@! TF.FileFunction,Copper,L1,Top*
G04 #@! TF.FilePolarity,Positive*
%FSLAX46Y46*%
G04 Gerber Fmt 4.6, Leading zero omitted, Abs format (unit mm)*
G04 Created by KiCad (PCBNEW 8.0.8) date 2025-02-05 15:42:48*
%MOMM*%
%LPD*%
G01*
G04 APERTURE LIST*
G04 #@! TA.AperFunction,ComponentPad*
%ADD10C,1.600000*%
G04 #@! TD*
G04 #@! TA.AperFunction,ComponentPad*
%ADD11O,1.600000X1.600000*%
G04 #@! TD*
G04 #@! TA.AperFunction,ComponentPad*
%ADD12C,1.524000*%
G04 #@! TD*
G04 #@! TA.AperFunction,ComponentPad*
%ADD13R,1.524000X1.524000*%
G04 #@! TD*
G04 #@! TA.AperFunction,ComponentPad*
%ADD14C,1.752600*%
G04 #@! TD*
G04 #@! TA.AperFunction,SMDPad,CuDef*
%ADD15R,2.000000X2.000000*%
G04 #@! TD*
G04 #@! TA.AperFunction,SMDPad,CuDef*
%ADD16R,1.800000X2.000000*%
G04 #@! TD*
G04 #@! TA.AperFunction,ComponentPad*
%ADD17R,1.300000X0.950000*%
G04 #@! TD*
G04 #@! TA.AperFunction,ComponentPad*
%ADD18R,0.950000X1.300000*%
G04 #@! TD*
G04 #@! TA.AperFunction,ViaPad*
%ADD19C,0.800000*%
G04 #@! TD*
G04 #@! TA.AperFunction,Conductor*
%ADD20C,0.254000*%
G04 #@! TD*
G04 #@! TA.AperFunction,Conductor*
%ADD21C,0.200000*%
G04 #@! TD*
G04 APERTURE END LIST*
D10*
G04 #@! TO.P,R1,1*
G04 #@! TO.N,VCC*
X100330000Y76835000D03*
D11*
G04 #@! TO.P,R1,2*
G04 #@! TO.N,/sda*
X110490000Y76835000D03*
G04 #@! TD*
D10*
G04 #@! TO.P,R2,1*
G04 #@! TO.N,VCC*
X119380000Y76835000D03*
D11*
G04 #@! TO.P,R2,2*
G04 #@! TO.N,/scl{slash}uart*
X129540000Y76835000D03*
G04 #@! TD*
D12*
G04 #@! TO.P,SW29,1,1*
G04 #@! TO.N,/rst*
X119380000Y83185000D03*
G04 #@! TO.P,SW29,2,2*
G04 #@! TO.N,GND*
X124460000Y83185000D03*
G04 #@! TD*
D13*
G04 #@! TO.P,W1,1,1*
G04 #@! TO.N,/xtradata*
X115935000Y76835000D03*
G04 #@! TO.P,W1,2,2*
G04 #@! TO.N,/sda*
X113935000Y76835000D03*
G04 #@! TD*
D12*
G04 #@! TO.P,U3,1,TX*
G04 #@! TO.N,unconnected-(U3-TX-Pad1)_1*
X85090000Y82550000D03*
G04 #@! TO.N,unconnected-(U3-TX-Pad1)*
X86360000Y99060000D03*
G04 #@! TO.P,U3,2,RX*
G04 #@! TO.N,unconnected-(U3-RX-Pad2)*
X87630000Y82550000D03*
G04 #@! TO.N,unconnected-(U3-RX-Pad2)_1*
X88900000Y99060000D03*
G04 #@! TO.P,U3,3,GND*
G04 #@! TO.N,GND*
X90170000Y82550000D03*
X91440000Y99060000D03*
G04 #@! TO.P,U3,4,GND*
X92710000Y82550000D03*
X93980000Y99060000D03*
G04 #@! TO.P,U3,5,SDA*
G04 #@! TO.N,/sda*
X95250000Y82550000D03*
X96520000Y99060000D03*
G04 #@! TO.P,U3,6,SCL*
G04 #@! TO.N,/scl{slash}uart*
X97790000Y82550000D03*
X99060000Y99060000D03*
G04 #@! TO.P,U3,7,D4*
G04 #@! TO.N,unconnected-(U3-D4-Pad7)*
X100330000Y82550000D03*
G04 #@! TO.N,unconnected-(U3-D4-Pad7)_1*
X101600000Y99060000D03*
G04 #@! TO.P,U3,8,C6*
G04 #@! TO.N,unconnected-(U3-C6-Pad8)*
X102870000Y82550000D03*
G04 #@! TO.N,unconnected-(U3-C6-Pad8)_1*
X104140000Y99060000D03*
G04 #@! TO.P,U3,9,D7*
G04 #@! TO.N,/row0*
X105410000Y82550000D03*
X106680000Y99060000D03*
G04 #@! TO.P,U3,10,E6*
G04 #@! TO.N,/row1*
X107950000Y82550000D03*
X109220000Y99060000D03*
G04 #@! TO.P,U3,11,B4*
G04 #@! TO.N,/row2*
X110490000Y82550000D03*
X111760000Y99060000D03*
G04 #@! TO.P,U3,12,B5*
G04 #@! TO.N,/row3*
X113030000Y82550000D03*
X114300000Y99060000D03*
G04 #@! TO.P,U3,13,B6*
G04 #@! TO.N,/col6*
X113030000Y97790000D03*
X114300000Y83820000D03*
G04 #@! TO.P,U3,14,B2*
G04 #@! TO.N,/col5*
X110490000Y97790000D03*
X111760000Y83820000D03*
G04 #@! TO.P,U3,15,B3*
G04 #@! TO.N,/col4*
X107950000Y97790000D03*
X109220000Y83820000D03*
G04 #@! TO.P,U3,16,B1*
G04 #@! TO.N,/col3*
X105410000Y97790000D03*
X106680000Y83820000D03*
G04 #@! TO.P,U3,17,F7*
G04 #@! TO.N,/col2*
X102870000Y97790000D03*
X104140000Y83820000D03*
G04 #@! TO.P,U3,18,F6*
G04 #@! TO.N,/col1*
X100330000Y97790000D03*
X101600000Y83820000D03*
G04 #@! TO.P,U3,19,F5*
G04 #@! TO.N,/col0*
X97790000Y97790000D03*
X99060000Y83820000D03*
G04 #@! TO.P,U3,20,F4*
G04 #@! TO.N,unconnected-(U3-F4-Pad20)*
X95250000Y97790000D03*
G04 #@! TO.N,unconnected-(U3-F4-Pad20)_1*
X96520000Y83820000D03*
G04 #@! TO.P,U3,21,VCC*
G04 #@! TO.N,VCC*
X92710000Y97790000D03*
X93980000Y83820000D03*
G04 #@! TO.P,U3,22,RST*
G04 #@! TO.N,/rst*
X90170000Y97790000D03*
X91440000Y83820000D03*
G04 #@! TO.P,U3,23,GND*
G04 #@! TO.N,GND*
X87630000Y97790000D03*
X88900000Y83820000D03*
G04 #@! TO.P,U3,24,RAW*
G04 #@! TO.N,unconnected-(U3-RAW-Pad24)*
X85090000Y97790000D03*
G04 #@! TO.N,unconnected-(U3-RAW-Pad24)_1*
X86360000Y83820000D03*
G04 #@! TD*
D14*
G04 #@! TO.P,J1,1,1*
G04 #@! TO.N,VCC*
X121920000Y90665000D03*
G04 #@! TO.P,J1,2,2*
G04 #@! TO.N,/xtradata*
X121920000Y97665000D03*
G04 #@! TO.P,J1,3,3*
G04 #@! TO.N,/scl{slash}uart*
X121920000Y94665000D03*
G04 #@! TO.P,J1,4,4*
G04 #@! TO.N,GND*
X117920000Y89165000D03*
G04 #@! TO.P,J1,5,5*
X125920000Y89165000D03*
G04 #@! TD*
D15*
G04 #@! TO.P,SW2,1,1*
G04 #@! TO.N,/col0*
X4560000Y53340000D03*
D16*
X7360000Y42360000D03*
D15*
G04 #@! TO.P,SW2,2,2*
G04 #@! TO.N,Net-(D2-A)*
X17060000Y50800000D03*
X18260000Y44560000D03*
G04 #@! TD*
G04 #@! TO.P,SW4,1,1*
G04 #@! TO.N,/col0*
X4560000Y15240000D03*
D16*
X7360000Y4260000D03*
D15*
G04 #@! TO.P,SW4,2,2*
G04 #@! TO.N,Net-(D4-A)*
X17060000Y12700000D03*
X18260000Y6460000D03*
G04 #@! TD*
D17*
G04 #@! TO.P,D19,1,K*
G04 #@! TO.N,/row2*
X95905000Y28595000D03*
G04 #@! TO.P,D19,2,A*
G04 #@! TO.N,Net-(D19-A)*
X95905000Y32145000D03*
G04 #@! TD*
D15*
G04 #@! TO.P,SW22,1,1*
G04 #@! TO.N,/col5*
X99810000Y53340000D03*
D16*
X102610000Y42360000D03*
D15*
G04 #@! TO.P,SW22,2,2*
G04 #@! TO.N,Net-(D22-A)*
X112310000Y50800000D03*
X113510000Y44560000D03*
G04 #@! TD*
D18*
G04 #@! TO.P,D5,1,K*
G04 #@! TO.N,/row0*
X38755000Y66695000D03*
G04 #@! TO.P,D5,2,A*
G04 #@! TO.N,Net-(D5-A)*
X38755000Y70245000D03*
G04 #@! TD*
D15*
G04 #@! TO.P,SW7,1,1*
G04 #@! TO.N,/col1*
X23610000Y34290000D03*
D16*
X26410000Y23310000D03*
D15*
G04 #@! TO.P,SW7,2,2*
G04 #@! TO.N,Net-(D7-A)*
X36110000Y31750000D03*
X37310000Y25510000D03*
G04 #@! TD*
D17*
G04 #@! TO.P,D18,1,K*
G04 #@! TO.N,/row1*
X95905000Y47645000D03*
G04 #@! TO.P,D18,2,A*
G04 #@! TO.N,Net-(D18-A)*
X95905000Y51195000D03*
G04 #@! TD*
G04 #@! TO.P,D20,1,K*
G04 #@! TO.N,/row3*
X95905000Y9545000D03*
G04 #@! TO.P,D20,2,A*
G04 #@! TO.N,Net-(D20-A)*
X95905000Y13095000D03*
G04 #@! TD*
D15*
G04 #@! TO.P,SW13,1,1*
G04 #@! TO.N,/col3*
X61710000Y72390000D03*
D16*
X64510000Y61410000D03*
D15*
G04 #@! TO.P,SW13,2,2*
G04 #@! TO.N,Net-(D13-A)*
X74210000Y69850000D03*
X75410000Y63610000D03*
G04 #@! TD*
G04 #@! TO.P,SW23,1,1*
G04 #@! TO.N,/col5*
X99810000Y34290000D03*
D16*
X102610000Y23310000D03*
D15*
G04 #@! TO.P,SW23,2,2*
G04 #@! TO.N,Net-(D23-A)*
X112310000Y31750000D03*
X113510000Y25510000D03*
G04 #@! TD*
D17*
G04 #@! TO.P,D9,1,K*
G04 #@! TO.N,/row0*
X57805000Y66695000D03*
G04 #@! TO.P,D9,2,A*
G04 #@! TO.N,Net-(D9-A)*
X57805000Y70245000D03*
G04 #@! TD*
D15*
G04 #@! TO.P,SW24,1,1*
G04 #@! TO.N,/col5*
X99810000Y15240000D03*
D16*
X102610000Y4260000D03*
D15*
G04 #@! TO.P,SW24,2,2*
G04 #@! TO.N,Net-(D24-A)*
X112310000Y12700000D03*
X113510000Y6460000D03*
G04 #@! TD*
D17*
G04 #@! TO.P,D6,1,K*
G04 #@! TO.N,/row1*
X38755000Y47645000D03*
G04 #@! TO.P,D6,2,A*
G04 #@! TO.N,Net-(D6-A)*
X38755000Y51195000D03*
G04 #@! TD*
D15*
G04 #@! TO.P,SW21,1,1*
G04 #@! TO.N,/col5*
X99810000Y72390000D03*
D16*
X102610000Y61410000D03*
D15*
G04 #@! TO.P,SW21,2,2*
G04 #@! TO.N,Net-(D21-A)*
X112310000Y69850000D03*
X113510000Y63610000D03*
G04 #@! TD*
D17*
G04 #@! TO.P,D22,1,K*
G04 #@! TO.N,/row1*
X114955000Y47645000D03*
G04 #@! TO.P,D22,2,A*
G04 #@! TO.N,Net-(D22-A)*
X114955000Y51195000D03*
G04 #@! TD*
G04 #@! TO.P,D12,1,K*
G04 #@! TO.N,/row3*
X57805000Y9545000D03*
G04 #@! TO.P,D12,2,A*
G04 #@! TO.N,Net-(D12-A)*
X57805000Y13095000D03*
G04 #@! TD*
D15*
G04 #@! TO.P,SW1,1,1*
G04 #@! TO.N,/col0*
X4560000Y72390000D03*
D16*
X7360000Y61410000D03*
D15*
G04 #@! TO.P,SW1,2,2*
G04 #@! TO.N,Net-(D1-A)*
X17060000Y69850000D03*
X18260000Y63610000D03*
G04 #@! TD*
D17*
G04 #@! TO.P,D28,1,K*
G04 #@! TO.N,/row3*
X134005000Y9545000D03*
G04 #@! TO.P,D28,2,A*
G04 #@! TO.N,Net-(D28-A)*
X134005000Y13095000D03*
G04 #@! TD*
D15*
G04 #@! TO.P,SW9,1,1*
G04 #@! TO.N,/col2*
X42660000Y72390000D03*
D16*
X45460000Y61410000D03*
D15*
G04 #@! TO.P,SW9,2,2*
G04 #@! TO.N,Net-(D9-A)*
X55160000Y69850000D03*
X56360000Y63610000D03*
G04 #@! TD*
D17*
G04 #@! TO.P,D15,1,K*
G04 #@! TO.N,/row2*
X76855000Y28595000D03*
G04 #@! TO.P,D15,2,A*
G04 #@! TO.N,Net-(D15-A)*
X76855000Y32145000D03*
G04 #@! TD*
G04 #@! TO.P,D21,1,K*
G04 #@! TO.N,/row0*
X114955000Y66695000D03*
G04 #@! TO.P,D21,2,A*
G04 #@! TO.N,Net-(D21-A)*
X114955000Y70245000D03*
G04 #@! TD*
D15*
G04 #@! TO.P,SW3,1,1*
G04 #@! TO.N,/col0*
X4560000Y34290000D03*
D16*
X7360000Y23310000D03*
D15*
G04 #@! TO.P,SW3,2,2*
G04 #@! TO.N,Net-(D3-A)*
X17060000Y31750000D03*
X18260000Y25510000D03*
G04 #@! TD*
G04 #@! TO.P,SW14,1,1*
G04 #@! TO.N,/col3*
X61710000Y53340000D03*
D16*
X64510000Y42360000D03*
D15*
G04 #@! TO.P,SW14,2,2*
G04 #@! TO.N,Net-(D14-A)*
X74210000Y50800000D03*
X75410000Y44560000D03*
G04 #@! TD*
D17*
G04 #@! TO.P,D24,1,K*
G04 #@! TO.N,/row3*
X114955000Y9545000D03*
G04 #@! TO.P,D24,2,A*
G04 #@! TO.N,Net-(D24-A)*
X114955000Y13095000D03*
G04 #@! TD*
D15*
G04 #@! TO.P,SW12,1,1*
G04 #@! TO.N,/col2*
X42660000Y15240000D03*
D16*
X45460000Y4260000D03*
D15*
G04 #@! TO.P,SW12,2,2*
G04 #@! TO.N,Net-(D12-A)*
X55160000Y12700000D03*
X56360000Y6460000D03*
G04 #@! TD*
D18*
G04 #@! TO.P,D2,1,K*
G04 #@! TO.N,/row1*
X19705000Y47645000D03*
G04 #@! TO.P,D2,2,A*
G04 #@! TO.N,Net-(D2-A)*
X19705000Y51195000D03*
G04 #@! TD*
D15*
G04 #@! TO.P,SW10,1,1*
G04 #@! TO.N,/col2*
X42660000Y53340000D03*
D16*
X45460000Y42360000D03*
D15*
G04 #@! TO.P,SW10,2,2*
G04 #@! TO.N,Net-(D10-A)*
X55160000Y50800000D03*
X56360000Y44560000D03*
G04 #@! TD*
G04 #@! TO.P,SW18,1,1*
G04 #@! TO.N,/col4*
X80760000Y53340000D03*
D16*
X83560000Y42360000D03*
D15*
G04 #@! TO.P,SW18,2,2*
G04 #@! TO.N,Net-(D18-A)*
X93260000Y50800000D03*
X94460000Y44560000D03*
G04 #@! TD*
D17*
G04 #@! TO.P,D7,1,K*
G04 #@! TO.N,/row2*
X38755000Y28595000D03*
G04 #@! TO.P,D7,2,A*
G04 #@! TO.N,Net-(D7-A)*
X38755000Y32145000D03*
G04 #@! TD*
D15*
G04 #@! TO.P,SW16,1,1*
G04 #@! TO.N,/col3*
X61710000Y15240000D03*
D16*
X64510000Y4260000D03*
D15*
G04 #@! TO.P,SW16,2,2*
G04 #@! TO.N,Net-(D16-A)*
X74210000Y12700000D03*
X75410000Y6460000D03*
G04 #@! TD*
G04 #@! TO.P,SW25,1,1*
G04 #@! TO.N,/col6*
X118860000Y72390000D03*
D16*
X121660000Y61410000D03*
D15*
G04 #@! TO.P,SW25,2,2*
G04 #@! TO.N,Net-(D25-A)*
X131360000Y69850000D03*
X132560000Y63610000D03*
G04 #@! TD*
D17*
G04 #@! TO.P,D26,1,K*
G04 #@! TO.N,/row1*
X134005000Y47645000D03*
G04 #@! TO.P,D26,2,A*
G04 #@! TO.N,Net-(D26-A)*
X134005000Y51195000D03*
G04 #@! TD*
D18*
G04 #@! TO.P,D1,1,K*
G04 #@! TO.N,/row0*
X19705000Y66695000D03*
G04 #@! TO.P,D1,2,A*
G04 #@! TO.N,Net-(D1-A)*
X19705000Y70245000D03*
G04 #@! TD*
D15*
G04 #@! TO.P,SW15,1,1*
G04 #@! TO.N,/col3*
X61710000Y34290000D03*
D16*
X64510000Y23310000D03*
D15*
G04 #@! TO.P,SW15,2,2*
G04 #@! TO.N,Net-(D15-A)*
X74210000Y31750000D03*
X75410000Y25510000D03*
G04 #@! TD*
G04 #@! TO.P,SW27,1,1*
G04 #@! TO.N,/col6*
X118860000Y34290000D03*
D16*
X121660000Y23310000D03*
D15*
G04 #@! TO.P,SW27,2,2*
G04 #@! TO.N,Net-(D27-A)*
X131360000Y31750000D03*
X132560000Y25510000D03*
G04 #@! TD*
D17*
G04 #@! TO.P,D23,1,K*
G04 #@! TO.N,/row2*
X114955000Y28595000D03*
G04 #@! TO.P,D23,2,A*
G04 #@! TO.N,Net-(D23-A)*
X114955000Y32145000D03*
G04 #@! TD*
D15*
G04 #@! TO.P,SW5,1,1*
G04 #@! TO.N,/col1*
X23610000Y72390000D03*
D16*
X26410000Y61410000D03*
D15*
G04 #@! TO.P,SW5,2,2*
G04 #@! TO.N,Net-(D5-A)*
X36110000Y69850000D03*
X37310000Y63610000D03*
G04 #@! TD*
G04 #@! TO.P,SW20,1,1*
G04 #@! TO.N,/col4*
X80760000Y15240000D03*
D16*
X83560000Y4260000D03*
D15*
G04 #@! TO.P,SW20,2,2*
G04 #@! TO.N,Net-(D20-A)*
X93260000Y12700000D03*
X94460000Y6460000D03*
G04 #@! TD*
D17*
G04 #@! TO.P,D17,1,K*
G04 #@! TO.N,/row0*
X95905000Y66695000D03*
G04 #@! TO.P,D17,2,A*
G04 #@! TO.N,Net-(D17-A)*
X95905000Y70245000D03*
G04 #@! TD*
G04 #@! TO.P,D27,1,K*
G04 #@! TO.N,/row2*
X134005000Y28595000D03*
G04 #@! TO.P,D27,2,A*
G04 #@! TO.N,Net-(D27-A)*
X134005000Y32145000D03*
G04 #@! TD*
D15*
G04 #@! TO.P,SW11,1,1*
G04 #@! TO.N,/col2*
X42660000Y34290000D03*
D16*
X45460000Y23310000D03*
D15*
G04 #@! TO.P,SW11,2,2*
G04 #@! TO.N,Net-(D11-A)*
X55160000Y31750000D03*
X56360000Y25510000D03*
G04 #@! TD*
D17*
G04 #@! TO.P,D4,1,K*
G04 #@! TO.N,/row3*
X19705000Y9545000D03*
G04 #@! TO.P,D4,2,A*
G04 #@! TO.N,Net-(D4-A)*
X19705000Y13095000D03*
G04 #@! TD*
G04 #@! TO.P,D10,1,K*
G04 #@! TO.N,/row1*
X57805000Y47645000D03*
G04 #@! TO.P,D10,2,A*
G04 #@! TO.N,Net-(D10-A)*
X57805000Y51195000D03*
G04 #@! TD*
G04 #@! TO.P,D16,1,K*
G04 #@! TO.N,/row3*
X76855000Y9545000D03*
G04 #@! TO.P,D16,2,A*
G04 #@! TO.N,Net-(D16-A)*
X76855000Y13095000D03*
G04 #@! TD*
D15*
G04 #@! TO.P,SW26,1,1*
G04 #@! TO.N,/col6*
X118860000Y53340000D03*
D16*
X121660000Y42360000D03*
D15*
G04 #@! TO.P,SW26,2,2*
G04 #@! TO.N,Net-(D26-A)*
X131360000Y50800000D03*
X132560000Y44560000D03*
G04 #@! TD*
D17*
G04 #@! TO.P,D14,1,K*
G04 #@! TO.N,/row1*
X76855000Y47645000D03*
G04 #@! TO.P,D14,2,A*
G04 #@! TO.N,Net-(D14-A)*
X76855000Y51195000D03*
G04 #@! TD*
D15*
G04 #@! TO.P,SW28,1,1*
G04 #@! TO.N,/col6*
X118860000Y15240000D03*
D16*
X121660000Y4260000D03*
D15*
G04 #@! TO.P,SW28,2,2*
G04 #@! TO.N,Net-(D28-A)*
X131360000Y12700000D03*
X132560000Y6460000D03*
G04 #@! TD*
D17*
G04 #@! TO.P,D3,1,K*
G04 #@! TO.N,/row2*
X19705000Y28595000D03*
G04 #@! TO.P,D3,2,A*
G04 #@! TO.N,Net-(D3-A)*
X19705000Y32145000D03*
G04 #@! TD*
G04 #@! TO.P,D8,1,K*
G04 #@! TO.N,/row3*
X38755000Y9545000D03*
G04 #@! TO.P,D8,2,A*
G04 #@! TO.N,Net-(D8-A)*
X38755000Y13095000D03*
G04 #@! TD*
D15*
G04 #@! TO.P,SW17,1,1*
G04 #@! TO.N,/col4*
X80760000Y72390000D03*
D16*
X83560000Y61410000D03*
D15*
G04 #@! TO.P,SW17,2,2*
G04 #@! TO.N,Net-(D17-A)*
X93260000Y69850000D03*
X94460000Y63610000D03*
G04 #@! TD*
D17*
G04 #@! TO.P,D13,1,K*
G04 #@! TO.N,/row0*
X76855000Y66695000D03*
G04 #@! TO.P,D13,2,A*
G04 #@! TO.N,Net-(D13-A)*
X76855000Y70245000D03*
G04 #@! TD*
D15*
G04 #@! TO.P,SW6,1,1*
G04 #@! TO.N,/col1*
X23610000Y53340000D03*
D16*
X26410000Y42360000D03*
D15*
G04 #@! TO.P,SW6,2,2*
G04 #@! TO.N,Net-(D6-A)*
X36110000Y50800000D03*
X37310000Y44560000D03*
G04 #@! TD*
G04 #@! TO.P,SW19,1,1*
G04 #@! TO.N,/col4*
X80760000Y34290000D03*
D16*
X83560000Y23310000D03*
D15*
G04 #@! TO.P,SW19,2,2*
G04 #@! TO.N,Net-(D19-A)*
X93260000Y31750000D03*
X94460000Y25510000D03*
G04 #@! TD*
D17*
G04 #@! TO.P,D11,1,K*
G04 #@! TO.N,/row2*
X57805000Y28595000D03*
G04 #@! TO.P,D11,2,A*
G04 #@! TO.N,Net-(D11-A)*
X57805000Y32145000D03*
G04 #@! TD*
G04 #@! TO.P,D25,1,K*
G04 #@! TO.N,/row0*
X134005000Y66695000D03*
G04 #@! TO.P,D25,2,A*
G04 #@! TO.N,Net-(D25-A)*
X134005000Y70245000D03*
G04 #@! TD*
D15*
G04 #@! TO.P,SW8,1,1*
G04 #@! TO.N,/col1*
X23610000Y15240000D03*
D16*
X26410000Y4260000D03*
D15*
G04 #@! TO.P,SW8,2,2*
G04 #@! TO.N,Net-(D8-A)*
X36110000Y12700000D03*
X37310000Y6460000D03*
G04 #@! TD*
D19*
G04 #@! TO.N,*
X85205000Y90970000D03*
X95205000Y90970000D03*
G04 #@! TO.N,/row1*
X99455000Y55720000D03*
X97078000Y54470000D03*
G04 #@! TO.N,/row3*
X116205000Y81470000D03*
X123205000Y80970000D03*
G04 #@! TO.N,GND*
X125955000Y99220000D03*
X87705000Y90970000D03*
G04 #@! TO.N,VCC*
X92705000Y90970000D03*
G04 #@! TO.N,/col0*
X2655000Y10420000D03*
X97705000Y90970000D03*
X2655000Y47970000D03*
X95205000Y80470000D03*
X2655000Y67470000D03*
X2655000Y29470000D03*
G04 #@! TO.N,/col1*
X21705000Y9970000D03*
X100205000Y90970000D03*
X21705000Y48470000D03*
X21705000Y67470000D03*
X21705000Y29470000D03*
X96011644Y79163356D03*
G04 #@! TO.N,/col2*
X40755000Y9970000D03*
X40755000Y67470000D03*
X102705000Y90970000D03*
X40755000Y29470000D03*
X40755000Y48470000D03*
X83705000Y81470000D03*
G04 #@! TO.N,/col3*
X59805000Y9970000D03*
X105205000Y90970000D03*
X59805000Y29470000D03*
X59805000Y48470000D03*
X59805000Y67470000D03*
G04 #@! TO.N,/col4*
X78855000Y9970000D03*
X108205000Y90970000D03*
X78855000Y48470000D03*
X78855000Y67470000D03*
X78855000Y29470000D03*
G04 #@! TO.N,/col5*
X97905000Y48470000D03*
X110705000Y90970000D03*
X97905000Y67470000D03*
X97905000Y29470000D03*
X97905000Y9970000D03*
G04 #@! TO.N,/col6*
X116955000Y67470000D03*
X116955000Y9970000D03*
X116955000Y29470000D03*
X113205000Y90970000D03*
X116955000Y48470000D03*
G04 #@! TO.N,/rst*
X90205000Y90970000D03*
G04 #@! TO.N,Net-(D1-A)*
X17705000Y67470000D03*
G04 #@! TO.N,Net-(D2-A)*
X18205000Y48470000D03*
G04 #@! TO.N,Net-(D3-A)*
X17705000Y29470000D03*
G04 #@! TO.N,Net-(D4-A)*
X18205000Y9970000D03*
G04 #@! TO.N,Net-(D5-A)*
X36705000Y67470000D03*
G04 #@! TO.N,Net-(D6-A)*
X37205000Y48470000D03*
G04 #@! TO.N,Net-(D7-A)*
X37205000Y29470000D03*
G04 #@! TO.N,Net-(D8-A)*
X37205000Y9970000D03*
G04 #@! TO.N,Net-(D9-A)*
X56205000Y67470000D03*
G04 #@! TO.N,Net-(D10-A)*
X56205000Y48470000D03*
G04 #@! TO.N,Net-(D11-A)*
X56205000Y29470000D03*
G04 #@! TO.N,Net-(D12-A)*
X56205000Y9970000D03*
G04 #@! TO.N,Net-(D13-A)*
X75205000Y67470000D03*
G04 #@! TO.N,Net-(D14-A)*
X75205000Y48470000D03*
G04 #@! TO.N,Net-(D15-A)*
X75205000Y29470000D03*
G04 #@! TO.N,Net-(D16-A)*
X75205000Y9970000D03*
G04 #@! TO.N,Net-(D17-A)*
X94205000Y67470000D03*
G04 #@! TO.N,Net-(D18-A)*
X94205000Y48470000D03*
G04 #@! TO.N,Net-(D19-A)*
X94205000Y29470000D03*
G04 #@! TO.N,Net-(D20-A)*
X94205000Y9970000D03*
G04 #@! TO.N,Net-(D21-A)*
X113205000Y67470000D03*
G04 #@! TO.N,Net-(D22-A)*
X113205000Y47970000D03*
G04 #@! TO.N,Net-(D23-A)*
X113205000Y28970000D03*
G04 #@! TO.N,Net-(D24-A)*
X113205000Y9970000D03*
G04 #@! TO.N,Net-(D25-A)*
X132205000Y67470000D03*
G04 #@! TO.N,Net-(D26-A)*
X132705000Y47970000D03*
G04 #@! TO.N,Net-(D27-A)*
X132705000Y29470000D03*
G04 #@! TO.N,Net-(D28-A)*
X132705000Y9970000D03*
G04 #@! TD*
D20*
G04 #@! TO.N,*
X85205000Y90970000D02*
X85205000Y89970000D01*
X85205000Y89970000D02*
X86360000Y88815000D01*
X86360000Y88815000D02*
X86360000Y83820000D01*
X95205000Y90970000D02*
X96520000Y89655000D01*
X96520000Y89655000D02*
X96520000Y83820000D01*
D21*
G04 #@! TO.N,/row0*
X114955000Y66695000D02*
X115705000Y65945000D01*
X111705000Y60970000D02*
X110705000Y59970000D01*
X115705000Y62470000D02*
X117205000Y60970000D01*
X115705000Y65945000D02*
X115705000Y62470000D01*
X109825000Y57090000D02*
X79205000Y57090000D01*
X60085000Y57090000D02*
X60205000Y57090000D01*
X41081344Y57086344D02*
X41085000Y57090000D01*
X58705000Y58470000D02*
X60085000Y57090000D01*
X110705000Y57970000D02*
X109825000Y57090000D01*
X132205000Y56970000D02*
X119705000Y56970000D01*
X20705000Y64970000D02*
X20705000Y61470000D01*
X134005000Y66695000D02*
X134005000Y58770000D01*
X57805000Y66370000D02*
X58705000Y65470000D01*
X25088656Y57086344D02*
X41081344Y57086344D01*
X76855000Y66695000D02*
X77705000Y65845000D01*
X79205000Y57090000D02*
X60205000Y57090000D01*
X96705000Y58090000D02*
X97705000Y57090000D01*
X77705000Y65845000D02*
X77705000Y58590000D01*
X134005000Y58770000D02*
X132205000Y56970000D01*
X41085000Y57090000D02*
X39705000Y58470000D01*
X39705000Y65745000D02*
X38755000Y66695000D01*
X118705000Y57970000D02*
X118705000Y59470000D01*
X20705000Y61470000D02*
X25088656Y57086344D01*
X119705000Y56970000D02*
X118705000Y57970000D01*
X39705000Y58470000D02*
X39705000Y65745000D01*
X77705000Y58590000D02*
X79205000Y57090000D01*
X118705000Y59470000D02*
X117205000Y60970000D01*
X19705000Y66695000D02*
X19705000Y65970000D01*
X57805000Y66695000D02*
X57805000Y66370000D01*
X117205000Y60970000D02*
X111705000Y60970000D01*
X95905000Y66695000D02*
X96705000Y65895000D01*
X58705000Y65470000D02*
X58705000Y58470000D01*
X110705000Y59970000D02*
X110705000Y57970000D01*
X60205000Y57090000D02*
X41085000Y57090000D01*
X96705000Y65895000D02*
X96705000Y58090000D01*
X19705000Y65970000D02*
X20705000Y64970000D01*
G04 #@! TO.N,/row1*
X61205000Y38470000D02*
X61705000Y37970000D01*
X132705000Y37970000D02*
X134705000Y39970000D01*
X57805000Y47645000D02*
X57805000Y47370000D01*
X58705000Y46470000D02*
X58705000Y42470000D01*
X115705000Y46470000D02*
X115705000Y39470000D01*
X41205000Y38470000D02*
X53205000Y38470000D01*
X134705000Y39970000D02*
X134705000Y46945000D01*
X53705000Y38970000D02*
X53705000Y40470000D01*
D20*
X97078000Y54470000D02*
X97078000Y48818000D01*
D21*
X96705000Y46470000D02*
X96705000Y39470000D01*
X96705000Y39470000D02*
X98205000Y37970000D01*
X76855000Y47645000D02*
X76855000Y47320000D01*
X61705000Y37970000D02*
X79205000Y37970000D01*
D20*
X98328000Y55720000D02*
X97078000Y54470000D01*
D21*
X95905000Y47270000D02*
X96705000Y46470000D01*
X53205000Y38470000D02*
X53705000Y38970000D01*
X21705000Y38470000D02*
X41205000Y38470000D01*
X77705000Y46470000D02*
X77705000Y39470000D01*
X117205000Y37970000D02*
X132705000Y37970000D01*
X76855000Y47320000D02*
X77705000Y46470000D01*
X58705000Y42470000D02*
X59205000Y41970000D01*
D20*
X99455000Y55720000D02*
X98328000Y55720000D01*
D21*
X114955000Y47645000D02*
X114955000Y47220000D01*
X39705000Y39970000D02*
X41205000Y38470000D01*
X39705000Y46470000D02*
X39705000Y39970000D01*
X95905000Y47645000D02*
X95905000Y47270000D01*
X53705000Y40470000D02*
X55205000Y41970000D01*
X38755000Y47420000D02*
X39705000Y46470000D01*
X55205000Y41970000D02*
X59205000Y41970000D01*
X59205000Y41970000D02*
X59705000Y41970000D01*
X79205000Y37970000D02*
X98705000Y37970000D01*
X57805000Y47370000D02*
X58705000Y46470000D01*
X134705000Y46945000D02*
X134005000Y47645000D01*
X77705000Y39470000D02*
X79205000Y37970000D01*
X59705000Y41970000D02*
X61205000Y40470000D01*
X98705000Y37970000D02*
X117205000Y37970000D01*
X38755000Y47645000D02*
X38755000Y47420000D01*
D20*
X97078000Y48818000D02*
X95905000Y47645000D01*
D21*
X115705000Y39470000D02*
X117205000Y37970000D01*
X20705000Y39470000D02*
X21705000Y38470000D01*
X19705000Y47470000D02*
X20705000Y46470000D01*
X19705000Y47645000D02*
X19705000Y47470000D01*
X61205000Y40470000D02*
X61205000Y38470000D01*
X114955000Y47220000D02*
X115705000Y46470000D01*
X20705000Y46470000D02*
X20705000Y39470000D01*
G04 #@! TO.N,/row2*
X77705000Y21970000D02*
X79705000Y19970000D01*
X38755000Y28420000D02*
X39705000Y27470000D01*
X20705000Y23470000D02*
X24205000Y19970000D01*
X117205000Y22970000D02*
X118705000Y21470000D01*
X133205000Y19970000D02*
X135205000Y21970000D01*
X76855000Y28320000D02*
X77705000Y27470000D01*
X39705000Y21470000D02*
X41205000Y19970000D01*
X96705000Y27470000D02*
X96705000Y21970000D01*
X38755000Y28595000D02*
X38755000Y28420000D01*
X116705000Y22970000D02*
X117205000Y22970000D01*
X134005000Y28170000D02*
X134005000Y28595000D01*
X58705000Y21470000D02*
X60205000Y19970000D01*
X118705000Y20470000D02*
X119205000Y19970000D01*
X20705000Y27470000D02*
X20705000Y23470000D01*
X114955000Y28220000D02*
X115705000Y27470000D01*
X114955000Y28595000D02*
X114955000Y28220000D01*
X118705000Y21470000D02*
X118705000Y20470000D01*
X98705000Y19970000D02*
X110705000Y19970000D01*
X79705000Y19970000D02*
X98705000Y19970000D01*
X115705000Y27470000D02*
X115705000Y23970000D01*
X76855000Y28595000D02*
X76855000Y28320000D01*
X111205000Y21970000D02*
X112205000Y22970000D01*
X135205000Y21970000D02*
X135205000Y26970000D01*
X77705000Y27470000D02*
X77705000Y21970000D01*
X119205000Y19970000D02*
X133205000Y19970000D01*
X96705000Y21970000D02*
X98705000Y19970000D01*
X58705000Y27470000D02*
X58705000Y21470000D01*
X39705000Y27470000D02*
X39705000Y21470000D01*
X19705000Y28470000D02*
X20705000Y27470000D01*
X115705000Y23970000D02*
X116705000Y22970000D01*
X112205000Y22970000D02*
X116705000Y22970000D01*
X135205000Y26970000D02*
X134005000Y28170000D01*
X24205000Y19970000D02*
X41205000Y19970000D01*
X57805000Y28370000D02*
X58705000Y27470000D01*
X95905000Y28270000D02*
X96705000Y27470000D01*
X57805000Y28595000D02*
X57805000Y28370000D01*
X110705000Y19970000D02*
X111205000Y20470000D01*
X111205000Y20470000D02*
X111205000Y21970000D01*
X60205000Y19970000D02*
X79705000Y19970000D01*
X19705000Y28595000D02*
X19705000Y28470000D01*
X95905000Y28595000D02*
X95905000Y28270000D01*
X41205000Y19970000D02*
X60205000Y19970000D01*
D20*
G04 #@! TO.N,/row3*
X122705000Y81470000D02*
X123205000Y80970000D01*
D21*
X58705000Y2470000D02*
X60205000Y970000D01*
X115705000Y8795000D02*
X115705000Y2470000D01*
X114955000Y9545000D02*
X115705000Y8795000D01*
X41205000Y970000D02*
X60205000Y970000D01*
D20*
X116205000Y81470000D02*
X122705000Y81470000D01*
D21*
X115705000Y2470000D02*
X117205000Y970000D01*
X39705000Y8470000D02*
X39705000Y2470000D01*
X21705000Y970000D02*
X41205000Y970000D01*
X76855000Y9320000D02*
X77705000Y8470000D01*
X95905000Y9270000D02*
X96705000Y8470000D01*
X117205000Y970000D02*
X132205000Y970000D01*
X20705000Y7970000D02*
X20705000Y1970000D01*
X58705000Y8470000D02*
X58705000Y2470000D01*
X38755000Y9420000D02*
X39705000Y8470000D01*
X98205000Y970000D02*
X117205000Y970000D01*
X20705000Y1970000D02*
X21705000Y970000D01*
X77705000Y8470000D02*
X77705000Y2470000D01*
X19705000Y8970000D02*
X20705000Y7970000D01*
X96705000Y8470000D02*
X96705000Y2470000D01*
X60205000Y970000D02*
X79205000Y970000D01*
X39705000Y2470000D02*
X41205000Y970000D01*
X38755000Y9545000D02*
X38755000Y9420000D01*
X77705000Y2470000D02*
X79205000Y970000D01*
X57805000Y9545000D02*
X57805000Y9370000D01*
X132205000Y970000D02*
X134705000Y3470000D01*
X76855000Y9545000D02*
X76855000Y9320000D01*
X57805000Y9370000D02*
X58705000Y8470000D01*
X79205000Y970000D02*
X98205000Y970000D01*
X96705000Y2470000D02*
X98205000Y970000D01*
X95905000Y9545000D02*
X95905000Y9270000D01*
X134705000Y3470000D02*
X134705000Y8845000D01*
X19705000Y9545000D02*
X19705000Y8970000D01*
X134705000Y8845000D02*
X134005000Y9545000D01*
D20*
G04 #@! TO.N,GND*
X87705000Y90970000D02*
X88900000Y89775000D01*
X88900000Y89775000D02*
X88900000Y83820000D01*
X124460000Y87705000D02*
X124460000Y83185000D01*
X125955000Y99220000D02*
X123705000Y101470000D01*
X125920000Y89165000D02*
X124460000Y87705000D01*
X117920000Y89165000D02*
X125920000Y89165000D01*
X123705000Y101470000D02*
X96390000Y101470000D01*
X96390000Y101470000D02*
X93980000Y99060000D01*
G04 #@! TO.N,VCC*
X93980000Y89695000D02*
X93980000Y83820000D01*
X92705000Y90970000D02*
X93980000Y89695000D01*
G04 #@! TO.N,/col0*
X3365000Y23310000D02*
X2655000Y24020000D01*
X7360000Y4260000D02*
X3415000Y4260000D01*
X2655000Y32417000D02*
X2655000Y29470000D01*
X2705000Y67420000D02*
X2655000Y67470000D01*
X2655000Y24020000D02*
X2655000Y29470000D01*
X4558900Y34320900D02*
X2655000Y32417000D01*
X2655000Y67470000D02*
X2655000Y70543300D01*
X79078000Y76843000D02*
X6705000Y76843000D01*
X3686200Y61488800D02*
X2705000Y62470000D01*
X95205000Y80470000D02*
X82705000Y80470000D01*
X2705000Y42470000D02*
X2797400Y42377600D01*
X2705000Y47920000D02*
X2705000Y42470000D01*
X3415000Y4260000D02*
X2655000Y5020000D01*
X2655000Y70543300D02*
X4580500Y72468800D01*
X4560000Y15240000D02*
X2655000Y13335000D01*
X2797400Y42377600D02*
X7381900Y42377600D01*
X2705000Y62470000D02*
X2705000Y67420000D01*
X7380500Y61488800D02*
X3686200Y61488800D01*
X82705000Y80470000D02*
X79078000Y76843000D01*
X4560000Y74698000D02*
X4560000Y72390000D01*
X7360000Y23310000D02*
X3365000Y23310000D01*
X4581900Y53357600D02*
X2655000Y51430700D01*
X97705000Y90970000D02*
X99060000Y89615000D01*
X99060000Y89615000D02*
X99060000Y83820000D01*
X2655000Y51430700D02*
X2655000Y47970000D01*
X2655000Y47970000D02*
X2705000Y47920000D01*
X6705000Y76843000D02*
X4560000Y74698000D01*
X2655000Y5020000D02*
X2655000Y10420000D01*
X2655000Y13335000D02*
X2655000Y10420000D01*
X2655000Y29470000D02*
X2705000Y29420000D01*
D21*
G04 #@! TO.N,/col1*
X21705000Y62470000D02*
X21705000Y67470000D01*
X22765000Y61410000D02*
X21705000Y62470000D01*
D20*
X101600000Y89575000D02*
X101600000Y83820000D01*
D21*
X21705000Y32385000D02*
X21705000Y29470000D01*
X21705000Y13335000D02*
X21705000Y9970000D01*
X21705000Y51435000D02*
X21705000Y48470000D01*
X21705000Y6348705D02*
X21705000Y9970000D01*
X26410000Y61410000D02*
X22765000Y61410000D01*
X21705000Y70485000D02*
X21705000Y67470000D01*
X23610000Y15240000D02*
X21705000Y13335000D01*
D20*
X25205000Y75970000D02*
X23610000Y74375000D01*
D21*
X26410000Y4260000D02*
X23793705Y4260000D01*
X23610000Y72390000D02*
X21705000Y70485000D01*
X21705000Y25398705D02*
X21705000Y29470000D01*
D20*
X96011644Y79163356D02*
X82398356Y79163356D01*
X100205000Y90970000D02*
X101600000Y89575000D01*
D21*
X26410000Y23310000D02*
X23793705Y23310000D01*
D20*
X82398356Y79163356D02*
X79205000Y75970000D01*
D21*
X21705000Y44448705D02*
X21705000Y48470000D01*
X23793705Y42360000D02*
X21705000Y44448705D01*
X26410000Y42360000D02*
X23793705Y42360000D01*
X23793705Y23310000D02*
X21705000Y25398705D01*
X23793705Y4260000D02*
X21705000Y6348705D01*
X23610000Y53340000D02*
X21705000Y51435000D01*
D20*
X79205000Y75970000D02*
X25205000Y75970000D01*
D21*
X23610000Y34290000D02*
X21705000Y32385000D01*
D20*
X23610000Y74375000D02*
X23610000Y72390000D01*
D21*
G04 #@! TO.N,/col2*
X40755000Y13335000D02*
X40755000Y9970000D01*
X40755000Y70485000D02*
X40755000Y67470000D01*
X42843705Y42360000D02*
X40755000Y44448705D01*
X40755000Y51435000D02*
X40755000Y48470000D01*
X40755000Y32385000D02*
X40755000Y29470000D01*
X42843705Y4260000D02*
X40755000Y6348705D01*
X45460000Y4260000D02*
X42843705Y4260000D01*
X42315000Y23310000D02*
X40755000Y24870000D01*
X45460000Y42360000D02*
X42843705Y42360000D01*
X42843705Y61410000D02*
X40755000Y63498705D01*
X45460000Y23310000D02*
X42315000Y23310000D01*
X45460000Y61410000D02*
X42843705Y61410000D01*
D20*
X99050000Y93970000D02*
X102870000Y97790000D01*
D21*
X40755000Y44448705D02*
X40755000Y48470000D01*
X40755000Y6348705D02*
X40755000Y9970000D01*
X40755000Y63498705D02*
X40755000Y67470000D01*
X40755000Y24870000D02*
X40755000Y29470000D01*
X42660000Y34290000D02*
X40755000Y32385000D01*
X42660000Y15240000D02*
X40755000Y13335000D01*
D20*
X85705000Y93970000D02*
X99050000Y93970000D01*
D21*
X42660000Y72390000D02*
X40755000Y70485000D01*
X42660000Y53340000D02*
X40755000Y51435000D01*
D20*
X102705000Y90970000D02*
X104140000Y89535000D01*
X104140000Y89535000D02*
X104140000Y83820000D01*
X83705000Y91970000D02*
X85705000Y93970000D01*
X83705000Y81470000D02*
X83705000Y91970000D01*
D21*
G04 #@! TO.N,/col3*
X59805000Y6348705D02*
X59805000Y9970000D01*
X59805000Y25398705D02*
X59805000Y29470000D01*
X64510000Y42360000D02*
X61893705Y42360000D01*
X59805000Y32385000D02*
X59805000Y29470000D01*
D20*
X106680000Y83820000D02*
X106680000Y81445000D01*
D21*
X61710000Y53340000D02*
X59805000Y51435000D01*
X61893705Y61410000D02*
X59805000Y63498705D01*
X59805000Y44448705D02*
X59805000Y48470000D01*
X64510000Y23310000D02*
X61893705Y23310000D01*
D20*
X106680000Y81445000D02*
X106205000Y80970000D01*
D21*
X64510000Y61410000D02*
X61893705Y61410000D01*
X61893705Y23310000D02*
X59805000Y25398705D01*
D20*
X80705000Y75970000D02*
X79705000Y74970000D01*
D21*
X61710000Y72390000D02*
X59805000Y70485000D01*
D20*
X99205000Y80970000D02*
X94205000Y75970000D01*
X106680000Y89495000D02*
X106680000Y83820000D01*
D21*
X59805000Y13335000D02*
X59805000Y9970000D01*
D20*
X61710000Y73975000D02*
X61710000Y72390000D01*
D21*
X59805000Y51435000D02*
X59805000Y48470000D01*
D20*
X79705000Y74970000D02*
X62705000Y74970000D01*
D21*
X59805000Y63498705D02*
X59805000Y67470000D01*
X61710000Y34290000D02*
X59805000Y32385000D01*
X61893705Y4260000D02*
X59805000Y6348705D01*
D20*
X62705000Y74970000D02*
X61710000Y73975000D01*
X105205000Y90970000D02*
X106680000Y89495000D01*
X94205000Y75970000D02*
X80705000Y75970000D01*
D21*
X61893705Y42360000D02*
X59805000Y44448705D01*
D20*
X106205000Y80970000D02*
X99205000Y80970000D01*
D21*
X59805000Y70485000D02*
X59805000Y67470000D01*
X64510000Y4260000D02*
X61893705Y4260000D01*
X61710000Y15240000D02*
X59805000Y13335000D01*
G04 #@! TO.N,/col4*
X80943705Y23310000D02*
X78855000Y25398705D01*
X78855000Y25398705D02*
X78855000Y29470000D01*
D20*
X80760000Y74025000D02*
X80760000Y72390000D01*
X109220000Y83820000D02*
X109220000Y80485000D01*
D21*
X78855000Y32385000D02*
X78855000Y29470000D01*
X78855000Y44448705D02*
X78855000Y48470000D01*
X83560000Y42360000D02*
X80943705Y42360000D01*
X78855000Y70485000D02*
X78855000Y67470000D01*
D20*
X109220000Y89955000D02*
X109220000Y83820000D01*
X81705000Y74970000D02*
X80760000Y74025000D01*
X94205000Y74970000D02*
X81705000Y74970000D01*
D21*
X78855000Y6348705D02*
X78855000Y9970000D01*
X80943705Y4260000D02*
X78855000Y6348705D01*
X78855000Y13335000D02*
X78855000Y9970000D01*
X80760000Y15240000D02*
X78855000Y13335000D01*
D20*
X108705000Y79970000D02*
X99205000Y79970000D01*
D21*
X83560000Y61410000D02*
X80943705Y61410000D01*
X83560000Y4260000D02*
X80943705Y4260000D01*
X80760000Y34290000D02*
X78855000Y32385000D01*
X78855000Y63498705D02*
X78855000Y67470000D01*
D20*
X99205000Y79970000D02*
X94205000Y74970000D01*
X108205000Y90970000D02*
X109220000Y89955000D01*
X109220000Y80485000D02*
X108705000Y79970000D01*
D21*
X83560000Y23310000D02*
X80943705Y23310000D01*
X80943705Y42360000D02*
X78855000Y44448705D01*
X80760000Y72390000D02*
X78855000Y70485000D01*
X80943705Y61410000D02*
X78855000Y63498705D01*
X78855000Y51435000D02*
X78855000Y48470000D01*
X80760000Y53340000D02*
X78855000Y51435000D01*
D20*
G04 #@! TO.N,/col5*
X110705000Y90970000D02*
X111760000Y89915000D01*
X99705000Y78970000D02*
X98205000Y77470000D01*
D21*
X99810000Y53340000D02*
X97905000Y51435000D01*
D20*
X111760000Y83820000D02*
X111760000Y80525000D01*
D21*
X102610000Y61410000D02*
X99993705Y61410000D01*
X97905000Y25398705D02*
X97905000Y29470000D01*
X99993705Y61410000D02*
X97905000Y63498705D01*
X99993705Y23310000D02*
X97905000Y25398705D01*
D20*
X111760000Y80525000D02*
X110205000Y78970000D01*
D21*
X97905000Y13335000D02*
X97905000Y9970000D01*
D20*
X110205000Y78970000D02*
X99705000Y78970000D01*
X98205000Y73995000D02*
X99810000Y72390000D01*
D21*
X102610000Y4260000D02*
X99993705Y4260000D01*
X97905000Y6348705D02*
X97905000Y9970000D01*
X99993705Y4260000D02*
X97905000Y6348705D01*
X99810000Y15240000D02*
X97905000Y13335000D01*
D20*
X98205000Y77470000D02*
X98205000Y73995000D01*
D21*
X102610000Y42360000D02*
X98815000Y42360000D01*
X102610000Y23310000D02*
X99993705Y23310000D01*
X97905000Y63498705D02*
X97905000Y67470000D01*
X97905000Y43270000D02*
X97905000Y48470000D01*
X97905000Y32385000D02*
X97905000Y29470000D01*
X98815000Y42360000D02*
X97905000Y43270000D01*
X99810000Y72390000D02*
X97905000Y70485000D01*
X97905000Y51435000D02*
X97905000Y48470000D01*
D20*
X111760000Y89915000D02*
X111760000Y83820000D01*
D21*
X97905000Y70485000D02*
X97905000Y67470000D01*
X99810000Y34290000D02*
X97905000Y32385000D01*
D20*
G04 #@! TO.N,/col6*
X114300000Y80375000D02*
X115705000Y78970000D01*
X115705000Y78970000D02*
X116705000Y78970000D01*
D21*
X116955000Y13335000D02*
X116955000Y9970000D01*
X118860000Y15240000D02*
X116955000Y13335000D01*
X116955000Y25398705D02*
X116955000Y29470000D01*
D20*
X113205000Y90970000D02*
X114300000Y89875000D01*
X117705000Y77970000D02*
X117705000Y73545000D01*
D21*
X121660000Y4260000D02*
X119043705Y4260000D01*
D20*
X116705000Y78970000D02*
X117705000Y77970000D01*
D21*
X121660000Y61410000D02*
X119043705Y61410000D01*
D20*
X117705000Y73545000D02*
X118860000Y72390000D01*
D21*
X119043705Y23310000D02*
X116955000Y25398705D01*
X118860000Y34290000D02*
X116955000Y32385000D01*
X116955000Y32385000D02*
X116955000Y29470000D01*
X118860000Y72390000D02*
X116955000Y70485000D01*
X119043705Y4260000D02*
X116955000Y6348705D01*
D20*
X114300000Y83820000D02*
X114300000Y80375000D01*
D21*
X118860000Y53340000D02*
X116955000Y51435000D01*
X119043705Y61410000D02*
X116955000Y63498705D01*
X121660000Y42360000D02*
X119043705Y42360000D01*
X121660000Y23310000D02*
X119043705Y23310000D01*
X116955000Y63498705D02*
X116955000Y67470000D01*
X116955000Y70485000D02*
X116955000Y67470000D01*
X116955000Y44448705D02*
X116955000Y48470000D01*
X119043705Y42360000D02*
X116955000Y44448705D01*
X116955000Y51435000D02*
X116955000Y48470000D01*
D20*
X114300000Y89875000D02*
X114300000Y83820000D01*
D21*
X116955000Y6348705D02*
X116955000Y9970000D01*
D20*
G04 #@! TO.N,/rst*
X90205000Y90970000D02*
X91440000Y89735000D01*
X91440000Y89735000D02*
X91440000Y83820000D01*
G04 #@! TO.N,/sda*
X113935000Y76835000D02*
X110490000Y76835000D01*
G04 #@! TO.N,Net-(D1-A)*
X17060000Y69850000D02*
X17060000Y68115000D01*
X17060000Y69850000D02*
X17180000Y69970000D01*
X17705000Y64165000D02*
X18260000Y63610000D01*
X19705000Y70245000D02*
X19310000Y69850000D01*
X18260000Y66915000D02*
X17705000Y67470000D01*
X19310000Y69850000D02*
X17060000Y69850000D01*
X17060000Y68115000D02*
X17705000Y67470000D01*
X18260000Y63610000D02*
X18260000Y66915000D01*
D21*
G04 #@! TO.N,Net-(D2-A)*
X19705000Y51195000D02*
X17455000Y51195000D01*
X18260000Y48415000D02*
X18205000Y48470000D01*
X18205000Y49655000D02*
X18205000Y48470000D01*
X17455000Y51195000D02*
X17060000Y50800000D01*
X17060000Y50800000D02*
X18205000Y49655000D01*
X18260000Y44560000D02*
X18260000Y48415000D01*
D20*
G04 #@! TO.N,Net-(D3-A)*
X17060000Y30115000D02*
X17705000Y29470000D01*
D21*
X18260000Y28915000D02*
X17705000Y29470000D01*
D20*
X17455000Y32145000D02*
X17060000Y31750000D01*
D21*
X18260000Y25510000D02*
X18260000Y28915000D01*
D20*
X17060000Y31750000D02*
X17060000Y30115000D01*
X19705000Y32145000D02*
X17455000Y32145000D01*
G04 #@! TO.N,Net-(D4-A)*
X19705000Y13095000D02*
X17455000Y13095000D01*
X17060000Y11115000D02*
X18205000Y9970000D01*
D21*
X18260000Y6460000D02*
X18260000Y9915000D01*
D20*
X17060000Y12700000D02*
X17060000Y11115000D01*
D21*
X18260000Y9915000D02*
X18205000Y9970000D01*
D20*
X17455000Y13095000D02*
X17060000Y12700000D01*
D21*
G04 #@! TO.N,Net-(D5-A)*
X37310000Y63610000D02*
X37310000Y66865000D01*
X36505000Y70245000D02*
X36110000Y69850000D01*
X38755000Y70245000D02*
X36505000Y70245000D01*
X36110000Y68065000D02*
X36705000Y67470000D01*
X36110000Y69850000D02*
X36110000Y68065000D01*
X37310000Y66865000D02*
X36705000Y67470000D01*
G04 #@! TO.N,Net-(D6-A)*
X36505000Y51195000D02*
X36110000Y50800000D01*
X37310000Y48365000D02*
X37205000Y48470000D01*
X37310000Y44560000D02*
X37310000Y48365000D01*
X36110000Y50800000D02*
X36110000Y49565000D01*
X38755000Y51195000D02*
X36505000Y51195000D01*
X36110000Y49565000D02*
X37205000Y48470000D01*
G04 #@! TO.N,Net-(D7-A)*
X37310000Y25510000D02*
X37310000Y29365000D01*
X36505000Y32145000D02*
X36110000Y31750000D01*
X38755000Y32145000D02*
X36505000Y32145000D01*
X36110000Y31750000D02*
X37205000Y30655000D01*
X37310000Y29365000D02*
X37205000Y29470000D01*
X37205000Y30655000D02*
X37205000Y29470000D01*
D20*
G04 #@! TO.N,Net-(D8-A)*
X36110000Y11065000D02*
X37205000Y9970000D01*
X36505000Y13095000D02*
X36110000Y12700000D01*
X36110000Y12700000D02*
X36110000Y11065000D01*
D21*
X37310000Y9865000D02*
X37205000Y9970000D01*
D20*
X38755000Y13095000D02*
X36505000Y13095000D01*
D21*
X37310000Y6460000D02*
X37310000Y9865000D01*
G04 #@! TO.N,Net-(D9-A)*
X55160000Y69850000D02*
X55160000Y68515000D01*
X56360000Y67315000D02*
X56205000Y67470000D01*
X55555000Y70245000D02*
X55160000Y69850000D01*
X57805000Y70245000D02*
X55555000Y70245000D01*
X55160000Y68515000D02*
X56205000Y67470000D01*
X56360000Y63610000D02*
X56360000Y67315000D01*
G04 #@! TO.N,Net-(D10-A)*
X55160000Y49515000D02*
X56205000Y48470000D01*
X55555000Y51195000D02*
X55160000Y50800000D01*
X55160000Y50800000D02*
X55160000Y49515000D01*
X56360000Y44560000D02*
X56360000Y48315000D01*
X57805000Y51195000D02*
X55555000Y51195000D01*
X56360000Y48315000D02*
X56205000Y48470000D01*
G04 #@! TO.N,Net-(D11-A)*
X55160000Y31750000D02*
X55160000Y30515000D01*
X56360000Y29315000D02*
X56205000Y29470000D01*
X57805000Y32145000D02*
X55555000Y32145000D01*
X56360000Y25510000D02*
X56360000Y29315000D01*
X55160000Y30515000D02*
X56205000Y29470000D01*
X55555000Y32145000D02*
X55160000Y31750000D01*
G04 #@! TO.N,Net-(D12-A)*
X56360000Y6460000D02*
X56360000Y9815000D01*
D20*
X55160000Y11015000D02*
X56205000Y9970000D01*
X55160000Y12700000D02*
X55160000Y11015000D01*
X57805000Y13095000D02*
X55555000Y13095000D01*
X55555000Y13095000D02*
X55160000Y12700000D01*
D21*
X56360000Y9815000D02*
X56205000Y9970000D01*
G04 #@! TO.N,Net-(D13-A)*
X74210000Y69850000D02*
X74210000Y68465000D01*
X74605000Y70245000D02*
X74210000Y69850000D01*
X75410000Y63610000D02*
X75410000Y67265000D01*
X75410000Y67265000D02*
X75205000Y67470000D01*
X76855000Y70245000D02*
X74605000Y70245000D01*
X74210000Y68465000D02*
X75205000Y67470000D01*
G04 #@! TO.N,Net-(D14-A)*
X74210000Y50800000D02*
X74210000Y49465000D01*
X76855000Y51195000D02*
X74605000Y51195000D01*
X74605000Y51195000D02*
X74210000Y50800000D01*
X74210000Y49465000D02*
X75205000Y48470000D01*
X75410000Y48265000D02*
X75205000Y48470000D01*
X75410000Y44560000D02*
X75410000Y48265000D01*
G04 #@! TO.N,Net-(D15-A)*
X74605000Y32145000D02*
X74210000Y31750000D01*
X76855000Y32145000D02*
X74605000Y32145000D01*
X74210000Y30465000D02*
X75205000Y29470000D01*
X74210000Y31750000D02*
X74210000Y30465000D01*
X75410000Y25510000D02*
X75410000Y29265000D01*
X75410000Y29265000D02*
X75205000Y29470000D01*
D20*
G04 #@! TO.N,Net-(D16-A)*
X74605000Y13095000D02*
X74210000Y12700000D01*
X74210000Y12700000D02*
X74210000Y10965000D01*
D21*
X75410000Y9765000D02*
X75205000Y9970000D01*
X75410000Y6460000D02*
X75410000Y9765000D01*
D20*
X74210000Y10965000D02*
X75205000Y9970000D01*
X76855000Y13095000D02*
X74605000Y13095000D01*
D21*
G04 #@! TO.N,Net-(D17-A)*
X93260000Y69850000D02*
X93260000Y68415000D01*
X93260000Y68415000D02*
X94205000Y67470000D01*
X94460000Y63610000D02*
X94460000Y67215000D01*
X93655000Y70245000D02*
X93260000Y69850000D01*
X94460000Y67215000D02*
X94205000Y67470000D01*
X95905000Y70245000D02*
X93655000Y70245000D01*
G04 #@! TO.N,Net-(D18-A)*
X93260000Y50800000D02*
X93260000Y49415000D01*
X95905000Y51195000D02*
X93655000Y51195000D01*
X94460000Y44560000D02*
X94460000Y48215000D01*
X93655000Y51195000D02*
X93260000Y50800000D01*
X94460000Y48215000D02*
X94205000Y48470000D01*
X93260000Y49415000D02*
X94205000Y48470000D01*
G04 #@! TO.N,Net-(D19-A)*
X94460000Y29215000D02*
X94205000Y29470000D01*
X94460000Y25510000D02*
X94460000Y29215000D01*
X93655000Y32145000D02*
X93260000Y31750000D01*
X93260000Y31750000D02*
X93260000Y30415000D01*
X95905000Y32145000D02*
X93655000Y32145000D01*
X93260000Y30415000D02*
X94205000Y29470000D01*
G04 #@! TO.N,Net-(D20-A)*
X94460000Y9715000D02*
X94205000Y9970000D01*
D20*
X93260000Y12700000D02*
X93260000Y10915000D01*
X93655000Y13095000D02*
X93260000Y12700000D01*
X93260000Y10915000D02*
X94205000Y9970000D01*
X95905000Y13095000D02*
X93655000Y13095000D01*
D21*
X94460000Y6460000D02*
X94460000Y9715000D01*
G04 #@! TO.N,Net-(D21-A)*
X114955000Y70245000D02*
X112705000Y70245000D01*
X112310000Y69850000D02*
X112310000Y68365000D01*
X112310000Y68365000D02*
X113205000Y67470000D01*
X113510000Y67165000D02*
X113205000Y67470000D01*
X113510000Y63610000D02*
X113510000Y67165000D01*
X112705000Y70245000D02*
X112310000Y69850000D01*
G04 #@! TO.N,Net-(D22-A)*
X114955000Y51195000D02*
X112705000Y51195000D01*
X112705000Y51195000D02*
X112310000Y50800000D01*
X113510000Y44560000D02*
X113510000Y47665000D01*
X112310000Y50800000D02*
X112310000Y48865000D01*
X113510000Y47665000D02*
X113205000Y47970000D01*
X112310000Y48865000D02*
X113205000Y47970000D01*
G04 #@! TO.N,Net-(D23-A)*
X113205000Y28970000D02*
X113510000Y28665000D01*
X113205000Y28970000D02*
X112310000Y29865000D01*
X113510000Y28665000D02*
X113510000Y25510000D01*
X112310000Y29865000D02*
X112310000Y31750000D01*
X112705000Y32145000D02*
X112310000Y31750000D01*
X114955000Y32145000D02*
X112705000Y32145000D01*
D20*
G04 #@! TO.N,Net-(D24-A)*
X112310000Y10865000D02*
X113205000Y9970000D01*
D21*
X113510000Y9665000D02*
X113205000Y9970000D01*
D20*
X114955000Y13095000D02*
X112705000Y13095000D01*
X112310000Y12700000D02*
X112310000Y10865000D01*
X112705000Y13095000D02*
X112310000Y12700000D01*
D21*
X113510000Y6460000D02*
X113510000Y9665000D01*
D20*
G04 #@! TO.N,Net-(D25-A)*
X134005000Y70245000D02*
X131755000Y70245000D01*
X131360000Y68315000D02*
X132205000Y67470000D01*
D21*
X132560000Y67115000D02*
X132205000Y67470000D01*
D20*
X131755000Y70245000D02*
X131360000Y69850000D01*
D21*
X132560000Y63610000D02*
X132560000Y67115000D01*
D20*
X131360000Y69850000D02*
X131360000Y68315000D01*
D21*
G04 #@! TO.N,Net-(D26-A)*
X132560000Y47825000D02*
X132705000Y47970000D01*
D20*
X131360000Y49315000D02*
X132705000Y47970000D01*
D21*
X132560000Y44560000D02*
X132560000Y47825000D01*
D20*
X131360000Y50800000D02*
X131360000Y49315000D01*
X134005000Y51195000D02*
X131755000Y51195000D01*
X131755000Y51195000D02*
X131360000Y50800000D01*
G04 #@! TO.N,Net-(D27-A)*
X134005000Y32145000D02*
X131755000Y32145000D01*
X131360000Y31750000D02*
X132705000Y30405000D01*
D21*
X132560000Y29325000D02*
X132705000Y29470000D01*
D20*
X131755000Y32145000D02*
X131360000Y31750000D01*
D21*
X132560000Y25510000D02*
X132560000Y29325000D01*
D20*
X132705000Y30405000D02*
X132705000Y29470000D01*
G04 #@! TO.N,Net-(D28-A)*
X134005000Y13095000D02*
X131755000Y13095000D01*
X131360000Y12700000D02*
X131360000Y11315000D01*
X131360000Y11315000D02*
X132705000Y9970000D01*
D21*
X132560000Y6460000D02*
X132560000Y9825000D01*
D20*
X131755000Y13095000D02*
X131360000Y12700000D01*
D21*
X132560000Y9825000D02*
X132705000Y9970000D01*
D20*
G04 #@! TO.N,/scl{slash}uart*
X127510000Y94665000D02*
X121920000Y94665000D01*
X128705000Y93470000D02*
X127510000Y94665000D01*
X99060000Y99060000D02*
X100470000Y100470000D01*
X100470000Y100470000D02*
X116115000Y100470000D01*
X116115000Y100470000D02*
X121920000Y94665000D01*
X128705000Y77670000D02*
X128705000Y93470000D01*
X129540000Y76835000D02*
X128705000Y77670000D01*
G04 #@! TD*
G04 #@! TA.AperFunction,Conductor*
G04 #@! TO.N,VCC*
G36*
X127443617Y101714498D02*
G01*
X127464591Y101697595D01*
X129637595Y99524591D01*
X129671621Y99462279D01*
X129674500Y99435496D01*
X129674500Y80075892D01*
X129674500Y79944108D01*
X129699467Y79850927D01*
X129708607Y79816817D01*
X129708610Y79816810D01*
X129774497Y79702690D01*
X129774505Y79702680D01*
X135352595Y74124591D01*
X135386621Y74062279D01*
X135389500Y74035496D01*
X135389500Y70904186D01*
X135369498Y70836065D01*
X135315842Y70789572D01*
X135245568Y70779468D01*
X135180988Y70808962D01*
X135145445Y70860153D01*
X135117281Y70935662D01*
X135105889Y70966204D01*
X135105888Y70966206D01*
X135105887Y70966208D01*
X135018261Y71083262D01*
X134901207Y71170888D01*
X134901202Y71170890D01*
X134764204Y71221989D01*
X134764196Y71221991D01*
X134703649Y71228500D01*
X134703638Y71228500D01*
X133306362Y71228500D01*
X133306350Y71228500D01*
X133245803Y71221991D01*
X133245795Y71221989D01*
X133108797Y71170890D01*
X133108792Y71170888D01*
X132984525Y71077861D01*
X132982561Y71080485D01*
X132934320Y71054164D01*
X132863506Y71059254D01*
X132806712Y71101785D01*
X132723261Y71213262D01*
X132606207Y71300888D01*
X132606202Y71300890D01*
X132469204Y71351989D01*
X132469196Y71351991D01*
X132408649Y71358500D01*
X132408638Y71358500D01*
X130311362Y71358500D01*
X130311350Y71358500D01*
X130250803Y71351991D01*
X130250795Y71351989D01*
X130113797Y71300890D01*
X130113792Y71300888D01*
X129996738Y71213262D01*
X129909112Y71096208D01*
X129909111Y71096205D01*
X129861416Y70968332D01*
X129818869Y70911497D01*
X129752349Y70886687D01*
X129682975Y70901779D01*
X129643399Y70935662D01*
X129588926Y71006653D01*
X129588907Y71006674D01*
X129426673Y71168908D01*
X129426652Y71168927D01*
X129244615Y71308609D01*
X129244608Y71308614D01*
X129045900Y71423338D01*
X129045892Y71423342D01*
X129045888Y71423344D01*
X128833887Y71511158D01*
X128699767Y71547095D01*
X128639144Y71584047D01*
X128608123Y71647908D01*
X128615968Y71717017D01*
X128661158Y71826113D01*
X128720548Y72047762D01*
X128750500Y72275266D01*
X128750500Y72504734D01*
X128720548Y72732238D01*
X128661158Y72953887D01*
X128573344Y73165888D01*
X128573338Y73165897D01*
X128573337Y73165901D01*
X128458613Y73364609D01*
X128458608Y73364616D01*
X128318926Y73546653D01*
X128318907Y73546674D01*
X128156673Y73708908D01*
X128156652Y73708927D01*
X127974615Y73848609D01*
X127974608Y73848614D01*
X127775900Y73963338D01*
X127775892Y73963342D01*
X127775888Y73963344D01*
X127563887Y74051158D01*
X127342238Y74110548D01*
X127342231Y74110550D01*
X127114736Y74140500D01*
X127114734Y74140500D01*
X126885266Y74140500D01*
X126885263Y74140500D01*
X126657768Y74110550D01*
X126445298Y74053619D01*
X126436113Y74051158D01*
X126403360Y74037591D01*
X126224110Y73963343D01*
X126224099Y73963338D01*
X126025391Y73848614D01*
X126025384Y73848609D01*
X125843347Y73708927D01*
X125843326Y73708908D01*
X125681092Y73546674D01*
X125681073Y73546653D01*
X125541391Y73364616D01*
X125541386Y73364609D01*
X125426662Y73165901D01*
X125426657Y73165890D01*
X125338842Y72953887D01*
X125279450Y72732232D01*
X125249500Y72504737D01*
X125249500Y72275264D01*
X125279450Y72047769D01*
X125279452Y72047762D01*
X125338842Y71826113D01*
X125426656Y71614112D01*
X125426657Y71614111D01*
X125426662Y71614100D01*
X125541386Y71415392D01*
X125541391Y71415385D01*
X125681073Y71233348D01*
X125681092Y71233327D01*
X125843326Y71071093D01*
X125843347Y71071074D01*
X126025384Y70931392D01*
X126025391Y70931387D01*
X126224099Y70816663D01*
X126224103Y70816662D01*
X126224112Y70816656D01*
X126436113Y70728842D01*
X126570233Y70692905D01*
X126630855Y70655955D01*
X126661876Y70592094D01*
X126654030Y70522982D01*
X126608843Y70413890D01*
X126549450Y70192232D01*
X126519500Y69964737D01*
X126519500Y69735264D01*
X126549450Y69507769D01*
X126555337Y69485799D01*
X126608842Y69286113D01*
X126696656Y69074112D01*
X126696657Y69074111D01*
X126696662Y69074100D01*
X126811386Y68875392D01*
X126811391Y68875385D01*
X126951073Y68693348D01*
X126951092Y68693327D01*
X127113326Y68531093D01*
X127113347Y68531074D01*
X127295384Y68391392D01*
X127295391Y68391387D01*
X127494099Y68276663D01*
X127494103Y68276662D01*
X127494112Y68276656D01*
X127706113Y68188842D01*
X127927762Y68129452D01*
X127927766Y68129452D01*
X127927768Y68129451D01*
X127984843Y68121937D01*
X128155266Y68099500D01*
X128155273Y68099500D01*
X128384727Y68099500D01*
X128384734Y68099500D01*
X128501534Y68114878D01*
X128571680Y68103939D01*
X128624779Y68056811D01*
X128643969Y67988458D01*
X128623158Y67920580D01*
X128619916Y67915898D01*
X128598769Y67886791D01*
X128520130Y67732453D01*
X128520127Y67732447D01*
X128520127Y67732445D01*
X128500298Y67671419D01*
X128474207Y67591118D01*
X128466598Y67567701D01*
X128439500Y67396611D01*
X128439500Y67223389D01*
X128466598Y67052299D01*
X128520127Y66887555D01*
X128520128Y66887552D01*
X128520130Y66887548D01*
X128598768Y66733212D01*
X128700587Y66593070D01*
X128823069Y66470588D01*
X128823072Y66470586D01*
X128963212Y66368768D01*
X129117555Y66290127D01*
X129282299Y66236598D01*
X129453389Y66209500D01*
X129453402Y66209500D01*
X129454577Y66209407D01*
X129455342Y66209192D01*
X129458279Y66208726D01*
X129458223Y66208379D01*
X129494131Y66198253D01*
X129494586Y66199350D01*
X129499155Y66197458D01*
X129499163Y66197456D01*
X129499168Y66197453D01*
X129678882Y66139060D01*
X129865519Y66109500D01*
X129865522Y66109500D01*
X130054478Y66109500D01*
X130054481Y66109500D01*
X130241118Y66139060D01*
X130420832Y66197453D01*
X130589199Y66283240D01*
X130742073Y66394310D01*
X130875690Y66527927D01*
X130986760Y66680801D01*
X131072547Y66849168D01*
X131130940Y67028882D01*
X131135489Y67057608D01*
X131165898Y67121758D01*
X131226165Y67159287D01*
X131297154Y67158275D01*
X131356327Y67119044D01*
X131369056Y67100898D01*
X131370472Y67098446D01*
X131370473Y67098444D01*
X131465960Y66933056D01*
X131465962Y66933054D01*
X131465965Y66933049D01*
X131593744Y66791136D01*
X131593747Y66791134D01*
X131748248Y66678882D01*
X131876749Y66621670D01*
X131930844Y66575691D01*
X131951494Y66507764D01*
X131951500Y66506564D01*
X131951500Y65244500D01*
X131931498Y65176379D01*
X131877842Y65129886D01*
X131825500Y65118500D01*
X131511350Y65118500D01*
X131450803Y65111991D01*
X131450795Y65111989D01*
X131313797Y65060890D01*
X131313792Y65060888D01*
X131196738Y64973262D01*
X131109112Y64856208D01*
X131109111Y64856205D01*
X131058145Y64719563D01*
X131015598Y64662728D01*
X130949077Y64637918D01*
X130879703Y64653010D01*
X130840128Y64686893D01*
X130778926Y64766653D01*
X130778907Y64766674D01*
X130616673Y64928908D01*
X130616652Y64928927D01*
X130434615Y65068609D01*
X130434608Y65068614D01*
X130235900Y65183338D01*
X130235892Y65183342D01*
X130235888Y65183344D01*
X130023887Y65271158D01*
X129802238Y65330548D01*
X129802231Y65330550D01*
X129574736Y65360500D01*
X129574734Y65360500D01*
X129345266Y65360500D01*
X129345263Y65360500D01*
X129117768Y65330550D01*
X128956222Y65287264D01*
X128896113Y65271158D01*
X128698989Y65189506D01*
X128684110Y65183343D01*
X128684099Y65183338D01*
X128485391Y65068614D01*
X128485384Y65068609D01*
X128303347Y64928927D01*
X128303326Y64928908D01*
X128141092Y64766674D01*
X128141073Y64766653D01*
X128001391Y64584616D01*
X128001386Y64584609D01*
X127886662Y64385901D01*
X127886657Y64385890D01*
X127798842Y64173887D01*
X127739450Y63952232D01*
X127709500Y63724737D01*
X127709500Y63495264D01*
X127739450Y63267769D01*
X127739452Y63267762D01*
X127798842Y63046113D01*
X127886656Y62834112D01*
X127886657Y62834111D01*
X127886662Y62834100D01*
X128001386Y62635392D01*
X128001391Y62635385D01*
X128141073Y62453348D01*
X128141092Y62453327D01*
X128303326Y62291093D01*
X128303347Y62291074D01*
X128485384Y62151392D01*
X128485391Y62151387D01*
X128684099Y62036663D01*
X128684103Y62036662D01*
X128684112Y62036656D01*
X128896113Y61948842D01*
X129117762Y61889452D01*
X129117766Y61889452D01*
X129117768Y61889451D01*
X129176398Y61881733D01*
X129345266Y61859500D01*
X129345273Y61859500D01*
X129574727Y61859500D01*
X129574734Y61859500D01*
X129780345Y61886570D01*
X129802231Y61889451D01*
X129802231Y61889452D01*
X129802238Y61889452D01*
X130023887Y61948842D01*
X130235888Y62036656D01*
X130434612Y62151389D01*
X130616661Y62291081D01*
X130778919Y62453339D01*
X130840129Y62533111D01*
X130897465Y62574975D01*
X130968336Y62579197D01*
X131030239Y62544433D01*
X131058145Y62500438D01*
X131109111Y62363796D01*
X131109112Y62363793D01*
X131196738Y62246739D01*
X131313792Y62159113D01*
X131313794Y62159112D01*
X131313796Y62159111D01*
X131334505Y62151387D01*
X131450795Y62108012D01*
X131450803Y62108010D01*
X131511350Y62101501D01*
X131511355Y62101501D01*
X131511362Y62101500D01*
X133270500Y62101500D01*
X133338621Y62081498D01*
X133385114Y62027842D01*
X133396500Y61975500D01*
X133396500Y59074239D01*
X133376498Y59006118D01*
X133359595Y58985144D01*
X131989856Y57615405D01*
X131927544Y57581379D01*
X131900761Y57578500D01*
X120009239Y57578500D01*
X119941118Y57598502D01*
X119920144Y57615405D01*
X119350405Y58185144D01*
X119316379Y58247456D01*
X119313500Y58274239D01*
X119313500Y59550110D01*
X119272032Y59704872D01*
X119272032Y59704873D01*
X119191923Y59843625D01*
X119191915Y59843635D01*
X117578627Y61456922D01*
X116350405Y62685144D01*
X116316379Y62747456D01*
X116313500Y62774239D01*
X116313500Y62975465D01*
X116333502Y63043586D01*
X116387158Y63090079D01*
X116457432Y63100183D01*
X116522012Y63070689D01*
X116528595Y63064560D01*
X118670071Y60923084D01*
X118670076Y60923080D01*
X118670078Y60923078D01*
X118670079Y60923077D01*
X118670081Y60923076D01*
X118767609Y60866768D01*
X118808832Y60842968D01*
X118886213Y60822234D01*
X118963594Y60801500D01*
X118963595Y60801500D01*
X119123815Y60801500D01*
X120125500Y60801500D01*
X120193621Y60781498D01*
X120240114Y60727842D01*
X120251500Y60675500D01*
X120251500Y60361351D01*
X120258009Y60300804D01*
X120258011Y60300796D01*
X120309110Y60163798D01*
X120309112Y60163793D01*
X120396738Y60046739D01*
X120513792Y59959113D01*
X120513794Y59959112D01*
X120513796Y59959111D01*
X120534505Y59951387D01*
X120650795Y59908012D01*
X120650803Y59908010D01*
X120711350Y59901501D01*
X120711355Y59901501D01*
X120711362Y59901500D01*
X120711368Y59901500D01*
X122608632Y59901500D01*
X122608638Y59901500D01*
X122608645Y59901501D01*
X122608649Y59901501D01*
X122669196Y59908010D01*
X122669199Y59908011D01*
X122669201Y59908011D01*
X122806204Y59959111D01*
X122923261Y60046739D01*
X122984701Y60128813D01*
X123016290Y60171010D01*
X123018787Y60169141D01*
X123057983Y60208371D01*
X123127350Y60223494D01*
X123193881Y60198713D01*
X123207513Y60186906D01*
X123303326Y60091093D01*
X123303347Y60091074D01*
X123485384Y59951392D01*
X123485391Y59951387D01*
X123684099Y59836663D01*
X123684103Y59836662D01*
X123684112Y59836656D01*
X123896113Y59748842D01*
X124117762Y59689452D01*
X124117766Y59689452D01*
X124117768Y59689451D01*
X124176398Y59681733D01*
X124345266Y59659500D01*
X124345273Y59659500D01*
X124574727Y59659500D01*
X124574734Y59659500D01*
X124780345Y59686570D01*
X124802231Y59689451D01*
X124802231Y59689452D01*
X124802238Y59689452D01*
X125023887Y59748842D01*
X125235888Y59836656D01*
X125434612Y59951389D01*
X125616661Y60091081D01*
X125778919Y60253339D01*
X125918611Y60435388D01*
X126033344Y60634112D01*
X126121158Y60846113D01*
X126180548Y61067762D01*
X126210500Y61295266D01*
X126210500Y61524734D01*
X126180548Y61752238D01*
X126121158Y61973887D01*
X126033344Y62185888D01*
X126033338Y62185897D01*
X126033337Y62185901D01*
X125918613Y62384609D01*
X125918608Y62384616D01*
X125778926Y62566653D01*
X125778907Y62566674D01*
X125616673Y62728908D01*
X125616652Y62728927D01*
X125434615Y62868609D01*
X125434608Y62868614D01*
X125235900Y62983338D01*
X125235892Y62983342D01*
X125235888Y62983344D01*
X125023887Y63071158D01*
X124802238Y63130548D01*
X124802231Y63130550D01*
X124574736Y63160500D01*
X124574734Y63160500D01*
X124345266Y63160500D01*
X124345263Y63160500D01*
X124117768Y63130550D01*
X123927828Y63079656D01*
X123896113Y63071158D01*
X123708839Y62993586D01*
X123684110Y62983343D01*
X123684099Y62983338D01*
X123485391Y62868614D01*
X123485384Y62868609D01*
X123303347Y62728927D01*
X123303334Y62728915D01*
X123207513Y62633094D01*
X123145201Y62599069D01*
X123074385Y62604135D01*
X123017549Y62646682D01*
X123014710Y62651100D01*
X122923261Y62773262D01*
X122806207Y62860888D01*
X122806202Y62860890D01*
X122669204Y62911989D01*
X122669196Y62911991D01*
X122608649Y62918500D01*
X122608638Y62918500D01*
X121251170Y62918500D01*
X121183049Y62938502D01*
X121136556Y62992158D01*
X121126452Y63062432D01*
X121129460Y63077099D01*
X121180548Y63267762D01*
X121210500Y63495266D01*
X121210500Y63724734D01*
X121180548Y63952238D01*
X121121158Y64173887D01*
X121033344Y64385888D01*
X121033338Y64385897D01*
X121033337Y64385901D01*
X120918613Y64584609D01*
X120918608Y64584616D01*
X120778926Y64766653D01*
X120778907Y64766674D01*
X120616673Y64928908D01*
X120616652Y64928927D01*
X120434615Y65068609D01*
X120434608Y65068614D01*
X120235900Y65183338D01*
X120235892Y65183342D01*
X120235888Y65183344D01*
X120023887Y65271158D01*
X119802238Y65330548D01*
X119802231Y65330550D01*
X119574736Y65360500D01*
X119574734Y65360500D01*
X119345266Y65360500D01*
X119345263Y65360500D01*
X119117768Y65330550D01*
X118956222Y65287264D01*
X118896113Y65271158D01*
X118698989Y65189506D01*
X118684110Y65183343D01*
X118684099Y65183338D01*
X118485391Y65068614D01*
X118485384Y65068609D01*
X118303347Y64928927D01*
X118303326Y64928908D01*
X118141092Y64766674D01*
X118141073Y64766653D01*
X118001391Y64584616D01*
X118001386Y64584609D01*
X117886662Y64385901D01*
X117886657Y64385890D01*
X117886656Y64385888D01*
X117825882Y64239165D01*
X117805909Y64190947D01*
X117761361Y64135666D01*
X117693997Y64113245D01*
X117625206Y64130803D01*
X117576828Y64182765D01*
X117563500Y64239165D01*
X117563500Y66739710D01*
X117583502Y66807831D01*
X117595859Y66824016D01*
X117642045Y66875311D01*
X117702488Y66912548D01*
X117773471Y66911197D01*
X117832456Y66871683D01*
X117847944Y66848203D01*
X117916239Y66714167D01*
X117933242Y66680798D01*
X118044311Y66527925D01*
X118177924Y66394312D01*
X118177927Y66394310D01*
X118330801Y66283240D01*
X118499168Y66197453D01*
X118678882Y66139060D01*
X118865519Y66109500D01*
X118865522Y66109500D01*
X119054478Y66109500D01*
X119054481Y66109500D01*
X119241118Y66139060D01*
X119420832Y66197453D01*
X119420837Y66197457D01*
X119420844Y66197458D01*
X119425414Y66199350D01*
X119425870Y66198249D01*
X119461776Y66208378D01*
X119461721Y66208726D01*
X119464660Y66209192D01*
X119465424Y66209407D01*
X119466596Y66209500D01*
X119466611Y66209500D01*
X119637701Y66236598D01*
X119802445Y66290127D01*
X119956788Y66368768D01*
X120096928Y66470586D01*
X120219414Y66593072D01*
X120321232Y66733212D01*
X120399873Y66887555D01*
X120453402Y67052299D01*
X120480500Y67223389D01*
X120480500Y67396611D01*
X120470855Y67457509D01*
X122209500Y67457509D01*
X122209500Y67162492D01*
X122248005Y66870015D01*
X122248006Y66870009D01*
X122248007Y66870007D01*
X122324361Y66585048D01*
X122437257Y66312493D01*
X122437258Y66312492D01*
X122437263Y66312481D01*
X122584759Y66057010D01*
X122584764Y66057003D01*
X122764346Y65822967D01*
X122764365Y65822946D01*
X122972945Y65614366D01*
X122972966Y65614347D01*
X123207002Y65434765D01*
X123207009Y65434760D01*
X123462480Y65287264D01*
X123462484Y65287263D01*
X123462493Y65287257D01*
X123735048Y65174361D01*
X124020007Y65098007D01*
X124020013Y65098007D01*
X124020014Y65098006D01*
X124053574Y65093588D01*
X124312494Y65059500D01*
X124312501Y65059500D01*
X124607499Y65059500D01*
X124607506Y65059500D01*
X124899993Y65098007D01*
X125184952Y65174361D01*
X125457507Y65287257D01*
X125712994Y65434762D01*
X125947042Y65614354D01*
X126155646Y65822958D01*
X126335238Y66057006D01*
X126482743Y66312493D01*
X126595639Y66585048D01*
X126671993Y66870007D01*
X126710500Y67162494D01*
X126710500Y67457506D01*
X126671993Y67749993D01*
X126595639Y68034952D01*
X126482743Y68307507D01*
X126482737Y68307516D01*
X126482736Y68307520D01*
X126335240Y68562991D01*
X126335235Y68562998D01*
X126155653Y68797034D01*
X126155634Y68797055D01*
X125947054Y69005635D01*
X125947033Y69005654D01*
X125712997Y69185236D01*
X125712990Y69185241D01*
X125457519Y69332737D01*
X125457511Y69332741D01*
X125457507Y69332743D01*
X125184952Y69445639D01*
X124899993Y69521993D01*
X124899991Y69521994D01*
X124899985Y69521995D01*
X124607508Y69560500D01*
X124607506Y69560500D01*
X124312494Y69560500D01*
X124312491Y69560500D01*
X124020014Y69521995D01*
X123884947Y69485804D01*
X123735048Y69445639D01*
X123501249Y69348796D01*
X123462491Y69332742D01*
X123462480Y69332737D01*
X123207009Y69185241D01*
X123207002Y69185236D01*
X122972966Y69005654D01*
X122972945Y69005635D01*
X122764365Y68797055D01*
X122764346Y68797034D01*
X122584764Y68562998D01*
X122584759Y68562991D01*
X122437263Y68307520D01*
X122437258Y68307509D01*
X122437257Y68307507D01*
X122384437Y68179988D01*
X122324361Y68034952D01*
X122248005Y67749986D01*
X122209500Y67457509D01*
X120470855Y67457509D01*
X120453402Y67567701D01*
X120399873Y67732445D01*
X120390935Y67749986D01*
X120321232Y67886788D01*
X120300084Y67915896D01*
X120276226Y67982763D01*
X120292307Y68051915D01*
X120343222Y68101395D01*
X120412804Y68115494D01*
X120418425Y68114883D01*
X120535266Y68099500D01*
X120535273Y68099500D01*
X120764727Y68099500D01*
X120764734Y68099500D01*
X120970345Y68126570D01*
X120992231Y68129451D01*
X120992231Y68129452D01*
X120992238Y68129452D01*
X121213887Y68188842D01*
X121425888Y68276656D01*
X121624612Y68391389D01*
X121806661Y68531081D01*
X121968919Y68693339D01*
X122108611Y68875388D01*
X122223344Y69074112D01*
X122311158Y69286113D01*
X122370548Y69507762D01*
X122400500Y69735266D01*
X122400500Y69964734D01*
X122370548Y70192238D01*
X122311158Y70413887D01*
X122265968Y70522984D01*
X122258380Y70593570D01*
X122290159Y70657058D01*
X122349765Y70692905D01*
X122483887Y70728842D01*
X122695888Y70816656D01*
X122894612Y70931389D01*
X123076661Y71071081D01*
X123238919Y71233339D01*
X123378611Y71415388D01*
X123493344Y71614112D01*
X123581158Y71826113D01*
X123640548Y72047762D01*
X123670500Y72275266D01*
X123670500Y72504734D01*
X123640548Y72732238D01*
X123581158Y72953887D01*
X123493344Y73165888D01*
X123493338Y73165897D01*
X123493337Y73165901D01*
X123378613Y73364609D01*
X123378608Y73364616D01*
X123238926Y73546653D01*
X123238907Y73546674D01*
X123076673Y73708908D01*
X123076652Y73708927D01*
X122894615Y73848609D01*
X122894608Y73848614D01*
X122695900Y73963338D01*
X122695892Y73963342D01*
X122695888Y73963344D01*
X122483887Y74051158D01*
X122262238Y74110548D01*
X122262231Y74110550D01*
X122034736Y74140500D01*
X122034734Y74140500D01*
X121805266Y74140500D01*
X121805263Y74140500D01*
X121577768Y74110550D01*
X121365298Y74053619D01*
X121356113Y74051158D01*
X121323360Y74037591D01*
X121144110Y73963343D01*
X121144099Y73963338D01*
X120945391Y73848614D01*
X120945384Y73848609D01*
X120763347Y73708927D01*
X120763326Y73708908D01*
X120601092Y73546674D01*
X120601077Y73546657D01*
X120566786Y73501969D01*
X120509447Y73460103D01*
X120438576Y73455883D01*
X120376674Y73490648D01*
X120348771Y73534638D01*
X120310889Y73636204D01*
X120310886Y73636208D01*
X120310886Y73636209D01*
X120223261Y73753262D01*
X120106207Y73840888D01*
X120106202Y73840890D01*
X119969204Y73891989D01*
X119969196Y73891991D01*
X119908649Y73898500D01*
X119908638Y73898500D01*
X118466500Y73898500D01*
X118398379Y73918502D01*
X118351886Y73972158D01*
X118340500Y74024500D01*
X118340500Y75724049D01*
X118360502Y75792170D01*
X118414158Y75838663D01*
X118484432Y75848767D01*
X118538771Y75827262D01*
X118723501Y75697913D01*
X118930926Y75601189D01*
X118930931Y75601187D01*
X119151999Y75541952D01*
X119151995Y75541952D01*
X119380000Y75522005D01*
X119608002Y75541952D01*
X119829068Y75601187D01*
X119829073Y75601189D01*
X120036497Y75697912D01*
X120107888Y75747901D01*
X120107888Y75747902D01*
X119420789Y76435000D01*
X119432661Y76435000D01*
X119534394Y76462259D01*
X119625606Y76514920D01*
X119700080Y76589394D01*
X119752741Y76680606D01*
X119780000Y76782339D01*
X119780000Y76794209D01*
X120467097Y76107112D01*
X120467099Y76107112D01*
X120517088Y76178503D01*
X120613811Y76385927D01*
X120613813Y76385932D01*
X120673048Y76606998D01*
X120692995Y76835000D01*
X120673048Y77063003D01*
X120613813Y77284069D01*
X120613811Y77284074D01*
X120517086Y77491502D01*
X120467100Y77562890D01*
X120467098Y77562890D01*
X119780000Y76875792D01*
X119780000Y76887661D01*
X119752741Y76989394D01*
X119700080Y77080606D01*
X119625606Y77155080D01*
X119534394Y77207741D01*
X119432661Y77235000D01*
X119420789Y77235000D01*
X120107888Y77922101D01*
X120107888Y77922102D01*
X120036501Y77972087D01*
X119829073Y78068812D01*
X119829068Y78068814D01*
X119608000Y78128049D01*
X119608004Y78128049D01*
X119380000Y78147996D01*
X119151997Y78128049D01*
X118930931Y78068814D01*
X118930926Y78068812D01*
X118723501Y77972088D01*
X118538772Y77842739D01*
X118471498Y77820051D01*
X118402637Y77837336D01*
X118354053Y77889106D01*
X118340501Y77945952D01*
X118340501Y78032587D01*
X118340501Y78032591D01*
X118316078Y78155368D01*
X118308619Y78173375D01*
X118283851Y78233173D01*
X118268174Y78271020D01*
X118268173Y78271021D01*
X118268173Y78271022D01*
X118198625Y78375108D01*
X118110108Y78463625D01*
X117110108Y79463625D01*
X117006022Y79533173D01*
X116890369Y79581078D01*
X116767593Y79605500D01*
X116767591Y79605500D01*
X116020423Y79605500D01*
X115952302Y79625502D01*
X115931328Y79642405D01*
X114972405Y80601328D01*
X114938379Y80663640D01*
X114935500Y80690423D01*
X114935500Y81470000D01*
X115291496Y81470000D01*
X115311457Y81280073D01*
X115324558Y81239755D01*
X115370473Y81098444D01*
X115370476Y81098439D01*
X115465958Y80933059D01*
X115465965Y80933049D01*
X115593744Y80791136D01*
X115593747Y80791134D01*
X115748248Y80678882D01*
X115922712Y80601206D01*
X116109513Y80561500D01*
X116300487Y80561500D01*
X116487288Y80601206D01*
X116661752Y80678882D01*
X116816253Y80791134D01*
X116817047Y80792017D01*
X116817761Y80792808D01*
X116818876Y80793496D01*
X116821163Y80795554D01*
X116821539Y80795136D01*
X116878206Y80830049D01*
X116911399Y80834500D01*
X122202229Y80834500D01*
X122270350Y80814498D01*
X122316843Y80760842D01*
X122322061Y80747440D01*
X122370473Y80598444D01*
X122370476Y80598439D01*
X122465958Y80433059D01*
X122465965Y80433049D01*
X122593744Y80291136D01*
X122593747Y80291134D01*
X122748248Y80178882D01*
X122922712Y80101206D01*
X123109513Y80061500D01*
X123300487Y80061500D01*
X123487288Y80101206D01*
X123661752Y80178882D01*
X123816253Y80291134D01*
X123835409Y80312409D01*
X123944034Y80433049D01*
X123944035Y80433051D01*
X123944040Y80433056D01*
X124039527Y80598444D01*
X124098542Y80780072D01*
X124118504Y80970000D01*
X124098542Y81159928D01*
X124039527Y81341556D01*
X123944040Y81506944D01*
X123944038Y81506946D01*
X123944034Y81506952D01*
X123816255Y81648865D01*
X123661752Y81761118D01*
X123487288Y81838794D01*
X123300487Y81878500D01*
X123247423Y81878500D01*
X123179302Y81898502D01*
X123158328Y81915405D01*
X123110110Y81963623D01*
X123110108Y81963625D01*
X123006022Y82033173D01*
X122903454Y82075658D01*
X122890374Y82081076D01*
X122890369Y82081078D01*
X122767593Y82105500D01*
X122767591Y82105500D01*
X120401448Y82105500D01*
X120333327Y82125502D01*
X120286834Y82179158D01*
X120276730Y82249432D01*
X120306224Y82314012D01*
X120312353Y82320595D01*
X120330552Y82338794D01*
X120356977Y82365219D01*
X120484488Y82547323D01*
X120578440Y82748804D01*
X120635978Y82963537D01*
X120655353Y83185000D01*
X120635978Y83406463D01*
X120578440Y83621196D01*
X120484488Y83822676D01*
X120356977Y84004781D01*
X120199781Y84161977D01*
X120199777Y84161980D01*
X120199772Y84161984D01*
X120017677Y84289488D01*
X120017675Y84289489D01*
X119816199Y84383439D01*
X119816193Y84383441D01*
X119774074Y84394727D01*
X119601463Y84440978D01*
X119380000Y84460353D01*
X119158537Y84440978D01*
X119043463Y84410144D01*
X118943806Y84383441D01*
X118943801Y84383439D01*
X118742323Y84289488D01*
X118560222Y84161980D01*
X118560216Y84161975D01*
X118403025Y84004784D01*
X118403020Y84004778D01*
X118275512Y83822677D01*
X118197084Y83654488D01*
X118181560Y83621196D01*
X118124022Y83406463D01*
X118104647Y83185000D01*
X118124022Y82963537D01*
X118170273Y82790926D01*
X118181559Y82748807D01*
X118181561Y82748801D01*
X118275511Y82547325D01*
X118275512Y82547323D01*
X118403016Y82365228D01*
X118403025Y82365217D01*
X118447647Y82320595D01*
X118481673Y82258283D01*
X118476608Y82187468D01*
X118434061Y82130632D01*
X118367541Y82105821D01*
X118358552Y82105500D01*
X116911399Y82105500D01*
X116843278Y82125502D01*
X116817761Y82147192D01*
X116816254Y82148865D01*
X116734826Y82208026D01*
X116661752Y82261118D01*
X116487288Y82338794D01*
X116300487Y82378500D01*
X116109513Y82378500D01*
X115922711Y82338794D01*
X115748247Y82261118D01*
X115593744Y82148865D01*
X115465965Y82006952D01*
X115465958Y82006942D01*
X115370476Y81841562D01*
X115370473Y81841556D01*
X115355999Y81797014D01*
X115311457Y81659928D01*
X115291496Y81470000D01*
X114935500Y81470000D01*
X114935500Y82648396D01*
X114955502Y82716517D01*
X114989229Y82751609D01*
X115017583Y82771463D01*
X115119781Y82843023D01*
X115276977Y83000219D01*
X115404488Y83182323D01*
X115498440Y83383804D01*
X115555978Y83598537D01*
X115575353Y83820000D01*
X115555978Y84041463D01*
X115498440Y84256196D01*
X115404488Y84457676D01*
X115276977Y84639781D01*
X115119781Y84796977D01*
X115119771Y84796984D01*
X114989229Y84888392D01*
X114944901Y84943850D01*
X114935500Y84991605D01*
X114935500Y89165000D01*
X116530454Y89165000D01*
X116544095Y89000375D01*
X116549407Y88936281D01*
X116605741Y88713819D01*
X116605744Y88713812D01*
X116697930Y88503650D01*
X116823452Y88311523D01*
X116978879Y88142684D01*
X116978884Y88142680D01*
X116978886Y88142678D01*
X117159990Y88001719D01*
X117361826Y87892491D01*
X117361827Y87892491D01*
X117361828Y87892490D01*
X117475791Y87853367D01*
X117578887Y87817974D01*
X117805252Y87780200D01*
X117805256Y87780200D01*
X118034744Y87780200D01*
X118034748Y87780200D01*
X118261113Y87817974D01*
X118478174Y87892491D01*
X118680010Y88001719D01*
X118861114Y88142678D01*
X119016547Y88311523D01*
X119121663Y88472415D01*
X119175666Y88518504D01*
X119227146Y88529500D01*
X124081577Y88529500D01*
X124149698Y88509498D01*
X124196191Y88455842D01*
X124206295Y88385568D01*
X124176801Y88320988D01*
X124170672Y88314405D01*
X123966377Y88110111D01*
X123966372Y88110104D01*
X123896827Y88006023D01*
X123848924Y87890375D01*
X123848922Y87890370D01*
X123824500Y87767594D01*
X123824500Y84356603D01*
X123804498Y84288482D01*
X123770770Y84253390D01*
X123640227Y84161984D01*
X123640216Y84161975D01*
X123483025Y84004784D01*
X123483020Y84004778D01*
X123355512Y83822677D01*
X123277084Y83654488D01*
X123261560Y83621196D01*
X123204022Y83406463D01*
X123184647Y83185000D01*
X123204022Y82963537D01*
X123250273Y82790926D01*
X123261559Y82748807D01*
X123261561Y82748801D01*
X123355511Y82547325D01*
X123355512Y82547323D01*
X123483016Y82365228D01*
X123483020Y82365223D01*
X123483023Y82365219D01*
X123640219Y82208023D01*
X123640223Y82208020D01*
X123640227Y82208017D01*
X123669574Y82187468D01*
X123822323Y82080512D01*
X124023804Y81986560D01*
X124238537Y81929022D01*
X124460000Y81909647D01*
X124681463Y81929022D01*
X124896196Y81986560D01*
X125097677Y82080512D01*
X125279781Y82208023D01*
X125436977Y82365219D01*
X125564488Y82547323D01*
X125658440Y82748804D01*
X125715978Y82963537D01*
X125735353Y83185000D01*
X125715978Y83406463D01*
X125658440Y83621196D01*
X125564488Y83822676D01*
X125436977Y84004781D01*
X125279781Y84161977D01*
X125255170Y84179210D01*
X125149229Y84253392D01*
X125104901Y84308850D01*
X125095500Y84356605D01*
X125095500Y87389577D01*
X125115502Y87457698D01*
X125132405Y87478672D01*
X125443482Y87789749D01*
X125505794Y87823775D01*
X125573489Y87819828D01*
X125578887Y87817974D01*
X125805252Y87780200D01*
X125805256Y87780200D01*
X126034744Y87780200D01*
X126034748Y87780200D01*
X126261113Y87817974D01*
X126478174Y87892491D01*
X126680010Y88001719D01*
X126861114Y88142678D01*
X127016547Y88311523D01*
X127142069Y88503649D01*
X127234257Y88713815D01*
X127290594Y88936288D01*
X127309546Y89165000D01*
X127290594Y89393712D01*
X127260699Y89511767D01*
X127234258Y89616182D01*
X127234255Y89616189D01*
X127211099Y89668978D01*
X127142069Y89826351D01*
X127110549Y89874596D01*
X127016547Y90018478D01*
X126861120Y90187317D01*
X126859254Y90188769D01*
X126680010Y90328281D01*
X126680009Y90328282D01*
X126531547Y90408625D01*
X126478174Y90437509D01*
X126478172Y90437510D01*
X126478171Y90437511D01*
X126261117Y90512025D01*
X126261110Y90512027D01*
X126164232Y90528193D01*
X126034748Y90549800D01*
X125805252Y90549800D01*
X125691967Y90530897D01*
X125578889Y90512027D01*
X125578882Y90512025D01*
X125361828Y90437511D01*
X125361826Y90437509D01*
X125159990Y90328282D01*
X125159989Y90328281D01*
X124978879Y90187317D01*
X124823452Y90018478D01*
X124718337Y89857585D01*
X124664334Y89811496D01*
X124612854Y89800500D01*
X123241575Y89800500D01*
X123173454Y89820502D01*
X123126961Y89874158D01*
X123116857Y89944432D01*
X123136094Y89995418D01*
X123141628Y90003889D01*
X123233780Y90213975D01*
X123233783Y90213982D01*
X123290097Y90436364D01*
X123309043Y90665000D01*
X123290097Y90893637D01*
X123233783Y91116019D01*
X123233780Y91116026D01*
X123141629Y91326109D01*
X123062078Y91447870D01*
X123062077Y91447870D01*
X122441798Y90827591D01*
X122428884Y90875787D01*
X122356989Y91000313D01*
X122255313Y91101989D01*
X122130787Y91173884D01*
X122082588Y91186799D01*
X122704430Y91808641D01*
X122704429Y91808642D01*
X122679740Y91827858D01*
X122679733Y91827863D01*
X122477972Y91937049D01*
X122477969Y91937051D01*
X122260994Y92011539D01*
X122260987Y92011541D01*
X122034702Y92049300D01*
X121805298Y92049300D01*
X121579012Y92011541D01*
X121579005Y92011539D01*
X121362030Y91937051D01*
X121362027Y91937050D01*
X121160266Y91827862D01*
X121160262Y91827859D01*
X121135569Y91808642D01*
X121135569Y91808640D01*
X121757410Y91186799D01*
X121709213Y91173884D01*
X121584687Y91101989D01*
X121483011Y91000313D01*
X121411116Y90875787D01*
X121398201Y90827589D01*
X120777920Y91447870D01*
X120698369Y91326106D01*
X120698367Y91326103D01*
X120606219Y91116026D01*
X120606216Y91116019D01*
X120549902Y90893637D01*
X120530956Y90665000D01*
X120549902Y90436364D01*
X120606216Y90213982D01*
X120606219Y90213975D01*
X120698371Y90003889D01*
X120703906Y89995418D01*
X120724421Y89927450D01*
X120704934Y89859181D01*
X120651630Y89812284D01*
X120598425Y89800500D01*
X119227146Y89800500D01*
X119159025Y89820502D01*
X119121663Y89857585D01*
X119016547Y90018478D01*
X118861120Y90187317D01*
X118859254Y90188769D01*
X118680010Y90328281D01*
X118680009Y90328282D01*
X118531547Y90408625D01*
X118478174Y90437509D01*
X118478172Y90437510D01*
X118478171Y90437511D01*
X118261117Y90512025D01*
X118261110Y90512027D01*
X118164232Y90528193D01*
X118034748Y90549800D01*
X117805252Y90549800D01*
X117691967Y90530897D01*
X117578889Y90512027D01*
X117578882Y90512025D01*
X117361828Y90437511D01*
X117361826Y90437509D01*
X117159990Y90328282D01*
X117159989Y90328281D01*
X116978879Y90187317D01*
X116823452Y90018478D01*
X116697930Y89826351D01*
X116605744Y89616189D01*
X116605741Y89616182D01*
X116549407Y89393720D01*
X116549406Y89393714D01*
X116549406Y89393712D01*
X116530454Y89165000D01*
X114935500Y89165000D01*
X114935500Y89937590D01*
X114935499Y89937594D01*
X114934999Y89940108D01*
X114911078Y90060369D01*
X114863173Y90176022D01*
X114793625Y90280108D01*
X114705108Y90368625D01*
X114151789Y90921944D01*
X114117763Y90984256D01*
X114115576Y90997854D01*
X114098542Y91159928D01*
X114039527Y91341556D01*
X113944040Y91506944D01*
X113944038Y91506946D01*
X113944034Y91506952D01*
X113816255Y91648865D01*
X113661752Y91761118D01*
X113487288Y91838794D01*
X113300487Y91878500D01*
X113109513Y91878500D01*
X112922711Y91838794D01*
X112748247Y91761118D01*
X112593744Y91648865D01*
X112465965Y91506952D01*
X112465958Y91506942D01*
X112370476Y91341562D01*
X112370473Y91341555D01*
X112311457Y91159928D01*
X112291496Y90970000D01*
X112311457Y90780073D01*
X112325487Y90736895D01*
X112370473Y90598444D01*
X112384302Y90574491D01*
X112431773Y90492269D01*
X112448511Y90423274D01*
X112444984Y90413084D01*
X112506260Y90386413D01*
X112519098Y90374039D01*
X112593744Y90291136D01*
X112593747Y90291134D01*
X112748248Y90178882D01*
X112922712Y90101206D01*
X113109513Y90061500D01*
X113162577Y90061500D01*
X113230698Y90041498D01*
X113251672Y90024595D01*
X113627595Y89648672D01*
X113661621Y89586360D01*
X113664500Y89559577D01*
X113664500Y84991603D01*
X113644498Y84923482D01*
X113610770Y84888390D01*
X113480227Y84796984D01*
X113480216Y84796975D01*
X113323025Y84639784D01*
X113323020Y84639778D01*
X113195512Y84457677D01*
X113144195Y84347627D01*
X113097277Y84294342D01*
X113029000Y84274881D01*
X112961040Y84295423D01*
X112915805Y84347627D01*
X112872274Y84440978D01*
X112864488Y84457676D01*
X112736977Y84639781D01*
X112579781Y84796977D01*
X112579771Y84796984D01*
X112449229Y84888392D01*
X112404901Y84943850D01*
X112395500Y84991605D01*
X112395500Y89977590D01*
X112395499Y89977594D01*
X112394999Y89980108D01*
X112371078Y90100369D01*
X112323173Y90216022D01*
X112320697Y90219728D01*
X112299482Y90287477D01*
X112304590Y90306099D01*
X112298808Y90305546D01*
X112235704Y90338079D01*
X112233559Y90340174D01*
X111651789Y90921944D01*
X111617763Y90984256D01*
X111615576Y90997854D01*
X111598542Y91159928D01*
X111539527Y91341556D01*
X111444040Y91506944D01*
X111444038Y91506946D01*
X111444034Y91506952D01*
X111316255Y91648865D01*
X111161752Y91761118D01*
X110987288Y91838794D01*
X110800487Y91878500D01*
X110609513Y91878500D01*
X110422711Y91838794D01*
X110248247Y91761118D01*
X110093744Y91648865D01*
X109965965Y91506952D01*
X109965958Y91506942D01*
X109870476Y91341562D01*
X109870473Y91341555D01*
X109811457Y91159928D01*
X109791496Y90970000D01*
X109811457Y90780073D01*
X109825487Y90736895D01*
X109870473Y90598444D01*
X109901022Y90545531D01*
X109955308Y90451506D01*
X109957977Y90440504D01*
X109967635Y90431195D01*
X110093744Y90291136D01*
X110093747Y90291134D01*
X110248248Y90178882D01*
X110422712Y90101206D01*
X110609513Y90061500D01*
X110662577Y90061500D01*
X110730698Y90041498D01*
X110751672Y90024595D01*
X111087595Y89688672D01*
X111121621Y89626360D01*
X111124500Y89599577D01*
X111124500Y84991603D01*
X111104498Y84923482D01*
X111070770Y84888390D01*
X110940227Y84796984D01*
X110940216Y84796975D01*
X110783025Y84639784D01*
X110783020Y84639778D01*
X110655512Y84457677D01*
X110604195Y84347627D01*
X110557277Y84294342D01*
X110489000Y84274881D01*
X110421040Y84295423D01*
X110375805Y84347627D01*
X110332274Y84440978D01*
X110324488Y84457676D01*
X110196977Y84639781D01*
X110039781Y84796977D01*
X110039771Y84796984D01*
X109909229Y84888392D01*
X109864901Y84943850D01*
X109855500Y84991605D01*
X109855500Y90017590D01*
X109855499Y90017594D01*
X109831078Y90140369D01*
X109783173Y90256022D01*
X109769233Y90276884D01*
X109763528Y90295104D01*
X109759239Y90297315D01*
X109741424Y90318504D01*
X109716248Y90356182D01*
X109713625Y90360108D01*
X109625108Y90448625D01*
X109151789Y90921944D01*
X109117763Y90984256D01*
X109115576Y90997854D01*
X109098542Y91159928D01*
X109039527Y91341556D01*
X108944040Y91506944D01*
X108944038Y91506946D01*
X108944034Y91506952D01*
X108816255Y91648865D01*
X108661752Y91761118D01*
X108487288Y91838794D01*
X108300487Y91878500D01*
X108109513Y91878500D01*
X107922711Y91838794D01*
X107748247Y91761118D01*
X107593744Y91648865D01*
X107465965Y91506952D01*
X107465958Y91506942D01*
X107370476Y91341562D01*
X107370473Y91341555D01*
X107311457Y91159928D01*
X107291496Y90970000D01*
X107311457Y90780073D01*
X107325487Y90736895D01*
X107370473Y90598444D01*
X107384302Y90574491D01*
X107465958Y90433059D01*
X107465965Y90433049D01*
X107593744Y90291136D01*
X107593747Y90291134D01*
X107748248Y90178882D01*
X107922712Y90101206D01*
X108109513Y90061500D01*
X108162577Y90061500D01*
X108230698Y90041498D01*
X108251672Y90024595D01*
X108547595Y89728672D01*
X108581621Y89666360D01*
X108584500Y89639577D01*
X108584500Y84991603D01*
X108564498Y84923482D01*
X108530770Y84888390D01*
X108400227Y84796984D01*
X108400216Y84796975D01*
X108243025Y84639784D01*
X108243020Y84639778D01*
X108115512Y84457677D01*
X108064195Y84347627D01*
X108017277Y84294342D01*
X107949000Y84274881D01*
X107881040Y84295423D01*
X107835805Y84347627D01*
X107792274Y84440978D01*
X107784488Y84457676D01*
X107656977Y84639781D01*
X107499781Y84796977D01*
X107499771Y84796984D01*
X107369229Y84888392D01*
X107324901Y84943850D01*
X107315500Y84991605D01*
X107315500Y89557590D01*
X107315499Y89557594D01*
X107314048Y89564890D01*
X107291078Y89680369D01*
X107243173Y89796022D01*
X107173625Y89900108D01*
X107085108Y89988625D01*
X106151789Y90921944D01*
X106117763Y90984256D01*
X106115576Y90997854D01*
X106098542Y91159928D01*
X106039527Y91341556D01*
X105944040Y91506944D01*
X105944038Y91506946D01*
X105944034Y91506952D01*
X105816255Y91648865D01*
X105661752Y91761118D01*
X105487288Y91838794D01*
X105300487Y91878500D01*
X105109513Y91878500D01*
X104922711Y91838794D01*
X104748247Y91761118D01*
X104593744Y91648865D01*
X104465965Y91506952D01*
X104465958Y91506942D01*
X104370476Y91341562D01*
X104370473Y91341555D01*
X104311457Y91159928D01*
X104291496Y90970000D01*
X104311457Y90780073D01*
X104325487Y90736895D01*
X104370473Y90598444D01*
X104384302Y90574491D01*
X104431773Y90492269D01*
X104448511Y90423274D01*
X104425291Y90356182D01*
X104369483Y90312295D01*
X104298808Y90305546D01*
X104235704Y90338079D01*
X104233559Y90340174D01*
X103651789Y90921944D01*
X103617763Y90984256D01*
X103615576Y90997854D01*
X103598542Y91159928D01*
X103539527Y91341556D01*
X103444040Y91506944D01*
X103444038Y91506946D01*
X103444034Y91506952D01*
X103316255Y91648865D01*
X103161752Y91761118D01*
X102987288Y91838794D01*
X102800487Y91878500D01*
X102609513Y91878500D01*
X102422711Y91838794D01*
X102248247Y91761118D01*
X102093744Y91648865D01*
X101965965Y91506952D01*
X101965958Y91506942D01*
X101870476Y91341562D01*
X101870473Y91341555D01*
X101811457Y91159928D01*
X101791496Y90970000D01*
X101811457Y90780073D01*
X101825487Y90736895D01*
X101870473Y90598444D01*
X101884302Y90574491D01*
X101931773Y90492269D01*
X101948511Y90423274D01*
X101925291Y90356182D01*
X101869483Y90312295D01*
X101798808Y90305546D01*
X101735704Y90338079D01*
X101733559Y90340174D01*
X101151789Y90921944D01*
X101117763Y90984256D01*
X101115576Y90997854D01*
X101098542Y91159928D01*
X101039527Y91341556D01*
X100944040Y91506944D01*
X100944038Y91506946D01*
X100944034Y91506952D01*
X100816255Y91648865D01*
X100661752Y91761118D01*
X100487288Y91838794D01*
X100300487Y91878500D01*
X100109513Y91878500D01*
X99922711Y91838794D01*
X99748247Y91761118D01*
X99593744Y91648865D01*
X99465965Y91506952D01*
X99465958Y91506942D01*
X99370476Y91341562D01*
X99370473Y91341555D01*
X99311457Y91159928D01*
X99291496Y90970000D01*
X99311457Y90780073D01*
X99325487Y90736895D01*
X99370473Y90598444D01*
X99384302Y90574491D01*
X99431773Y90492269D01*
X99448511Y90423274D01*
X99425291Y90356182D01*
X99369483Y90312295D01*
X99298808Y90305546D01*
X99235704Y90338079D01*
X99233559Y90340174D01*
X98651789Y90921944D01*
X98617763Y90984256D01*
X98615576Y90997854D01*
X98598542Y91159928D01*
X98539527Y91341556D01*
X98444040Y91506944D01*
X98444038Y91506946D01*
X98444034Y91506952D01*
X98316255Y91648865D01*
X98161752Y91761118D01*
X97987288Y91838794D01*
X97800487Y91878500D01*
X97609513Y91878500D01*
X97422711Y91838794D01*
X97248247Y91761118D01*
X97093744Y91648865D01*
X96965965Y91506952D01*
X96965958Y91506942D01*
X96870476Y91341562D01*
X96870473Y91341555D01*
X96811457Y91159928D01*
X96791496Y90970000D01*
X96811457Y90780073D01*
X96825487Y90736895D01*
X96870473Y90598444D01*
X96884302Y90574491D01*
X96931773Y90492269D01*
X96948511Y90423274D01*
X96925291Y90356182D01*
X96869483Y90312295D01*
X96798808Y90305546D01*
X96735704Y90338079D01*
X96733559Y90340174D01*
X96151789Y90921944D01*
X96117763Y90984256D01*
X96115576Y90997854D01*
X96098542Y91159928D01*
X96039527Y91341556D01*
X95944040Y91506944D01*
X95944038Y91506946D01*
X95944034Y91506952D01*
X95816255Y91648865D01*
X95661752Y91761118D01*
X95487288Y91838794D01*
X95300487Y91878500D01*
X95109513Y91878500D01*
X94922711Y91838794D01*
X94748247Y91761118D01*
X94593744Y91648865D01*
X94465965Y91506952D01*
X94465958Y91506942D01*
X94370476Y91341562D01*
X94370473Y91341555D01*
X94311457Y91159928D01*
X94291496Y90970000D01*
X94311457Y90780073D01*
X94325487Y90736895D01*
X94370473Y90598444D01*
X94384302Y90574491D01*
X94465958Y90433059D01*
X94465965Y90433049D01*
X94593744Y90291136D01*
X94593747Y90291134D01*
X94748248Y90178882D01*
X94922712Y90101206D01*
X95109513Y90061500D01*
X95162577Y90061500D01*
X95230698Y90041498D01*
X95251672Y90024595D01*
X95847595Y89428672D01*
X95881621Y89366360D01*
X95884500Y89339577D01*
X95884500Y84991603D01*
X95864498Y84923482D01*
X95830770Y84888390D01*
X95700227Y84796984D01*
X95700216Y84796975D01*
X95543025Y84639784D01*
X95543020Y84639778D01*
X95415512Y84457677D01*
X95363919Y84347035D01*
X95317002Y84293750D01*
X95248724Y84274289D01*
X95180764Y84294831D01*
X95135529Y84347035D01*
X95084051Y84457429D01*
X95039815Y84520605D01*
X95039812Y84520605D01*
X94390000Y83870793D01*
X94390000Y83873978D01*
X94362059Y83978254D01*
X94308082Y84071746D01*
X94231746Y84148082D01*
X94138254Y84202059D01*
X94033978Y84230000D01*
X94030790Y84230000D01*
X94680603Y84879815D01*
X94680603Y84879816D01*
X94617425Y84924054D01*
X94416027Y85017967D01*
X94416023Y85017969D01*
X94201374Y85075483D01*
X93980000Y85094851D01*
X93758625Y85075483D01*
X93543976Y85017969D01*
X93543972Y85017967D01*
X93342575Y84924054D01*
X93279394Y84879815D01*
X93929209Y84230000D01*
X93926022Y84230000D01*
X93821746Y84202059D01*
X93728254Y84148082D01*
X93651918Y84071746D01*
X93597941Y83978254D01*
X93570000Y83873978D01*
X93570000Y83870790D01*
X92920184Y84520606D01*
X92875945Y84457423D01*
X92824469Y84347034D01*
X92777552Y84293749D01*
X92709274Y84274289D01*
X92641315Y84294831D01*
X92596080Y84347036D01*
X92544488Y84457676D01*
X92416977Y84639781D01*
X92259781Y84796977D01*
X92259771Y84796984D01*
X92129229Y84888392D01*
X92084901Y84943850D01*
X92075500Y84991605D01*
X92075500Y89797590D01*
X92075499Y89797594D01*
X92074921Y89800500D01*
X92051078Y89920369D01*
X92003173Y90036022D01*
X91933625Y90140108D01*
X91845108Y90228625D01*
X91151789Y90921944D01*
X91117763Y90984256D01*
X91115576Y90997854D01*
X91098542Y91159928D01*
X91039527Y91341556D01*
X90944040Y91506944D01*
X90944038Y91506946D01*
X90944034Y91506952D01*
X90816255Y91648865D01*
X90661752Y91761118D01*
X90487288Y91838794D01*
X90300487Y91878500D01*
X90109513Y91878500D01*
X89922711Y91838794D01*
X89748247Y91761118D01*
X89593744Y91648865D01*
X89465965Y91506952D01*
X89465958Y91506942D01*
X89370476Y91341562D01*
X89370473Y91341555D01*
X89311457Y91159928D01*
X89291496Y90970000D01*
X89311457Y90780073D01*
X89325487Y90736895D01*
X89370473Y90598444D01*
X89384302Y90574491D01*
X89431773Y90492269D01*
X89448511Y90423274D01*
X89425291Y90356182D01*
X89369483Y90312295D01*
X89298808Y90305546D01*
X89235704Y90338079D01*
X89233559Y90340174D01*
X88651789Y90921944D01*
X88617763Y90984256D01*
X88615576Y90997854D01*
X88598542Y91159928D01*
X88539527Y91341556D01*
X88444040Y91506944D01*
X88444038Y91506946D01*
X88444034Y91506952D01*
X88316255Y91648865D01*
X88161752Y91761118D01*
X87987288Y91838794D01*
X87800487Y91878500D01*
X87609513Y91878500D01*
X87422711Y91838794D01*
X87248247Y91761118D01*
X87093744Y91648865D01*
X86965965Y91506952D01*
X86965958Y91506942D01*
X86870476Y91341562D01*
X86870473Y91341555D01*
X86811457Y91159928D01*
X86791496Y90970000D01*
X86811457Y90780073D01*
X86825487Y90736895D01*
X86870473Y90598444D01*
X86884302Y90574491D01*
X86965958Y90433059D01*
X86965965Y90433049D01*
X87093744Y90291136D01*
X87093747Y90291134D01*
X87248248Y90178882D01*
X87422712Y90101206D01*
X87609513Y90061500D01*
X87662577Y90061500D01*
X87730698Y90041498D01*
X87751672Y90024595D01*
X88227595Y89548672D01*
X88261621Y89486360D01*
X88264500Y89459577D01*
X88264500Y84991603D01*
X88244498Y84923482D01*
X88210770Y84888390D01*
X88080227Y84796984D01*
X88080216Y84796975D01*
X87923025Y84639784D01*
X87923020Y84639778D01*
X87795512Y84457677D01*
X87744195Y84347627D01*
X87697277Y84294342D01*
X87629000Y84274881D01*
X87561040Y84295423D01*
X87515805Y84347627D01*
X87472274Y84440978D01*
X87464488Y84457676D01*
X87336977Y84639781D01*
X87179781Y84796977D01*
X87179771Y84796984D01*
X87049229Y84888392D01*
X87004901Y84943850D01*
X86995500Y84991605D01*
X86995500Y88877590D01*
X86995499Y88877594D01*
X86971078Y89000369D01*
X86923173Y89116022D01*
X86853625Y89220108D01*
X86765108Y89308625D01*
X85884856Y90188877D01*
X85850830Y90251189D01*
X85855895Y90322004D01*
X85880315Y90362283D01*
X85944040Y90433056D01*
X86039527Y90598444D01*
X86098542Y90780072D01*
X86118504Y90970000D01*
X86098542Y91159928D01*
X86039527Y91341556D01*
X85944040Y91506944D01*
X85944038Y91506946D01*
X85944034Y91506952D01*
X85816255Y91648865D01*
X85661752Y91761118D01*
X85487288Y91838794D01*
X85300487Y91878500D01*
X85109513Y91878500D01*
X84922711Y91838794D01*
X84748246Y91761117D01*
X84742531Y91757817D01*
X84741419Y91759743D01*
X84684237Y91739357D01*
X84615089Y91755454D01*
X84565622Y91806381D01*
X84551540Y91875967D01*
X84577315Y91942120D01*
X84587972Y91954240D01*
X85182502Y92548770D01*
X119069500Y92548770D01*
X119069500Y92548767D01*
X119069500Y92381233D01*
X119102184Y92216918D01*
X119166297Y92062137D01*
X119186039Y92032591D01*
X119259373Y91922839D01*
X119259378Y91922833D01*
X119377832Y91804379D01*
X119377838Y91804374D01*
X119517137Y91711297D01*
X119671918Y91647184D01*
X119836233Y91614500D01*
X119836234Y91614500D01*
X120003766Y91614500D01*
X120003767Y91614500D01*
X120168082Y91647184D01*
X120322863Y91711297D01*
X120462162Y91804374D01*
X120580626Y91922838D01*
X120673703Y92062137D01*
X120737816Y92216918D01*
X120770500Y92381233D01*
X120770500Y92548767D01*
X120770499Y92548770D01*
X123069500Y92548770D01*
X123069500Y92548767D01*
X123069500Y92381233D01*
X123102184Y92216918D01*
X123166297Y92062137D01*
X123186039Y92032591D01*
X123259373Y91922839D01*
X123259378Y91922833D01*
X123377832Y91804379D01*
X123377838Y91804374D01*
X123517137Y91711297D01*
X123671918Y91647184D01*
X123836233Y91614500D01*
X123836234Y91614500D01*
X124003766Y91614500D01*
X124003767Y91614500D01*
X124168082Y91647184D01*
X124322863Y91711297D01*
X124462162Y91804374D01*
X124580626Y91922838D01*
X124673703Y92062137D01*
X124737816Y92216918D01*
X124770500Y92381233D01*
X124770500Y92548767D01*
X124737816Y92713082D01*
X124673703Y92867863D01*
X124580626Y93007162D01*
X124580621Y93007168D01*
X124462167Y93125622D01*
X124462161Y93125627D01*
X124392512Y93172165D01*
X124322863Y93218703D01*
X124174398Y93280200D01*
X124168085Y93282815D01*
X124168083Y93282816D01*
X124168082Y93282816D01*
X124085368Y93299269D01*
X124003769Y93315500D01*
X124003767Y93315500D01*
X123836233Y93315500D01*
X123836230Y93315500D01*
X123713830Y93291153D01*
X123671918Y93282816D01*
X123671917Y93282816D01*
X123671914Y93282815D01*
X123517135Y93218702D01*
X123377838Y93125627D01*
X123377832Y93125622D01*
X123259378Y93007168D01*
X123259373Y93007162D01*
X123166298Y92867865D01*
X123102185Y92713086D01*
X123069500Y92548770D01*
X120770499Y92548770D01*
X120737816Y92713082D01*
X120673703Y92867863D01*
X120580626Y93007162D01*
X120580621Y93007168D01*
X120462167Y93125622D01*
X120462161Y93125627D01*
X120392512Y93172165D01*
X120322863Y93218703D01*
X120174398Y93280200D01*
X120168085Y93282815D01*
X120168083Y93282816D01*
X120168082Y93282816D01*
X120085368Y93299269D01*
X120003769Y93315500D01*
X120003767Y93315500D01*
X119836233Y93315500D01*
X119836230Y93315500D01*
X119713830Y93291153D01*
X119671918Y93282816D01*
X119671917Y93282816D01*
X119671914Y93282815D01*
X119517135Y93218702D01*
X119377838Y93125627D01*
X119377832Y93125622D01*
X119259378Y93007168D01*
X119259373Y93007162D01*
X119166298Y92867865D01*
X119102185Y92713086D01*
X119069500Y92548770D01*
X85182502Y92548770D01*
X85931328Y93297595D01*
X85993640Y93331621D01*
X86020423Y93334500D01*
X99112590Y93334500D01*
X99112591Y93334500D01*
X99235369Y93358922D01*
X99351022Y93406827D01*
X99455108Y93476375D01*
X102490011Y96511280D01*
X102552321Y96545303D01*
X102611713Y96543890D01*
X102648537Y96534022D01*
X102870000Y96514647D01*
X103091463Y96534022D01*
X103306196Y96591560D01*
X103507677Y96685512D01*
X103689781Y96813023D01*
X103846977Y96970219D01*
X103974488Y97152323D01*
X104025805Y97262374D01*
X104072722Y97315658D01*
X104140999Y97335119D01*
X104208959Y97314577D01*
X104254195Y97262373D01*
X104305511Y97152325D01*
X104305512Y97152323D01*
X104433016Y96970228D01*
X104433020Y96970223D01*
X104433023Y96970219D01*
X104590219Y96813023D01*
X104590223Y96813020D01*
X104590227Y96813017D01*
X104592361Y96811523D01*
X104772323Y96685512D01*
X104973804Y96591560D01*
X105188537Y96534022D01*
X105410000Y96514647D01*
X105631463Y96534022D01*
X105846196Y96591560D01*
X106047677Y96685512D01*
X106229781Y96813023D01*
X106386977Y96970219D01*
X106514488Y97152323D01*
X106565805Y97262374D01*
X106612722Y97315658D01*
X106680999Y97335119D01*
X106748959Y97314577D01*
X106794195Y97262373D01*
X106845511Y97152325D01*
X106845512Y97152323D01*
X106973016Y96970228D01*
X106973020Y96970223D01*
X106973023Y96970219D01*
X107130219Y96813023D01*
X107130223Y96813020D01*
X107130227Y96813017D01*
X107132361Y96811523D01*
X107312323Y96685512D01*
X107513804Y96591560D01*
X107728537Y96534022D01*
X107950000Y96514647D01*
X108171463Y96534022D01*
X108386196Y96591560D01*
X108587677Y96685512D01*
X108769781Y96813023D01*
X108926977Y96970219D01*
X109054488Y97152323D01*
X109105805Y97262374D01*
X109152722Y97315658D01*
X109220999Y97335119D01*
X109288959Y97314577D01*
X109334195Y97262373D01*
X109385511Y97152325D01*
X109385512Y97152323D01*
X109513016Y96970228D01*
X109513020Y96970223D01*
X109513023Y96970219D01*
X109670219Y96813023D01*
X109670223Y96813020D01*
X109670227Y96813017D01*
X109672361Y96811523D01*
X109852323Y96685512D01*
X110053804Y96591560D01*
X110268537Y96534022D01*
X110490000Y96514647D01*
X110711463Y96534022D01*
X110926196Y96591560D01*
X111127677Y96685512D01*
X111309781Y96813023D01*
X111466977Y96970219D01*
X111594488Y97152323D01*
X111645805Y97262374D01*
X111692722Y97315658D01*
X111760999Y97335119D01*
X111828959Y97314577D01*
X111874195Y97262373D01*
X111925511Y97152325D01*
X111925512Y97152323D01*
X112053016Y96970228D01*
X112053020Y96970223D01*
X112053023Y96970219D01*
X112210219Y96813023D01*
X112210223Y96813020D01*
X112210227Y96813017D01*
X112212361Y96811523D01*
X112392323Y96685512D01*
X112593804Y96591560D01*
X112808537Y96534022D01*
X113030000Y96514647D01*
X113251463Y96534022D01*
X113466196Y96591560D01*
X113667677Y96685512D01*
X113849781Y96813023D01*
X114006977Y96970219D01*
X114134488Y97152323D01*
X114228440Y97353804D01*
X114285978Y97568537D01*
X114295707Y97679756D01*
X114321570Y97745871D01*
X114379073Y97787511D01*
X114410241Y97794292D01*
X114521463Y97804022D01*
X114736196Y97861560D01*
X114937677Y97955512D01*
X115119781Y98083023D01*
X115276977Y98240219D01*
X115404488Y98422323D01*
X115498440Y98623804D01*
X115555978Y98838537D01*
X115575353Y99060000D01*
X115555978Y99281463D01*
X115498440Y99496196D01*
X115424272Y99655250D01*
X115413611Y99725442D01*
X115442591Y99790254D01*
X115502011Y99829111D01*
X115538467Y99834500D01*
X115799577Y99834500D01*
X115867698Y99814498D01*
X115888672Y99797595D01*
X120547912Y95138355D01*
X120581938Y95076043D01*
X120580962Y95018330D01*
X120549406Y94893716D01*
X120549406Y94893712D01*
X120530454Y94665000D01*
X120547140Y94463628D01*
X120549407Y94436281D01*
X120605741Y94213819D01*
X120605744Y94213812D01*
X120697930Y94003650D01*
X120823452Y93811523D01*
X120978879Y93642684D01*
X120978884Y93642680D01*
X120978886Y93642678D01*
X121159990Y93501719D01*
X121361826Y93392491D01*
X121361827Y93392491D01*
X121361828Y93392490D01*
X121459606Y93358923D01*
X121578887Y93317974D01*
X121805252Y93280200D01*
X121805256Y93280200D01*
X122034744Y93280200D01*
X122034748Y93280200D01*
X122261113Y93317974D01*
X122478174Y93392491D01*
X122680010Y93501719D01*
X122861114Y93642678D01*
X122872803Y93655375D01*
X123016547Y93811523D01*
X123121663Y93972415D01*
X123175666Y94018504D01*
X123227146Y94029500D01*
X127194577Y94029500D01*
X127262698Y94009498D01*
X127283672Y93992595D01*
X128032595Y93243672D01*
X128066621Y93181360D01*
X128069500Y93154577D01*
X128069500Y77732591D01*
X128069500Y77607409D01*
X128093922Y77484631D01*
X128141827Y77368978D01*
X128211375Y77264892D01*
X128211377Y77264890D01*
X128230249Y77246018D01*
X128264275Y77183706D01*
X128262861Y77124314D01*
X128246458Y77063096D01*
X128246458Y77063093D01*
X128246457Y77063090D01*
X128246457Y77063087D01*
X128226502Y76835000D01*
X128246457Y76606913D01*
X128251151Y76589394D01*
X128305715Y76385760D01*
X128305717Y76385754D01*
X128402477Y76178251D01*
X128532410Y75992687D01*
X128533802Y75990700D01*
X128695700Y75828802D01*
X128883251Y75697477D01*
X129090757Y75600716D01*
X129311913Y75541457D01*
X129540000Y75521502D01*
X129768087Y75541457D01*
X129989243Y75600716D01*
X130196749Y75697477D01*
X130384300Y75828802D01*
X130546198Y75990700D01*
X130677523Y76178251D01*
X130774284Y76385757D01*
X130833543Y76606913D01*
X130853498Y76835000D01*
X130833543Y77063087D01*
X130774284Y77284243D01*
X130677523Y77491749D01*
X130546198Y77679300D01*
X130384300Y77841198D01*
X130382099Y77842739D01*
X130196749Y77972523D01*
X129989246Y78069283D01*
X129989240Y78069285D01*
X129878383Y78098989D01*
X129768087Y78128543D01*
X129540000Y78148498D01*
X129539998Y78148498D01*
X129477480Y78143029D01*
X129407875Y78157019D01*
X129356883Y78206419D01*
X129340500Y78268550D01*
X129340500Y93532590D01*
X129340499Y93532594D01*
X129318602Y93642678D01*
X129316078Y93655369D01*
X129268173Y93771022D01*
X129198625Y93875108D01*
X129110108Y93963625D01*
X127915108Y95158625D01*
X127811022Y95228173D01*
X127695369Y95276078D01*
X127572593Y95300500D01*
X127572591Y95300500D01*
X123227146Y95300500D01*
X123159025Y95320502D01*
X123121663Y95357585D01*
X123016547Y95518478D01*
X122861120Y95687317D01*
X122680010Y95828281D01*
X122680009Y95828282D01*
X122587401Y95878399D01*
X122478174Y95937509D01*
X122478172Y95937510D01*
X122478171Y95937511D01*
X122261117Y96012025D01*
X122261110Y96012027D01*
X122186673Y96024448D01*
X122089166Y96040719D01*
X122025270Y96071660D01*
X121988242Y96132236D01*
X121989843Y96203215D01*
X122029563Y96262060D01*
X122089166Y96289281D01*
X122261113Y96317974D01*
X122478174Y96392491D01*
X122680010Y96501719D01*
X122861114Y96642678D01*
X122900547Y96685513D01*
X123016547Y96811523D01*
X123017529Y96813026D01*
X123142069Y97003649D01*
X123234257Y97213815D01*
X123290594Y97436288D01*
X123309546Y97665000D01*
X123290594Y97893712D01*
X123234257Y98116185D01*
X123142069Y98326351D01*
X123016547Y98518478D01*
X122861120Y98687317D01*
X122680010Y98828281D01*
X122680009Y98828282D01*
X122557670Y98894488D01*
X122478174Y98937509D01*
X122478172Y98937510D01*
X122478171Y98937511D01*
X122261117Y99012025D01*
X122261110Y99012027D01*
X122152964Y99030073D01*
X122034748Y99049800D01*
X121805252Y99049800D01*
X121691967Y99030897D01*
X121578889Y99012027D01*
X121578882Y99012025D01*
X121361828Y98937511D01*
X121361826Y98937509D01*
X121159990Y98828282D01*
X121159989Y98828281D01*
X120978879Y98687317D01*
X120823452Y98518478D01*
X120697930Y98326351D01*
X120605744Y98116189D01*
X120605741Y98116182D01*
X120549407Y97893720D01*
X120549406Y97893714D01*
X120549406Y97893712D01*
X120530454Y97665000D01*
X120547282Y97461918D01*
X120549407Y97436281D01*
X120607022Y97208763D01*
X120604887Y97208223D01*
X120607656Y97146597D01*
X120571992Y97085208D01*
X120508799Y97052847D01*
X120438143Y97059787D01*
X120396194Y97087539D01*
X117934963Y99548770D01*
X119069500Y99548770D01*
X119069500Y99381231D01*
X119102185Y99216915D01*
X119112451Y99192132D01*
X119166297Y99062137D01*
X119177094Y99045978D01*
X119259373Y98922839D01*
X119259378Y98922833D01*
X119377832Y98804379D01*
X119377838Y98804374D01*
X119517137Y98711297D01*
X119671918Y98647184D01*
X119836233Y98614500D01*
X119836234Y98614500D01*
X120003766Y98614500D01*
X120003767Y98614500D01*
X120168082Y98647184D01*
X120322863Y98711297D01*
X120462162Y98804374D01*
X120580626Y98922838D01*
X120673703Y99062137D01*
X120737816Y99216918D01*
X120770500Y99381233D01*
X120770500Y99548767D01*
X120737816Y99713082D01*
X120673703Y99867863D01*
X120580626Y100007162D01*
X120580621Y100007168D01*
X120462167Y100125622D01*
X120462161Y100125627D01*
X120322864Y100218702D01*
X120322865Y100218702D01*
X120322863Y100218703D01*
X120213420Y100264036D01*
X120168085Y100282815D01*
X120168083Y100282816D01*
X120168082Y100282816D01*
X120058073Y100304698D01*
X120003769Y100315500D01*
X120003767Y100315500D01*
X119836233Y100315500D01*
X119836230Y100315500D01*
X119713830Y100291153D01*
X119671918Y100282816D01*
X119671917Y100282816D01*
X119671914Y100282815D01*
X119517135Y100218702D01*
X119377838Y100125627D01*
X119377832Y100125622D01*
X119259378Y100007168D01*
X119259373Y100007162D01*
X119166298Y99867865D01*
X119102185Y99713086D01*
X119069500Y99548770D01*
X117934963Y99548770D01*
X116864328Y100619405D01*
X116830302Y100681717D01*
X116835367Y100752532D01*
X116877914Y100809368D01*
X116944434Y100834179D01*
X116953423Y100834500D01*
X123389577Y100834500D01*
X123457698Y100814498D01*
X123478672Y100797595D01*
X123773419Y100502848D01*
X123807445Y100440536D01*
X123802380Y100369721D01*
X123759833Y100312885D01*
X123708909Y100290175D01*
X123671917Y100282816D01*
X123517135Y100218702D01*
X123377838Y100125627D01*
X123377832Y100125622D01*
X123259378Y100007168D01*
X123259373Y100007162D01*
X123166298Y99867865D01*
X123102185Y99713086D01*
X123069500Y99548770D01*
X123069500Y99381231D01*
X123102185Y99216915D01*
X123112451Y99192132D01*
X123166297Y99062137D01*
X123177094Y99045978D01*
X123259373Y98922839D01*
X123259378Y98922833D01*
X123377832Y98804379D01*
X123377838Y98804374D01*
X123517137Y98711297D01*
X123671918Y98647184D01*
X123836233Y98614500D01*
X123836234Y98614500D01*
X124003766Y98614500D01*
X124003767Y98614500D01*
X124168082Y98647184D01*
X124322863Y98711297D01*
X124462162Y98804374D01*
X124580626Y98922838D01*
X124673703Y99062137D01*
X124737816Y99216918D01*
X124745173Y99253907D01*
X124778078Y99316814D01*
X124839772Y99351947D01*
X124910667Y99348149D01*
X124957846Y99318421D01*
X125008211Y99268057D01*
X125042235Y99205746D01*
X125044425Y99192132D01*
X125061457Y99030073D01*
X125074985Y98988440D01*
X125120473Y98848444D01*
X125120476Y98848439D01*
X125215958Y98683059D01*
X125215965Y98683049D01*
X125343744Y98541136D01*
X125404999Y98496632D01*
X125498248Y98428882D01*
X125672712Y98351206D01*
X125859513Y98311500D01*
X126050487Y98311500D01*
X126237288Y98351206D01*
X126411752Y98428882D01*
X126566253Y98541134D01*
X126566255Y98541136D01*
X126694034Y98683049D01*
X126694035Y98683051D01*
X126694040Y98683056D01*
X126789527Y98848444D01*
X126848542Y99030072D01*
X126868504Y99220000D01*
X126848542Y99409928D01*
X126789527Y99591556D01*
X126694040Y99756944D01*
X126694038Y99756946D01*
X126694034Y99756952D01*
X126566255Y99898865D01*
X126411752Y100011118D01*
X126237288Y100088794D01*
X126050487Y100128500D01*
X125997422Y100128500D01*
X125929301Y100148502D01*
X125908327Y100165405D01*
X124554328Y101519405D01*
X124520302Y101581717D01*
X124525367Y101652533D01*
X124567914Y101709368D01*
X124634434Y101734179D01*
X124643423Y101734500D01*
X127375496Y101734500D01*
X127443617Y101714498D01*
G37*
G04 #@! TD.AperFunction*
G04 #@! TA.AperFunction,Conductor*
G36*
X110141612Y78314498D02*
G01*
X110188105Y78260842D01*
X110198209Y78190568D01*
X110168715Y78125988D01*
X110108989Y78087604D01*
X110106122Y78086799D01*
X110082263Y78080406D01*
X110040759Y78069285D01*
X110040753Y78069283D01*
X109833250Y77972523D01*
X109645703Y77841201D01*
X109645697Y77841196D01*
X109483804Y77679303D01*
X109483799Y77679297D01*
X109352477Y77491750D01*
X109255717Y77284247D01*
X109255715Y77284241D01*
X109214809Y77131577D01*
X109196457Y77063087D01*
X109176502Y76835000D01*
X109196457Y76606913D01*
X109201151Y76589394D01*
X109255715Y76385760D01*
X109255717Y76385754D01*
X109352477Y76178251D01*
X109482410Y75992687D01*
X109483802Y75990700D01*
X109645700Y75828802D01*
X109833251Y75697477D01*
X110040757Y75600716D01*
X110261913Y75541457D01*
X110490000Y75521502D01*
X110718087Y75541457D01*
X110939243Y75600716D01*
X111146749Y75697477D01*
X111334300Y75828802D01*
X111496198Y75990700D01*
X111604780Y76145772D01*
X111660237Y76190099D01*
X111707993Y76199500D01*
X112538500Y76199500D01*
X112606621Y76179498D01*
X112653114Y76125842D01*
X112664500Y76073500D01*
X112664500Y76024351D01*
X112671009Y75963804D01*
X112671011Y75963796D01*
X112722110Y75826798D01*
X112722112Y75826793D01*
X112809738Y75709739D01*
X112926792Y75622113D01*
X112926794Y75622112D01*
X112926796Y75622111D01*
X112982895Y75601187D01*
X113063795Y75571012D01*
X113063803Y75571010D01*
X113124350Y75564501D01*
X113124355Y75564501D01*
X113124362Y75564500D01*
X113124368Y75564500D01*
X114745632Y75564500D01*
X114745638Y75564500D01*
X114745645Y75564501D01*
X114745649Y75564501D01*
X114806196Y75571010D01*
X114806199Y75571011D01*
X114806201Y75571011D01*
X114890967Y75602629D01*
X114961782Y75607694D01*
X114979029Y75602630D01*
X115048174Y75576839D01*
X115063799Y75571011D01*
X115063803Y75571010D01*
X115124350Y75564501D01*
X115124355Y75564501D01*
X115124362Y75564500D01*
X115124368Y75564500D01*
X116745632Y75564500D01*
X116745638Y75564500D01*
X116745645Y75564501D01*
X116745649Y75564501D01*
X116806196Y75571010D01*
X116806201Y75571011D01*
X116821826Y75576839D01*
X116899467Y75605799D01*
X116970282Y75610864D01*
X117032595Y75576839D01*
X117066620Y75514527D01*
X117069500Y75487743D01*
X117069500Y73482407D01*
X117092930Y73364616D01*
X117093922Y73359631D01*
X117141827Y73243978D01*
X117211375Y73139892D01*
X117211377Y73139890D01*
X117314595Y73036672D01*
X117348621Y72974360D01*
X117351500Y72947577D01*
X117351500Y71794240D01*
X117331498Y71726119D01*
X117314595Y71705145D01*
X116468083Y70858634D01*
X116468075Y70858624D01*
X116387970Y70719878D01*
X116387965Y70719866D01*
X116374457Y70669453D01*
X116374458Y70669452D01*
X116361207Y70619998D01*
X116324255Y70559375D01*
X116260395Y70528354D01*
X116189900Y70536782D01*
X116135153Y70581985D01*
X116113536Y70649610D01*
X116113500Y70652609D01*
X116113500Y70768633D01*
X116113499Y70768650D01*
X116106990Y70829197D01*
X116106988Y70829205D01*
X116067281Y70935662D01*
X116055889Y70966204D01*
X116055888Y70966206D01*
X116055887Y70966208D01*
X115968261Y71083262D01*
X115851207Y71170888D01*
X115851202Y71170890D01*
X115714204Y71221989D01*
X115714196Y71221991D01*
X115653649Y71228500D01*
X115653638Y71228500D01*
X114256362Y71228500D01*
X114256350Y71228500D01*
X114195803Y71221991D01*
X114195795Y71221989D01*
X114058797Y71170890D01*
X114058792Y71170888D01*
X113934525Y71077861D01*
X113932561Y71080485D01*
X113884320Y71054164D01*
X113813506Y71059254D01*
X113756712Y71101785D01*
X113673261Y71213262D01*
X113556207Y71300888D01*
X113556202Y71300890D01*
X113419204Y71351989D01*
X113419196Y71351991D01*
X113358649Y71358500D01*
X113358638Y71358500D01*
X111261362Y71358500D01*
X111261350Y71358500D01*
X111200803Y71351991D01*
X111200795Y71351989D01*
X111063797Y71300890D01*
X111063792Y71300888D01*
X110946738Y71213262D01*
X110859112Y71096208D01*
X110859111Y71096205D01*
X110811416Y70968332D01*
X110768869Y70911497D01*
X110702349Y70886687D01*
X110632975Y70901779D01*
X110593399Y70935662D01*
X110538926Y71006653D01*
X110538907Y71006674D01*
X110376673Y71168908D01*
X110376652Y71168927D01*
X110194615Y71308609D01*
X110194608Y71308614D01*
X109995900Y71423338D01*
X109995892Y71423342D01*
X109995888Y71423344D01*
X109783887Y71511158D01*
X109649767Y71547095D01*
X109589144Y71584047D01*
X109558123Y71647908D01*
X109565968Y71717017D01*
X109611158Y71826113D01*
X109670548Y72047762D01*
X109700500Y72275266D01*
X109700500Y72504734D01*
X109670548Y72732238D01*
X109611158Y72953887D01*
X109523344Y73165888D01*
X109523338Y73165897D01*
X109523337Y73165901D01*
X109408613Y73364609D01*
X109408608Y73364616D01*
X109268926Y73546653D01*
X109268907Y73546674D01*
X109106673Y73708908D01*
X109106652Y73708927D01*
X108924615Y73848609D01*
X108924608Y73848614D01*
X108725900Y73963338D01*
X108725892Y73963342D01*
X108725888Y73963344D01*
X108513887Y74051158D01*
X108292238Y74110548D01*
X108292231Y74110550D01*
X108064736Y74140500D01*
X108064734Y74140500D01*
X107835266Y74140500D01*
X107835263Y74140500D01*
X107607768Y74110550D01*
X107395298Y74053619D01*
X107386113Y74051158D01*
X107353360Y74037591D01*
X107174110Y73963343D01*
X107174099Y73963338D01*
X106975391Y73848614D01*
X106975384Y73848609D01*
X106793347Y73708927D01*
X106793326Y73708908D01*
X106631092Y73546674D01*
X106631073Y73546653D01*
X106491391Y73364616D01*
X106491386Y73364609D01*
X106376662Y73165901D01*
X106376657Y73165890D01*
X106288842Y72953887D01*
X106229450Y72732232D01*
X106199500Y72504737D01*
X106199500Y72275264D01*
X106229450Y72047769D01*
X106229452Y72047762D01*
X106288842Y71826113D01*
X106376656Y71614112D01*
X106376657Y71614111D01*
X106376662Y71614100D01*
X106491386Y71415392D01*
X106491391Y71415385D01*
X106631073Y71233348D01*
X106631092Y71233327D01*
X106793326Y71071093D01*
X106793347Y71071074D01*
X106975384Y70931392D01*
X106975391Y70931387D01*
X107174099Y70816663D01*
X107174103Y70816662D01*
X107174112Y70816656D01*
X107386113Y70728842D01*
X107520233Y70692905D01*
X107580855Y70655955D01*
X107611876Y70592094D01*
X107604030Y70522982D01*
X107558843Y70413890D01*
X107499450Y70192232D01*
X107469500Y69964737D01*
X107469500Y69735264D01*
X107499450Y69507769D01*
X107505337Y69485799D01*
X107558842Y69286113D01*
X107646656Y69074112D01*
X107646657Y69074111D01*
X107646662Y69074100D01*
X107761386Y68875392D01*
X107761391Y68875385D01*
X107901073Y68693348D01*
X107901092Y68693327D01*
X108063326Y68531093D01*
X108063347Y68531074D01*
X108245384Y68391392D01*
X108245391Y68391387D01*
X108444099Y68276663D01*
X108444103Y68276662D01*
X108444112Y68276656D01*
X108656113Y68188842D01*
X108877762Y68129452D01*
X108877766Y68129452D01*
X108877768Y68129451D01*
X108934843Y68121937D01*
X109105266Y68099500D01*
X109105273Y68099500D01*
X109334727Y68099500D01*
X109334734Y68099500D01*
X109451534Y68114878D01*
X109521680Y68103939D01*
X109574779Y68056811D01*
X109593969Y67988458D01*
X109573158Y67920580D01*
X109569916Y67915898D01*
X109548769Y67886791D01*
X109470130Y67732453D01*
X109470127Y67732447D01*
X109470127Y67732445D01*
X109450298Y67671419D01*
X109424207Y67591118D01*
X109416598Y67567701D01*
X109389500Y67396611D01*
X109389500Y67223389D01*
X109416598Y67052299D01*
X109470127Y66887555D01*
X109470128Y66887552D01*
X109470130Y66887548D01*
X109548768Y66733212D01*
X109650587Y66593070D01*
X109773069Y66470588D01*
X109773072Y66470586D01*
X109913212Y66368768D01*
X110067555Y66290127D01*
X110232299Y66236598D01*
X110403389Y66209500D01*
X110403402Y66209500D01*
X110404577Y66209407D01*
X110405342Y66209192D01*
X110408279Y66208726D01*
X110408223Y66208379D01*
X110444131Y66198253D01*
X110444586Y66199350D01*
X110449155Y66197458D01*
X110449163Y66197456D01*
X110449168Y66197453D01*
X110628882Y66139060D01*
X110815519Y66109500D01*
X110815522Y66109500D01*
X111004478Y66109500D01*
X111004481Y66109500D01*
X111191118Y66139060D01*
X111370832Y66197453D01*
X111539199Y66283240D01*
X111692073Y66394310D01*
X111825690Y66527927D01*
X111936760Y66680801D01*
X112022547Y66849168D01*
X112080940Y67028882D01*
X112101129Y67156356D01*
X112131540Y67220505D01*
X112191808Y67258032D01*
X112262797Y67257019D01*
X112321970Y67217787D01*
X112345410Y67175579D01*
X112370472Y67098446D01*
X112370476Y67098439D01*
X112465958Y66933059D01*
X112465965Y66933049D01*
X112593744Y66791136D01*
X112593743Y66791136D01*
X112748245Y66678884D01*
X112748248Y66678882D01*
X112826747Y66643933D01*
X112880844Y66597954D01*
X112901494Y66530027D01*
X112901500Y66528826D01*
X112901500Y65244500D01*
X112881498Y65176379D01*
X112827842Y65129886D01*
X112775500Y65118500D01*
X112461350Y65118500D01*
X112400803Y65111991D01*
X112400795Y65111989D01*
X112263797Y65060890D01*
X112263792Y65060888D01*
X112146738Y64973262D01*
X112059112Y64856208D01*
X112059111Y64856205D01*
X112008145Y64719563D01*
X111965598Y64662728D01*
X111899077Y64637918D01*
X111829703Y64653010D01*
X111790128Y64686893D01*
X111728926Y64766653D01*
X111728907Y64766674D01*
X111566673Y64928908D01*
X111566652Y64928927D01*
X111384615Y65068609D01*
X111384608Y65068614D01*
X111185900Y65183338D01*
X111185892Y65183342D01*
X111185888Y65183344D01*
X110973887Y65271158D01*
X110752238Y65330548D01*
X110752231Y65330550D01*
X110524736Y65360500D01*
X110524734Y65360500D01*
X110295266Y65360500D01*
X110295263Y65360500D01*
X110067768Y65330550D01*
X109906222Y65287264D01*
X109846113Y65271158D01*
X109648989Y65189506D01*
X109634110Y65183343D01*
X109634099Y65183338D01*
X109435391Y65068614D01*
X109435384Y65068609D01*
X109253347Y64928927D01*
X109253326Y64928908D01*
X109091092Y64766674D01*
X109091073Y64766653D01*
X108951391Y64584616D01*
X108951386Y64584609D01*
X108836662Y64385901D01*
X108836657Y64385890D01*
X108748842Y64173887D01*
X108689450Y63952232D01*
X108659500Y63724737D01*
X108659500Y63495264D01*
X108689450Y63267769D01*
X108689452Y63267762D01*
X108748842Y63046113D01*
X108836656Y62834112D01*
X108836657Y62834111D01*
X108836662Y62834100D01*
X108951386Y62635392D01*
X108951391Y62635385D01*
X109091073Y62453348D01*
X109091092Y62453327D01*
X109253326Y62291093D01*
X109253347Y62291074D01*
X109435384Y62151392D01*
X109435391Y62151387D01*
X109634099Y62036663D01*
X109634103Y62036662D01*
X109634112Y62036656D01*
X109846113Y61948842D01*
X110067762Y61889452D01*
X110067766Y61889452D01*
X110067768Y61889451D01*
X110126398Y61881733D01*
X110295266Y61859500D01*
X110295273Y61859500D01*
X110524727Y61859500D01*
X110524734Y61859500D01*
X110730345Y61886570D01*
X110752231Y61889451D01*
X110752231Y61889452D01*
X110752238Y61889452D01*
X110973887Y61948842D01*
X111185888Y62036656D01*
X111384612Y62151389D01*
X111566661Y62291081D01*
X111728919Y62453339D01*
X111790129Y62533111D01*
X111847465Y62574975D01*
X111918336Y62579197D01*
X111980239Y62544433D01*
X112008145Y62500438D01*
X112059111Y62363796D01*
X112059112Y62363793D01*
X112146738Y62246739D01*
X112263792Y62159113D01*
X112263794Y62159112D01*
X112263796Y62159111D01*
X112284505Y62151387D01*
X112400795Y62108012D01*
X112400803Y62108010D01*
X112461350Y62101501D01*
X112461355Y62101501D01*
X112461362Y62101500D01*
X112461368Y62101500D01*
X114558632Y62101500D01*
X114558638Y62101500D01*
X114558645Y62101501D01*
X114558649Y62101501D01*
X114619196Y62108010D01*
X114619199Y62108011D01*
X114619201Y62108011D01*
X114756204Y62159111D01*
X114873261Y62246739D01*
X114910461Y62296434D01*
X114967295Y62338979D01*
X115038111Y62344045D01*
X115100424Y62310020D01*
X115133035Y62253536D01*
X115137965Y62235135D01*
X115137970Y62235123D01*
X115218075Y62096377D01*
X115218077Y62096375D01*
X115218078Y62096373D01*
X115520857Y61793594D01*
X115554881Y61731283D01*
X115549817Y61660468D01*
X115507270Y61603632D01*
X115440750Y61578821D01*
X115431761Y61578500D01*
X111624889Y61578500D01*
X111523717Y61551391D01*
X111523716Y61551392D01*
X111470126Y61537032D01*
X111331376Y61456925D01*
X111331366Y61456917D01*
X110218083Y60343634D01*
X110218075Y60343624D01*
X110137967Y60204873D01*
X110137968Y60204872D01*
X110096500Y60050110D01*
X110096500Y58274239D01*
X110076498Y58206118D01*
X110059595Y58185144D01*
X109609856Y57735405D01*
X109547544Y57701379D01*
X109520761Y57698500D01*
X98009239Y57698500D01*
X97941118Y57718502D01*
X97920144Y57735405D01*
X97350405Y58305144D01*
X97316379Y58367456D01*
X97313500Y58394239D01*
X97313500Y62925465D01*
X97333502Y62993586D01*
X97387158Y63040079D01*
X97457432Y63050183D01*
X97522012Y63020689D01*
X97528595Y63014560D01*
X99620071Y60923084D01*
X99620076Y60923080D01*
X99620078Y60923078D01*
X99620079Y60923077D01*
X99620081Y60923076D01*
X99717609Y60866768D01*
X99758832Y60842968D01*
X99836213Y60822234D01*
X99913594Y60801500D01*
X99913595Y60801500D01*
X100073815Y60801500D01*
X101075500Y60801500D01*
X101143621Y60781498D01*
X101190114Y60727842D01*
X101201500Y60675500D01*
X101201500Y60361351D01*
X101208009Y60300804D01*
X101208011Y60300796D01*
X101259110Y60163798D01*
X101259112Y60163793D01*
X101346738Y60046739D01*
X101463792Y59959113D01*
X101463794Y59959112D01*
X101463796Y59959111D01*
X101484505Y59951387D01*
X101600795Y59908012D01*
X101600803Y59908010D01*
X101661350Y59901501D01*
X101661355Y59901501D01*
X101661362Y59901500D01*
X101661368Y59901500D01*
X103558632Y59901500D01*
X103558638Y59901500D01*
X103558645Y59901501D01*
X103558649Y59901501D01*
X103619196Y59908010D01*
X103619199Y59908011D01*
X103619201Y59908011D01*
X103756204Y59959111D01*
X103873261Y60046739D01*
X103934701Y60128813D01*
X103966290Y60171010D01*
X103968787Y60169141D01*
X104007983Y60208371D01*
X104077350Y60223494D01*
X104143881Y60198713D01*
X104157513Y60186906D01*
X104253326Y60091093D01*
X104253347Y60091074D01*
X104435384Y59951392D01*
X104435391Y59951387D01*
X104634099Y59836663D01*
X104634103Y59836662D01*
X104634112Y59836656D01*
X104846113Y59748842D01*
X105067762Y59689452D01*
X105067766Y59689452D01*
X105067768Y59689451D01*
X105126398Y59681733D01*
X105295266Y59659500D01*
X105295273Y59659500D01*
X105524727Y59659500D01*
X105524734Y59659500D01*
X105730345Y59686570D01*
X105752231Y59689451D01*
X105752231Y59689452D01*
X105752238Y59689452D01*
X105973887Y59748842D01*
X106185888Y59836656D01*
X106384612Y59951389D01*
X106566661Y60091081D01*
X106728919Y60253339D01*
X106868611Y60435388D01*
X106983344Y60634112D01*
X107071158Y60846113D01*
X107130548Y61067762D01*
X107160500Y61295266D01*
X107160500Y61524734D01*
X107130548Y61752238D01*
X107071158Y61973887D01*
X106983344Y62185888D01*
X106983338Y62185897D01*
X106983337Y62185901D01*
X106868613Y62384609D01*
X106868608Y62384616D01*
X106728926Y62566653D01*
X106728907Y62566674D01*
X106566673Y62728908D01*
X106566652Y62728927D01*
X106384615Y62868609D01*
X106384608Y62868614D01*
X106185900Y62983338D01*
X106185892Y62983342D01*
X106185888Y62983344D01*
X105973887Y63071158D01*
X105752238Y63130548D01*
X105752231Y63130550D01*
X105524736Y63160500D01*
X105524734Y63160500D01*
X105295266Y63160500D01*
X105295263Y63160500D01*
X105067768Y63130550D01*
X104877828Y63079656D01*
X104846113Y63071158D01*
X104658839Y62993586D01*
X104634110Y62983343D01*
X104634099Y62983338D01*
X104435391Y62868614D01*
X104435384Y62868609D01*
X104253347Y62728927D01*
X104253334Y62728915D01*
X104157513Y62633094D01*
X104095201Y62599069D01*
X104024385Y62604135D01*
X103967549Y62646682D01*
X103964710Y62651100D01*
X103873261Y62773262D01*
X103756207Y62860888D01*
X103756202Y62860890D01*
X103619204Y62911989D01*
X103619196Y62911991D01*
X103558649Y62918500D01*
X103558638Y62918500D01*
X102201170Y62918500D01*
X102133049Y62938502D01*
X102086556Y62992158D01*
X102076452Y63062432D01*
X102079460Y63077099D01*
X102130548Y63267762D01*
X102160500Y63495266D01*
X102160500Y63724734D01*
X102130548Y63952238D01*
X102071158Y64173887D01*
X101983344Y64385888D01*
X101983338Y64385897D01*
X101983337Y64385901D01*
X101868613Y64584609D01*
X101868608Y64584616D01*
X101728926Y64766653D01*
X101728907Y64766674D01*
X101566673Y64928908D01*
X101566652Y64928927D01*
X101384615Y65068609D01*
X101384608Y65068614D01*
X101185900Y65183338D01*
X101185892Y65183342D01*
X101185888Y65183344D01*
X100973887Y65271158D01*
X100752238Y65330548D01*
X100752231Y65330550D01*
X100524736Y65360500D01*
X100524734Y65360500D01*
X100295266Y65360500D01*
X100295263Y65360500D01*
X100067768Y65330550D01*
X99906222Y65287264D01*
X99846113Y65271158D01*
X99648989Y65189506D01*
X99634110Y65183343D01*
X99634099Y65183338D01*
X99435391Y65068614D01*
X99435384Y65068609D01*
X99253347Y64928927D01*
X99253326Y64928908D01*
X99091092Y64766674D01*
X99091073Y64766653D01*
X98951391Y64584616D01*
X98951386Y64584609D01*
X98836662Y64385901D01*
X98836657Y64385890D01*
X98836656Y64385888D01*
X98775882Y64239165D01*
X98755909Y64190947D01*
X98711361Y64135666D01*
X98643997Y64113245D01*
X98575206Y64130803D01*
X98526828Y64182765D01*
X98513500Y64239165D01*
X98513500Y66739710D01*
X98533502Y66807831D01*
X98545859Y66824016D01*
X98592045Y66875311D01*
X98652488Y66912548D01*
X98723471Y66911197D01*
X98782456Y66871683D01*
X98797944Y66848203D01*
X98866239Y66714167D01*
X98883242Y66680798D01*
X98994311Y66527925D01*
X99127924Y66394312D01*
X99127927Y66394310D01*
X99280801Y66283240D01*
X99449168Y66197453D01*
X99628882Y66139060D01*
X99815519Y66109500D01*
X99815522Y66109500D01*
X100004478Y66109500D01*
X100004481Y66109500D01*
X100191118Y66139060D01*
X100370832Y66197453D01*
X100370837Y66197457D01*
X100370844Y66197458D01*
X100375414Y66199350D01*
X100375870Y66198249D01*
X100411776Y66208378D01*
X100411721Y66208726D01*
X100414660Y66209192D01*
X100415424Y66209407D01*
X100416596Y66209500D01*
X100416611Y66209500D01*
X100587701Y66236598D01*
X100752445Y66290127D01*
X100906788Y66368768D01*
X101046928Y66470586D01*
X101169414Y66593072D01*
X101271232Y66733212D01*
X101349873Y66887555D01*
X101403402Y67052299D01*
X101430500Y67223389D01*
X101430500Y67396611D01*
X101420855Y67457509D01*
X103159500Y67457509D01*
X103159500Y67162492D01*
X103198005Y66870015D01*
X103198006Y66870009D01*
X103198007Y66870007D01*
X103274361Y66585048D01*
X103387257Y66312493D01*
X103387258Y66312492D01*
X103387263Y66312481D01*
X103534759Y66057010D01*
X103534764Y66057003D01*
X103714346Y65822967D01*
X103714365Y65822946D01*
X103922945Y65614366D01*
X103922966Y65614347D01*
X104157002Y65434765D01*
X104157009Y65434760D01*
X104412480Y65287264D01*
X104412484Y65287263D01*
X104412493Y65287257D01*
X104685048Y65174361D01*
X104970007Y65098007D01*
X104970013Y65098007D01*
X104970014Y65098006D01*
X105003574Y65093588D01*
X105262494Y65059500D01*
X105262501Y65059500D01*
X105557499Y65059500D01*
X105557506Y65059500D01*
X105849993Y65098007D01*
X106134952Y65174361D01*
X106407507Y65287257D01*
X106662994Y65434762D01*
X106897042Y65614354D01*
X107105646Y65822958D01*
X107285238Y66057006D01*
X107432743Y66312493D01*
X107545639Y66585048D01*
X107621993Y66870007D01*
X107660500Y67162494D01*
X107660500Y67457506D01*
X107621993Y67749993D01*
X107545639Y68034952D01*
X107432743Y68307507D01*
X107432737Y68307516D01*
X107432736Y68307520D01*
X107285240Y68562991D01*
X107285235Y68562998D01*
X107105653Y68797034D01*
X107105634Y68797055D01*
X106897054Y69005635D01*
X106897033Y69005654D01*
X106662997Y69185236D01*
X106662990Y69185241D01*
X106407519Y69332737D01*
X106407511Y69332741D01*
X106407507Y69332743D01*
X106134952Y69445639D01*
X105849993Y69521993D01*
X105849991Y69521994D01*
X105849985Y69521995D01*
X105557508Y69560500D01*
X105557506Y69560500D01*
X105262494Y69560500D01*
X105262491Y69560500D01*
X104970014Y69521995D01*
X104834947Y69485804D01*
X104685048Y69445639D01*
X104451249Y69348796D01*
X104412491Y69332742D01*
X104412480Y69332737D01*
X104157009Y69185241D01*
X104157002Y69185236D01*
X103922966Y69005654D01*
X103922945Y69005635D01*
X103714365Y68797055D01*
X103714346Y68797034D01*
X103534764Y68562998D01*
X103534759Y68562991D01*
X103387263Y68307520D01*
X103387258Y68307509D01*
X103387257Y68307507D01*
X103334437Y68179988D01*
X103274361Y68034952D01*
X103198005Y67749986D01*
X103159500Y67457509D01*
X101420855Y67457509D01*
X101403402Y67567701D01*
X101349873Y67732445D01*
X101340935Y67749986D01*
X101271232Y67886788D01*
X101250084Y67915896D01*
X101226226Y67982763D01*
X101242307Y68051915D01*
X101293222Y68101395D01*
X101362804Y68115494D01*
X101368425Y68114883D01*
X101485266Y68099500D01*
X101485273Y68099500D01*
X101714727Y68099500D01*
X101714734Y68099500D01*
X101920345Y68126570D01*
X101942231Y68129451D01*
X101942231Y68129452D01*
X101942238Y68129452D01*
X102163887Y68188842D01*
X102375888Y68276656D01*
X102574612Y68391389D01*
X102756661Y68531081D01*
X102918919Y68693339D01*
X103058611Y68875388D01*
X103173344Y69074112D01*
X103261158Y69286113D01*
X103320548Y69507762D01*
X103350500Y69735266D01*
X103350500Y69964734D01*
X103320548Y70192238D01*
X103261158Y70413887D01*
X103215968Y70522984D01*
X103208380Y70593570D01*
X103240159Y70657058D01*
X103299765Y70692905D01*
X103433887Y70728842D01*
X103645888Y70816656D01*
X103844612Y70931389D01*
X104026661Y71071081D01*
X104188919Y71233339D01*
X104328611Y71415388D01*
X104443344Y71614112D01*
X104531158Y71826113D01*
X104590548Y72047762D01*
X104620500Y72275266D01*
X104620500Y72504734D01*
X104590548Y72732238D01*
X104531158Y72953887D01*
X104443344Y73165888D01*
X104443338Y73165897D01*
X104443337Y73165901D01*
X104328613Y73364609D01*
X104328608Y73364616D01*
X104188926Y73546653D01*
X104188907Y73546674D01*
X104026673Y73708908D01*
X104026652Y73708927D01*
X103844615Y73848609D01*
X103844608Y73848614D01*
X103645900Y73963338D01*
X103645892Y73963342D01*
X103645888Y73963344D01*
X103433887Y74051158D01*
X103212238Y74110548D01*
X103212231Y74110550D01*
X102984736Y74140500D01*
X102984734Y74140500D01*
X102755266Y74140500D01*
X102755263Y74140500D01*
X102527768Y74110550D01*
X102315298Y74053619D01*
X102306113Y74051158D01*
X102273360Y74037591D01*
X102094110Y73963343D01*
X102094099Y73963338D01*
X101895391Y73848614D01*
X101895384Y73848609D01*
X101713347Y73708927D01*
X101713326Y73708908D01*
X101551092Y73546674D01*
X101551077Y73546657D01*
X101516786Y73501969D01*
X101459447Y73460103D01*
X101388576Y73455883D01*
X101326674Y73490648D01*
X101298771Y73534638D01*
X101260889Y73636204D01*
X101260886Y73636208D01*
X101260886Y73636209D01*
X101173261Y73753262D01*
X101056207Y73840888D01*
X101056202Y73840890D01*
X100919204Y73891989D01*
X100919196Y73891991D01*
X100858649Y73898500D01*
X100858638Y73898500D01*
X99252423Y73898500D01*
X99184302Y73918502D01*
X99163328Y73935405D01*
X98877405Y74221328D01*
X98843379Y74283640D01*
X98840500Y74310423D01*
X98840500Y76383101D01*
X98860502Y76451222D01*
X98914158Y76497715D01*
X98984432Y76507819D01*
X99049012Y76478325D01*
X99087396Y76418599D01*
X99088207Y76415712D01*
X99096186Y76385931D01*
X99096188Y76385927D01*
X99192913Y76178499D01*
X99242899Y76107112D01*
X99930000Y76794212D01*
X99930000Y76782339D01*
X99957259Y76680606D01*
X100009920Y76589394D01*
X100084394Y76514920D01*
X100175606Y76462259D01*
X100277339Y76435000D01*
X100289210Y76435000D01*
X99602110Y75747902D01*
X99602110Y75747900D01*
X99673498Y75697914D01*
X99880926Y75601189D01*
X99880931Y75601187D01*
X100101999Y75541952D01*
X100101995Y75541952D01*
X100330000Y75522005D01*
X100558002Y75541952D01*
X100779068Y75601187D01*
X100779073Y75601189D01*
X100986497Y75697912D01*
X101057888Y75747901D01*
X101057888Y75747903D01*
X100370791Y76435000D01*
X100382661Y76435000D01*
X100484394Y76462259D01*
X100575606Y76514920D01*
X100650080Y76589394D01*
X100702741Y76680606D01*
X100730000Y76782339D01*
X100730000Y76794209D01*
X101417097Y76107112D01*
X101417099Y76107112D01*
X101467088Y76178503D01*
X101563811Y76385927D01*
X101563813Y76385932D01*
X101623048Y76606998D01*
X101642995Y76835000D01*
X101623048Y77063003D01*
X101563813Y77284069D01*
X101563811Y77284074D01*
X101467086Y77491502D01*
X101417100Y77562890D01*
X101417098Y77562890D01*
X100730000Y76875792D01*
X100730000Y76887661D01*
X100702741Y76989394D01*
X100650080Y77080606D01*
X100575606Y77155080D01*
X100484394Y77207741D01*
X100382661Y77235000D01*
X100370789Y77235000D01*
X101057888Y77922101D01*
X101057888Y77922102D01*
X100986501Y77972087D01*
X100779073Y78068812D01*
X100779068Y78068814D01*
X100711968Y78086793D01*
X100651345Y78123745D01*
X100620324Y78187605D01*
X100628752Y78258100D01*
X100673955Y78312847D01*
X100741580Y78334464D01*
X100744579Y78334500D01*
X110073491Y78334500D01*
X110141612Y78314498D01*
G37*
G04 #@! TD.AperFunction*
G04 #@! TA.AperFunction,Conductor*
G36*
X95519698Y101714498D02*
G01*
X95566191Y101660842D01*
X95576295Y101590568D01*
X95546801Y101525988D01*
X95540687Y101519421D01*
X94647254Y100625988D01*
X94359989Y100338723D01*
X94297677Y100304698D01*
X94238285Y100306112D01*
X94201464Y100315978D01*
X93980000Y100335353D01*
X93758537Y100315978D01*
X93643463Y100285144D01*
X93543806Y100258441D01*
X93543801Y100258439D01*
X93342323Y100164488D01*
X93160222Y100036980D01*
X93160216Y100036975D01*
X93003025Y99879784D01*
X93003020Y99879778D01*
X92875512Y99697677D01*
X92824195Y99587627D01*
X92777277Y99534342D01*
X92709000Y99514881D01*
X92641040Y99535423D01*
X92595805Y99587627D01*
X92585964Y99608731D01*
X92544488Y99697676D01*
X92416977Y99879781D01*
X92259781Y100036977D01*
X92259777Y100036980D01*
X92259772Y100036984D01*
X92077677Y100164488D01*
X92077675Y100164489D01*
X91876199Y100258439D01*
X91876193Y100258441D01*
X91834074Y100269727D01*
X91661463Y100315978D01*
X91440000Y100335353D01*
X91218537Y100315978D01*
X91103463Y100285144D01*
X91003806Y100258441D01*
X91003801Y100258439D01*
X90802323Y100164488D01*
X90620222Y100036980D01*
X90620216Y100036975D01*
X90463025Y99879784D01*
X90463020Y99879778D01*
X90335512Y99697677D01*
X90284195Y99587627D01*
X90237277Y99534342D01*
X90169000Y99514881D01*
X90101040Y99535423D01*
X90055805Y99587627D01*
X90045964Y99608731D01*
X90004488Y99697676D01*
X89876977Y99879781D01*
X89719781Y100036977D01*
X89719777Y100036980D01*
X89719772Y100036984D01*
X89537677Y100164488D01*
X89537675Y100164489D01*
X89336199Y100258439D01*
X89336193Y100258441D01*
X89294074Y100269727D01*
X89121463Y100315978D01*
X88900000Y100335353D01*
X88678537Y100315978D01*
X88563463Y100285144D01*
X88463806Y100258441D01*
X88463801Y100258439D01*
X88262323Y100164488D01*
X88080222Y100036980D01*
X88080216Y100036975D01*
X87923025Y99879784D01*
X87923020Y99879778D01*
X87795512Y99697677D01*
X87744195Y99587627D01*
X87697277Y99534342D01*
X87629000Y99514881D01*
X87561040Y99535423D01*
X87515805Y99587627D01*
X87505964Y99608731D01*
X87464488Y99697676D01*
X87336977Y99879781D01*
X87179781Y100036977D01*
X87179777Y100036980D01*
X87179772Y100036984D01*
X86997677Y100164488D01*
X86997675Y100164489D01*
X86796199Y100258439D01*
X86796193Y100258441D01*
X86754074Y100269727D01*
X86581463Y100315978D01*
X86360000Y100335353D01*
X86138537Y100315978D01*
X86023463Y100285144D01*
X85923806Y100258441D01*
X85923801Y100258439D01*
X85722323Y100164488D01*
X85540222Y100036980D01*
X85540216Y100036975D01*
X85383025Y99879784D01*
X85383020Y99879778D01*
X85255512Y99697677D01*
X85161561Y99496199D01*
X85161559Y99496194D01*
X85130755Y99381231D01*
X85113495Y99316814D01*
X85104021Y99281458D01*
X85094291Y99170247D01*
X85068428Y99104129D01*
X85010924Y99062489D01*
X84979753Y99055709D01*
X84868542Y99045979D01*
X84868538Y99045979D01*
X84868537Y99045978D01*
X84777781Y99021660D01*
X84653806Y98988441D01*
X84653801Y98988439D01*
X84452323Y98894488D01*
X84270222Y98766980D01*
X84270216Y98766975D01*
X84113025Y98609784D01*
X84113020Y98609778D01*
X83985512Y98427677D01*
X83891561Y98226199D01*
X83891559Y98226194D01*
X83877054Y98172059D01*
X83834022Y98011463D01*
X83814647Y97790000D01*
X83834022Y97568537D01*
X83877054Y97407941D01*
X83891559Y97353807D01*
X83891561Y97353801D01*
X83985511Y97152325D01*
X83985512Y97152323D01*
X84113016Y96970228D01*
X84113020Y96970223D01*
X84113023Y96970219D01*
X84270219Y96813023D01*
X84270223Y96813020D01*
X84270227Y96813017D01*
X84272361Y96811523D01*
X84452323Y96685512D01*
X84653804Y96591560D01*
X84868537Y96534022D01*
X85090000Y96514647D01*
X85311463Y96534022D01*
X85526196Y96591560D01*
X85727677Y96685512D01*
X85909781Y96813023D01*
X86066977Y96970219D01*
X86194488Y97152323D01*
X86245805Y97262374D01*
X86292722Y97315658D01*
X86360999Y97335119D01*
X86428959Y97314577D01*
X86474195Y97262373D01*
X86525511Y97152325D01*
X86525512Y97152323D01*
X86653016Y96970228D01*
X86653020Y96970223D01*
X86653023Y96970219D01*
X86810219Y96813023D01*
X86810223Y96813020D01*
X86810227Y96813017D01*
X86812361Y96811523D01*
X86992323Y96685512D01*
X87193804Y96591560D01*
X87408537Y96534022D01*
X87630000Y96514647D01*
X87851463Y96534022D01*
X88066196Y96591560D01*
X88267677Y96685512D01*
X88449781Y96813023D01*
X88606977Y96970219D01*
X88734488Y97152323D01*
X88785805Y97262374D01*
X88832722Y97315658D01*
X88900999Y97335119D01*
X88968959Y97314577D01*
X89014195Y97262373D01*
X89065511Y97152325D01*
X89065512Y97152323D01*
X89193016Y96970228D01*
X89193020Y96970223D01*
X89193023Y96970219D01*
X89350219Y96813023D01*
X89350223Y96813020D01*
X89350227Y96813017D01*
X89352361Y96811523D01*
X89532323Y96685512D01*
X89733804Y96591560D01*
X89948537Y96534022D01*
X90170000Y96514647D01*
X90391463Y96534022D01*
X90606196Y96591560D01*
X90807677Y96685512D01*
X90989781Y96813023D01*
X91146977Y96970219D01*
X91274488Y97152323D01*
X91326081Y97262966D01*
X91372996Y97316249D01*
X91441273Y97335711D01*
X91509234Y97315170D01*
X91554469Y97262966D01*
X91605943Y97152580D01*
X91605946Y97152575D01*
X91650184Y97089397D01*
X91650186Y97089397D01*
X92300000Y97739211D01*
X92300000Y97736022D01*
X92327941Y97631746D01*
X92381918Y97538254D01*
X92458254Y97461918D01*
X92551746Y97407941D01*
X92656022Y97380000D01*
X92659210Y97380000D01*
X92009395Y96730187D01*
X92009395Y96730186D01*
X92072575Y96685947D01*
X92072574Y96685947D01*
X92273972Y96592034D01*
X92273976Y96592032D01*
X92488625Y96534518D01*
X92710000Y96515150D01*
X92931374Y96534518D01*
X93146023Y96592032D01*
X93146027Y96592034D01*
X93347425Y96685947D01*
X93347426Y96685948D01*
X93410603Y96730186D01*
X93410603Y96730188D01*
X92760791Y97380000D01*
X92763978Y97380000D01*
X92868254Y97407941D01*
X92961746Y97461918D01*
X93038082Y97538254D01*
X93092059Y97631746D01*
X93120000Y97736022D01*
X93120000Y97739211D01*
X93769813Y97089397D01*
X93769814Y97089397D01*
X93814052Y97152574D01*
X93814053Y97152575D01*
X93865529Y97262965D01*
X93912446Y97316250D01*
X93980723Y97335711D01*
X94048683Y97315169D01*
X94093919Y97262965D01*
X94145511Y97152325D01*
X94145512Y97152323D01*
X94273016Y96970228D01*
X94273020Y96970223D01*
X94273023Y96970219D01*
X94430219Y96813023D01*
X94430223Y96813020D01*
X94430227Y96813017D01*
X94432361Y96811523D01*
X94612323Y96685512D01*
X94813804Y96591560D01*
X95028537Y96534022D01*
X95250000Y96514647D01*
X95471463Y96534022D01*
X95686196Y96591560D01*
X95887677Y96685512D01*
X96069781Y96813023D01*
X96226977Y96970219D01*
X96354488Y97152323D01*
X96405805Y97262374D01*
X96452722Y97315658D01*
X96520999Y97335119D01*
X96588959Y97314577D01*
X96634195Y97262373D01*
X96685511Y97152325D01*
X96685512Y97152323D01*
X96813016Y96970228D01*
X96813020Y96970223D01*
X96813023Y96970219D01*
X96970219Y96813023D01*
X96970223Y96813020D01*
X96970227Y96813017D01*
X96972361Y96811523D01*
X97152323Y96685512D01*
X97353804Y96591560D01*
X97568537Y96534022D01*
X97790000Y96514647D01*
X98011463Y96534022D01*
X98226196Y96591560D01*
X98427677Y96685512D01*
X98609781Y96813023D01*
X98766977Y96970219D01*
X98894488Y97152323D01*
X98945805Y97262374D01*
X98992722Y97315658D01*
X99060999Y97335119D01*
X99128959Y97314577D01*
X99174195Y97262373D01*
X99225511Y97152325D01*
X99225512Y97152323D01*
X99353016Y96970228D01*
X99353020Y96970223D01*
X99353023Y96970219D01*
X99510219Y96813023D01*
X99510223Y96813020D01*
X99510227Y96813017D01*
X99512361Y96811523D01*
X99692323Y96685512D01*
X99893804Y96591560D01*
X100108537Y96534022D01*
X100330000Y96514647D01*
X100386131Y96519558D01*
X100455735Y96505570D01*
X100506728Y96456171D01*
X100522919Y96387046D01*
X100499167Y96320140D01*
X100486208Y96304943D01*
X98823670Y94642404D01*
X98761360Y94608380D01*
X98734577Y94605500D01*
X85642406Y94605500D01*
X85519630Y94581078D01*
X85519625Y94581076D01*
X85403977Y94533173D01*
X85299896Y94463628D01*
X85299889Y94463623D01*
X83265595Y92429328D01*
X83203283Y92395302D01*
X83132468Y92400367D01*
X83075632Y92442914D01*
X83050821Y92509434D01*
X83050500Y92518423D01*
X83050500Y98800496D01*
X83070502Y98868617D01*
X83087405Y98889591D01*
X85895409Y101697595D01*
X85957721Y101731621D01*
X85984504Y101734500D01*
X95451577Y101734500D01*
X95519698Y101714498D01*
G37*
G04 #@! TD.AperFunction*
G04 #@! TD*
M02*
