M48
; DRILL file {KiCad 8.0.8} date 2025-02-05T15:42:48+0900
; FORMAT={-:-/ absolute / metric / decimal}
; #@! TF.CreationDate,2025-02-05T15:42:48+09:00
; #@! TF.GenerationSoftware,Kicad,Pcbnew,8.0.8
; #@! TF.FileFunction,NonPlated,1,2,NPTH
FMAT,2
METRIC
; #@! TA.AperFunction,NonPlated,NPTH,ComponentDrill
T1C1.200
; #@! TA.AperFunction,NonPlated,NPTH,ComponentDrill
T2C1.700
; #@! TA.AperFunction,NonPlated,NPTH,ComponentDrill
T3C1.900
; #@! TA.AperFunction,NonPlated,NPTH,ComponentDrill
T4C3.000
; #@! TA.AperFunction,NonPlated,NPTH,ComponentDrill
T5C4.000
; #@! TA.AperFunction,NonPlated,NPTH,ComponentDrill
T6C5.000
%
G90
G05
T1
X119.92Y99.465
X119.92Y92.465
X123.92Y99.465
X123.92Y92.465
T2
X5.08Y67.31
X5.08Y48.26
X5.08Y29.21
X5.08Y10.16
X15.24Y67.31
X15.24Y48.26
X15.24Y29.21
X15.24Y10.16
X24.13Y67.31
X24.13Y48.26
X24.13Y29.21
X24.13Y10.16
X34.29Y67.31
X34.29Y48.26
X34.29Y29.21
X34.29Y10.16
X43.18Y67.31
X43.18Y48.26
X43.18Y29.21
X43.18Y10.16
X53.34Y67.31
X53.34Y48.26
X53.34Y29.21
X53.34Y10.16
X62.23Y67.31
X62.23Y48.26
X62.23Y29.21
X62.23Y10.16
X72.39Y67.31
X72.39Y48.26
X72.39Y29.21
X72.39Y10.16
X81.28Y67.31
X81.28Y48.26
X81.28Y29.21
X81.28Y10.16
X91.44Y67.31
X91.44Y48.26
X91.44Y29.21
X91.44Y10.16
X100.33Y67.31
X100.33Y48.26
X100.33Y29.21
X100.33Y10.16
X110.49Y67.31
X110.49Y48.26
X110.49Y29.21
X110.49Y10.16
X119.38Y67.31
X119.38Y48.26
X119.38Y29.21
X119.38Y10.16
X129.54Y67.31
X129.54Y48.26
X129.54Y29.21
X129.54Y10.16
T3
X4.66Y67.31
X4.66Y48.26
X4.66Y29.21
X4.66Y10.16
X15.66Y67.31
X15.66Y48.26
X15.66Y29.21
X15.66Y10.16
X23.71Y67.31
X23.71Y48.26
X23.71Y29.21
X23.71Y10.16
X34.71Y67.31
X34.71Y48.26
X34.71Y29.21
X34.71Y10.16
X42.76Y67.31
X42.76Y48.26
X42.76Y29.21
X42.76Y10.16
X53.76Y67.31
X53.76Y48.26
X53.76Y29.21
X53.76Y10.16
X61.81Y67.31
X61.81Y48.26
X61.81Y29.21
X61.81Y10.16
X72.81Y67.31
X72.81Y48.26
X72.81Y29.21
X72.81Y10.16
X80.86Y67.31
X80.86Y48.26
X80.86Y29.21
X80.86Y10.16
X91.86Y67.31
X91.86Y48.26
X91.86Y29.21
X91.86Y10.16
X99.91Y67.31
X99.91Y48.26
X99.91Y29.21
X99.91Y10.16
X110.91Y67.31
X110.91Y48.26
X110.91Y29.21
X110.91Y10.16
X118.96Y67.31
X118.96Y48.26
X118.96Y29.21
X118.96Y10.16
X129.96Y67.31
X129.96Y48.26
X129.96Y29.21
X129.96Y10.16
T4
X5.16Y63.61
X5.16Y44.56
X5.16Y25.51
X5.16Y6.46
X6.35Y69.85
X6.35Y50.8
X6.35Y31.75
X6.35Y12.7
X7.62Y72.39
X7.62Y53.34
X7.62Y34.29
X7.62Y15.24
X10.16Y61.41
X10.16Y42.36
X10.16Y23.31
X10.16Y4.26
X12.7Y72.39
X12.7Y53.34
X12.7Y34.29
X12.7Y15.24
X13.97Y69.85
X13.97Y50.8
X13.97Y31.75
X13.97Y12.7
X15.16Y63.61
X15.16Y44.56
X15.16Y25.51
X15.16Y6.46
X24.21Y63.61
X24.21Y44.56
X24.21Y25.51
X24.21Y6.46
X25.4Y69.85
X25.4Y50.8
X25.4Y31.75
X25.4Y12.7
X26.67Y72.39
X26.67Y53.34
X26.67Y34.29
X26.67Y15.24
X29.21Y61.41
X29.21Y42.36
X29.21Y23.31
X29.21Y4.26
X31.75Y72.39
X31.75Y53.34
X31.75Y34.29
X31.75Y15.24
X33.02Y69.85
X33.02Y50.8
X33.02Y31.75
X33.02Y12.7
X34.21Y63.61
X34.21Y44.56
X34.21Y25.51
X34.21Y6.46
X43.26Y63.61
X43.26Y44.56
X43.26Y25.51
X43.26Y6.46
X44.45Y69.85
X44.45Y50.8
X44.45Y31.75
X44.45Y12.7
X45.72Y72.39
X45.72Y53.34
X45.72Y34.29
X45.72Y15.24
X48.26Y61.41
X48.26Y42.36
X48.26Y23.31
X48.26Y4.26
X50.8Y72.39
X50.8Y53.34
X50.8Y34.29
X50.8Y15.24
X52.07Y69.85
X52.07Y50.8
X52.07Y31.75
X52.07Y12.7
X53.26Y63.61
X53.26Y44.56
X53.26Y25.51
X53.26Y6.46
X62.31Y63.61
X62.31Y44.56
X62.31Y25.51
X62.31Y6.46
X63.5Y69.85
X63.5Y50.8
X63.5Y31.75
X63.5Y12.7
X64.77Y72.39
X64.77Y53.34
X64.77Y34.29
X64.77Y15.24
X67.31Y61.41
X67.31Y42.36
X67.31Y23.31
X67.31Y4.26
X69.85Y72.39
X69.85Y53.34
X69.85Y34.29
X69.85Y15.24
X71.12Y69.85
X71.12Y50.8
X71.12Y31.75
X71.12Y12.7
X72.31Y63.61
X72.31Y44.56
X72.31Y25.51
X72.31Y6.46
X81.36Y63.61
X81.36Y44.56
X81.36Y25.51
X81.36Y6.46
X82.55Y69.85
X82.55Y50.8
X82.55Y31.75
X82.55Y12.7
X83.82Y72.39
X83.82Y53.34
X83.82Y34.29
X83.82Y15.24
X86.36Y61.41
X86.36Y42.36
X86.36Y23.31
X86.36Y4.26
X88.9Y72.39
X88.9Y53.34
X88.9Y34.29
X88.9Y15.24
X90.17Y69.85
X90.17Y50.8
X90.17Y31.75
X90.17Y12.7
X91.36Y63.61
X91.36Y44.56
X91.36Y25.51
X91.36Y6.46
X100.41Y63.61
X100.41Y44.56
X100.41Y25.51
X100.41Y6.46
X101.6Y69.85
X101.6Y50.8
X101.6Y31.75
X101.6Y12.7
X102.87Y72.39
X102.87Y53.34
X102.87Y34.29
X102.87Y15.24
X105.41Y61.41
X105.41Y42.36
X105.41Y23.31
X105.41Y4.26
X107.95Y72.39
X107.95Y53.34
X107.95Y34.29
X107.95Y15.24
X109.22Y69.85
X109.22Y50.8
X109.22Y31.75
X109.22Y12.7
X110.41Y63.61
X110.41Y44.56
X110.41Y25.51
X110.41Y6.46
X119.46Y63.61
X119.46Y44.56
X119.46Y25.51
X119.46Y6.46
X120.65Y69.85
X120.65Y50.8
X120.65Y31.75
X120.65Y12.7
X121.92Y72.39
X121.92Y53.34
X121.92Y34.29
X121.92Y15.24
X124.46Y61.41
X124.46Y42.36
X124.46Y23.31
X124.46Y4.26
X127.0Y72.39
X127.0Y53.34
X127.0Y34.29
X127.0Y15.24
X128.27Y69.85
X128.27Y50.8
X128.27Y31.75
X128.27Y12.7
X129.46Y63.61
X129.46Y44.56
X129.46Y25.51
X129.46Y6.46
T5
X10.16Y67.31
X10.16Y48.26
X10.16Y29.21
X10.16Y10.16
X29.21Y67.31
X29.21Y48.26
X29.21Y29.21
X29.21Y10.16
X48.26Y67.31
X48.26Y48.26
X48.26Y29.21
X48.26Y10.16
X67.31Y67.31
X67.31Y48.26
X67.31Y29.21
X67.31Y10.16
X86.36Y67.31
X86.36Y48.26
X86.36Y29.21
X86.36Y10.16
X105.41Y67.31
X105.41Y48.26
X105.41Y29.21
X105.41Y10.16
X124.46Y67.31
X124.46Y48.26
X124.46Y29.21
X124.46Y10.16
T6
X19.685Y57.785
X19.685Y19.685
X57.785Y38.735
X114.935Y57.785
X114.935Y19.685
M30
