G04 #@! TF.GenerationSoftware,KiCad,Pcbnew,9.0.0*
G04 #@! TF.CreationDate,2025-03-26T17:32:02+09:00*
G04 #@! TF.ProjectId,ergo42_upper_pcb,6572676f-3432-45f7-9570-7065725f7063,1.0.0-alpha*
G04 #@! TF.SameCoordinates,Original*
G04 #@! TF.FileFunction,Copper,L1,Top*
G04 #@! TF.FilePolarity,Positive*
%FSLAX46Y46*%
G04 Gerber Fmt 4.6, Leading zero omitted, Abs format (unit mm)*
G04 Created by KiCad (PCBNEW 9.0.0) date 2025-03-26 17:32:02*
%MOMM*%
%LPD*%
G01*
G04 APERTURE LIST*
G04 #@! TA.AperFunction,WasherPad*
%ADD10C,4.400000*%
G04 #@! TD*
G04 APERTURE END LIST*
D10*
X132080000Y-102235000D03*
X189230000Y-83185000D03*
X189230000Y-121285000D03*
X93980000Y-83185000D03*
X93980000Y-121285000D03*
G04 #@! TA.AperFunction,NonConductor*
G36*
X206808937Y-64020185D02*
G01*
X206829440Y-64036680D01*
X209536816Y-66735555D01*
X209648043Y-66846432D01*
X209681625Y-66907702D01*
X209684500Y-66934251D01*
X209684500Y-139441324D01*
X209664815Y-139508363D01*
X209648181Y-139529005D01*
X208744005Y-140433181D01*
X208682682Y-140466666D01*
X208656324Y-140469500D01*
X75823675Y-140469500D01*
X75756636Y-140449815D01*
X75735994Y-140433181D01*
X74831819Y-139529005D01*
X74798334Y-139467682D01*
X74795500Y-139441324D01*
X74795500Y-124222465D01*
X76954500Y-124222465D01*
X76954500Y-137397534D01*
X76984898Y-137569937D01*
X77044775Y-137734446D01*
X77132309Y-137886057D01*
X77244836Y-138020163D01*
X77378942Y-138132690D01*
X77378943Y-138132691D01*
X77378945Y-138132692D01*
X77530555Y-138220225D01*
X77695062Y-138280101D01*
X77867468Y-138310500D01*
X77867472Y-138310500D01*
X91042528Y-138310500D01*
X91042532Y-138310500D01*
X91214938Y-138280101D01*
X91379445Y-138220225D01*
X91531055Y-138132692D01*
X91665163Y-138020163D01*
X91777692Y-137886055D01*
X91865225Y-137734445D01*
X91925101Y-137569938D01*
X91955500Y-137397532D01*
X91955500Y-137310000D01*
X91955500Y-137244108D01*
X91955500Y-124244108D01*
X91955500Y-124222468D01*
X91955499Y-124222465D01*
X96004500Y-124222465D01*
X96004500Y-137397534D01*
X96034898Y-137569937D01*
X96094775Y-137734446D01*
X96182309Y-137886057D01*
X96294836Y-138020163D01*
X96428942Y-138132690D01*
X96428943Y-138132691D01*
X96428945Y-138132692D01*
X96580555Y-138220225D01*
X96745062Y-138280101D01*
X96917468Y-138310500D01*
X96917472Y-138310500D01*
X110092528Y-138310500D01*
X110092532Y-138310500D01*
X110264938Y-138280101D01*
X110429445Y-138220225D01*
X110581055Y-138132692D01*
X110715163Y-138020163D01*
X110827692Y-137886055D01*
X110915225Y-137734445D01*
X110975101Y-137569938D01*
X111005500Y-137397532D01*
X111005500Y-137310000D01*
X111005500Y-137244108D01*
X111005500Y-124244108D01*
X111005500Y-124222468D01*
X111005499Y-124222465D01*
X115054500Y-124222465D01*
X115054500Y-137397534D01*
X115084898Y-137569937D01*
X115144775Y-137734446D01*
X115232309Y-137886057D01*
X115344836Y-138020163D01*
X115478942Y-138132690D01*
X115478943Y-138132691D01*
X115478945Y-138132692D01*
X115630555Y-138220225D01*
X115795062Y-138280101D01*
X115967468Y-138310500D01*
X115967472Y-138310500D01*
X129142528Y-138310500D01*
X129142532Y-138310500D01*
X129314938Y-138280101D01*
X129479445Y-138220225D01*
X129631055Y-138132692D01*
X129765163Y-138020163D01*
X129877692Y-137886055D01*
X129965225Y-137734445D01*
X130025101Y-137569938D01*
X130055500Y-137397532D01*
X130055500Y-137310000D01*
X130055500Y-137244108D01*
X130055500Y-124244108D01*
X130055500Y-124222468D01*
X130055499Y-124222465D01*
X134104500Y-124222465D01*
X134104500Y-137397534D01*
X134134898Y-137569937D01*
X134194775Y-137734446D01*
X134282309Y-137886057D01*
X134394836Y-138020163D01*
X134528942Y-138132690D01*
X134528943Y-138132691D01*
X134528945Y-138132692D01*
X134680555Y-138220225D01*
X134845062Y-138280101D01*
X135017468Y-138310500D01*
X135017472Y-138310500D01*
X148192528Y-138310500D01*
X148192532Y-138310500D01*
X148364938Y-138280101D01*
X148529445Y-138220225D01*
X148681055Y-138132692D01*
X148815163Y-138020163D01*
X148927692Y-137886055D01*
X149015225Y-137734445D01*
X149075101Y-137569938D01*
X149105500Y-137397532D01*
X149105500Y-137310000D01*
X149105500Y-137244108D01*
X149105500Y-124244108D01*
X149105500Y-124222468D01*
X149105499Y-124222465D01*
X153154500Y-124222465D01*
X153154500Y-137397534D01*
X153184898Y-137569937D01*
X153244775Y-137734446D01*
X153332309Y-137886057D01*
X153444836Y-138020163D01*
X153578942Y-138132690D01*
X153578943Y-138132691D01*
X153578945Y-138132692D01*
X153730555Y-138220225D01*
X153895062Y-138280101D01*
X154067468Y-138310500D01*
X154067472Y-138310500D01*
X167242528Y-138310500D01*
X167242532Y-138310500D01*
X167414938Y-138280101D01*
X167579445Y-138220225D01*
X167731055Y-138132692D01*
X167865163Y-138020163D01*
X167977692Y-137886055D01*
X168065225Y-137734445D01*
X168125101Y-137569938D01*
X168155500Y-137397532D01*
X168155500Y-137310000D01*
X168155500Y-137244108D01*
X168155500Y-124244108D01*
X168155500Y-124222468D01*
X168155499Y-124222465D01*
X172204500Y-124222465D01*
X172204500Y-137397534D01*
X172234898Y-137569937D01*
X172294775Y-137734446D01*
X172382309Y-137886057D01*
X172494836Y-138020163D01*
X172628942Y-138132690D01*
X172628943Y-138132691D01*
X172628945Y-138132692D01*
X172780555Y-138220225D01*
X172945062Y-138280101D01*
X173117468Y-138310500D01*
X173117472Y-138310500D01*
X186292528Y-138310500D01*
X186292532Y-138310500D01*
X186464938Y-138280101D01*
X186629445Y-138220225D01*
X186781055Y-138132692D01*
X186915163Y-138020163D01*
X187027692Y-137886055D01*
X187115225Y-137734445D01*
X187175101Y-137569938D01*
X187205500Y-137397532D01*
X187205500Y-137310000D01*
X187205500Y-137244108D01*
X187205500Y-124244108D01*
X187205500Y-124222468D01*
X187205499Y-124222465D01*
X191254500Y-124222465D01*
X191254500Y-137397534D01*
X191284898Y-137569937D01*
X191344775Y-137734446D01*
X191432309Y-137886057D01*
X191544836Y-138020163D01*
X191678942Y-138132690D01*
X191678943Y-138132691D01*
X191678945Y-138132692D01*
X191830555Y-138220225D01*
X191995062Y-138280101D01*
X192167468Y-138310500D01*
X192167472Y-138310500D01*
X205342528Y-138310500D01*
X205342532Y-138310500D01*
X205514938Y-138280101D01*
X205679445Y-138220225D01*
X205831055Y-138132692D01*
X205965163Y-138020163D01*
X206077692Y-137886055D01*
X206165225Y-137734445D01*
X206225101Y-137569938D01*
X206255500Y-137397532D01*
X206255500Y-137310000D01*
X206255500Y-137244108D01*
X206255500Y-124244108D01*
X206255500Y-124222468D01*
X206225101Y-124050062D01*
X206165225Y-123885555D01*
X206077692Y-123733945D01*
X206077691Y-123733943D01*
X206077690Y-123733942D01*
X205965163Y-123599836D01*
X205831057Y-123487309D01*
X205679446Y-123399775D01*
X205514937Y-123339898D01*
X205342534Y-123309500D01*
X205342532Y-123309500D01*
X205320892Y-123309500D01*
X192320892Y-123309500D01*
X192255000Y-123309500D01*
X192167468Y-123309500D01*
X192167465Y-123309500D01*
X191995062Y-123339898D01*
X191830553Y-123399775D01*
X191678942Y-123487309D01*
X191544836Y-123599836D01*
X191432309Y-123733942D01*
X191344775Y-123885553D01*
X191284898Y-124050062D01*
X191254500Y-124222465D01*
X187205499Y-124222465D01*
X187175101Y-124050062D01*
X187115225Y-123885555D01*
X187027692Y-123733945D01*
X187027691Y-123733943D01*
X187027690Y-123733942D01*
X186915163Y-123599836D01*
X186781057Y-123487309D01*
X186629446Y-123399775D01*
X186464937Y-123339898D01*
X186292534Y-123309500D01*
X186292532Y-123309500D01*
X186270892Y-123309500D01*
X173270892Y-123309500D01*
X173205000Y-123309500D01*
X173117468Y-123309500D01*
X173117465Y-123309500D01*
X172945062Y-123339898D01*
X172780553Y-123399775D01*
X172628942Y-123487309D01*
X172494836Y-123599836D01*
X172382309Y-123733942D01*
X172294775Y-123885553D01*
X172234898Y-124050062D01*
X172204500Y-124222465D01*
X168155499Y-124222465D01*
X168125101Y-124050062D01*
X168065225Y-123885555D01*
X167977692Y-123733945D01*
X167977691Y-123733943D01*
X167977690Y-123733942D01*
X167865163Y-123599836D01*
X167731057Y-123487309D01*
X167579446Y-123399775D01*
X167414937Y-123339898D01*
X167242534Y-123309500D01*
X167242532Y-123309500D01*
X167220892Y-123309500D01*
X154220892Y-123309500D01*
X154155000Y-123309500D01*
X154067468Y-123309500D01*
X154067465Y-123309500D01*
X153895062Y-123339898D01*
X153730553Y-123399775D01*
X153578942Y-123487309D01*
X153444836Y-123599836D01*
X153332309Y-123733942D01*
X153244775Y-123885553D01*
X153184898Y-124050062D01*
X153154500Y-124222465D01*
X149105499Y-124222465D01*
X149075101Y-124050062D01*
X149015225Y-123885555D01*
X148927692Y-123733945D01*
X148927691Y-123733943D01*
X148927690Y-123733942D01*
X148815163Y-123599836D01*
X148681057Y-123487309D01*
X148529446Y-123399775D01*
X148364937Y-123339898D01*
X148192534Y-123309500D01*
X148192532Y-123309500D01*
X148170892Y-123309500D01*
X135170892Y-123309500D01*
X135105000Y-123309500D01*
X135017468Y-123309500D01*
X135017465Y-123309500D01*
X134845062Y-123339898D01*
X134680553Y-123399775D01*
X134528942Y-123487309D01*
X134394836Y-123599836D01*
X134282309Y-123733942D01*
X134194775Y-123885553D01*
X134134898Y-124050062D01*
X134104500Y-124222465D01*
X130055499Y-124222465D01*
X130025101Y-124050062D01*
X129965225Y-123885555D01*
X129877692Y-123733945D01*
X129877691Y-123733943D01*
X129877690Y-123733942D01*
X129765163Y-123599836D01*
X129631057Y-123487309D01*
X129479446Y-123399775D01*
X129314937Y-123339898D01*
X129142534Y-123309500D01*
X129142532Y-123309500D01*
X129120892Y-123309500D01*
X116120892Y-123309500D01*
X116055000Y-123309500D01*
X115967468Y-123309500D01*
X115967465Y-123309500D01*
X115795062Y-123339898D01*
X115630553Y-123399775D01*
X115478942Y-123487309D01*
X115344836Y-123599836D01*
X115232309Y-123733942D01*
X115144775Y-123885553D01*
X115084898Y-124050062D01*
X115054500Y-124222465D01*
X111005499Y-124222465D01*
X110975101Y-124050062D01*
X110915225Y-123885555D01*
X110827692Y-123733945D01*
X110827691Y-123733943D01*
X110827690Y-123733942D01*
X110715163Y-123599836D01*
X110581057Y-123487309D01*
X110429446Y-123399775D01*
X110264937Y-123339898D01*
X110092534Y-123309500D01*
X110092532Y-123309500D01*
X110070892Y-123309500D01*
X97070892Y-123309500D01*
X97005000Y-123309500D01*
X96917468Y-123309500D01*
X96917465Y-123309500D01*
X96745062Y-123339898D01*
X96580553Y-123399775D01*
X96428942Y-123487309D01*
X96294836Y-123599836D01*
X96182309Y-123733942D01*
X96094775Y-123885553D01*
X96034898Y-124050062D01*
X96004500Y-124222465D01*
X91955499Y-124222465D01*
X91925101Y-124050062D01*
X91865225Y-123885555D01*
X91777692Y-123733945D01*
X91777691Y-123733943D01*
X91777690Y-123733942D01*
X91665163Y-123599836D01*
X91531057Y-123487309D01*
X91379446Y-123399775D01*
X91214937Y-123339898D01*
X91042534Y-123309500D01*
X91042532Y-123309500D01*
X91020892Y-123309500D01*
X78020892Y-123309500D01*
X77955000Y-123309500D01*
X77867468Y-123309500D01*
X77867465Y-123309500D01*
X77695062Y-123339898D01*
X77530553Y-123399775D01*
X77378942Y-123487309D01*
X77244836Y-123599836D01*
X77132309Y-123733942D01*
X77044775Y-123885553D01*
X76984898Y-124050062D01*
X76954500Y-124222465D01*
X74795500Y-124222465D01*
X74795500Y-121130782D01*
X91627100Y-121130782D01*
X91627100Y-121439217D01*
X91667357Y-121745009D01*
X91747187Y-122042938D01*
X91865217Y-122327887D01*
X91865221Y-122327897D01*
X92019436Y-122595005D01*
X92207198Y-122839702D01*
X92207204Y-122839709D01*
X92425290Y-123057795D01*
X92425297Y-123057801D01*
X92669994Y-123245563D01*
X92937102Y-123399778D01*
X92937103Y-123399778D01*
X92937106Y-123399780D01*
X93222062Y-123517813D01*
X93519987Y-123597642D01*
X93749334Y-123627835D01*
X93825782Y-123637900D01*
X93825783Y-123637900D01*
X94134218Y-123637900D01*
X94195376Y-123629848D01*
X94440013Y-123597642D01*
X94737938Y-123517813D01*
X95022894Y-123399780D01*
X95290006Y-123245563D01*
X95534704Y-123057800D01*
X95752800Y-122839704D01*
X95940563Y-122595006D01*
X96094780Y-122327894D01*
X96212813Y-122042938D01*
X96292642Y-121745013D01*
X96332900Y-121439217D01*
X96332900Y-121130783D01*
X96332900Y-121130782D01*
X186877100Y-121130782D01*
X186877100Y-121439217D01*
X186917357Y-121745009D01*
X186997187Y-122042938D01*
X187115217Y-122327887D01*
X187115221Y-122327897D01*
X187269436Y-122595005D01*
X187457198Y-122839702D01*
X187457204Y-122839709D01*
X187675290Y-123057795D01*
X187675297Y-123057801D01*
X187919994Y-123245563D01*
X188187102Y-123399778D01*
X188187103Y-123399778D01*
X188187106Y-123399780D01*
X188472062Y-123517813D01*
X188769987Y-123597642D01*
X188999334Y-123627835D01*
X189075782Y-123637900D01*
X189075783Y-123637900D01*
X189384218Y-123637900D01*
X189445376Y-123629848D01*
X189690013Y-123597642D01*
X189987938Y-123517813D01*
X190272894Y-123399780D01*
X190540006Y-123245563D01*
X190784704Y-123057800D01*
X191002800Y-122839704D01*
X191190563Y-122595006D01*
X191344780Y-122327894D01*
X191462813Y-122042938D01*
X191542642Y-121745013D01*
X191582900Y-121439217D01*
X191582900Y-121130783D01*
X191542642Y-120824987D01*
X191462813Y-120527062D01*
X191344780Y-120242106D01*
X191190563Y-119974994D01*
X191002800Y-119730296D01*
X191002795Y-119730290D01*
X190784709Y-119512204D01*
X190784702Y-119512198D01*
X190540005Y-119324436D01*
X190272897Y-119170221D01*
X190272887Y-119170217D01*
X189987938Y-119052187D01*
X189690009Y-118972357D01*
X189384218Y-118932100D01*
X189384217Y-118932100D01*
X189075783Y-118932100D01*
X189075782Y-118932100D01*
X188769990Y-118972357D01*
X188472061Y-119052187D01*
X188187112Y-119170217D01*
X188187102Y-119170221D01*
X187919994Y-119324436D01*
X187675297Y-119512198D01*
X187675290Y-119512204D01*
X187457204Y-119730290D01*
X187457198Y-119730297D01*
X187269436Y-119974994D01*
X187115221Y-120242102D01*
X187115217Y-120242112D01*
X186997187Y-120527061D01*
X186917357Y-120824990D01*
X186877100Y-121130782D01*
X96332900Y-121130782D01*
X96292642Y-120824987D01*
X96212813Y-120527062D01*
X96094780Y-120242106D01*
X95940563Y-119974994D01*
X95752800Y-119730296D01*
X95752795Y-119730290D01*
X95534709Y-119512204D01*
X95534702Y-119512198D01*
X95290005Y-119324436D01*
X95022897Y-119170221D01*
X95022887Y-119170217D01*
X94737938Y-119052187D01*
X94440009Y-118972357D01*
X94134218Y-118932100D01*
X94134217Y-118932100D01*
X93825783Y-118932100D01*
X93825782Y-118932100D01*
X93519990Y-118972357D01*
X93222061Y-119052187D01*
X92937112Y-119170217D01*
X92937102Y-119170221D01*
X92669994Y-119324436D01*
X92425297Y-119512198D01*
X92425290Y-119512204D01*
X92207204Y-119730290D01*
X92207198Y-119730297D01*
X92019436Y-119974994D01*
X91865221Y-120242102D01*
X91865217Y-120242112D01*
X91747187Y-120527061D01*
X91667357Y-120824990D01*
X91627100Y-121130782D01*
X74795500Y-121130782D01*
X74795500Y-105172465D01*
X76954500Y-105172465D01*
X76954500Y-118347534D01*
X76984898Y-118519937D01*
X77044775Y-118684446D01*
X77132309Y-118836057D01*
X77244836Y-118970163D01*
X77378942Y-119082690D01*
X77378943Y-119082691D01*
X77378945Y-119082692D01*
X77530555Y-119170225D01*
X77695062Y-119230101D01*
X77867468Y-119260500D01*
X77867472Y-119260500D01*
X91042528Y-119260500D01*
X91042532Y-119260500D01*
X91214938Y-119230101D01*
X91379445Y-119170225D01*
X91531055Y-119082692D01*
X91665163Y-118970163D01*
X91777692Y-118836055D01*
X91865225Y-118684445D01*
X91925101Y-118519938D01*
X91955500Y-118347532D01*
X91955500Y-118260000D01*
X91955500Y-118194108D01*
X91955500Y-105194108D01*
X91955500Y-105172468D01*
X91955499Y-105172465D01*
X96004500Y-105172465D01*
X96004500Y-118347534D01*
X96034898Y-118519937D01*
X96094775Y-118684446D01*
X96182309Y-118836057D01*
X96294836Y-118970163D01*
X96428942Y-119082690D01*
X96428943Y-119082691D01*
X96428945Y-119082692D01*
X96580555Y-119170225D01*
X96745062Y-119230101D01*
X96917468Y-119260500D01*
X96917472Y-119260500D01*
X110092528Y-119260500D01*
X110092532Y-119260500D01*
X110264938Y-119230101D01*
X110429445Y-119170225D01*
X110581055Y-119082692D01*
X110715163Y-118970163D01*
X110827692Y-118836055D01*
X110915225Y-118684445D01*
X110975101Y-118519938D01*
X111005500Y-118347532D01*
X111005500Y-118260000D01*
X111005500Y-118194108D01*
X111005500Y-105194108D01*
X111005500Y-105172468D01*
X111005499Y-105172465D01*
X115054500Y-105172465D01*
X115054500Y-118347534D01*
X115084898Y-118519937D01*
X115144775Y-118684446D01*
X115232309Y-118836057D01*
X115344836Y-118970163D01*
X115478942Y-119082690D01*
X115478943Y-119082691D01*
X115478945Y-119082692D01*
X115630555Y-119170225D01*
X115795062Y-119230101D01*
X115967468Y-119260500D01*
X115967472Y-119260500D01*
X129142528Y-119260500D01*
X129142532Y-119260500D01*
X129314938Y-119230101D01*
X129479445Y-119170225D01*
X129631055Y-119082692D01*
X129765163Y-118970163D01*
X129877692Y-118836055D01*
X129965225Y-118684445D01*
X130025101Y-118519938D01*
X130055500Y-118347532D01*
X130055500Y-118260000D01*
X130055500Y-118194108D01*
X130055500Y-105194108D01*
X130055500Y-105172468D01*
X130055499Y-105172465D01*
X134104500Y-105172465D01*
X134104500Y-118347534D01*
X134134898Y-118519937D01*
X134194775Y-118684446D01*
X134282309Y-118836057D01*
X134394836Y-118970163D01*
X134528942Y-119082690D01*
X134528943Y-119082691D01*
X134528945Y-119082692D01*
X134680555Y-119170225D01*
X134845062Y-119230101D01*
X135017468Y-119260500D01*
X135017472Y-119260500D01*
X148192528Y-119260500D01*
X148192532Y-119260500D01*
X148364938Y-119230101D01*
X148529445Y-119170225D01*
X148681055Y-119082692D01*
X148815163Y-118970163D01*
X148927692Y-118836055D01*
X149015225Y-118684445D01*
X149075101Y-118519938D01*
X149105500Y-118347532D01*
X149105500Y-118260000D01*
X149105500Y-118194108D01*
X149105500Y-105194108D01*
X149105500Y-105172468D01*
X149105499Y-105172465D01*
X153154500Y-105172465D01*
X153154500Y-118347534D01*
X153184898Y-118519937D01*
X153244775Y-118684446D01*
X153332309Y-118836057D01*
X153444836Y-118970163D01*
X153578942Y-119082690D01*
X153578943Y-119082691D01*
X153578945Y-119082692D01*
X153730555Y-119170225D01*
X153895062Y-119230101D01*
X154067468Y-119260500D01*
X154067472Y-119260500D01*
X167242528Y-119260500D01*
X167242532Y-119260500D01*
X167414938Y-119230101D01*
X167579445Y-119170225D01*
X167731055Y-119082692D01*
X167865163Y-118970163D01*
X167977692Y-118836055D01*
X168065225Y-118684445D01*
X168125101Y-118519938D01*
X168155500Y-118347532D01*
X168155500Y-118260000D01*
X168155500Y-118194108D01*
X168155500Y-105194108D01*
X168155500Y-105172468D01*
X168155499Y-105172465D01*
X172204500Y-105172465D01*
X172204500Y-118347534D01*
X172234898Y-118519937D01*
X172294775Y-118684446D01*
X172382309Y-118836057D01*
X172494836Y-118970163D01*
X172628942Y-119082690D01*
X172628943Y-119082691D01*
X172628945Y-119082692D01*
X172780555Y-119170225D01*
X172945062Y-119230101D01*
X173117468Y-119260500D01*
X173117472Y-119260500D01*
X186292528Y-119260500D01*
X186292532Y-119260500D01*
X186464938Y-119230101D01*
X186629445Y-119170225D01*
X186781055Y-119082692D01*
X186915163Y-118970163D01*
X187027692Y-118836055D01*
X187115225Y-118684445D01*
X187175101Y-118519938D01*
X187205500Y-118347532D01*
X187205500Y-118260000D01*
X187205500Y-118194108D01*
X187205500Y-105194108D01*
X187205500Y-105172468D01*
X187205499Y-105172465D01*
X191254500Y-105172465D01*
X191254500Y-118347534D01*
X191284898Y-118519937D01*
X191344775Y-118684446D01*
X191432309Y-118836057D01*
X191544836Y-118970163D01*
X191678942Y-119082690D01*
X191678943Y-119082691D01*
X191678945Y-119082692D01*
X191830555Y-119170225D01*
X191995062Y-119230101D01*
X192167468Y-119260500D01*
X192167472Y-119260500D01*
X205342528Y-119260500D01*
X205342532Y-119260500D01*
X205514938Y-119230101D01*
X205679445Y-119170225D01*
X205831055Y-119082692D01*
X205965163Y-118970163D01*
X206077692Y-118836055D01*
X206165225Y-118684445D01*
X206225101Y-118519938D01*
X206255500Y-118347532D01*
X206255500Y-118260000D01*
X206255500Y-118194108D01*
X206255500Y-105194108D01*
X206255500Y-105172468D01*
X206225101Y-105000062D01*
X206165225Y-104835555D01*
X206077692Y-104683945D01*
X206077691Y-104683943D01*
X206077690Y-104683942D01*
X205965163Y-104549836D01*
X205831057Y-104437309D01*
X205679446Y-104349775D01*
X205514937Y-104289898D01*
X205342534Y-104259500D01*
X205342532Y-104259500D01*
X205320892Y-104259500D01*
X192320892Y-104259500D01*
X192255000Y-104259500D01*
X192167468Y-104259500D01*
X192167465Y-104259500D01*
X191995062Y-104289898D01*
X191830553Y-104349775D01*
X191678942Y-104437309D01*
X191544836Y-104549836D01*
X191432309Y-104683942D01*
X191344775Y-104835553D01*
X191284898Y-105000062D01*
X191254500Y-105172465D01*
X187205499Y-105172465D01*
X187175101Y-105000062D01*
X187115225Y-104835555D01*
X187027692Y-104683945D01*
X187027691Y-104683943D01*
X187027690Y-104683942D01*
X186915163Y-104549836D01*
X186781057Y-104437309D01*
X186629446Y-104349775D01*
X186464937Y-104289898D01*
X186292534Y-104259500D01*
X186292532Y-104259500D01*
X186270892Y-104259500D01*
X173270892Y-104259500D01*
X173205000Y-104259500D01*
X173117468Y-104259500D01*
X173117465Y-104259500D01*
X172945062Y-104289898D01*
X172780553Y-104349775D01*
X172628942Y-104437309D01*
X172494836Y-104549836D01*
X172382309Y-104683942D01*
X172294775Y-104835553D01*
X172234898Y-105000062D01*
X172204500Y-105172465D01*
X168155499Y-105172465D01*
X168125101Y-105000062D01*
X168065225Y-104835555D01*
X167977692Y-104683945D01*
X167977691Y-104683943D01*
X167977690Y-104683942D01*
X167865163Y-104549836D01*
X167731057Y-104437309D01*
X167579446Y-104349775D01*
X167414937Y-104289898D01*
X167242534Y-104259500D01*
X167242532Y-104259500D01*
X167220892Y-104259500D01*
X154220892Y-104259500D01*
X154155000Y-104259500D01*
X154067468Y-104259500D01*
X154067465Y-104259500D01*
X153895062Y-104289898D01*
X153730553Y-104349775D01*
X153578942Y-104437309D01*
X153444836Y-104549836D01*
X153332309Y-104683942D01*
X153244775Y-104835553D01*
X153184898Y-105000062D01*
X153154500Y-105172465D01*
X149105499Y-105172465D01*
X149075101Y-105000062D01*
X149015225Y-104835555D01*
X148927692Y-104683945D01*
X148927691Y-104683943D01*
X148927690Y-104683942D01*
X148815163Y-104549836D01*
X148681057Y-104437309D01*
X148529446Y-104349775D01*
X148364937Y-104289898D01*
X148192534Y-104259500D01*
X148192532Y-104259500D01*
X148170892Y-104259500D01*
X135170892Y-104259500D01*
X135105000Y-104259500D01*
X135017468Y-104259500D01*
X135017465Y-104259500D01*
X134845062Y-104289898D01*
X134680553Y-104349775D01*
X134528942Y-104437309D01*
X134394836Y-104549836D01*
X134282309Y-104683942D01*
X134194775Y-104835553D01*
X134134898Y-105000062D01*
X134104500Y-105172465D01*
X130055499Y-105172465D01*
X130025101Y-105000062D01*
X129965225Y-104835555D01*
X129877692Y-104683945D01*
X129877691Y-104683943D01*
X129877690Y-104683942D01*
X129765163Y-104549836D01*
X129631057Y-104437309D01*
X129479446Y-104349775D01*
X129314937Y-104289898D01*
X129142534Y-104259500D01*
X129142532Y-104259500D01*
X129120892Y-104259500D01*
X116120892Y-104259500D01*
X116055000Y-104259500D01*
X115967468Y-104259500D01*
X115967465Y-104259500D01*
X115795062Y-104289898D01*
X115630553Y-104349775D01*
X115478942Y-104437309D01*
X115344836Y-104549836D01*
X115232309Y-104683942D01*
X115144775Y-104835553D01*
X115084898Y-105000062D01*
X115054500Y-105172465D01*
X111005499Y-105172465D01*
X110975101Y-105000062D01*
X110915225Y-104835555D01*
X110827692Y-104683945D01*
X110827691Y-104683943D01*
X110827690Y-104683942D01*
X110715163Y-104549836D01*
X110581057Y-104437309D01*
X110429446Y-104349775D01*
X110264937Y-104289898D01*
X110092534Y-104259500D01*
X110092532Y-104259500D01*
X110070892Y-104259500D01*
X97070892Y-104259500D01*
X97005000Y-104259500D01*
X96917468Y-104259500D01*
X96917465Y-104259500D01*
X96745062Y-104289898D01*
X96580553Y-104349775D01*
X96428942Y-104437309D01*
X96294836Y-104549836D01*
X96182309Y-104683942D01*
X96094775Y-104835553D01*
X96034898Y-105000062D01*
X96004500Y-105172465D01*
X91955499Y-105172465D01*
X91925101Y-105000062D01*
X91865225Y-104835555D01*
X91777692Y-104683945D01*
X91777691Y-104683943D01*
X91777690Y-104683942D01*
X91665163Y-104549836D01*
X91531057Y-104437309D01*
X91379446Y-104349775D01*
X91214937Y-104289898D01*
X91042534Y-104259500D01*
X91042532Y-104259500D01*
X91020892Y-104259500D01*
X78020892Y-104259500D01*
X77955000Y-104259500D01*
X77867468Y-104259500D01*
X77867465Y-104259500D01*
X77695062Y-104289898D01*
X77530553Y-104349775D01*
X77378942Y-104437309D01*
X77244836Y-104549836D01*
X77132309Y-104683942D01*
X77044775Y-104835553D01*
X76984898Y-105000062D01*
X76954500Y-105172465D01*
X74795500Y-105172465D01*
X74795500Y-102080782D01*
X129727100Y-102080782D01*
X129727100Y-102389217D01*
X129767357Y-102695009D01*
X129847187Y-102992938D01*
X129965217Y-103277887D01*
X129965221Y-103277897D01*
X130119436Y-103545005D01*
X130307198Y-103789702D01*
X130307204Y-103789709D01*
X130525290Y-104007795D01*
X130525297Y-104007801D01*
X130769994Y-104195563D01*
X131037102Y-104349778D01*
X131037103Y-104349778D01*
X131037106Y-104349780D01*
X131322062Y-104467813D01*
X131619987Y-104547642D01*
X131849334Y-104577835D01*
X131925782Y-104587900D01*
X131925783Y-104587900D01*
X132234218Y-104587900D01*
X132295376Y-104579848D01*
X132540013Y-104547642D01*
X132837938Y-104467813D01*
X133122894Y-104349780D01*
X133390006Y-104195563D01*
X133634704Y-104007800D01*
X133852800Y-103789704D01*
X134040563Y-103545006D01*
X134194780Y-103277894D01*
X134312813Y-102992938D01*
X134392642Y-102695013D01*
X134432900Y-102389217D01*
X134432900Y-102080783D01*
X134392642Y-101774987D01*
X134312813Y-101477062D01*
X134194780Y-101192106D01*
X134040563Y-100924994D01*
X133852800Y-100680296D01*
X133852795Y-100680290D01*
X133634709Y-100462204D01*
X133634702Y-100462198D01*
X133390005Y-100274436D01*
X133122897Y-100120221D01*
X133122887Y-100120217D01*
X132837938Y-100002187D01*
X132540009Y-99922357D01*
X132234218Y-99882100D01*
X132234217Y-99882100D01*
X131925783Y-99882100D01*
X131925782Y-99882100D01*
X131619990Y-99922357D01*
X131322061Y-100002187D01*
X131037112Y-100120217D01*
X131037102Y-100120221D01*
X130769994Y-100274436D01*
X130525297Y-100462198D01*
X130525290Y-100462204D01*
X130307204Y-100680290D01*
X130307198Y-100680297D01*
X130119436Y-100924994D01*
X129965221Y-101192102D01*
X129965217Y-101192112D01*
X129847187Y-101477061D01*
X129767357Y-101774990D01*
X129727100Y-102080782D01*
X74795500Y-102080782D01*
X74795500Y-86122465D01*
X76954500Y-86122465D01*
X76954500Y-99297534D01*
X76984898Y-99469937D01*
X77044775Y-99634446D01*
X77132309Y-99786057D01*
X77244836Y-99920163D01*
X77378942Y-100032690D01*
X77378943Y-100032691D01*
X77378945Y-100032692D01*
X77530555Y-100120225D01*
X77695062Y-100180101D01*
X77867468Y-100210500D01*
X77867472Y-100210500D01*
X91042528Y-100210500D01*
X91042532Y-100210500D01*
X91214938Y-100180101D01*
X91379445Y-100120225D01*
X91531055Y-100032692D01*
X91665163Y-99920163D01*
X91777692Y-99786055D01*
X91865225Y-99634445D01*
X91925101Y-99469938D01*
X91955500Y-99297532D01*
X91955500Y-99210000D01*
X91955500Y-99144108D01*
X91955500Y-86144108D01*
X91955500Y-86122468D01*
X91955499Y-86122465D01*
X96004500Y-86122465D01*
X96004500Y-99297534D01*
X96034898Y-99469937D01*
X96094775Y-99634446D01*
X96182309Y-99786057D01*
X96294836Y-99920163D01*
X96428942Y-100032690D01*
X96428943Y-100032691D01*
X96428945Y-100032692D01*
X96580555Y-100120225D01*
X96745062Y-100180101D01*
X96917468Y-100210500D01*
X96917472Y-100210500D01*
X110092528Y-100210500D01*
X110092532Y-100210500D01*
X110264938Y-100180101D01*
X110429445Y-100120225D01*
X110581055Y-100032692D01*
X110715163Y-99920163D01*
X110827692Y-99786055D01*
X110915225Y-99634445D01*
X110975101Y-99469938D01*
X111005500Y-99297532D01*
X111005500Y-99210000D01*
X111005500Y-99144108D01*
X111005500Y-86144108D01*
X111005500Y-86122468D01*
X111005499Y-86122465D01*
X115054500Y-86122465D01*
X115054500Y-99297534D01*
X115084898Y-99469937D01*
X115144775Y-99634446D01*
X115232309Y-99786057D01*
X115344836Y-99920163D01*
X115478942Y-100032690D01*
X115478943Y-100032691D01*
X115478945Y-100032692D01*
X115630555Y-100120225D01*
X115795062Y-100180101D01*
X115967468Y-100210500D01*
X115967472Y-100210500D01*
X129142528Y-100210500D01*
X129142532Y-100210500D01*
X129314938Y-100180101D01*
X129479445Y-100120225D01*
X129631055Y-100032692D01*
X129765163Y-99920163D01*
X129877692Y-99786055D01*
X129965225Y-99634445D01*
X130025101Y-99469938D01*
X130055500Y-99297532D01*
X130055500Y-99210000D01*
X130055500Y-99144108D01*
X130055500Y-86144108D01*
X130055500Y-86122468D01*
X130055499Y-86122465D01*
X134104500Y-86122465D01*
X134104500Y-99297534D01*
X134134898Y-99469937D01*
X134194775Y-99634446D01*
X134282309Y-99786057D01*
X134394836Y-99920163D01*
X134528942Y-100032690D01*
X134528943Y-100032691D01*
X134528945Y-100032692D01*
X134680555Y-100120225D01*
X134845062Y-100180101D01*
X135017468Y-100210500D01*
X135017472Y-100210500D01*
X148192528Y-100210500D01*
X148192532Y-100210500D01*
X148364938Y-100180101D01*
X148529445Y-100120225D01*
X148681055Y-100032692D01*
X148815163Y-99920163D01*
X148927692Y-99786055D01*
X149015225Y-99634445D01*
X149075101Y-99469938D01*
X149105500Y-99297532D01*
X149105500Y-99210000D01*
X149105500Y-99144108D01*
X149105500Y-86144108D01*
X149105500Y-86122468D01*
X149105499Y-86122465D01*
X153154500Y-86122465D01*
X153154500Y-99297534D01*
X153184898Y-99469937D01*
X153244775Y-99634446D01*
X153332309Y-99786057D01*
X153444836Y-99920163D01*
X153578942Y-100032690D01*
X153578943Y-100032691D01*
X153578945Y-100032692D01*
X153730555Y-100120225D01*
X153895062Y-100180101D01*
X154067468Y-100210500D01*
X154067472Y-100210500D01*
X167242528Y-100210500D01*
X167242532Y-100210500D01*
X167414938Y-100180101D01*
X167579445Y-100120225D01*
X167731055Y-100032692D01*
X167865163Y-99920163D01*
X167977692Y-99786055D01*
X168065225Y-99634445D01*
X168125101Y-99469938D01*
X168155500Y-99297532D01*
X168155500Y-99210000D01*
X168155500Y-99144108D01*
X168155500Y-86144108D01*
X168155500Y-86122468D01*
X168155499Y-86122465D01*
X172204500Y-86122465D01*
X172204500Y-99297534D01*
X172234898Y-99469937D01*
X172294775Y-99634446D01*
X172382309Y-99786057D01*
X172494836Y-99920163D01*
X172628942Y-100032690D01*
X172628943Y-100032691D01*
X172628945Y-100032692D01*
X172780555Y-100120225D01*
X172945062Y-100180101D01*
X173117468Y-100210500D01*
X173117472Y-100210500D01*
X186292528Y-100210500D01*
X186292532Y-100210500D01*
X186464938Y-100180101D01*
X186629445Y-100120225D01*
X186781055Y-100032692D01*
X186915163Y-99920163D01*
X187027692Y-99786055D01*
X187115225Y-99634445D01*
X187175101Y-99469938D01*
X187205500Y-99297532D01*
X187205500Y-99210000D01*
X187205500Y-99144108D01*
X187205500Y-86144108D01*
X187205500Y-86122468D01*
X187205499Y-86122465D01*
X191254500Y-86122465D01*
X191254500Y-99297534D01*
X191284898Y-99469937D01*
X191344775Y-99634446D01*
X191432309Y-99786057D01*
X191544836Y-99920163D01*
X191678942Y-100032690D01*
X191678943Y-100032691D01*
X191678945Y-100032692D01*
X191830555Y-100120225D01*
X191995062Y-100180101D01*
X192167468Y-100210500D01*
X192167472Y-100210500D01*
X205342528Y-100210500D01*
X205342532Y-100210500D01*
X205514938Y-100180101D01*
X205679445Y-100120225D01*
X205831055Y-100032692D01*
X205965163Y-99920163D01*
X206077692Y-99786055D01*
X206165225Y-99634445D01*
X206225101Y-99469938D01*
X206255500Y-99297532D01*
X206255500Y-99210000D01*
X206255500Y-99144108D01*
X206255500Y-86144108D01*
X206255500Y-86122468D01*
X206225101Y-85950062D01*
X206165225Y-85785555D01*
X206077692Y-85633945D01*
X206077691Y-85633943D01*
X206077690Y-85633942D01*
X205965163Y-85499836D01*
X205831057Y-85387309D01*
X205679446Y-85299775D01*
X205514937Y-85239898D01*
X205342534Y-85209500D01*
X205342532Y-85209500D01*
X205320892Y-85209500D01*
X192320892Y-85209500D01*
X192255000Y-85209500D01*
X192167468Y-85209500D01*
X192167465Y-85209500D01*
X191995062Y-85239898D01*
X191830553Y-85299775D01*
X191678942Y-85387309D01*
X191544836Y-85499836D01*
X191432309Y-85633942D01*
X191344775Y-85785553D01*
X191284898Y-85950062D01*
X191254500Y-86122465D01*
X187205499Y-86122465D01*
X187175101Y-85950062D01*
X187115225Y-85785555D01*
X187027692Y-85633945D01*
X187027691Y-85633943D01*
X187027690Y-85633942D01*
X186915163Y-85499836D01*
X186781057Y-85387309D01*
X186629446Y-85299775D01*
X186464937Y-85239898D01*
X186292534Y-85209500D01*
X186292532Y-85209500D01*
X186270892Y-85209500D01*
X173270892Y-85209500D01*
X173205000Y-85209500D01*
X173117468Y-85209500D01*
X173117465Y-85209500D01*
X172945062Y-85239898D01*
X172780553Y-85299775D01*
X172628942Y-85387309D01*
X172494836Y-85499836D01*
X172382309Y-85633942D01*
X172294775Y-85785553D01*
X172234898Y-85950062D01*
X172204500Y-86122465D01*
X168155499Y-86122465D01*
X168125101Y-85950062D01*
X168065225Y-85785555D01*
X167977692Y-85633945D01*
X167977691Y-85633943D01*
X167977690Y-85633942D01*
X167865163Y-85499836D01*
X167731057Y-85387309D01*
X167579446Y-85299775D01*
X167414937Y-85239898D01*
X167242534Y-85209500D01*
X167242532Y-85209500D01*
X167220892Y-85209500D01*
X154220892Y-85209500D01*
X154155000Y-85209500D01*
X154067468Y-85209500D01*
X154067465Y-85209500D01*
X153895062Y-85239898D01*
X153730553Y-85299775D01*
X153578942Y-85387309D01*
X153444836Y-85499836D01*
X153332309Y-85633942D01*
X153244775Y-85785553D01*
X153184898Y-85950062D01*
X153154500Y-86122465D01*
X149105499Y-86122465D01*
X149075101Y-85950062D01*
X149015225Y-85785555D01*
X148927692Y-85633945D01*
X148927691Y-85633943D01*
X148927690Y-85633942D01*
X148815163Y-85499836D01*
X148681057Y-85387309D01*
X148529446Y-85299775D01*
X148364937Y-85239898D01*
X148192534Y-85209500D01*
X148192532Y-85209500D01*
X148170892Y-85209500D01*
X135170892Y-85209500D01*
X135105000Y-85209500D01*
X135017468Y-85209500D01*
X135017465Y-85209500D01*
X134845062Y-85239898D01*
X134680553Y-85299775D01*
X134528942Y-85387309D01*
X134394836Y-85499836D01*
X134282309Y-85633942D01*
X134194775Y-85785553D01*
X134134898Y-85950062D01*
X134104500Y-86122465D01*
X130055499Y-86122465D01*
X130025101Y-85950062D01*
X129965225Y-85785555D01*
X129877692Y-85633945D01*
X129877691Y-85633943D01*
X129877690Y-85633942D01*
X129765163Y-85499836D01*
X129631057Y-85387309D01*
X129479446Y-85299775D01*
X129314937Y-85239898D01*
X129142534Y-85209500D01*
X129142532Y-85209500D01*
X129120892Y-85209500D01*
X116120892Y-85209500D01*
X116055000Y-85209500D01*
X115967468Y-85209500D01*
X115967465Y-85209500D01*
X115795062Y-85239898D01*
X115630553Y-85299775D01*
X115478942Y-85387309D01*
X115344836Y-85499836D01*
X115232309Y-85633942D01*
X115144775Y-85785553D01*
X115084898Y-85950062D01*
X115054500Y-86122465D01*
X111005499Y-86122465D01*
X110975101Y-85950062D01*
X110915225Y-85785555D01*
X110827692Y-85633945D01*
X110827691Y-85633943D01*
X110827690Y-85633942D01*
X110715163Y-85499836D01*
X110581057Y-85387309D01*
X110429446Y-85299775D01*
X110264937Y-85239898D01*
X110092534Y-85209500D01*
X110092532Y-85209500D01*
X110070892Y-85209500D01*
X97070892Y-85209500D01*
X97005000Y-85209500D01*
X96917468Y-85209500D01*
X96917465Y-85209500D01*
X96745062Y-85239898D01*
X96580553Y-85299775D01*
X96428942Y-85387309D01*
X96294836Y-85499836D01*
X96182309Y-85633942D01*
X96094775Y-85785553D01*
X96034898Y-85950062D01*
X96004500Y-86122465D01*
X91955499Y-86122465D01*
X91925101Y-85950062D01*
X91865225Y-85785555D01*
X91777692Y-85633945D01*
X91777691Y-85633943D01*
X91777690Y-85633942D01*
X91665163Y-85499836D01*
X91531057Y-85387309D01*
X91379446Y-85299775D01*
X91214937Y-85239898D01*
X91042534Y-85209500D01*
X91042532Y-85209500D01*
X91020892Y-85209500D01*
X78020892Y-85209500D01*
X77955000Y-85209500D01*
X77867468Y-85209500D01*
X77867465Y-85209500D01*
X77695062Y-85239898D01*
X77530553Y-85299775D01*
X77378942Y-85387309D01*
X77244836Y-85499836D01*
X77132309Y-85633942D01*
X77044775Y-85785553D01*
X76984898Y-85950062D01*
X76954500Y-86122465D01*
X74795500Y-86122465D01*
X74795500Y-83030782D01*
X91627100Y-83030782D01*
X91627100Y-83339217D01*
X91667357Y-83645009D01*
X91747187Y-83942938D01*
X91865217Y-84227887D01*
X91865221Y-84227897D01*
X92019436Y-84495005D01*
X92207198Y-84739702D01*
X92207204Y-84739709D01*
X92425290Y-84957795D01*
X92425297Y-84957801D01*
X92669994Y-85145563D01*
X92937102Y-85299778D01*
X92937103Y-85299778D01*
X92937106Y-85299780D01*
X93222062Y-85417813D01*
X93519987Y-85497642D01*
X93749334Y-85527835D01*
X93825782Y-85537900D01*
X93825783Y-85537900D01*
X94134218Y-85537900D01*
X94195376Y-85529848D01*
X94440013Y-85497642D01*
X94737938Y-85417813D01*
X95022894Y-85299780D01*
X95290006Y-85145563D01*
X95534704Y-84957800D01*
X95752800Y-84739704D01*
X95940563Y-84495006D01*
X96094780Y-84227894D01*
X96212813Y-83942938D01*
X96292642Y-83645013D01*
X96332900Y-83339217D01*
X96332900Y-83030783D01*
X96332900Y-83030782D01*
X186877100Y-83030782D01*
X186877100Y-83339217D01*
X186917357Y-83645009D01*
X186997187Y-83942938D01*
X187115217Y-84227887D01*
X187115221Y-84227897D01*
X187269436Y-84495005D01*
X187457198Y-84739702D01*
X187457204Y-84739709D01*
X187675290Y-84957795D01*
X187675297Y-84957801D01*
X187919994Y-85145563D01*
X188187102Y-85299778D01*
X188187103Y-85299778D01*
X188187106Y-85299780D01*
X188472062Y-85417813D01*
X188769987Y-85497642D01*
X188999334Y-85527835D01*
X189075782Y-85537900D01*
X189075783Y-85537900D01*
X189384218Y-85537900D01*
X189445376Y-85529848D01*
X189690013Y-85497642D01*
X189987938Y-85417813D01*
X190272894Y-85299780D01*
X190540006Y-85145563D01*
X190784704Y-84957800D01*
X191002800Y-84739704D01*
X191190563Y-84495006D01*
X191344780Y-84227894D01*
X191462813Y-83942938D01*
X191542642Y-83645013D01*
X191582900Y-83339217D01*
X191582900Y-83030783D01*
X191542642Y-82724987D01*
X191462813Y-82427062D01*
X191344780Y-82142106D01*
X191190563Y-81874994D01*
X191002800Y-81630296D01*
X191002795Y-81630290D01*
X190784709Y-81412204D01*
X190784702Y-81412198D01*
X190540005Y-81224436D01*
X190272897Y-81070221D01*
X190272887Y-81070217D01*
X189987938Y-80952187D01*
X189690009Y-80872357D01*
X189384218Y-80832100D01*
X189384217Y-80832100D01*
X189075783Y-80832100D01*
X189075782Y-80832100D01*
X188769990Y-80872357D01*
X188472061Y-80952187D01*
X188187112Y-81070217D01*
X188187102Y-81070221D01*
X187919994Y-81224436D01*
X187675297Y-81412198D01*
X187675290Y-81412204D01*
X187457204Y-81630290D01*
X187457198Y-81630297D01*
X187269436Y-81874994D01*
X187115221Y-82142102D01*
X187115217Y-82142112D01*
X186997187Y-82427061D01*
X186917357Y-82724990D01*
X186877100Y-83030782D01*
X96332900Y-83030782D01*
X96292642Y-82724987D01*
X96212813Y-82427062D01*
X96094780Y-82142106D01*
X95940563Y-81874994D01*
X95752800Y-81630296D01*
X95752795Y-81630290D01*
X95534709Y-81412204D01*
X95534702Y-81412198D01*
X95290005Y-81224436D01*
X95022897Y-81070221D01*
X95022887Y-81070217D01*
X94737938Y-80952187D01*
X94440009Y-80872357D01*
X94134218Y-80832100D01*
X94134217Y-80832100D01*
X93825783Y-80832100D01*
X93825782Y-80832100D01*
X93519990Y-80872357D01*
X93222061Y-80952187D01*
X92937112Y-81070217D01*
X92937102Y-81070221D01*
X92669994Y-81224436D01*
X92425297Y-81412198D01*
X92425290Y-81412204D01*
X92207204Y-81630290D01*
X92207198Y-81630297D01*
X92019436Y-81874994D01*
X91865221Y-82142102D01*
X91865217Y-82142112D01*
X91747187Y-82427061D01*
X91667357Y-82724990D01*
X91627100Y-83030782D01*
X74795500Y-83030782D01*
X74795500Y-67072465D01*
X76954500Y-67072465D01*
X76954500Y-80247534D01*
X76984898Y-80419937D01*
X77044775Y-80584446D01*
X77132309Y-80736057D01*
X77244836Y-80870163D01*
X77378942Y-80982690D01*
X77378943Y-80982691D01*
X77378945Y-80982692D01*
X77530555Y-81070225D01*
X77695062Y-81130101D01*
X77867468Y-81160500D01*
X77867472Y-81160500D01*
X91042528Y-81160500D01*
X91042532Y-81160500D01*
X91214938Y-81130101D01*
X91379445Y-81070225D01*
X91531055Y-80982692D01*
X91665163Y-80870163D01*
X91777692Y-80736055D01*
X91865225Y-80584445D01*
X91925101Y-80419938D01*
X91955500Y-80247532D01*
X91955500Y-80160000D01*
X91955500Y-80094108D01*
X91955500Y-67094108D01*
X91955500Y-67072468D01*
X91955499Y-67072465D01*
X96004500Y-67072465D01*
X96004500Y-80247534D01*
X96034898Y-80419937D01*
X96094775Y-80584446D01*
X96182309Y-80736057D01*
X96294836Y-80870163D01*
X96428942Y-80982690D01*
X96428943Y-80982691D01*
X96428945Y-80982692D01*
X96580555Y-81070225D01*
X96745062Y-81130101D01*
X96917468Y-81160500D01*
X96917472Y-81160500D01*
X110092528Y-81160500D01*
X110092532Y-81160500D01*
X110264938Y-81130101D01*
X110429445Y-81070225D01*
X110581055Y-80982692D01*
X110715163Y-80870163D01*
X110827692Y-80736055D01*
X110915225Y-80584445D01*
X110975101Y-80419938D01*
X111005500Y-80247532D01*
X111005500Y-80160000D01*
X111005500Y-80094108D01*
X111005500Y-67094108D01*
X111005500Y-67072468D01*
X111005499Y-67072465D01*
X115054500Y-67072465D01*
X115054500Y-80247534D01*
X115084898Y-80419937D01*
X115144775Y-80584446D01*
X115232309Y-80736057D01*
X115344836Y-80870163D01*
X115478942Y-80982690D01*
X115478943Y-80982691D01*
X115478945Y-80982692D01*
X115630555Y-81070225D01*
X115795062Y-81130101D01*
X115967468Y-81160500D01*
X115967472Y-81160500D01*
X129142528Y-81160500D01*
X129142532Y-81160500D01*
X129314938Y-81130101D01*
X129479445Y-81070225D01*
X129631055Y-80982692D01*
X129765163Y-80870163D01*
X129877692Y-80736055D01*
X129965225Y-80584445D01*
X130025101Y-80419938D01*
X130055500Y-80247532D01*
X130055500Y-80160000D01*
X130055500Y-80094108D01*
X130055500Y-67094108D01*
X130055500Y-67072468D01*
X130055499Y-67072465D01*
X134104500Y-67072465D01*
X134104500Y-80247534D01*
X134134898Y-80419937D01*
X134194775Y-80584446D01*
X134282309Y-80736057D01*
X134394836Y-80870163D01*
X134528942Y-80982690D01*
X134528943Y-80982691D01*
X134528945Y-80982692D01*
X134680555Y-81070225D01*
X134845062Y-81130101D01*
X135017468Y-81160500D01*
X135017472Y-81160500D01*
X148192528Y-81160500D01*
X148192532Y-81160500D01*
X148364938Y-81130101D01*
X148529445Y-81070225D01*
X148681055Y-80982692D01*
X148815163Y-80870163D01*
X148927692Y-80736055D01*
X149015225Y-80584445D01*
X149075101Y-80419938D01*
X149105500Y-80247532D01*
X149105500Y-80160000D01*
X149105500Y-80094108D01*
X149105500Y-67094108D01*
X149105500Y-67072468D01*
X149105499Y-67072465D01*
X153154500Y-67072465D01*
X153154500Y-80247534D01*
X153184898Y-80419937D01*
X153244775Y-80584446D01*
X153332309Y-80736057D01*
X153444836Y-80870163D01*
X153578942Y-80982690D01*
X153578943Y-80982691D01*
X153578945Y-80982692D01*
X153730555Y-81070225D01*
X153895062Y-81130101D01*
X154067468Y-81160500D01*
X154067472Y-81160500D01*
X167242528Y-81160500D01*
X167242532Y-81160500D01*
X167414938Y-81130101D01*
X167579445Y-81070225D01*
X167731055Y-80982692D01*
X167865163Y-80870163D01*
X167977692Y-80736055D01*
X168065225Y-80584445D01*
X168125101Y-80419938D01*
X168155500Y-80247532D01*
X168155500Y-80160000D01*
X168155500Y-80094108D01*
X168155500Y-67094108D01*
X168155500Y-67072468D01*
X168155499Y-67072465D01*
X172204500Y-67072465D01*
X172204500Y-80247534D01*
X172234898Y-80419937D01*
X172294775Y-80584446D01*
X172382309Y-80736057D01*
X172494836Y-80870163D01*
X172628942Y-80982690D01*
X172628943Y-80982691D01*
X172628945Y-80982692D01*
X172780555Y-81070225D01*
X172945062Y-81130101D01*
X173117468Y-81160500D01*
X173117472Y-81160500D01*
X186292528Y-81160500D01*
X186292532Y-81160500D01*
X186464938Y-81130101D01*
X186629445Y-81070225D01*
X186781055Y-80982692D01*
X186915163Y-80870163D01*
X187027692Y-80736055D01*
X187115225Y-80584445D01*
X187175101Y-80419938D01*
X187205500Y-80247532D01*
X187205500Y-80160000D01*
X187205500Y-80094108D01*
X187205500Y-67094108D01*
X187205500Y-67072468D01*
X187205499Y-67072465D01*
X191254500Y-67072465D01*
X191254500Y-80247534D01*
X191284898Y-80419937D01*
X191344775Y-80584446D01*
X191432309Y-80736057D01*
X191544836Y-80870163D01*
X191678942Y-80982690D01*
X191678943Y-80982691D01*
X191678945Y-80982692D01*
X191830555Y-81070225D01*
X191995062Y-81130101D01*
X192167468Y-81160500D01*
X192167472Y-81160500D01*
X205342528Y-81160500D01*
X205342532Y-81160500D01*
X205514938Y-81130101D01*
X205679445Y-81070225D01*
X205831055Y-80982692D01*
X205965163Y-80870163D01*
X206077692Y-80736055D01*
X206165225Y-80584445D01*
X206225101Y-80419938D01*
X206255500Y-80247532D01*
X206255500Y-80160000D01*
X206255500Y-80094108D01*
X206255500Y-67094108D01*
X206255500Y-67072468D01*
X206225101Y-66900062D01*
X206165225Y-66735555D01*
X206077692Y-66583945D01*
X206077691Y-66583943D01*
X206077690Y-66583942D01*
X205965163Y-66449836D01*
X205831057Y-66337309D01*
X205679446Y-66249775D01*
X205514937Y-66189898D01*
X205342534Y-66159500D01*
X205342532Y-66159500D01*
X205320892Y-66159500D01*
X192320892Y-66159500D01*
X192255000Y-66159500D01*
X192167468Y-66159500D01*
X192167465Y-66159500D01*
X191995062Y-66189898D01*
X191830553Y-66249775D01*
X191678942Y-66337309D01*
X191544836Y-66449836D01*
X191432309Y-66583942D01*
X191344775Y-66735553D01*
X191284898Y-66900062D01*
X191254500Y-67072465D01*
X187205499Y-67072465D01*
X187175101Y-66900062D01*
X187115225Y-66735555D01*
X187027692Y-66583945D01*
X187027691Y-66583943D01*
X187027690Y-66583942D01*
X186915163Y-66449836D01*
X186781057Y-66337309D01*
X186629446Y-66249775D01*
X186464937Y-66189898D01*
X186292534Y-66159500D01*
X186292532Y-66159500D01*
X186270892Y-66159500D01*
X173270892Y-66159500D01*
X173205000Y-66159500D01*
X173117468Y-66159500D01*
X173117465Y-66159500D01*
X172945062Y-66189898D01*
X172780553Y-66249775D01*
X172628942Y-66337309D01*
X172494836Y-66449836D01*
X172382309Y-66583942D01*
X172294775Y-66735553D01*
X172234898Y-66900062D01*
X172204500Y-67072465D01*
X168155499Y-67072465D01*
X168125101Y-66900062D01*
X168065225Y-66735555D01*
X167977692Y-66583945D01*
X167977691Y-66583943D01*
X167977690Y-66583942D01*
X167865163Y-66449836D01*
X167731057Y-66337309D01*
X167579446Y-66249775D01*
X167414937Y-66189898D01*
X167242534Y-66159500D01*
X167242532Y-66159500D01*
X167220892Y-66159500D01*
X154220892Y-66159500D01*
X154155000Y-66159500D01*
X154067468Y-66159500D01*
X154067465Y-66159500D01*
X153895062Y-66189898D01*
X153730553Y-66249775D01*
X153578942Y-66337309D01*
X153444836Y-66449836D01*
X153332309Y-66583942D01*
X153244775Y-66735553D01*
X153184898Y-66900062D01*
X153154500Y-67072465D01*
X149105499Y-67072465D01*
X149075101Y-66900062D01*
X149015225Y-66735555D01*
X148927692Y-66583945D01*
X148927691Y-66583943D01*
X148927690Y-66583942D01*
X148815163Y-66449836D01*
X148681057Y-66337309D01*
X148529446Y-66249775D01*
X148364937Y-66189898D01*
X148192534Y-66159500D01*
X148192532Y-66159500D01*
X148170892Y-66159500D01*
X135170892Y-66159500D01*
X135105000Y-66159500D01*
X135017468Y-66159500D01*
X135017465Y-66159500D01*
X134845062Y-66189898D01*
X134680553Y-66249775D01*
X134528942Y-66337309D01*
X134394836Y-66449836D01*
X134282309Y-66583942D01*
X134194775Y-66735553D01*
X134134898Y-66900062D01*
X134104500Y-67072465D01*
X130055499Y-67072465D01*
X130025101Y-66900062D01*
X129965225Y-66735555D01*
X129877692Y-66583945D01*
X129877691Y-66583943D01*
X129877690Y-66583942D01*
X129765163Y-66449836D01*
X129631057Y-66337309D01*
X129479446Y-66249775D01*
X129314937Y-66189898D01*
X129142534Y-66159500D01*
X129142532Y-66159500D01*
X129120892Y-66159500D01*
X116120892Y-66159500D01*
X116055000Y-66159500D01*
X115967468Y-66159500D01*
X115967465Y-66159500D01*
X115795062Y-66189898D01*
X115630553Y-66249775D01*
X115478942Y-66337309D01*
X115344836Y-66449836D01*
X115232309Y-66583942D01*
X115144775Y-66735553D01*
X115084898Y-66900062D01*
X115054500Y-67072465D01*
X111005499Y-67072465D01*
X110975101Y-66900062D01*
X110915225Y-66735555D01*
X110827692Y-66583945D01*
X110827691Y-66583943D01*
X110827690Y-66583942D01*
X110715163Y-66449836D01*
X110581057Y-66337309D01*
X110429446Y-66249775D01*
X110264937Y-66189898D01*
X110092534Y-66159500D01*
X110092532Y-66159500D01*
X110070892Y-66159500D01*
X97070892Y-66159500D01*
X97005000Y-66159500D01*
X96917468Y-66159500D01*
X96917465Y-66159500D01*
X96745062Y-66189898D01*
X96580553Y-66249775D01*
X96428942Y-66337309D01*
X96294836Y-66449836D01*
X96182309Y-66583942D01*
X96094775Y-66735553D01*
X96034898Y-66900062D01*
X96004500Y-67072465D01*
X91955499Y-67072465D01*
X91925101Y-66900062D01*
X91865225Y-66735555D01*
X91777692Y-66583945D01*
X91777691Y-66583943D01*
X91777690Y-66583942D01*
X91665163Y-66449836D01*
X91531057Y-66337309D01*
X91379446Y-66249775D01*
X91214937Y-66189898D01*
X91042534Y-66159500D01*
X91042532Y-66159500D01*
X91020892Y-66159500D01*
X78020892Y-66159500D01*
X77955000Y-66159500D01*
X77867468Y-66159500D01*
X77867465Y-66159500D01*
X77695062Y-66189898D01*
X77530553Y-66249775D01*
X77378942Y-66337309D01*
X77244836Y-66449836D01*
X77132309Y-66583942D01*
X77044775Y-66735553D01*
X76984898Y-66900062D01*
X76954500Y-67072465D01*
X74795500Y-67072465D01*
X74795500Y-65028675D01*
X74815185Y-64961636D01*
X74831819Y-64940994D01*
X75735994Y-64036819D01*
X75797317Y-64003334D01*
X75823675Y-64000500D01*
X206741898Y-64000500D01*
X206808937Y-64020185D01*
G37*
G04 #@! TD.AperFunction*
M02*
