G04 #@! TF.GenerationSoftware,KiCad,Pcbnew,8.0.8*
G04 #@! TF.CreationDate,2025-02-05T15:42:48+09:00*
G04 #@! TF.ProjectId,ergo42,6572676f-3432-42e6-9b69-6361645f7063,1.0.0-alpha*
G04 #@! TF.SameCoordinates,Original*
G04 #@! TF.FileFunction,Legend,Top*
G04 #@! TF.FilePolarity,Positive*
%FSLAX46Y46*%
G04 Gerber Fmt 4.6, Leading zero omitted, Abs format (unit mm)*
G04 Created by KiCad (PCBNEW 8.0.8) date 2025-02-05 15:42:48*
%MOMM*%
%LPD*%
G01*
G04 APERTURE LIST*
G04 Aperture macros list*
%AMRoundRect*
0 Rectangle with rounded corners*
0 $1 Rounding radius*
0 $2 $3 $4 $5 $6 $7 $8 $9 X,Y pos of 4 corners*
0 Add a 4 corners polygon primitive as box body*
4,1,4,$2,$3,$4,$5,$6,$7,$8,$9,$2,$3,0*
0 Add four circle primitives for the rounded corners*
1,1,$1+$1,$2,$3*
1,1,$1+$1,$4,$5*
1,1,$1+$1,$6,$7*
1,1,$1+$1,$8,$9*
0 Add four rect primitives between the rounded corners*
20,1,$1+$1,$2,$3,$4,$5,0*
20,1,$1+$1,$4,$5,$6,$7,0*
20,1,$1+$1,$6,$7,$8,$9,0*
20,1,$1+$1,$8,$9,$2,$3,0*%
G04 Aperture macros list end*
%ADD10C,0.150000*%
%ADD11C,0.100000*%
%ADD12C,0.120000*%
%ADD13C,1.200000*%
%ADD14C,1.752600*%
%ADD15C,2.000000*%
%ADD16O,2.000000X2.000000*%
%ADD17C,1.924000*%
%ADD18C,5.400000*%
%ADD19RoundRect,0.200000X0.762000X0.762000X-0.762000X0.762000X-0.762000X-0.762000X0.762000X-0.762000X0*%
%ADD20C,1.600000*%
%ADD21C,2.152600*%
%ADD22C,2.300000*%
%ADD23C,2.100000*%
%ADD24C,3.400000*%
%ADD25C,4.400000*%
%ADD26RoundRect,0.200000X1.000000X1.000000X-1.000000X1.000000X-1.000000X-1.000000X1.000000X-1.000000X0*%
%ADD27RoundRect,0.200000X0.900000X1.000000X-0.900000X1.000000X-0.900000X-1.000000X0.900000X-1.000000X0*%
%ADD28RoundRect,0.200000X0.650000X0.475000X-0.650000X0.475000X-0.650000X-0.475000X0.650000X-0.475000X0*%
%ADD29RoundRect,0.200000X0.475000X-0.650000X0.475000X0.650000X-0.475000X0.650000X-0.475000X-0.650000X0*%
G04 APERTURE END LIST*
D10*
X105243333Y78690181D02*
X104910000Y79166372D01*
X104671905Y78690181D02*
X104671905Y79690181D01*
X104671905Y79690181D02*
X105052857Y79690181D01*
X105052857Y79690181D02*
X105148095Y79642562D01*
X105148095Y79642562D02*
X105195714Y79594943D01*
X105195714Y79594943D02*
X105243333Y79499705D01*
X105243333Y79499705D02*
X105243333Y79356848D01*
X105243333Y79356848D02*
X105195714Y79261610D01*
X105195714Y79261610D02*
X105148095Y79213991D01*
X105148095Y79213991D02*
X105052857Y79166372D01*
X105052857Y79166372D02*
X104671905Y79166372D01*
X106195714Y78690181D02*
X105624286Y78690181D01*
X105910000Y78690181D02*
X105910000Y79690181D01*
X105910000Y79690181D02*
X105814762Y79547324D01*
X105814762Y79547324D02*
X105719524Y79452086D01*
X105719524Y79452086D02*
X105624286Y79404467D01*
X124293333Y78690181D02*
X123960000Y79166372D01*
X123721905Y78690181D02*
X123721905Y79690181D01*
X123721905Y79690181D02*
X124102857Y79690181D01*
X124102857Y79690181D02*
X124198095Y79642562D01*
X124198095Y79642562D02*
X124245714Y79594943D01*
X124245714Y79594943D02*
X124293333Y79499705D01*
X124293333Y79499705D02*
X124293333Y79356848D01*
X124293333Y79356848D02*
X124245714Y79261610D01*
X124245714Y79261610D02*
X124198095Y79213991D01*
X124198095Y79213991D02*
X124102857Y79166372D01*
X124102857Y79166372D02*
X123721905Y79166372D01*
X124674286Y79594943D02*
X124721905Y79642562D01*
X124721905Y79642562D02*
X124817143Y79690181D01*
X124817143Y79690181D02*
X125055238Y79690181D01*
X125055238Y79690181D02*
X125150476Y79642562D01*
X125150476Y79642562D02*
X125198095Y79594943D01*
X125198095Y79594943D02*
X125245714Y79499705D01*
X125245714Y79499705D02*
X125245714Y79404467D01*
X125245714Y79404467D02*
X125198095Y79261610D01*
X125198095Y79261610D02*
X124626667Y78690181D01*
X124626667Y78690181D02*
X125245714Y78690181D01*
X120110476Y84047800D02*
X120253333Y84000181D01*
X120253333Y84000181D02*
X120491428Y84000181D01*
X120491428Y84000181D02*
X120586666Y84047800D01*
X120586666Y84047800D02*
X120634285Y84095420D01*
X120634285Y84095420D02*
X120681904Y84190658D01*
X120681904Y84190658D02*
X120681904Y84285896D01*
X120681904Y84285896D02*
X120634285Y84381134D01*
X120634285Y84381134D02*
X120586666Y84428753D01*
X120586666Y84428753D02*
X120491428Y84476372D01*
X120491428Y84476372D02*
X120300952Y84523991D01*
X120300952Y84523991D02*
X120205714Y84571610D01*
X120205714Y84571610D02*
X120158095Y84619229D01*
X120158095Y84619229D02*
X120110476Y84714467D01*
X120110476Y84714467D02*
X120110476Y84809705D01*
X120110476Y84809705D02*
X120158095Y84904943D01*
X120158095Y84904943D02*
X120205714Y84952562D01*
X120205714Y84952562D02*
X120300952Y85000181D01*
X120300952Y85000181D02*
X120539047Y85000181D01*
X120539047Y85000181D02*
X120681904Y84952562D01*
X121015238Y85000181D02*
X121253333Y84000181D01*
X121253333Y84000181D02*
X121443809Y84714467D01*
X121443809Y84714467D02*
X121634285Y84000181D01*
X121634285Y84000181D02*
X121872381Y85000181D01*
X122205714Y84904943D02*
X122253333Y84952562D01*
X122253333Y84952562D02*
X122348571Y85000181D01*
X122348571Y85000181D02*
X122586666Y85000181D01*
X122586666Y85000181D02*
X122681904Y84952562D01*
X122681904Y84952562D02*
X122729523Y84904943D01*
X122729523Y84904943D02*
X122777142Y84809705D01*
X122777142Y84809705D02*
X122777142Y84714467D01*
X122777142Y84714467D02*
X122729523Y84571610D01*
X122729523Y84571610D02*
X122158095Y84000181D01*
X122158095Y84000181D02*
X122777142Y84000181D01*
X123253333Y84000181D02*
X123443809Y84000181D01*
X123443809Y84000181D02*
X123539047Y84047800D01*
X123539047Y84047800D02*
X123586666Y84095420D01*
X123586666Y84095420D02*
X123681904Y84238277D01*
X123681904Y84238277D02*
X123729523Y84428753D01*
X123729523Y84428753D02*
X123729523Y84809705D01*
X123729523Y84809705D02*
X123681904Y84904943D01*
X123681904Y84904943D02*
X123634285Y84952562D01*
X123634285Y84952562D02*
X123539047Y85000181D01*
X123539047Y85000181D02*
X123348571Y85000181D01*
X123348571Y85000181D02*
X123253333Y84952562D01*
X123253333Y84952562D02*
X123205714Y84904943D01*
X123205714Y84904943D02*
X123158095Y84809705D01*
X123158095Y84809705D02*
X123158095Y84571610D01*
X123158095Y84571610D02*
X123205714Y84476372D01*
X123205714Y84476372D02*
X123253333Y84428753D01*
X123253333Y84428753D02*
X123348571Y84381134D01*
X123348571Y84381134D02*
X123539047Y84381134D01*
X123539047Y84381134D02*
X123634285Y84428753D01*
X123634285Y84428753D02*
X123681904Y84476372D01*
X123681904Y84476372D02*
X123729523Y84571610D01*
X57023095Y41280181D02*
X57023095Y40470658D01*
X57023095Y40470658D02*
X57070714Y40375420D01*
X57070714Y40375420D02*
X57118333Y40327800D01*
X57118333Y40327800D02*
X57213571Y40280181D01*
X57213571Y40280181D02*
X57404047Y40280181D01*
X57404047Y40280181D02*
X57499285Y40327800D01*
X57499285Y40327800D02*
X57546904Y40375420D01*
X57546904Y40375420D02*
X57594523Y40470658D01*
X57594523Y40470658D02*
X57594523Y41280181D01*
X58594523Y40280181D02*
X58023095Y40280181D01*
X58308809Y40280181D02*
X58308809Y41280181D01*
X58308809Y41280181D02*
X58213571Y41137324D01*
X58213571Y41137324D02*
X58118333Y41042086D01*
X58118333Y41042086D02*
X58023095Y40994467D01*
X114173095Y60330181D02*
X114173095Y59520658D01*
X114173095Y59520658D02*
X114220714Y59425420D01*
X114220714Y59425420D02*
X114268333Y59377800D01*
X114268333Y59377800D02*
X114363571Y59330181D01*
X114363571Y59330181D02*
X114554047Y59330181D01*
X114554047Y59330181D02*
X114649285Y59377800D01*
X114649285Y59377800D02*
X114696904Y59425420D01*
X114696904Y59425420D02*
X114744523Y59520658D01*
X114744523Y59520658D02*
X114744523Y60330181D01*
X115173095Y60234943D02*
X115220714Y60282562D01*
X115220714Y60282562D02*
X115315952Y60330181D01*
X115315952Y60330181D02*
X115554047Y60330181D01*
X115554047Y60330181D02*
X115649285Y60282562D01*
X115649285Y60282562D02*
X115696904Y60234943D01*
X115696904Y60234943D02*
X115744523Y60139705D01*
X115744523Y60139705D02*
X115744523Y60044467D01*
X115744523Y60044467D02*
X115696904Y59901610D01*
X115696904Y59901610D02*
X115125476Y59330181D01*
X115125476Y59330181D02*
X115744523Y59330181D01*
X114173095Y22230181D02*
X114173095Y21420658D01*
X114173095Y21420658D02*
X114220714Y21325420D01*
X114220714Y21325420D02*
X114268333Y21277800D01*
X114268333Y21277800D02*
X114363571Y21230181D01*
X114363571Y21230181D02*
X114554047Y21230181D01*
X114554047Y21230181D02*
X114649285Y21277800D01*
X114649285Y21277800D02*
X114696904Y21325420D01*
X114696904Y21325420D02*
X114744523Y21420658D01*
X114744523Y21420658D02*
X114744523Y22230181D01*
X115649285Y21896848D02*
X115649285Y21230181D01*
X115411190Y22277800D02*
X115173095Y21563515D01*
X115173095Y21563515D02*
X115792142Y21563515D01*
X18923095Y60330181D02*
X18923095Y59520658D01*
X18923095Y59520658D02*
X18970714Y59425420D01*
X18970714Y59425420D02*
X19018333Y59377800D01*
X19018333Y59377800D02*
X19113571Y59330181D01*
X19113571Y59330181D02*
X19304047Y59330181D01*
X19304047Y59330181D02*
X19399285Y59377800D01*
X19399285Y59377800D02*
X19446904Y59425420D01*
X19446904Y59425420D02*
X19494523Y59520658D01*
X19494523Y59520658D02*
X19494523Y60330181D01*
X20446904Y60330181D02*
X19970714Y60330181D01*
X19970714Y60330181D02*
X19923095Y59853991D01*
X19923095Y59853991D02*
X19970714Y59901610D01*
X19970714Y59901610D02*
X20065952Y59949229D01*
X20065952Y59949229D02*
X20304047Y59949229D01*
X20304047Y59949229D02*
X20399285Y59901610D01*
X20399285Y59901610D02*
X20446904Y59853991D01*
X20446904Y59853991D02*
X20494523Y59758753D01*
X20494523Y59758753D02*
X20494523Y59520658D01*
X20494523Y59520658D02*
X20446904Y59425420D01*
X20446904Y59425420D02*
X20399285Y59377800D01*
X20399285Y59377800D02*
X20304047Y59330181D01*
X20304047Y59330181D02*
X20065952Y59330181D01*
X20065952Y59330181D02*
X19970714Y59377800D01*
X19970714Y59377800D02*
X19923095Y59425420D01*
X18923095Y22230181D02*
X18923095Y21420658D01*
X18923095Y21420658D02*
X18970714Y21325420D01*
X18970714Y21325420D02*
X19018333Y21277800D01*
X19018333Y21277800D02*
X19113571Y21230181D01*
X19113571Y21230181D02*
X19304047Y21230181D01*
X19304047Y21230181D02*
X19399285Y21277800D01*
X19399285Y21277800D02*
X19446904Y21325420D01*
X19446904Y21325420D02*
X19494523Y21420658D01*
X19494523Y21420658D02*
X19494523Y22230181D01*
X19875476Y22230181D02*
X20542142Y22230181D01*
X20542142Y22230181D02*
X20113571Y21230181D01*
D11*
X114482619Y75203891D02*
X114601667Y74703891D01*
X114601667Y74703891D02*
X114696905Y75061034D01*
X114696905Y75061034D02*
X114792143Y74703891D01*
X114792143Y74703891D02*
X114911191Y75203891D01*
X115363572Y74703891D02*
X115077858Y74703891D01*
X115220715Y74703891D02*
X115220715Y75203891D01*
X115220715Y75203891D02*
X115173096Y75132462D01*
X115173096Y75132462D02*
X115125477Y75084843D01*
X115125477Y75084843D02*
X115077858Y75061034D01*
D10*
X98298095Y80555181D02*
X98298095Y79745658D01*
X98298095Y79745658D02*
X98345714Y79650420D01*
X98345714Y79650420D02*
X98393333Y79602800D01*
X98393333Y79602800D02*
X98488571Y79555181D01*
X98488571Y79555181D02*
X98679047Y79555181D01*
X98679047Y79555181D02*
X98774285Y79602800D01*
X98774285Y79602800D02*
X98821904Y79650420D01*
X98821904Y79650420D02*
X98869523Y79745658D01*
X98869523Y79745658D02*
X98869523Y80555181D01*
X99250476Y80555181D02*
X99869523Y80555181D01*
X99869523Y80555181D02*
X99536190Y80174229D01*
X99536190Y80174229D02*
X99679047Y80174229D01*
X99679047Y80174229D02*
X99774285Y80126610D01*
X99774285Y80126610D02*
X99821904Y80078991D01*
X99821904Y80078991D02*
X99869523Y79983753D01*
X99869523Y79983753D02*
X99869523Y79745658D01*
X99869523Y79745658D02*
X99821904Y79650420D01*
X99821904Y79650420D02*
X99774285Y79602800D01*
X99774285Y79602800D02*
X99679047Y79555181D01*
X99679047Y79555181D02*
X99393333Y79555181D01*
X99393333Y79555181D02*
X99298095Y79602800D01*
X99298095Y79602800D02*
X99250476Y79650420D01*
D12*
G04 #@! TO.C,R1*
X101310000Y76835000D02*
X102200000Y76835000D01*
X102200000Y78145000D02*
X102200000Y75525000D01*
X102200000Y75525000D02*
X108620000Y75525000D01*
X108620000Y78145000D02*
X102200000Y78145000D01*
X108620000Y75525000D02*
X108620000Y78145000D01*
X109510000Y76835000D02*
X108620000Y76835000D01*
G04 #@! TO.C,R2*
X120360000Y76835000D02*
X121250000Y76835000D01*
X121250000Y78145000D02*
X121250000Y75525000D01*
X121250000Y75525000D02*
X127670000Y75525000D01*
X127670000Y78145000D02*
X121250000Y78145000D01*
X127670000Y75525000D02*
X127670000Y78145000D01*
X128560000Y76835000D02*
X127670000Y76835000D01*
D10*
G04 #@! TO.C,U1*
X60613427Y38735000D02*
G75*
G02*
X54956573Y38735000I-2828427J0D01*
G01*
X54956573Y38735000D02*
G75*
G02*
X60613427Y38735000I2828427J0D01*
G01*
G04 #@! TO.C,U2*
X117763427Y57785000D02*
G75*
G02*
X112106573Y57785000I-2828427J0D01*
G01*
X112106573Y57785000D02*
G75*
G02*
X117763427Y57785000I2828427J0D01*
G01*
G04 #@! TO.C,U4*
X117763427Y19685000D02*
G75*
G02*
X112106573Y19685000I-2828427J0D01*
G01*
X112106573Y19685000D02*
G75*
G02*
X117763427Y19685000I2828427J0D01*
G01*
G04 #@! TO.C,U5*
X22513427Y57785000D02*
G75*
G02*
X16856573Y57785000I-2828427J0D01*
G01*
X16856573Y57785000D02*
G75*
G02*
X22513427Y57785000I2828427J0D01*
G01*
G04 #@! TO.C,U7*
X22513427Y19685000D02*
G75*
G02*
X16856573Y19685000I-2828427J0D01*
G01*
X16856573Y19685000D02*
G75*
G02*
X22513427Y19685000I2828427J0D01*
G01*
G04 #@! TO.C,W1*
X113030000Y78105000D02*
X113030000Y75565000D01*
X113030000Y75565000D02*
X116840000Y75565000D01*
X116840000Y78105000D02*
X113030000Y78105000D01*
X116840000Y75565000D02*
X116840000Y78105000D01*
G04 #@! TO.C,U3*
X82550000Y100330000D02*
X115570000Y100330000D01*
X82550000Y82550000D02*
X82550000Y100330000D01*
X115570000Y100330000D02*
X115570000Y82550000D01*
X115570000Y82550000D02*
X82550000Y82550000D01*
G04 #@! TO.C,J1*
X116840000Y100965000D02*
X116840000Y88265000D01*
X116840000Y88265000D02*
X123190000Y88265000D01*
X118110000Y102235000D02*
X118110000Y100965000D01*
X118110000Y100965000D02*
X116840000Y100965000D01*
X121920000Y102235000D02*
X118110000Y102235000D01*
X121920000Y100965000D02*
X121920000Y102235000D01*
X123190000Y100965000D02*
X121920000Y100965000D01*
X123190000Y88265000D02*
X123190000Y100965000D01*
G04 #@! TO.C,SW2*
X5360000Y55064000D02*
X13985000Y55064000D01*
X5360000Y51156000D02*
X5360000Y55064000D01*
X5360000Y51110000D02*
X10410000Y51064000D01*
X7860000Y44660000D02*
X7860000Y40060000D01*
X7885000Y44685000D02*
X10435000Y44685000D01*
X7885000Y40035000D02*
X12435000Y40035000D01*
X12440000Y40760000D02*
X12440000Y40060000D01*
X12735000Y46885000D02*
X17435000Y46885000D01*
X13660000Y42235000D02*
X17435000Y42235000D01*
X16260000Y53110000D02*
X16260000Y49165000D01*
X16260000Y49156000D02*
X12650000Y49156000D01*
X17435000Y46860000D02*
X17460000Y42260000D01*
X10385000Y51060000D02*
G75*
G02*
X12645000Y49180000I190000J-2070000D01*
G01*
X12440000Y40810000D02*
G75*
G02*
X13660000Y42230000I1320000J100000D01*
G01*
X12730000Y46860000D02*
G75*
G02*
X10360000Y44690000I-2270000J100000D01*
G01*
X13985000Y55064000D02*
G75*
G02*
X16249000Y53180000I190000J-2074000D01*
G01*
G04 #@! TO.C,SW4*
X5360000Y16964000D02*
X13985000Y16964000D01*
X5360000Y13056000D02*
X5360000Y16964000D01*
X5360000Y13010000D02*
X10410000Y12964000D01*
X7860000Y6560000D02*
X7860000Y1960000D01*
X7885000Y6585000D02*
X10435000Y6585000D01*
X7885000Y1935000D02*
X12435000Y1935000D01*
X12440000Y2660000D02*
X12440000Y1960000D01*
X12735000Y8785000D02*
X17435000Y8785000D01*
X13660000Y4135000D02*
X17435000Y4135000D01*
X16260000Y15010000D02*
X16260000Y11065000D01*
X16260000Y11056000D02*
X12650000Y11056000D01*
X17435000Y8760000D02*
X17460000Y4160000D01*
X10385000Y12960000D02*
G75*
G02*
X12645000Y11080000I190000J-2070000D01*
G01*
X12440000Y2710000D02*
G75*
G02*
X13660000Y4130000I1320000J100000D01*
G01*
X12730000Y8760000D02*
G75*
G02*
X10360000Y6590000I-2270000J100000D01*
G01*
X13985000Y16964000D02*
G75*
G02*
X16249000Y15080000I190000J-2074000D01*
G01*
G04 #@! TO.C,D19*
X95153909Y33048721D02*
X95153909Y27648721D01*
X95153909Y33048721D02*
X96653909Y33048721D01*
X95153909Y27648721D02*
X96653909Y27648721D01*
X95403909Y30848721D02*
X96403909Y30848721D01*
X95403909Y29848721D02*
X96403909Y29848721D01*
X95903909Y29948721D02*
X95403909Y30848721D01*
X96403909Y30848721D02*
X95903909Y29948721D01*
X96653909Y27648721D02*
X96653909Y33048721D01*
D12*
X97246541Y28693712D02*
G75*
G02*
X97146541Y28693712I-50000J0D01*
G01*
X97146541Y28693712D02*
G75*
G02*
X97246541Y28693712I50000J0D01*
G01*
X97337962Y28693712D02*
G75*
G02*
X97055120Y28693712I-141421J0D01*
G01*
X97055120Y28693712D02*
G75*
G02*
X97337962Y28693712I141421J0D01*
G01*
X97408673Y28693712D02*
G75*
G02*
X96984409Y28693712I-212132J0D01*
G01*
X96984409Y28693712D02*
G75*
G02*
X97408673Y28693712I212132J0D01*
G01*
D10*
G04 #@! TO.C,SW22*
X100610000Y55064000D02*
X109235000Y55064000D01*
X100610000Y51156000D02*
X100610000Y55064000D01*
X100610000Y51110000D02*
X105660000Y51064000D01*
X103110000Y44660000D02*
X103110000Y40060000D01*
X103135000Y44685000D02*
X105685000Y44685000D01*
X103135000Y40035000D02*
X107685000Y40035000D01*
X107690000Y40760000D02*
X107690000Y40060000D01*
X107985000Y46885000D02*
X112685000Y46885000D01*
X108910000Y42235000D02*
X112685000Y42235000D01*
X111510000Y53110000D02*
X111510000Y49165000D01*
X111510000Y49156000D02*
X107900000Y49156000D01*
X112685000Y46860000D02*
X112710000Y42260000D01*
X105635000Y51060000D02*
G75*
G02*
X107895000Y49180000I190000J-2070000D01*
G01*
X107690000Y40810000D02*
G75*
G02*
X108910000Y42230000I1320000J100000D01*
G01*
X107980000Y46860000D02*
G75*
G02*
X105610000Y44690000I-2270000J100000D01*
G01*
X109235000Y55064000D02*
G75*
G02*
X111499000Y53180000I190000J-2074000D01*
G01*
G04 #@! TO.C,D5*
X38003909Y71148721D02*
X38003909Y65748721D01*
X38003909Y71148721D02*
X39503909Y71148721D01*
X38003909Y65748721D02*
X39503909Y65748721D01*
X38253909Y68948721D02*
X39253909Y68948721D01*
X38253909Y67948721D02*
X39253909Y67948721D01*
X38753909Y68048721D02*
X38253909Y68948721D01*
X39253909Y68948721D02*
X38753909Y68048721D01*
X39503909Y65748721D02*
X39503909Y71148721D01*
D12*
X40096541Y66793712D02*
G75*
G02*
X39996541Y66793712I-50000J0D01*
G01*
X39996541Y66793712D02*
G75*
G02*
X40096541Y66793712I50000J0D01*
G01*
X40187962Y66793712D02*
G75*
G02*
X39905120Y66793712I-141421J0D01*
G01*
X39905120Y66793712D02*
G75*
G02*
X40187962Y66793712I141421J0D01*
G01*
X40258673Y66793712D02*
G75*
G02*
X39834409Y66793712I-212132J0D01*
G01*
X39834409Y66793712D02*
G75*
G02*
X40258673Y66793712I212132J0D01*
G01*
D10*
G04 #@! TO.C,SW7*
X24410000Y36014000D02*
X33035000Y36014000D01*
X24410000Y32106000D02*
X24410000Y36014000D01*
X24410000Y32060000D02*
X29460000Y32014000D01*
X26910000Y25610000D02*
X26910000Y21010000D01*
X26935000Y25635000D02*
X29485000Y25635000D01*
X26935000Y20985000D02*
X31485000Y20985000D01*
X31490000Y21710000D02*
X31490000Y21010000D01*
X31785000Y27835000D02*
X36485000Y27835000D01*
X32710000Y23185000D02*
X36485000Y23185000D01*
X35310000Y34060000D02*
X35310000Y30115000D01*
X35310000Y30106000D02*
X31700000Y30106000D01*
X36485000Y27810000D02*
X36510000Y23210000D01*
X29435000Y32010000D02*
G75*
G02*
X31695000Y30130000I190000J-2070000D01*
G01*
X31490000Y21760000D02*
G75*
G02*
X32710000Y23180000I1320000J100000D01*
G01*
X31780000Y27810000D02*
G75*
G02*
X29410000Y25640000I-2270000J100000D01*
G01*
X33035000Y36014000D02*
G75*
G02*
X35299000Y34130000I190000J-2074000D01*
G01*
G04 #@! TO.C,D18*
X95153909Y52098721D02*
X95153909Y46698721D01*
X95153909Y52098721D02*
X96653909Y52098721D01*
X95153909Y46698721D02*
X96653909Y46698721D01*
X95403909Y49898721D02*
X96403909Y49898721D01*
X95403909Y48898721D02*
X96403909Y48898721D01*
X95903909Y48998721D02*
X95403909Y49898721D01*
X96403909Y49898721D02*
X95903909Y48998721D01*
X96653909Y46698721D02*
X96653909Y52098721D01*
D12*
X97246541Y47743712D02*
G75*
G02*
X97146541Y47743712I-50000J0D01*
G01*
X97146541Y47743712D02*
G75*
G02*
X97246541Y47743712I50000J0D01*
G01*
X97337962Y47743712D02*
G75*
G02*
X97055120Y47743712I-141421J0D01*
G01*
X97055120Y47743712D02*
G75*
G02*
X97337962Y47743712I141421J0D01*
G01*
X97408673Y47743712D02*
G75*
G02*
X96984409Y47743712I-212132J0D01*
G01*
X96984409Y47743712D02*
G75*
G02*
X97408673Y47743712I212132J0D01*
G01*
D10*
G04 #@! TO.C,D20*
X95153909Y13998721D02*
X95153909Y8598721D01*
X95153909Y13998721D02*
X96653909Y13998721D01*
X95153909Y8598721D02*
X96653909Y8598721D01*
X95403909Y11798721D02*
X96403909Y11798721D01*
X95403909Y10798721D02*
X96403909Y10798721D01*
X95903909Y10898721D02*
X95403909Y11798721D01*
X96403909Y11798721D02*
X95903909Y10898721D01*
X96653909Y8598721D02*
X96653909Y13998721D01*
D12*
X97246541Y9643712D02*
G75*
G02*
X97146541Y9643712I-50000J0D01*
G01*
X97146541Y9643712D02*
G75*
G02*
X97246541Y9643712I50000J0D01*
G01*
X97337962Y9643712D02*
G75*
G02*
X97055120Y9643712I-141421J0D01*
G01*
X97055120Y9643712D02*
G75*
G02*
X97337962Y9643712I141421J0D01*
G01*
X97408673Y9643712D02*
G75*
G02*
X96984409Y9643712I-212132J0D01*
G01*
X96984409Y9643712D02*
G75*
G02*
X97408673Y9643712I212132J0D01*
G01*
D10*
G04 #@! TO.C,SW13*
X62510000Y74114000D02*
X71135000Y74114000D01*
X62510000Y70206000D02*
X62510000Y74114000D01*
X62510000Y70160000D02*
X67560000Y70114000D01*
X65010000Y63710000D02*
X65010000Y59110000D01*
X65035000Y63735000D02*
X67585000Y63735000D01*
X65035000Y59085000D02*
X69585000Y59085000D01*
X69590000Y59810000D02*
X69590000Y59110000D01*
X69885000Y65935000D02*
X74585000Y65935000D01*
X70810000Y61285000D02*
X74585000Y61285000D01*
X73410000Y72160000D02*
X73410000Y68215000D01*
X73410000Y68206000D02*
X69800000Y68206000D01*
X74585000Y65910000D02*
X74610000Y61310000D01*
X67535000Y70110000D02*
G75*
G02*
X69795000Y68230000I190000J-2070000D01*
G01*
X69590000Y59860000D02*
G75*
G02*
X70810000Y61280000I1320000J100000D01*
G01*
X69880000Y65910000D02*
G75*
G02*
X67510000Y63740000I-2270000J100000D01*
G01*
X71135000Y74114000D02*
G75*
G02*
X73399000Y72230000I190000J-2074000D01*
G01*
G04 #@! TO.C,SW23*
X100610000Y36014000D02*
X109235000Y36014000D01*
X100610000Y32106000D02*
X100610000Y36014000D01*
X100610000Y32060000D02*
X105660000Y32014000D01*
X103110000Y25610000D02*
X103110000Y21010000D01*
X103135000Y25635000D02*
X105685000Y25635000D01*
X103135000Y20985000D02*
X107685000Y20985000D01*
X107690000Y21710000D02*
X107690000Y21010000D01*
X107985000Y27835000D02*
X112685000Y27835000D01*
X108910000Y23185000D02*
X112685000Y23185000D01*
X111510000Y34060000D02*
X111510000Y30115000D01*
X111510000Y30106000D02*
X107900000Y30106000D01*
X112685000Y27810000D02*
X112710000Y23210000D01*
X105635000Y32010000D02*
G75*
G02*
X107895000Y30130000I190000J-2070000D01*
G01*
X107690000Y21760000D02*
G75*
G02*
X108910000Y23180000I1320000J100000D01*
G01*
X107980000Y27810000D02*
G75*
G02*
X105610000Y25640000I-2270000J100000D01*
G01*
X109235000Y36014000D02*
G75*
G02*
X111499000Y34130000I190000J-2074000D01*
G01*
G04 #@! TO.C,D9*
X57053909Y71148721D02*
X57053909Y65748721D01*
X57053909Y71148721D02*
X58553909Y71148721D01*
X57053909Y65748721D02*
X58553909Y65748721D01*
X57303909Y68948721D02*
X58303909Y68948721D01*
X57303909Y67948721D02*
X58303909Y67948721D01*
X57803909Y68048721D02*
X57303909Y68948721D01*
X58303909Y68948721D02*
X57803909Y68048721D01*
X58553909Y65748721D02*
X58553909Y71148721D01*
D12*
X59146541Y66793712D02*
G75*
G02*
X59046541Y66793712I-50000J0D01*
G01*
X59046541Y66793712D02*
G75*
G02*
X59146541Y66793712I50000J0D01*
G01*
X59237962Y66793712D02*
G75*
G02*
X58955120Y66793712I-141421J0D01*
G01*
X58955120Y66793712D02*
G75*
G02*
X59237962Y66793712I141421J0D01*
G01*
X59308673Y66793712D02*
G75*
G02*
X58884409Y66793712I-212132J0D01*
G01*
X58884409Y66793712D02*
G75*
G02*
X59308673Y66793712I212132J0D01*
G01*
D10*
G04 #@! TO.C,SW24*
X100610000Y16964000D02*
X109235000Y16964000D01*
X100610000Y13056000D02*
X100610000Y16964000D01*
X100610000Y13010000D02*
X105660000Y12964000D01*
X103110000Y6560000D02*
X103110000Y1960000D01*
X103135000Y6585000D02*
X105685000Y6585000D01*
X103135000Y1935000D02*
X107685000Y1935000D01*
X107690000Y2660000D02*
X107690000Y1960000D01*
X107985000Y8785000D02*
X112685000Y8785000D01*
X108910000Y4135000D02*
X112685000Y4135000D01*
X111510000Y15010000D02*
X111510000Y11065000D01*
X111510000Y11056000D02*
X107900000Y11056000D01*
X112685000Y8760000D02*
X112710000Y4160000D01*
X105635000Y12960000D02*
G75*
G02*
X107895000Y11080000I190000J-2070000D01*
G01*
X107690000Y2710000D02*
G75*
G02*
X108910000Y4130000I1320000J100000D01*
G01*
X107980000Y8760000D02*
G75*
G02*
X105610000Y6590000I-2270000J100000D01*
G01*
X109235000Y16964000D02*
G75*
G02*
X111499000Y15080000I190000J-2074000D01*
G01*
G04 #@! TO.C,D6*
X38003909Y52098721D02*
X38003909Y46698721D01*
X38003909Y52098721D02*
X39503909Y52098721D01*
X38003909Y46698721D02*
X39503909Y46698721D01*
X38253909Y49898721D02*
X39253909Y49898721D01*
X38253909Y48898721D02*
X39253909Y48898721D01*
X38753909Y48998721D02*
X38253909Y49898721D01*
X39253909Y49898721D02*
X38753909Y48998721D01*
X39503909Y46698721D02*
X39503909Y52098721D01*
D12*
X40096541Y47743712D02*
G75*
G02*
X39996541Y47743712I-50000J0D01*
G01*
X39996541Y47743712D02*
G75*
G02*
X40096541Y47743712I50000J0D01*
G01*
X40187962Y47743712D02*
G75*
G02*
X39905120Y47743712I-141421J0D01*
G01*
X39905120Y47743712D02*
G75*
G02*
X40187962Y47743712I141421J0D01*
G01*
X40258673Y47743712D02*
G75*
G02*
X39834409Y47743712I-212132J0D01*
G01*
X39834409Y47743712D02*
G75*
G02*
X40258673Y47743712I212132J0D01*
G01*
D10*
G04 #@! TO.C,SW21*
X100610000Y74114000D02*
X109235000Y74114000D01*
X100610000Y70206000D02*
X100610000Y74114000D01*
X100610000Y70160000D02*
X105660000Y70114000D01*
X103110000Y63710000D02*
X103110000Y59110000D01*
X103135000Y63735000D02*
X105685000Y63735000D01*
X103135000Y59085000D02*
X107685000Y59085000D01*
X107690000Y59810000D02*
X107690000Y59110000D01*
X107985000Y65935000D02*
X112685000Y65935000D01*
X108910000Y61285000D02*
X112685000Y61285000D01*
X111510000Y72160000D02*
X111510000Y68215000D01*
X111510000Y68206000D02*
X107900000Y68206000D01*
X112685000Y65910000D02*
X112710000Y61310000D01*
X105635000Y70110000D02*
G75*
G02*
X107895000Y68230000I190000J-2070000D01*
G01*
X107690000Y59860000D02*
G75*
G02*
X108910000Y61280000I1320000J100000D01*
G01*
X107980000Y65910000D02*
G75*
G02*
X105610000Y63740000I-2270000J100000D01*
G01*
X109235000Y74114000D02*
G75*
G02*
X111499000Y72230000I190000J-2074000D01*
G01*
G04 #@! TO.C,D22*
X114203909Y52098721D02*
X114203909Y46698721D01*
X114203909Y52098721D02*
X115703909Y52098721D01*
X114203909Y46698721D02*
X115703909Y46698721D01*
X114453909Y49898721D02*
X115453909Y49898721D01*
X114453909Y48898721D02*
X115453909Y48898721D01*
X114953909Y48998721D02*
X114453909Y49898721D01*
X115453909Y49898721D02*
X114953909Y48998721D01*
X115703909Y46698721D02*
X115703909Y52098721D01*
D12*
X116296541Y47743712D02*
G75*
G02*
X116196541Y47743712I-50000J0D01*
G01*
X116196541Y47743712D02*
G75*
G02*
X116296541Y47743712I50000J0D01*
G01*
X116387962Y47743712D02*
G75*
G02*
X116105120Y47743712I-141421J0D01*
G01*
X116105120Y47743712D02*
G75*
G02*
X116387962Y47743712I141421J0D01*
G01*
X116458673Y47743712D02*
G75*
G02*
X116034409Y47743712I-212132J0D01*
G01*
X116034409Y47743712D02*
G75*
G02*
X116458673Y47743712I212132J0D01*
G01*
D10*
G04 #@! TO.C,D12*
X57053909Y13998721D02*
X57053909Y8598721D01*
X57053909Y13998721D02*
X58553909Y13998721D01*
X57053909Y8598721D02*
X58553909Y8598721D01*
X57303909Y11798721D02*
X58303909Y11798721D01*
X57303909Y10798721D02*
X58303909Y10798721D01*
X57803909Y10898721D02*
X57303909Y11798721D01*
X58303909Y11798721D02*
X57803909Y10898721D01*
X58553909Y8598721D02*
X58553909Y13998721D01*
D12*
X59146541Y9643712D02*
G75*
G02*
X59046541Y9643712I-50000J0D01*
G01*
X59046541Y9643712D02*
G75*
G02*
X59146541Y9643712I50000J0D01*
G01*
X59237962Y9643712D02*
G75*
G02*
X58955120Y9643712I-141421J0D01*
G01*
X58955120Y9643712D02*
G75*
G02*
X59237962Y9643712I141421J0D01*
G01*
X59308673Y9643712D02*
G75*
G02*
X58884409Y9643712I-212132J0D01*
G01*
X58884409Y9643712D02*
G75*
G02*
X59308673Y9643712I212132J0D01*
G01*
D10*
G04 #@! TO.C,SW1*
X5360000Y74114000D02*
X13985000Y74114000D01*
X5360000Y70206000D02*
X5360000Y74114000D01*
X5360000Y70160000D02*
X10410000Y70114000D01*
X7860000Y63710000D02*
X7860000Y59110000D01*
X7885000Y63735000D02*
X10435000Y63735000D01*
X7885000Y59085000D02*
X12435000Y59085000D01*
X12440000Y59810000D02*
X12440000Y59110000D01*
X12735000Y65935000D02*
X17435000Y65935000D01*
X13660000Y61285000D02*
X17435000Y61285000D01*
X16260000Y72160000D02*
X16260000Y68215000D01*
X16260000Y68206000D02*
X12650000Y68206000D01*
X17435000Y65910000D02*
X17460000Y61310000D01*
X10385000Y70110000D02*
G75*
G02*
X12645000Y68230000I190000J-2070000D01*
G01*
X12440000Y59860000D02*
G75*
G02*
X13660000Y61280000I1320000J100000D01*
G01*
X12730000Y65910000D02*
G75*
G02*
X10360000Y63740000I-2270000J100000D01*
G01*
X13985000Y74114000D02*
G75*
G02*
X16249000Y72230000I190000J-2074000D01*
G01*
G04 #@! TO.C,D28*
X133253909Y13998721D02*
X133253909Y8598721D01*
X133253909Y13998721D02*
X134753909Y13998721D01*
X133253909Y8598721D02*
X134753909Y8598721D01*
X133503909Y11798721D02*
X134503909Y11798721D01*
X133503909Y10798721D02*
X134503909Y10798721D01*
X134003909Y10898721D02*
X133503909Y11798721D01*
X134503909Y11798721D02*
X134003909Y10898721D01*
X134753909Y8598721D02*
X134753909Y13998721D01*
D12*
X135346541Y9643712D02*
G75*
G02*
X135246541Y9643712I-50000J0D01*
G01*
X135246541Y9643712D02*
G75*
G02*
X135346541Y9643712I50000J0D01*
G01*
X135437962Y9643712D02*
G75*
G02*
X135155120Y9643712I-141421J0D01*
G01*
X135155120Y9643712D02*
G75*
G02*
X135437962Y9643712I141421J0D01*
G01*
X135508673Y9643712D02*
G75*
G02*
X135084409Y9643712I-212132J0D01*
G01*
X135084409Y9643712D02*
G75*
G02*
X135508673Y9643712I212132J0D01*
G01*
D10*
G04 #@! TO.C,SW9*
X43460000Y74114000D02*
X52085000Y74114000D01*
X43460000Y70206000D02*
X43460000Y74114000D01*
X43460000Y70160000D02*
X48510000Y70114000D01*
X45960000Y63710000D02*
X45960000Y59110000D01*
X45985000Y63735000D02*
X48535000Y63735000D01*
X45985000Y59085000D02*
X50535000Y59085000D01*
X50540000Y59810000D02*
X50540000Y59110000D01*
X50835000Y65935000D02*
X55535000Y65935000D01*
X51760000Y61285000D02*
X55535000Y61285000D01*
X54360000Y72160000D02*
X54360000Y68215000D01*
X54360000Y68206000D02*
X50750000Y68206000D01*
X55535000Y65910000D02*
X55560000Y61310000D01*
X48485000Y70110000D02*
G75*
G02*
X50745000Y68230000I190000J-2070000D01*
G01*
X50540000Y59860000D02*
G75*
G02*
X51760000Y61280000I1320000J100000D01*
G01*
X50830000Y65910000D02*
G75*
G02*
X48460000Y63740000I-2270000J100000D01*
G01*
X52085000Y74114000D02*
G75*
G02*
X54349000Y72230000I190000J-2074000D01*
G01*
G04 #@! TO.C,D15*
X76103909Y33048721D02*
X76103909Y27648721D01*
X76103909Y33048721D02*
X77603909Y33048721D01*
X76103909Y27648721D02*
X77603909Y27648721D01*
X76353909Y30848721D02*
X77353909Y30848721D01*
X76353909Y29848721D02*
X77353909Y29848721D01*
X76853909Y29948721D02*
X76353909Y30848721D01*
X77353909Y30848721D02*
X76853909Y29948721D01*
X77603909Y27648721D02*
X77603909Y33048721D01*
D12*
X78196541Y28693712D02*
G75*
G02*
X78096541Y28693712I-50000J0D01*
G01*
X78096541Y28693712D02*
G75*
G02*
X78196541Y28693712I50000J0D01*
G01*
X78287962Y28693712D02*
G75*
G02*
X78005120Y28693712I-141421J0D01*
G01*
X78005120Y28693712D02*
G75*
G02*
X78287962Y28693712I141421J0D01*
G01*
X78358673Y28693712D02*
G75*
G02*
X77934409Y28693712I-212132J0D01*
G01*
X77934409Y28693712D02*
G75*
G02*
X78358673Y28693712I212132J0D01*
G01*
D10*
G04 #@! TO.C,D21*
X114203909Y71148721D02*
X114203909Y65748721D01*
X114203909Y71148721D02*
X115703909Y71148721D01*
X114203909Y65748721D02*
X115703909Y65748721D01*
X114453909Y68948721D02*
X115453909Y68948721D01*
X114453909Y67948721D02*
X115453909Y67948721D01*
X114953909Y68048721D02*
X114453909Y68948721D01*
X115453909Y68948721D02*
X114953909Y68048721D01*
X115703909Y65748721D02*
X115703909Y71148721D01*
D12*
X116296541Y66793712D02*
G75*
G02*
X116196541Y66793712I-50000J0D01*
G01*
X116196541Y66793712D02*
G75*
G02*
X116296541Y66793712I50000J0D01*
G01*
X116387962Y66793712D02*
G75*
G02*
X116105120Y66793712I-141421J0D01*
G01*
X116105120Y66793712D02*
G75*
G02*
X116387962Y66793712I141421J0D01*
G01*
X116458673Y66793712D02*
G75*
G02*
X116034409Y66793712I-212132J0D01*
G01*
X116034409Y66793712D02*
G75*
G02*
X116458673Y66793712I212132J0D01*
G01*
D10*
G04 #@! TO.C,SW3*
X5360000Y36014000D02*
X13985000Y36014000D01*
X5360000Y32106000D02*
X5360000Y36014000D01*
X5360000Y32060000D02*
X10410000Y32014000D01*
X7860000Y25610000D02*
X7860000Y21010000D01*
X7885000Y25635000D02*
X10435000Y25635000D01*
X7885000Y20985000D02*
X12435000Y20985000D01*
X12440000Y21710000D02*
X12440000Y21010000D01*
X12735000Y27835000D02*
X17435000Y27835000D01*
X13660000Y23185000D02*
X17435000Y23185000D01*
X16260000Y34060000D02*
X16260000Y30115000D01*
X16260000Y30106000D02*
X12650000Y30106000D01*
X17435000Y27810000D02*
X17460000Y23210000D01*
X10385000Y32010000D02*
G75*
G02*
X12645000Y30130000I190000J-2070000D01*
G01*
X12440000Y21760000D02*
G75*
G02*
X13660000Y23180000I1320000J100000D01*
G01*
X12730000Y27810000D02*
G75*
G02*
X10360000Y25640000I-2270000J100000D01*
G01*
X13985000Y36014000D02*
G75*
G02*
X16249000Y34130000I190000J-2074000D01*
G01*
G04 #@! TO.C,SW14*
X62510000Y55064000D02*
X71135000Y55064000D01*
X62510000Y51156000D02*
X62510000Y55064000D01*
X62510000Y51110000D02*
X67560000Y51064000D01*
X65010000Y44660000D02*
X65010000Y40060000D01*
X65035000Y44685000D02*
X67585000Y44685000D01*
X65035000Y40035000D02*
X69585000Y40035000D01*
X69590000Y40760000D02*
X69590000Y40060000D01*
X69885000Y46885000D02*
X74585000Y46885000D01*
X70810000Y42235000D02*
X74585000Y42235000D01*
X73410000Y53110000D02*
X73410000Y49165000D01*
X73410000Y49156000D02*
X69800000Y49156000D01*
X74585000Y46860000D02*
X74610000Y42260000D01*
X67535000Y51060000D02*
G75*
G02*
X69795000Y49180000I190000J-2070000D01*
G01*
X69590000Y40810000D02*
G75*
G02*
X70810000Y42230000I1320000J100000D01*
G01*
X69880000Y46860000D02*
G75*
G02*
X67510000Y44690000I-2270000J100000D01*
G01*
X71135000Y55064000D02*
G75*
G02*
X73399000Y53180000I190000J-2074000D01*
G01*
G04 #@! TO.C,D24*
X114203909Y13998721D02*
X114203909Y8598721D01*
X114203909Y13998721D02*
X115703909Y13998721D01*
X114203909Y8598721D02*
X115703909Y8598721D01*
X114453909Y11798721D02*
X115453909Y11798721D01*
X114453909Y10798721D02*
X115453909Y10798721D01*
X114953909Y10898721D02*
X114453909Y11798721D01*
X115453909Y11798721D02*
X114953909Y10898721D01*
X115703909Y8598721D02*
X115703909Y13998721D01*
D12*
X116296541Y9643712D02*
G75*
G02*
X116196541Y9643712I-50000J0D01*
G01*
X116196541Y9643712D02*
G75*
G02*
X116296541Y9643712I50000J0D01*
G01*
X116387962Y9643712D02*
G75*
G02*
X116105120Y9643712I-141421J0D01*
G01*
X116105120Y9643712D02*
G75*
G02*
X116387962Y9643712I141421J0D01*
G01*
X116458673Y9643712D02*
G75*
G02*
X116034409Y9643712I-212132J0D01*
G01*
X116034409Y9643712D02*
G75*
G02*
X116458673Y9643712I212132J0D01*
G01*
D10*
G04 #@! TO.C,SW12*
X43460000Y16964000D02*
X52085000Y16964000D01*
X43460000Y13056000D02*
X43460000Y16964000D01*
X43460000Y13010000D02*
X48510000Y12964000D01*
X45960000Y6560000D02*
X45960000Y1960000D01*
X45985000Y6585000D02*
X48535000Y6585000D01*
X45985000Y1935000D02*
X50535000Y1935000D01*
X50540000Y2660000D02*
X50540000Y1960000D01*
X50835000Y8785000D02*
X55535000Y8785000D01*
X51760000Y4135000D02*
X55535000Y4135000D01*
X54360000Y15010000D02*
X54360000Y11065000D01*
X54360000Y11056000D02*
X50750000Y11056000D01*
X55535000Y8760000D02*
X55560000Y4160000D01*
X48485000Y12960000D02*
G75*
G02*
X50745000Y11080000I190000J-2070000D01*
G01*
X50540000Y2710000D02*
G75*
G02*
X51760000Y4130000I1320000J100000D01*
G01*
X50830000Y8760000D02*
G75*
G02*
X48460000Y6590000I-2270000J100000D01*
G01*
X52085000Y16964000D02*
G75*
G02*
X54349000Y15080000I190000J-2074000D01*
G01*
G04 #@! TO.C,D2*
X18953909Y52098721D02*
X18953909Y46698721D01*
X18953909Y52098721D02*
X20453909Y52098721D01*
X18953909Y46698721D02*
X20453909Y46698721D01*
X19203909Y49898721D02*
X20203909Y49898721D01*
X19203909Y48898721D02*
X20203909Y48898721D01*
X19703909Y48998721D02*
X19203909Y49898721D01*
X20203909Y49898721D02*
X19703909Y48998721D01*
X20453909Y46698721D02*
X20453909Y52098721D01*
D12*
X21046541Y47743712D02*
G75*
G02*
X20946541Y47743712I-50000J0D01*
G01*
X20946541Y47743712D02*
G75*
G02*
X21046541Y47743712I50000J0D01*
G01*
X21137962Y47743712D02*
G75*
G02*
X20855120Y47743712I-141421J0D01*
G01*
X20855120Y47743712D02*
G75*
G02*
X21137962Y47743712I141421J0D01*
G01*
X21208673Y47743712D02*
G75*
G02*
X20784409Y47743712I-212132J0D01*
G01*
X20784409Y47743712D02*
G75*
G02*
X21208673Y47743712I212132J0D01*
G01*
D10*
G04 #@! TO.C,SW10*
X43460000Y55064000D02*
X52085000Y55064000D01*
X43460000Y51156000D02*
X43460000Y55064000D01*
X43460000Y51110000D02*
X48510000Y51064000D01*
X45960000Y44660000D02*
X45960000Y40060000D01*
X45985000Y44685000D02*
X48535000Y44685000D01*
X45985000Y40035000D02*
X50535000Y40035000D01*
X50540000Y40760000D02*
X50540000Y40060000D01*
X50835000Y46885000D02*
X55535000Y46885000D01*
X51760000Y42235000D02*
X55535000Y42235000D01*
X54360000Y53110000D02*
X54360000Y49165000D01*
X54360000Y49156000D02*
X50750000Y49156000D01*
X55535000Y46860000D02*
X55560000Y42260000D01*
X48485000Y51060000D02*
G75*
G02*
X50745000Y49180000I190000J-2070000D01*
G01*
X50540000Y40810000D02*
G75*
G02*
X51760000Y42230000I1320000J100000D01*
G01*
X50830000Y46860000D02*
G75*
G02*
X48460000Y44690000I-2270000J100000D01*
G01*
X52085000Y55064000D02*
G75*
G02*
X54349000Y53180000I190000J-2074000D01*
G01*
G04 #@! TO.C,SW18*
X81560000Y55064000D02*
X90185000Y55064000D01*
X81560000Y51156000D02*
X81560000Y55064000D01*
X81560000Y51110000D02*
X86610000Y51064000D01*
X84060000Y44660000D02*
X84060000Y40060000D01*
X84085000Y44685000D02*
X86635000Y44685000D01*
X84085000Y40035000D02*
X88635000Y40035000D01*
X88640000Y40760000D02*
X88640000Y40060000D01*
X88935000Y46885000D02*
X93635000Y46885000D01*
X89860000Y42235000D02*
X93635000Y42235000D01*
X92460000Y53110000D02*
X92460000Y49165000D01*
X92460000Y49156000D02*
X88850000Y49156000D01*
X93635000Y46860000D02*
X93660000Y42260000D01*
X86585000Y51060000D02*
G75*
G02*
X88845000Y49180000I190000J-2070000D01*
G01*
X88640000Y40810000D02*
G75*
G02*
X89860000Y42230000I1320000J100000D01*
G01*
X88930000Y46860000D02*
G75*
G02*
X86560000Y44690000I-2270000J100000D01*
G01*
X90185000Y55064000D02*
G75*
G02*
X92449000Y53180000I190000J-2074000D01*
G01*
G04 #@! TO.C,D7*
X38003909Y33048721D02*
X38003909Y27648721D01*
X38003909Y33048721D02*
X39503909Y33048721D01*
X38003909Y27648721D02*
X39503909Y27648721D01*
X38253909Y30848721D02*
X39253909Y30848721D01*
X38253909Y29848721D02*
X39253909Y29848721D01*
X38753909Y29948721D02*
X38253909Y30848721D01*
X39253909Y30848721D02*
X38753909Y29948721D01*
X39503909Y27648721D02*
X39503909Y33048721D01*
D12*
X40096541Y28693712D02*
G75*
G02*
X39996541Y28693712I-50000J0D01*
G01*
X39996541Y28693712D02*
G75*
G02*
X40096541Y28693712I50000J0D01*
G01*
X40187962Y28693712D02*
G75*
G02*
X39905120Y28693712I-141421J0D01*
G01*
X39905120Y28693712D02*
G75*
G02*
X40187962Y28693712I141421J0D01*
G01*
X40258673Y28693712D02*
G75*
G02*
X39834409Y28693712I-212132J0D01*
G01*
X39834409Y28693712D02*
G75*
G02*
X40258673Y28693712I212132J0D01*
G01*
D10*
G04 #@! TO.C,SW16*
X62510000Y16964000D02*
X71135000Y16964000D01*
X62510000Y13056000D02*
X62510000Y16964000D01*
X62510000Y13010000D02*
X67560000Y12964000D01*
X65010000Y6560000D02*
X65010000Y1960000D01*
X65035000Y6585000D02*
X67585000Y6585000D01*
X65035000Y1935000D02*
X69585000Y1935000D01*
X69590000Y2660000D02*
X69590000Y1960000D01*
X69885000Y8785000D02*
X74585000Y8785000D01*
X70810000Y4135000D02*
X74585000Y4135000D01*
X73410000Y15010000D02*
X73410000Y11065000D01*
X73410000Y11056000D02*
X69800000Y11056000D01*
X74585000Y8760000D02*
X74610000Y4160000D01*
X67535000Y12960000D02*
G75*
G02*
X69795000Y11080000I190000J-2070000D01*
G01*
X69590000Y2710000D02*
G75*
G02*
X70810000Y4130000I1320000J100000D01*
G01*
X69880000Y8760000D02*
G75*
G02*
X67510000Y6590000I-2270000J100000D01*
G01*
X71135000Y16964000D02*
G75*
G02*
X73399000Y15080000I190000J-2074000D01*
G01*
G04 #@! TO.C,SW25*
X119660000Y74114000D02*
X128285000Y74114000D01*
X119660000Y70206000D02*
X119660000Y74114000D01*
X119660000Y70160000D02*
X124710000Y70114000D01*
X122160000Y63710000D02*
X122160000Y59110000D01*
X122185000Y63735000D02*
X124735000Y63735000D01*
X122185000Y59085000D02*
X126735000Y59085000D01*
X126740000Y59810000D02*
X126740000Y59110000D01*
X127035000Y65935000D02*
X131735000Y65935000D01*
X127960000Y61285000D02*
X131735000Y61285000D01*
X130560000Y72160000D02*
X130560000Y68215000D01*
X130560000Y68206000D02*
X126950000Y68206000D01*
X131735000Y65910000D02*
X131760000Y61310000D01*
X124685000Y70110000D02*
G75*
G02*
X126945000Y68230000I190000J-2070000D01*
G01*
X126740000Y59860000D02*
G75*
G02*
X127960000Y61280000I1320000J100000D01*
G01*
X127030000Y65910000D02*
G75*
G02*
X124660000Y63740000I-2270000J100000D01*
G01*
X128285000Y74114000D02*
G75*
G02*
X130549000Y72230000I190000J-2074000D01*
G01*
G04 #@! TO.C,D26*
X133253909Y52098721D02*
X133253909Y46698721D01*
X133253909Y52098721D02*
X134753909Y52098721D01*
X133253909Y46698721D02*
X134753909Y46698721D01*
X133503909Y49898721D02*
X134503909Y49898721D01*
X133503909Y48898721D02*
X134503909Y48898721D01*
X134003909Y48998721D02*
X133503909Y49898721D01*
X134503909Y49898721D02*
X134003909Y48998721D01*
X134753909Y46698721D02*
X134753909Y52098721D01*
D12*
X135346541Y47743712D02*
G75*
G02*
X135246541Y47743712I-50000J0D01*
G01*
X135246541Y47743712D02*
G75*
G02*
X135346541Y47743712I50000J0D01*
G01*
X135437962Y47743712D02*
G75*
G02*
X135155120Y47743712I-141421J0D01*
G01*
X135155120Y47743712D02*
G75*
G02*
X135437962Y47743712I141421J0D01*
G01*
X135508673Y47743712D02*
G75*
G02*
X135084409Y47743712I-212132J0D01*
G01*
X135084409Y47743712D02*
G75*
G02*
X135508673Y47743712I212132J0D01*
G01*
D10*
G04 #@! TO.C,D1*
X18953909Y71148721D02*
X18953909Y65748721D01*
X18953909Y71148721D02*
X20453909Y71148721D01*
X18953909Y65748721D02*
X20453909Y65748721D01*
X19203909Y68948721D02*
X20203909Y68948721D01*
X19203909Y67948721D02*
X20203909Y67948721D01*
X19703909Y68048721D02*
X19203909Y68948721D01*
X20203909Y68948721D02*
X19703909Y68048721D01*
X20453909Y65748721D02*
X20453909Y71148721D01*
D12*
X21046541Y66793712D02*
G75*
G02*
X20946541Y66793712I-50000J0D01*
G01*
X20946541Y66793712D02*
G75*
G02*
X21046541Y66793712I50000J0D01*
G01*
X21137962Y66793712D02*
G75*
G02*
X20855120Y66793712I-141421J0D01*
G01*
X20855120Y66793712D02*
G75*
G02*
X21137962Y66793712I141421J0D01*
G01*
X21208673Y66793712D02*
G75*
G02*
X20784409Y66793712I-212132J0D01*
G01*
X20784409Y66793712D02*
G75*
G02*
X21208673Y66793712I212132J0D01*
G01*
D10*
G04 #@! TO.C,SW15*
X62510000Y36014000D02*
X71135000Y36014000D01*
X62510000Y32106000D02*
X62510000Y36014000D01*
X62510000Y32060000D02*
X67560000Y32014000D01*
X65010000Y25610000D02*
X65010000Y21010000D01*
X65035000Y25635000D02*
X67585000Y25635000D01*
X65035000Y20985000D02*
X69585000Y20985000D01*
X69590000Y21710000D02*
X69590000Y21010000D01*
X69885000Y27835000D02*
X74585000Y27835000D01*
X70810000Y23185000D02*
X74585000Y23185000D01*
X73410000Y34060000D02*
X73410000Y30115000D01*
X73410000Y30106000D02*
X69800000Y30106000D01*
X74585000Y27810000D02*
X74610000Y23210000D01*
X67535000Y32010000D02*
G75*
G02*
X69795000Y30130000I190000J-2070000D01*
G01*
X69590000Y21760000D02*
G75*
G02*
X70810000Y23180000I1320000J100000D01*
G01*
X69880000Y27810000D02*
G75*
G02*
X67510000Y25640000I-2270000J100000D01*
G01*
X71135000Y36014000D02*
G75*
G02*
X73399000Y34130000I190000J-2074000D01*
G01*
G04 #@! TO.C,SW27*
X119660000Y36014000D02*
X128285000Y36014000D01*
X119660000Y32106000D02*
X119660000Y36014000D01*
X119660000Y32060000D02*
X124710000Y32014000D01*
X122160000Y25610000D02*
X122160000Y21010000D01*
X122185000Y25635000D02*
X124735000Y25635000D01*
X122185000Y20985000D02*
X126735000Y20985000D01*
X126740000Y21710000D02*
X126740000Y21010000D01*
X127035000Y27835000D02*
X131735000Y27835000D01*
X127960000Y23185000D02*
X131735000Y23185000D01*
X130560000Y34060000D02*
X130560000Y30115000D01*
X130560000Y30106000D02*
X126950000Y30106000D01*
X131735000Y27810000D02*
X131760000Y23210000D01*
X124685000Y32010000D02*
G75*
G02*
X126945000Y30130000I190000J-2070000D01*
G01*
X126740000Y21760000D02*
G75*
G02*
X127960000Y23180000I1320000J100000D01*
G01*
X127030000Y27810000D02*
G75*
G02*
X124660000Y25640000I-2270000J100000D01*
G01*
X128285000Y36014000D02*
G75*
G02*
X130549000Y34130000I190000J-2074000D01*
G01*
G04 #@! TO.C,D23*
X114203909Y33048721D02*
X114203909Y27648721D01*
X114203909Y33048721D02*
X115703909Y33048721D01*
X114203909Y27648721D02*
X115703909Y27648721D01*
X114453909Y30848721D02*
X115453909Y30848721D01*
X114453909Y29848721D02*
X115453909Y29848721D01*
X114953909Y29948721D02*
X114453909Y30848721D01*
X115453909Y30848721D02*
X114953909Y29948721D01*
X115703909Y27648721D02*
X115703909Y33048721D01*
D12*
X116296541Y28693712D02*
G75*
G02*
X116196541Y28693712I-50000J0D01*
G01*
X116196541Y28693712D02*
G75*
G02*
X116296541Y28693712I50000J0D01*
G01*
X116387962Y28693712D02*
G75*
G02*
X116105120Y28693712I-141421J0D01*
G01*
X116105120Y28693712D02*
G75*
G02*
X116387962Y28693712I141421J0D01*
G01*
X116458673Y28693712D02*
G75*
G02*
X116034409Y28693712I-212132J0D01*
G01*
X116034409Y28693712D02*
G75*
G02*
X116458673Y28693712I212132J0D01*
G01*
D10*
G04 #@! TO.C,SW5*
X24410000Y74114000D02*
X33035000Y74114000D01*
X24410000Y70206000D02*
X24410000Y74114000D01*
X24410000Y70160000D02*
X29460000Y70114000D01*
X26910000Y63710000D02*
X26910000Y59110000D01*
X26935000Y63735000D02*
X29485000Y63735000D01*
X26935000Y59085000D02*
X31485000Y59085000D01*
X31490000Y59810000D02*
X31490000Y59110000D01*
X31785000Y65935000D02*
X36485000Y65935000D01*
X32710000Y61285000D02*
X36485000Y61285000D01*
X35310000Y72160000D02*
X35310000Y68215000D01*
X35310000Y68206000D02*
X31700000Y68206000D01*
X36485000Y65910000D02*
X36510000Y61310000D01*
X29435000Y70110000D02*
G75*
G02*
X31695000Y68230000I190000J-2070000D01*
G01*
X31490000Y59860000D02*
G75*
G02*
X32710000Y61280000I1320000J100000D01*
G01*
X31780000Y65910000D02*
G75*
G02*
X29410000Y63740000I-2270000J100000D01*
G01*
X33035000Y74114000D02*
G75*
G02*
X35299000Y72230000I190000J-2074000D01*
G01*
G04 #@! TO.C,SW20*
X81560000Y16964000D02*
X90185000Y16964000D01*
X81560000Y13056000D02*
X81560000Y16964000D01*
X81560000Y13010000D02*
X86610000Y12964000D01*
X84060000Y6560000D02*
X84060000Y1960000D01*
X84085000Y6585000D02*
X86635000Y6585000D01*
X84085000Y1935000D02*
X88635000Y1935000D01*
X88640000Y2660000D02*
X88640000Y1960000D01*
X88935000Y8785000D02*
X93635000Y8785000D01*
X89860000Y4135000D02*
X93635000Y4135000D01*
X92460000Y15010000D02*
X92460000Y11065000D01*
X92460000Y11056000D02*
X88850000Y11056000D01*
X93635000Y8760000D02*
X93660000Y4160000D01*
X86585000Y12960000D02*
G75*
G02*
X88845000Y11080000I190000J-2070000D01*
G01*
X88640000Y2710000D02*
G75*
G02*
X89860000Y4130000I1320000J100000D01*
G01*
X88930000Y8760000D02*
G75*
G02*
X86560000Y6590000I-2270000J100000D01*
G01*
X90185000Y16964000D02*
G75*
G02*
X92449000Y15080000I190000J-2074000D01*
G01*
G04 #@! TO.C,D17*
X95153909Y71148721D02*
X95153909Y65748721D01*
X95153909Y71148721D02*
X96653909Y71148721D01*
X95153909Y65748721D02*
X96653909Y65748721D01*
X95403909Y68948721D02*
X96403909Y68948721D01*
X95403909Y67948721D02*
X96403909Y67948721D01*
X95903909Y68048721D02*
X95403909Y68948721D01*
X96403909Y68948721D02*
X95903909Y68048721D01*
X96653909Y65748721D02*
X96653909Y71148721D01*
D12*
X97246541Y66793712D02*
G75*
G02*
X97146541Y66793712I-50000J0D01*
G01*
X97146541Y66793712D02*
G75*
G02*
X97246541Y66793712I50000J0D01*
G01*
X97337962Y66793712D02*
G75*
G02*
X97055120Y66793712I-141421J0D01*
G01*
X97055120Y66793712D02*
G75*
G02*
X97337962Y66793712I141421J0D01*
G01*
X97408673Y66793712D02*
G75*
G02*
X96984409Y66793712I-212132J0D01*
G01*
X96984409Y66793712D02*
G75*
G02*
X97408673Y66793712I212132J0D01*
G01*
D10*
G04 #@! TO.C,D27*
X133253909Y33048721D02*
X133253909Y27648721D01*
X133253909Y33048721D02*
X134753909Y33048721D01*
X133253909Y27648721D02*
X134753909Y27648721D01*
X133503909Y30848721D02*
X134503909Y30848721D01*
X133503909Y29848721D02*
X134503909Y29848721D01*
X134003909Y29948721D02*
X133503909Y30848721D01*
X134503909Y30848721D02*
X134003909Y29948721D01*
X134753909Y27648721D02*
X134753909Y33048721D01*
D12*
X135346541Y28693712D02*
G75*
G02*
X135246541Y28693712I-50000J0D01*
G01*
X135246541Y28693712D02*
G75*
G02*
X135346541Y28693712I50000J0D01*
G01*
X135437962Y28693712D02*
G75*
G02*
X135155120Y28693712I-141421J0D01*
G01*
X135155120Y28693712D02*
G75*
G02*
X135437962Y28693712I141421J0D01*
G01*
X135508673Y28693712D02*
G75*
G02*
X135084409Y28693712I-212132J0D01*
G01*
X135084409Y28693712D02*
G75*
G02*
X135508673Y28693712I212132J0D01*
G01*
D10*
G04 #@! TO.C,SW11*
X43460000Y36014000D02*
X52085000Y36014000D01*
X43460000Y32106000D02*
X43460000Y36014000D01*
X43460000Y32060000D02*
X48510000Y32014000D01*
X45960000Y25610000D02*
X45960000Y21010000D01*
X45985000Y25635000D02*
X48535000Y25635000D01*
X45985000Y20985000D02*
X50535000Y20985000D01*
X50540000Y21710000D02*
X50540000Y21010000D01*
X50835000Y27835000D02*
X55535000Y27835000D01*
X51760000Y23185000D02*
X55535000Y23185000D01*
X54360000Y34060000D02*
X54360000Y30115000D01*
X54360000Y30106000D02*
X50750000Y30106000D01*
X55535000Y27810000D02*
X55560000Y23210000D01*
X48485000Y32010000D02*
G75*
G02*
X50745000Y30130000I190000J-2070000D01*
G01*
X50540000Y21760000D02*
G75*
G02*
X51760000Y23180000I1320000J100000D01*
G01*
X50830000Y27810000D02*
G75*
G02*
X48460000Y25640000I-2270000J100000D01*
G01*
X52085000Y36014000D02*
G75*
G02*
X54349000Y34130000I190000J-2074000D01*
G01*
G04 #@! TO.C,D4*
X18953909Y13998721D02*
X18953909Y8598721D01*
X18953909Y13998721D02*
X20453909Y13998721D01*
X18953909Y8598721D02*
X20453909Y8598721D01*
X19203909Y11798721D02*
X20203909Y11798721D01*
X19203909Y10798721D02*
X20203909Y10798721D01*
X19703909Y10898721D02*
X19203909Y11798721D01*
X20203909Y11798721D02*
X19703909Y10898721D01*
X20453909Y8598721D02*
X20453909Y13998721D01*
D12*
X21046541Y9643712D02*
G75*
G02*
X20946541Y9643712I-50000J0D01*
G01*
X20946541Y9643712D02*
G75*
G02*
X21046541Y9643712I50000J0D01*
G01*
X21137962Y9643712D02*
G75*
G02*
X20855120Y9643712I-141421J0D01*
G01*
X20855120Y9643712D02*
G75*
G02*
X21137962Y9643712I141421J0D01*
G01*
X21208673Y9643712D02*
G75*
G02*
X20784409Y9643712I-212132J0D01*
G01*
X20784409Y9643712D02*
G75*
G02*
X21208673Y9643712I212132J0D01*
G01*
D10*
G04 #@! TO.C,D10*
X57053909Y52098721D02*
X57053909Y46698721D01*
X57053909Y52098721D02*
X58553909Y52098721D01*
X57053909Y46698721D02*
X58553909Y46698721D01*
X57303909Y49898721D02*
X58303909Y49898721D01*
X57303909Y48898721D02*
X58303909Y48898721D01*
X57803909Y48998721D02*
X57303909Y49898721D01*
X58303909Y49898721D02*
X57803909Y48998721D01*
X58553909Y46698721D02*
X58553909Y52098721D01*
D12*
X59146541Y47743712D02*
G75*
G02*
X59046541Y47743712I-50000J0D01*
G01*
X59046541Y47743712D02*
G75*
G02*
X59146541Y47743712I50000J0D01*
G01*
X59237962Y47743712D02*
G75*
G02*
X58955120Y47743712I-141421J0D01*
G01*
X58955120Y47743712D02*
G75*
G02*
X59237962Y47743712I141421J0D01*
G01*
X59308673Y47743712D02*
G75*
G02*
X58884409Y47743712I-212132J0D01*
G01*
X58884409Y47743712D02*
G75*
G02*
X59308673Y47743712I212132J0D01*
G01*
D10*
G04 #@! TO.C,D16*
X76103909Y13998721D02*
X76103909Y8598721D01*
X76103909Y13998721D02*
X77603909Y13998721D01*
X76103909Y8598721D02*
X77603909Y8598721D01*
X76353909Y11798721D02*
X77353909Y11798721D01*
X76353909Y10798721D02*
X77353909Y10798721D01*
X76853909Y10898721D02*
X76353909Y11798721D01*
X77353909Y11798721D02*
X76853909Y10898721D01*
X77603909Y8598721D02*
X77603909Y13998721D01*
D12*
X78196541Y9643712D02*
G75*
G02*
X78096541Y9643712I-50000J0D01*
G01*
X78096541Y9643712D02*
G75*
G02*
X78196541Y9643712I50000J0D01*
G01*
X78287962Y9643712D02*
G75*
G02*
X78005120Y9643712I-141421J0D01*
G01*
X78005120Y9643712D02*
G75*
G02*
X78287962Y9643712I141421J0D01*
G01*
X78358673Y9643712D02*
G75*
G02*
X77934409Y9643712I-212132J0D01*
G01*
X77934409Y9643712D02*
G75*
G02*
X78358673Y9643712I212132J0D01*
G01*
D10*
G04 #@! TO.C,SW26*
X119660000Y55064000D02*
X128285000Y55064000D01*
X119660000Y51156000D02*
X119660000Y55064000D01*
X119660000Y51110000D02*
X124710000Y51064000D01*
X122160000Y44660000D02*
X122160000Y40060000D01*
X122185000Y44685000D02*
X124735000Y44685000D01*
X122185000Y40035000D02*
X126735000Y40035000D01*
X126740000Y40760000D02*
X126740000Y40060000D01*
X127035000Y46885000D02*
X131735000Y46885000D01*
X127960000Y42235000D02*
X131735000Y42235000D01*
X130560000Y53110000D02*
X130560000Y49165000D01*
X130560000Y49156000D02*
X126950000Y49156000D01*
X131735000Y46860000D02*
X131760000Y42260000D01*
X124685000Y51060000D02*
G75*
G02*
X126945000Y49180000I190000J-2070000D01*
G01*
X126740000Y40810000D02*
G75*
G02*
X127960000Y42230000I1320000J100000D01*
G01*
X127030000Y46860000D02*
G75*
G02*
X124660000Y44690000I-2270000J100000D01*
G01*
X128285000Y55064000D02*
G75*
G02*
X130549000Y53180000I190000J-2074000D01*
G01*
G04 #@! TO.C,D14*
X76103909Y52098721D02*
X76103909Y46698721D01*
X76103909Y52098721D02*
X77603909Y52098721D01*
X76103909Y46698721D02*
X77603909Y46698721D01*
X76353909Y49898721D02*
X77353909Y49898721D01*
X76353909Y48898721D02*
X77353909Y48898721D01*
X76853909Y48998721D02*
X76353909Y49898721D01*
X77353909Y49898721D02*
X76853909Y48998721D01*
X77603909Y46698721D02*
X77603909Y52098721D01*
D12*
X78196541Y47743712D02*
G75*
G02*
X78096541Y47743712I-50000J0D01*
G01*
X78096541Y47743712D02*
G75*
G02*
X78196541Y47743712I50000J0D01*
G01*
X78287962Y47743712D02*
G75*
G02*
X78005120Y47743712I-141421J0D01*
G01*
X78005120Y47743712D02*
G75*
G02*
X78287962Y47743712I141421J0D01*
G01*
X78358673Y47743712D02*
G75*
G02*
X77934409Y47743712I-212132J0D01*
G01*
X77934409Y47743712D02*
G75*
G02*
X78358673Y47743712I212132J0D01*
G01*
D10*
G04 #@! TO.C,SW28*
X119660000Y16964000D02*
X128285000Y16964000D01*
X119660000Y13056000D02*
X119660000Y16964000D01*
X119660000Y13010000D02*
X124710000Y12964000D01*
X122160000Y6560000D02*
X122160000Y1960000D01*
X122185000Y6585000D02*
X124735000Y6585000D01*
X122185000Y1935000D02*
X126735000Y1935000D01*
X126740000Y2660000D02*
X126740000Y1960000D01*
X127035000Y8785000D02*
X131735000Y8785000D01*
X127960000Y4135000D02*
X131735000Y4135000D01*
X130560000Y15010000D02*
X130560000Y11065000D01*
X130560000Y11056000D02*
X126950000Y11056000D01*
X131735000Y8760000D02*
X131760000Y4160000D01*
X124685000Y12960000D02*
G75*
G02*
X126945000Y11080000I190000J-2070000D01*
G01*
X126740000Y2710000D02*
G75*
G02*
X127960000Y4130000I1320000J100000D01*
G01*
X127030000Y8760000D02*
G75*
G02*
X124660000Y6590000I-2270000J100000D01*
G01*
X128285000Y16964000D02*
G75*
G02*
X130549000Y15080000I190000J-2074000D01*
G01*
G04 #@! TO.C,D3*
X18953909Y33048721D02*
X18953909Y27648721D01*
X18953909Y33048721D02*
X20453909Y33048721D01*
X18953909Y27648721D02*
X20453909Y27648721D01*
X19203909Y30848721D02*
X20203909Y30848721D01*
X19203909Y29848721D02*
X20203909Y29848721D01*
X19703909Y29948721D02*
X19203909Y30848721D01*
X20203909Y30848721D02*
X19703909Y29948721D01*
X20453909Y27648721D02*
X20453909Y33048721D01*
D12*
X21046541Y28693712D02*
G75*
G02*
X20946541Y28693712I-50000J0D01*
G01*
X20946541Y28693712D02*
G75*
G02*
X21046541Y28693712I50000J0D01*
G01*
X21137962Y28693712D02*
G75*
G02*
X20855120Y28693712I-141421J0D01*
G01*
X20855120Y28693712D02*
G75*
G02*
X21137962Y28693712I141421J0D01*
G01*
X21208673Y28693712D02*
G75*
G02*
X20784409Y28693712I-212132J0D01*
G01*
X20784409Y28693712D02*
G75*
G02*
X21208673Y28693712I212132J0D01*
G01*
D10*
G04 #@! TO.C,D8*
X38003909Y13998721D02*
X38003909Y8598721D01*
X38003909Y13998721D02*
X39503909Y13998721D01*
X38003909Y8598721D02*
X39503909Y8598721D01*
X38253909Y11798721D02*
X39253909Y11798721D01*
X38253909Y10798721D02*
X39253909Y10798721D01*
X38753909Y10898721D02*
X38253909Y11798721D01*
X39253909Y11798721D02*
X38753909Y10898721D01*
X39503909Y8598721D02*
X39503909Y13998721D01*
D12*
X40096541Y9643712D02*
G75*
G02*
X39996541Y9643712I-50000J0D01*
G01*
X39996541Y9643712D02*
G75*
G02*
X40096541Y9643712I50000J0D01*
G01*
X40187962Y9643712D02*
G75*
G02*
X39905120Y9643712I-141421J0D01*
G01*
X39905120Y9643712D02*
G75*
G02*
X40187962Y9643712I141421J0D01*
G01*
X40258673Y9643712D02*
G75*
G02*
X39834409Y9643712I-212132J0D01*
G01*
X39834409Y9643712D02*
G75*
G02*
X40258673Y9643712I212132J0D01*
G01*
D10*
G04 #@! TO.C,SW17*
X81560000Y74114000D02*
X90185000Y74114000D01*
X81560000Y70206000D02*
X81560000Y74114000D01*
X81560000Y70160000D02*
X86610000Y70114000D01*
X84060000Y63710000D02*
X84060000Y59110000D01*
X84085000Y63735000D02*
X86635000Y63735000D01*
X84085000Y59085000D02*
X88635000Y59085000D01*
X88640000Y59810000D02*
X88640000Y59110000D01*
X88935000Y65935000D02*
X93635000Y65935000D01*
X89860000Y61285000D02*
X93635000Y61285000D01*
X92460000Y72160000D02*
X92460000Y68215000D01*
X92460000Y68206000D02*
X88850000Y68206000D01*
X93635000Y65910000D02*
X93660000Y61310000D01*
X86585000Y70110000D02*
G75*
G02*
X88845000Y68230000I190000J-2070000D01*
G01*
X88640000Y59860000D02*
G75*
G02*
X89860000Y61280000I1320000J100000D01*
G01*
X88930000Y65910000D02*
G75*
G02*
X86560000Y63740000I-2270000J100000D01*
G01*
X90185000Y74114000D02*
G75*
G02*
X92449000Y72230000I190000J-2074000D01*
G01*
G04 #@! TO.C,D13*
X76103909Y71148721D02*
X76103909Y65748721D01*
X76103909Y71148721D02*
X77603909Y71148721D01*
X76103909Y65748721D02*
X77603909Y65748721D01*
X76353909Y68948721D02*
X77353909Y68948721D01*
X76353909Y67948721D02*
X77353909Y67948721D01*
X76853909Y68048721D02*
X76353909Y68948721D01*
X77353909Y68948721D02*
X76853909Y68048721D01*
X77603909Y65748721D02*
X77603909Y71148721D01*
D12*
X78196541Y66793712D02*
G75*
G02*
X78096541Y66793712I-50000J0D01*
G01*
X78096541Y66793712D02*
G75*
G02*
X78196541Y66793712I50000J0D01*
G01*
X78287962Y66793712D02*
G75*
G02*
X78005120Y66793712I-141421J0D01*
G01*
X78005120Y66793712D02*
G75*
G02*
X78287962Y66793712I141421J0D01*
G01*
X78358673Y66793712D02*
G75*
G02*
X77934409Y66793712I-212132J0D01*
G01*
X77934409Y66793712D02*
G75*
G02*
X78358673Y66793712I212132J0D01*
G01*
D10*
G04 #@! TO.C,SW6*
X24410000Y55064000D02*
X33035000Y55064000D01*
X24410000Y51156000D02*
X24410000Y55064000D01*
X24410000Y51110000D02*
X29460000Y51064000D01*
X26910000Y44660000D02*
X26910000Y40060000D01*
X26935000Y44685000D02*
X29485000Y44685000D01*
X26935000Y40035000D02*
X31485000Y40035000D01*
X31490000Y40760000D02*
X31490000Y40060000D01*
X31785000Y46885000D02*
X36485000Y46885000D01*
X32710000Y42235000D02*
X36485000Y42235000D01*
X35310000Y53110000D02*
X35310000Y49165000D01*
X35310000Y49156000D02*
X31700000Y49156000D01*
X36485000Y46860000D02*
X36510000Y42260000D01*
X29435000Y51060000D02*
G75*
G02*
X31695000Y49180000I190000J-2070000D01*
G01*
X31490000Y40810000D02*
G75*
G02*
X32710000Y42230000I1320000J100000D01*
G01*
X31780000Y46860000D02*
G75*
G02*
X29410000Y44690000I-2270000J100000D01*
G01*
X33035000Y55064000D02*
G75*
G02*
X35299000Y53180000I190000J-2074000D01*
G01*
G04 #@! TO.C,SW19*
X81560000Y36014000D02*
X90185000Y36014000D01*
X81560000Y32106000D02*
X81560000Y36014000D01*
X81560000Y32060000D02*
X86610000Y32014000D01*
X84060000Y25610000D02*
X84060000Y21010000D01*
X84085000Y25635000D02*
X86635000Y25635000D01*
X84085000Y20985000D02*
X88635000Y20985000D01*
X88640000Y21710000D02*
X88640000Y21010000D01*
X88935000Y27835000D02*
X93635000Y27835000D01*
X89860000Y23185000D02*
X93635000Y23185000D01*
X92460000Y34060000D02*
X92460000Y30115000D01*
X92460000Y30106000D02*
X88850000Y30106000D01*
X93635000Y27810000D02*
X93660000Y23210000D01*
X86585000Y32010000D02*
G75*
G02*
X88845000Y30130000I190000J-2070000D01*
G01*
X88640000Y21760000D02*
G75*
G02*
X89860000Y23180000I1320000J100000D01*
G01*
X88930000Y27810000D02*
G75*
G02*
X86560000Y25640000I-2270000J100000D01*
G01*
X90185000Y36014000D02*
G75*
G02*
X92449000Y34130000I190000J-2074000D01*
G01*
G04 #@! TO.C,D11*
X57053909Y33048721D02*
X57053909Y27648721D01*
X57053909Y33048721D02*
X58553909Y33048721D01*
X57053909Y27648721D02*
X58553909Y27648721D01*
X57303909Y30848721D02*
X58303909Y30848721D01*
X57303909Y29848721D02*
X58303909Y29848721D01*
X57803909Y29948721D02*
X57303909Y30848721D01*
X58303909Y30848721D02*
X57803909Y29948721D01*
X58553909Y27648721D02*
X58553909Y33048721D01*
D12*
X59146541Y28693712D02*
G75*
G02*
X59046541Y28693712I-50000J0D01*
G01*
X59046541Y28693712D02*
G75*
G02*
X59146541Y28693712I50000J0D01*
G01*
X59237962Y28693712D02*
G75*
G02*
X58955120Y28693712I-141421J0D01*
G01*
X58955120Y28693712D02*
G75*
G02*
X59237962Y28693712I141421J0D01*
G01*
X59308673Y28693712D02*
G75*
G02*
X58884409Y28693712I-212132J0D01*
G01*
X58884409Y28693712D02*
G75*
G02*
X59308673Y28693712I212132J0D01*
G01*
D10*
G04 #@! TO.C,D25*
X133253909Y71148721D02*
X133253909Y65748721D01*
X133253909Y71148721D02*
X134753909Y71148721D01*
X133253909Y65748721D02*
X134753909Y65748721D01*
X133503909Y68948721D02*
X134503909Y68948721D01*
X133503909Y67948721D02*
X134503909Y67948721D01*
X134003909Y68048721D02*
X133503909Y68948721D01*
X134503909Y68948721D02*
X134003909Y68048721D01*
X134753909Y65748721D02*
X134753909Y71148721D01*
D12*
X135346541Y66793712D02*
G75*
G02*
X135246541Y66793712I-50000J0D01*
G01*
X135246541Y66793712D02*
G75*
G02*
X135346541Y66793712I50000J0D01*
G01*
X135437962Y66793712D02*
G75*
G02*
X135155120Y66793712I-141421J0D01*
G01*
X135155120Y66793712D02*
G75*
G02*
X135437962Y66793712I141421J0D01*
G01*
X135508673Y66793712D02*
G75*
G02*
X135084409Y66793712I-212132J0D01*
G01*
X135084409Y66793712D02*
G75*
G02*
X135508673Y66793712I212132J0D01*
G01*
D10*
G04 #@! TO.C,SW8*
X24410000Y16964000D02*
X33035000Y16964000D01*
X24410000Y13056000D02*
X24410000Y16964000D01*
X24410000Y13010000D02*
X29460000Y12964000D01*
X26910000Y6560000D02*
X26910000Y1960000D01*
X26935000Y6585000D02*
X29485000Y6585000D01*
X26935000Y1935000D02*
X31485000Y1935000D01*
X31490000Y2660000D02*
X31490000Y1960000D01*
X31785000Y8785000D02*
X36485000Y8785000D01*
X32710000Y4135000D02*
X36485000Y4135000D01*
X35310000Y15010000D02*
X35310000Y11065000D01*
X35310000Y11056000D02*
X31700000Y11056000D01*
X36485000Y8760000D02*
X36510000Y4160000D01*
X29435000Y12960000D02*
G75*
G02*
X31695000Y11080000I190000J-2070000D01*
G01*
X31490000Y2710000D02*
G75*
G02*
X32710000Y4130000I1320000J100000D01*
G01*
X31780000Y8760000D02*
G75*
G02*
X29410000Y6590000I-2270000J100000D01*
G01*
X33035000Y16964000D02*
G75*
G02*
X35299000Y15080000I190000J-2074000D01*
G01*
G04 #@! TD*
D13*
G04 #@! TO.C,J1*
X123920000Y99465000D03*
X119920000Y99465000D03*
X123920000Y92465000D03*
X119920000Y92465000D03*
D14*
X121920000Y90665000D03*
X121920000Y97665000D03*
X121920000Y94665000D03*
X117920000Y89165000D03*
X125920000Y89165000D03*
G04 #@! TD*
%LPC*%
D15*
G04 #@! TO.C,R1*
X100330000Y76835000D03*
D16*
X110490000Y76835000D03*
G04 #@! TD*
D15*
G04 #@! TO.C,R2*
X119380000Y76835000D03*
D16*
X129540000Y76835000D03*
G04 #@! TD*
D17*
G04 #@! TO.C,SW29*
X119380000Y83185000D03*
X124460000Y83185000D03*
G04 #@! TD*
D18*
G04 #@! TO.C,U1*
X57785000Y38735000D03*
G04 #@! TD*
G04 #@! TO.C,U2*
X114935000Y57785000D03*
G04 #@! TD*
G04 #@! TO.C,U4*
X114935000Y19685000D03*
G04 #@! TD*
G04 #@! TO.C,U5*
X19685000Y57785000D03*
G04 #@! TD*
G04 #@! TO.C,U7*
X19685000Y19685000D03*
G04 #@! TD*
D19*
G04 #@! TO.C,W1*
X115935000Y76835000D03*
X113935000Y76835000D03*
G04 #@! TD*
D17*
G04 #@! TO.C,U3*
X85090000Y82550000D03*
X86360000Y99060000D03*
X87630000Y82550000D03*
X88900000Y99060000D03*
X90170000Y82550000D03*
X91440000Y99060000D03*
X92710000Y82550000D03*
X93980000Y99060000D03*
X95250000Y82550000D03*
X96520000Y99060000D03*
X97790000Y82550000D03*
X99060000Y99060000D03*
X100330000Y82550000D03*
X101600000Y99060000D03*
X102870000Y82550000D03*
X104140000Y99060000D03*
X105410000Y82550000D03*
X106680000Y99060000D03*
X107950000Y82550000D03*
X109220000Y99060000D03*
X110490000Y82550000D03*
X111760000Y99060000D03*
X113030000Y82550000D03*
X114300000Y99060000D03*
X113030000Y97790000D03*
X114300000Y83820000D03*
X110490000Y97790000D03*
X111760000Y83820000D03*
X107950000Y97790000D03*
X109220000Y83820000D03*
X105410000Y97790000D03*
X106680000Y83820000D03*
X102870000Y97790000D03*
X104140000Y83820000D03*
X100330000Y97790000D03*
X101600000Y83820000D03*
X97790000Y97790000D03*
X99060000Y83820000D03*
X95250000Y97790000D03*
X96520000Y83820000D03*
X92710000Y97790000D03*
X93980000Y83820000D03*
X90170000Y97790000D03*
X91440000Y83820000D03*
X87630000Y97790000D03*
X88900000Y83820000D03*
X85090000Y97790000D03*
X86360000Y83820000D03*
G04 #@! TD*
D20*
G04 #@! TO.C,J1*
X123920000Y99465000D03*
X119920000Y99465000D03*
X123920000Y92465000D03*
X119920000Y92465000D03*
D21*
X121920000Y90665000D03*
X121920000Y97665000D03*
X121920000Y94665000D03*
X117920000Y89165000D03*
X125920000Y89165000D03*
G04 #@! TD*
D22*
G04 #@! TO.C,SW2*
X4660000Y48260000D03*
D23*
X5080000Y48260000D03*
D24*
X5160000Y44560000D03*
X6350000Y50800000D03*
X7620000Y53340000D03*
D25*
X10160000Y48260000D03*
D24*
X10160000Y42360000D03*
X12700000Y53340000D03*
X13970000Y50800000D03*
X15160000Y44560000D03*
D23*
X15240000Y48260000D03*
D22*
X15660000Y48260000D03*
D26*
X4560000Y53340000D03*
D27*
X7360000Y42360000D03*
D26*
X17060000Y50800000D03*
X18260000Y44560000D03*
G04 #@! TD*
D22*
G04 #@! TO.C,SW4*
X4660000Y10160000D03*
D23*
X5080000Y10160000D03*
D24*
X5160000Y6460000D03*
X6350000Y12700000D03*
X7620000Y15240000D03*
D25*
X10160000Y10160000D03*
D24*
X10160000Y4260000D03*
X12700000Y15240000D03*
X13970000Y12700000D03*
X15160000Y6460000D03*
D23*
X15240000Y10160000D03*
D22*
X15660000Y10160000D03*
D26*
X4560000Y15240000D03*
D27*
X7360000Y4260000D03*
D26*
X17060000Y12700000D03*
X18260000Y6460000D03*
G04 #@! TD*
D28*
G04 #@! TO.C,D19*
X95905000Y28595000D03*
X95905000Y32145000D03*
G04 #@! TD*
D22*
G04 #@! TO.C,SW22*
X99910000Y48260000D03*
D23*
X100330000Y48260000D03*
D24*
X100410000Y44560000D03*
X101600000Y50800000D03*
X102870000Y53340000D03*
D25*
X105410000Y48260000D03*
D24*
X105410000Y42360000D03*
X107950000Y53340000D03*
X109220000Y50800000D03*
X110410000Y44560000D03*
D23*
X110490000Y48260000D03*
D22*
X110910000Y48260000D03*
D26*
X99810000Y53340000D03*
D27*
X102610000Y42360000D03*
D26*
X112310000Y50800000D03*
X113510000Y44560000D03*
G04 #@! TD*
D29*
G04 #@! TO.C,D5*
X38755000Y66695000D03*
X38755000Y70245000D03*
G04 #@! TD*
D22*
G04 #@! TO.C,SW7*
X23710000Y29210000D03*
D23*
X24130000Y29210000D03*
D24*
X24210000Y25510000D03*
X25400000Y31750000D03*
X26670000Y34290000D03*
D25*
X29210000Y29210000D03*
D24*
X29210000Y23310000D03*
X31750000Y34290000D03*
X33020000Y31750000D03*
X34210000Y25510000D03*
D23*
X34290000Y29210000D03*
D22*
X34710000Y29210000D03*
D26*
X23610000Y34290000D03*
D27*
X26410000Y23310000D03*
D26*
X36110000Y31750000D03*
X37310000Y25510000D03*
G04 #@! TD*
D28*
G04 #@! TO.C,D18*
X95905000Y47645000D03*
X95905000Y51195000D03*
G04 #@! TD*
G04 #@! TO.C,D20*
X95905000Y9545000D03*
X95905000Y13095000D03*
G04 #@! TD*
D22*
G04 #@! TO.C,SW13*
X61810000Y67310000D03*
D23*
X62230000Y67310000D03*
D24*
X62310000Y63610000D03*
X63500000Y69850000D03*
X64770000Y72390000D03*
D25*
X67310000Y67310000D03*
D24*
X67310000Y61410000D03*
X69850000Y72390000D03*
X71120000Y69850000D03*
X72310000Y63610000D03*
D23*
X72390000Y67310000D03*
D22*
X72810000Y67310000D03*
D26*
X61710000Y72390000D03*
D27*
X64510000Y61410000D03*
D26*
X74210000Y69850000D03*
X75410000Y63610000D03*
G04 #@! TD*
D22*
G04 #@! TO.C,SW23*
X99910000Y29210000D03*
D23*
X100330000Y29210000D03*
D24*
X100410000Y25510000D03*
X101600000Y31750000D03*
X102870000Y34290000D03*
D25*
X105410000Y29210000D03*
D24*
X105410000Y23310000D03*
X107950000Y34290000D03*
X109220000Y31750000D03*
X110410000Y25510000D03*
D23*
X110490000Y29210000D03*
D22*
X110910000Y29210000D03*
D26*
X99810000Y34290000D03*
D27*
X102610000Y23310000D03*
D26*
X112310000Y31750000D03*
X113510000Y25510000D03*
G04 #@! TD*
D28*
G04 #@! TO.C,D9*
X57805000Y66695000D03*
X57805000Y70245000D03*
G04 #@! TD*
D22*
G04 #@! TO.C,SW24*
X99910000Y10160000D03*
D23*
X100330000Y10160000D03*
D24*
X100410000Y6460000D03*
X101600000Y12700000D03*
X102870000Y15240000D03*
D25*
X105410000Y10160000D03*
D24*
X105410000Y4260000D03*
X107950000Y15240000D03*
X109220000Y12700000D03*
X110410000Y6460000D03*
D23*
X110490000Y10160000D03*
D22*
X110910000Y10160000D03*
D26*
X99810000Y15240000D03*
D27*
X102610000Y4260000D03*
D26*
X112310000Y12700000D03*
X113510000Y6460000D03*
G04 #@! TD*
D28*
G04 #@! TO.C,D6*
X38755000Y47645000D03*
X38755000Y51195000D03*
G04 #@! TD*
D22*
G04 #@! TO.C,SW21*
X99910000Y67310000D03*
D23*
X100330000Y67310000D03*
D24*
X100410000Y63610000D03*
X101600000Y69850000D03*
X102870000Y72390000D03*
D25*
X105410000Y67310000D03*
D24*
X105410000Y61410000D03*
X107950000Y72390000D03*
X109220000Y69850000D03*
X110410000Y63610000D03*
D23*
X110490000Y67310000D03*
D22*
X110910000Y67310000D03*
D26*
X99810000Y72390000D03*
D27*
X102610000Y61410000D03*
D26*
X112310000Y69850000D03*
X113510000Y63610000D03*
G04 #@! TD*
D28*
G04 #@! TO.C,D22*
X114955000Y47645000D03*
X114955000Y51195000D03*
G04 #@! TD*
G04 #@! TO.C,D12*
X57805000Y9545000D03*
X57805000Y13095000D03*
G04 #@! TD*
D22*
G04 #@! TO.C,SW1*
X4660000Y67310000D03*
D23*
X5080000Y67310000D03*
D24*
X5160000Y63610000D03*
X6350000Y69850000D03*
X7620000Y72390000D03*
D25*
X10160000Y67310000D03*
D24*
X10160000Y61410000D03*
X12700000Y72390000D03*
X13970000Y69850000D03*
X15160000Y63610000D03*
D23*
X15240000Y67310000D03*
D22*
X15660000Y67310000D03*
D26*
X4560000Y72390000D03*
D27*
X7360000Y61410000D03*
D26*
X17060000Y69850000D03*
X18260000Y63610000D03*
G04 #@! TD*
D28*
G04 #@! TO.C,D28*
X134005000Y9545000D03*
X134005000Y13095000D03*
G04 #@! TD*
D22*
G04 #@! TO.C,SW9*
X42760000Y67310000D03*
D23*
X43180000Y67310000D03*
D24*
X43260000Y63610000D03*
X44450000Y69850000D03*
X45720000Y72390000D03*
D25*
X48260000Y67310000D03*
D24*
X48260000Y61410000D03*
X50800000Y72390000D03*
X52070000Y69850000D03*
X53260000Y63610000D03*
D23*
X53340000Y67310000D03*
D22*
X53760000Y67310000D03*
D26*
X42660000Y72390000D03*
D27*
X45460000Y61410000D03*
D26*
X55160000Y69850000D03*
X56360000Y63610000D03*
G04 #@! TD*
D28*
G04 #@! TO.C,D15*
X76855000Y28595000D03*
X76855000Y32145000D03*
G04 #@! TD*
G04 #@! TO.C,D21*
X114955000Y66695000D03*
X114955000Y70245000D03*
G04 #@! TD*
D22*
G04 #@! TO.C,SW3*
X4660000Y29210000D03*
D23*
X5080000Y29210000D03*
D24*
X5160000Y25510000D03*
X6350000Y31750000D03*
X7620000Y34290000D03*
D25*
X10160000Y29210000D03*
D24*
X10160000Y23310000D03*
X12700000Y34290000D03*
X13970000Y31750000D03*
X15160000Y25510000D03*
D23*
X15240000Y29210000D03*
D22*
X15660000Y29210000D03*
D26*
X4560000Y34290000D03*
D27*
X7360000Y23310000D03*
D26*
X17060000Y31750000D03*
X18260000Y25510000D03*
G04 #@! TD*
D22*
G04 #@! TO.C,SW14*
X61810000Y48260000D03*
D23*
X62230000Y48260000D03*
D24*
X62310000Y44560000D03*
X63500000Y50800000D03*
X64770000Y53340000D03*
D25*
X67310000Y48260000D03*
D24*
X67310000Y42360000D03*
X69850000Y53340000D03*
X71120000Y50800000D03*
X72310000Y44560000D03*
D23*
X72390000Y48260000D03*
D22*
X72810000Y48260000D03*
D26*
X61710000Y53340000D03*
D27*
X64510000Y42360000D03*
D26*
X74210000Y50800000D03*
X75410000Y44560000D03*
G04 #@! TD*
D28*
G04 #@! TO.C,D24*
X114955000Y9545000D03*
X114955000Y13095000D03*
G04 #@! TD*
D22*
G04 #@! TO.C,SW12*
X42760000Y10160000D03*
D23*
X43180000Y10160000D03*
D24*
X43260000Y6460000D03*
X44450000Y12700000D03*
X45720000Y15240000D03*
D25*
X48260000Y10160000D03*
D24*
X48260000Y4260000D03*
X50800000Y15240000D03*
X52070000Y12700000D03*
X53260000Y6460000D03*
D23*
X53340000Y10160000D03*
D22*
X53760000Y10160000D03*
D26*
X42660000Y15240000D03*
D27*
X45460000Y4260000D03*
D26*
X55160000Y12700000D03*
X56360000Y6460000D03*
G04 #@! TD*
D29*
G04 #@! TO.C,D2*
X19705000Y47645000D03*
X19705000Y51195000D03*
G04 #@! TD*
D22*
G04 #@! TO.C,SW10*
X42760000Y48260000D03*
D23*
X43180000Y48260000D03*
D24*
X43260000Y44560000D03*
X44450000Y50800000D03*
X45720000Y53340000D03*
D25*
X48260000Y48260000D03*
D24*
X48260000Y42360000D03*
X50800000Y53340000D03*
X52070000Y50800000D03*
X53260000Y44560000D03*
D23*
X53340000Y48260000D03*
D22*
X53760000Y48260000D03*
D26*
X42660000Y53340000D03*
D27*
X45460000Y42360000D03*
D26*
X55160000Y50800000D03*
X56360000Y44560000D03*
G04 #@! TD*
D22*
G04 #@! TO.C,SW18*
X80860000Y48260000D03*
D23*
X81280000Y48260000D03*
D24*
X81360000Y44560000D03*
X82550000Y50800000D03*
X83820000Y53340000D03*
D25*
X86360000Y48260000D03*
D24*
X86360000Y42360000D03*
X88900000Y53340000D03*
X90170000Y50800000D03*
X91360000Y44560000D03*
D23*
X91440000Y48260000D03*
D22*
X91860000Y48260000D03*
D26*
X80760000Y53340000D03*
D27*
X83560000Y42360000D03*
D26*
X93260000Y50800000D03*
X94460000Y44560000D03*
G04 #@! TD*
D28*
G04 #@! TO.C,D7*
X38755000Y28595000D03*
X38755000Y32145000D03*
G04 #@! TD*
D22*
G04 #@! TO.C,SW16*
X61810000Y10160000D03*
D23*
X62230000Y10160000D03*
D24*
X62310000Y6460000D03*
X63500000Y12700000D03*
X64770000Y15240000D03*
D25*
X67310000Y10160000D03*
D24*
X67310000Y4260000D03*
X69850000Y15240000D03*
X71120000Y12700000D03*
X72310000Y6460000D03*
D23*
X72390000Y10160000D03*
D22*
X72810000Y10160000D03*
D26*
X61710000Y15240000D03*
D27*
X64510000Y4260000D03*
D26*
X74210000Y12700000D03*
X75410000Y6460000D03*
G04 #@! TD*
D22*
G04 #@! TO.C,SW25*
X118960000Y67310000D03*
D23*
X119380000Y67310000D03*
D24*
X119460000Y63610000D03*
X120650000Y69850000D03*
X121920000Y72390000D03*
D25*
X124460000Y67310000D03*
D24*
X124460000Y61410000D03*
X127000000Y72390000D03*
X128270000Y69850000D03*
X129460000Y63610000D03*
D23*
X129540000Y67310000D03*
D22*
X129960000Y67310000D03*
D26*
X118860000Y72390000D03*
D27*
X121660000Y61410000D03*
D26*
X131360000Y69850000D03*
X132560000Y63610000D03*
G04 #@! TD*
D28*
G04 #@! TO.C,D26*
X134005000Y47645000D03*
X134005000Y51195000D03*
G04 #@! TD*
D29*
G04 #@! TO.C,D1*
X19705000Y66695000D03*
X19705000Y70245000D03*
G04 #@! TD*
D22*
G04 #@! TO.C,SW15*
X61810000Y29210000D03*
D23*
X62230000Y29210000D03*
D24*
X62310000Y25510000D03*
X63500000Y31750000D03*
X64770000Y34290000D03*
D25*
X67310000Y29210000D03*
D24*
X67310000Y23310000D03*
X69850000Y34290000D03*
X71120000Y31750000D03*
X72310000Y25510000D03*
D23*
X72390000Y29210000D03*
D22*
X72810000Y29210000D03*
D26*
X61710000Y34290000D03*
D27*
X64510000Y23310000D03*
D26*
X74210000Y31750000D03*
X75410000Y25510000D03*
G04 #@! TD*
D22*
G04 #@! TO.C,SW27*
X118960000Y29210000D03*
D23*
X119380000Y29210000D03*
D24*
X119460000Y25510000D03*
X120650000Y31750000D03*
X121920000Y34290000D03*
D25*
X124460000Y29210000D03*
D24*
X124460000Y23310000D03*
X127000000Y34290000D03*
X128270000Y31750000D03*
X129460000Y25510000D03*
D23*
X129540000Y29210000D03*
D22*
X129960000Y29210000D03*
D26*
X118860000Y34290000D03*
D27*
X121660000Y23310000D03*
D26*
X131360000Y31750000D03*
X132560000Y25510000D03*
G04 #@! TD*
D28*
G04 #@! TO.C,D23*
X114955000Y28595000D03*
X114955000Y32145000D03*
G04 #@! TD*
D22*
G04 #@! TO.C,SW5*
X23710000Y67310000D03*
D23*
X24130000Y67310000D03*
D24*
X24210000Y63610000D03*
X25400000Y69850000D03*
X26670000Y72390000D03*
D25*
X29210000Y67310000D03*
D24*
X29210000Y61410000D03*
X31750000Y72390000D03*
X33020000Y69850000D03*
X34210000Y63610000D03*
D23*
X34290000Y67310000D03*
D22*
X34710000Y67310000D03*
D26*
X23610000Y72390000D03*
D27*
X26410000Y61410000D03*
D26*
X36110000Y69850000D03*
X37310000Y63610000D03*
G04 #@! TD*
D22*
G04 #@! TO.C,SW20*
X80860000Y10160000D03*
D23*
X81280000Y10160000D03*
D24*
X81360000Y6460000D03*
X82550000Y12700000D03*
X83820000Y15240000D03*
D25*
X86360000Y10160000D03*
D24*
X86360000Y4260000D03*
X88900000Y15240000D03*
X90170000Y12700000D03*
X91360000Y6460000D03*
D23*
X91440000Y10160000D03*
D22*
X91860000Y10160000D03*
D26*
X80760000Y15240000D03*
D27*
X83560000Y4260000D03*
D26*
X93260000Y12700000D03*
X94460000Y6460000D03*
G04 #@! TD*
D28*
G04 #@! TO.C,D17*
X95905000Y66695000D03*
X95905000Y70245000D03*
G04 #@! TD*
G04 #@! TO.C,D27*
X134005000Y28595000D03*
X134005000Y32145000D03*
G04 #@! TD*
D22*
G04 #@! TO.C,SW11*
X42760000Y29210000D03*
D23*
X43180000Y29210000D03*
D24*
X43260000Y25510000D03*
X44450000Y31750000D03*
X45720000Y34290000D03*
D25*
X48260000Y29210000D03*
D24*
X48260000Y23310000D03*
X50800000Y34290000D03*
X52070000Y31750000D03*
X53260000Y25510000D03*
D23*
X53340000Y29210000D03*
D22*
X53760000Y29210000D03*
D26*
X42660000Y34290000D03*
D27*
X45460000Y23310000D03*
D26*
X55160000Y31750000D03*
X56360000Y25510000D03*
G04 #@! TD*
D28*
G04 #@! TO.C,D4*
X19705000Y9545000D03*
X19705000Y13095000D03*
G04 #@! TD*
G04 #@! TO.C,D10*
X57805000Y47645000D03*
X57805000Y51195000D03*
G04 #@! TD*
G04 #@! TO.C,D16*
X76855000Y9545000D03*
X76855000Y13095000D03*
G04 #@! TD*
D22*
G04 #@! TO.C,SW26*
X118960000Y48260000D03*
D23*
X119380000Y48260000D03*
D24*
X119460000Y44560000D03*
X120650000Y50800000D03*
X121920000Y53340000D03*
D25*
X124460000Y48260000D03*
D24*
X124460000Y42360000D03*
X127000000Y53340000D03*
X128270000Y50800000D03*
X129460000Y44560000D03*
D23*
X129540000Y48260000D03*
D22*
X129960000Y48260000D03*
D26*
X118860000Y53340000D03*
D27*
X121660000Y42360000D03*
D26*
X131360000Y50800000D03*
X132560000Y44560000D03*
G04 #@! TD*
D28*
G04 #@! TO.C,D14*
X76855000Y47645000D03*
X76855000Y51195000D03*
G04 #@! TD*
D22*
G04 #@! TO.C,SW28*
X118960000Y10160000D03*
D23*
X119380000Y10160000D03*
D24*
X119460000Y6460000D03*
X120650000Y12700000D03*
X121920000Y15240000D03*
D25*
X124460000Y10160000D03*
D24*
X124460000Y4260000D03*
X127000000Y15240000D03*
X128270000Y12700000D03*
X129460000Y6460000D03*
D23*
X129540000Y10160000D03*
D22*
X129960000Y10160000D03*
D26*
X118860000Y15240000D03*
D27*
X121660000Y4260000D03*
D26*
X131360000Y12700000D03*
X132560000Y6460000D03*
G04 #@! TD*
D28*
G04 #@! TO.C,D3*
X19705000Y28595000D03*
X19705000Y32145000D03*
G04 #@! TD*
G04 #@! TO.C,D8*
X38755000Y9545000D03*
X38755000Y13095000D03*
G04 #@! TD*
D22*
G04 #@! TO.C,SW17*
X80860000Y67310000D03*
D23*
X81280000Y67310000D03*
D24*
X81360000Y63610000D03*
X82550000Y69850000D03*
X83820000Y72390000D03*
D25*
X86360000Y67310000D03*
D24*
X86360000Y61410000D03*
X88900000Y72390000D03*
X90170000Y69850000D03*
X91360000Y63610000D03*
D23*
X91440000Y67310000D03*
D22*
X91860000Y67310000D03*
D26*
X80760000Y72390000D03*
D27*
X83560000Y61410000D03*
D26*
X93260000Y69850000D03*
X94460000Y63610000D03*
G04 #@! TD*
D28*
G04 #@! TO.C,D13*
X76855000Y66695000D03*
X76855000Y70245000D03*
G04 #@! TD*
D22*
G04 #@! TO.C,SW6*
X23710000Y48260000D03*
D23*
X24130000Y48260000D03*
D24*
X24210000Y44560000D03*
X25400000Y50800000D03*
X26670000Y53340000D03*
D25*
X29210000Y48260000D03*
D24*
X29210000Y42360000D03*
X31750000Y53340000D03*
X33020000Y50800000D03*
X34210000Y44560000D03*
D23*
X34290000Y48260000D03*
D22*
X34710000Y48260000D03*
D26*
X23610000Y53340000D03*
D27*
X26410000Y42360000D03*
D26*
X36110000Y50800000D03*
X37310000Y44560000D03*
G04 #@! TD*
D22*
G04 #@! TO.C,SW19*
X80860000Y29210000D03*
D23*
X81280000Y29210000D03*
D24*
X81360000Y25510000D03*
X82550000Y31750000D03*
X83820000Y34290000D03*
D25*
X86360000Y29210000D03*
D24*
X86360000Y23310000D03*
X88900000Y34290000D03*
X90170000Y31750000D03*
X91360000Y25510000D03*
D23*
X91440000Y29210000D03*
D22*
X91860000Y29210000D03*
D26*
X80760000Y34290000D03*
D27*
X83560000Y23310000D03*
D26*
X93260000Y31750000D03*
X94460000Y25510000D03*
G04 #@! TD*
D28*
G04 #@! TO.C,D11*
X57805000Y28595000D03*
X57805000Y32145000D03*
G04 #@! TD*
G04 #@! TO.C,D25*
X134005000Y66695000D03*
X134005000Y70245000D03*
G04 #@! TD*
D22*
G04 #@! TO.C,SW8*
X23710000Y10160000D03*
D23*
X24130000Y10160000D03*
D24*
X24210000Y6460000D03*
X25400000Y12700000D03*
X26670000Y15240000D03*
D25*
X29210000Y10160000D03*
D24*
X29210000Y4260000D03*
X31750000Y15240000D03*
X33020000Y12700000D03*
X34210000Y6460000D03*
D23*
X34290000Y10160000D03*
D22*
X34710000Y10160000D03*
D26*
X23610000Y15240000D03*
D27*
X26410000Y4260000D03*
D26*
X36110000Y12700000D03*
X37310000Y6460000D03*
G04 #@! TD*
%LPD*%
M02*
